<?xml version="1.0" encoding="utf-8"?>
<!-- Generator: Adobe Illustrator 19.2.0, SVG Export Plug-In . SVG Version: 6.00 Build 0)  -->
<svg version="1.1" id="Layer_1" xmlns="http://www.w3.org/2000/svg" xmlns:xlink="http://www.w3.org/1999/xlink" x="0px" y="0px"
	 width="411px" height="2863px" viewBox="0 0 411 2863" style="enable-background:new 0 0 411 2863;" xml:space="preserve">
<style type="text/css">
	.st0{fill-rule:evenodd;clip-rule:evenodd;fill:#1A1A1A;}
</style>
<path class="st0" d="M0.6,2862.5v-111.7h410.4v111.7H0.6z M265,2537.5c0,57.3-10.8,100.9-32.4,130.9c-21.6,30-53.6,45.1-95.9,45.1
	c-43.8,0-77.4-14.9-100.9-44.8c-23.5-29.9-35.2-72.2-35.2-127v-121.3h410.4v111.4H265V2537.5z M181,2531.8H86.2v4.5
	c0,43.4,16.1,65.1,48.3,65.1c31.1,0,46.6-21.9,46.6-65.7V2531.8z M320.3,2261.8H0.6v-110.9h319.7v-100.2h90.7v311h-90.7V2261.8z
	 M0.6,1880.6h167.3v-128.8H0.6v-111.4h410.4v111.4H258.8v128.8h152.1v111.4H0.6V1880.6z M322,1435.7h-64.6v122.9h-89v-122.9H90.9
	v132.8H0.6v-243.6h410.4v243.6h-89V1435.7z M0.6,1137.9h171.8c26,0,64.9,1.7,116.8,5.1v-2.2L0.6,975.6V838.9h410.4v98.8H234.7
	c-18.7,0-56.1-1.5-112.3-4.5v2.2l288.6,163.6v137H0.6V1137.9z M0.6,638.8h319.7v-78.3c-46.6-4.3-94-10.1-142.3-17.3
	c-48.3-7.2-82.2-14.1-101.6-20.6c-19.5-6.6-34.9-14.8-46.5-24.8c-11.5-10-20.2-22.4-26.1-37.2c-5.9-14.8-8.8-32.7-8.8-53.6
	c0-15.9,2.1-30.4,6.2-43.5h85.6c-3.7,11.2-5.6,20.4-5.6,27.5c0,9.7,4.1,17.2,12.2,22.3c8.1,5.1,22,9.9,41.5,14.2
	c19.6,4.3,55.9,10.3,108.9,18c53.1,7.7,108.8,14.8,167.2,21.3v283.5H0.6V638.8z M0.6,358.9V233.5l208-121.8H0.6V0.2h410.4v111.4
	H212.2L410.9,229v121.8L215,224.2L0.6,358.9z"/>
</svg>
