<?xml version="1.0" encoding="utf-8"?>
<!-- Generator: Adobe Illustrator 19.2.0, SVG Export Plug-In . SVG Version: 6.00 Build 0)  -->
<svg version="1.1" id="Layer_1" xmlns="http://www.w3.org/2000/svg" xmlns:xlink="http://www.w3.org/1999/xlink" x="0px" y="0px"
	 width="116px" height="117px" viewBox="0 0 116 117" style="enable-background:new 0 0 116 117;" xml:space="preserve">
<style type="text/css">
	.st0{fill:#FFFFFF;}
</style>
<path class="st0" d="M89.4,41.4c-1.7,0-16.3,1.2-35.8-19.7c0,0,0-0.1,0-0.1C40.4,9.9,33.8,6.9,24.9,6.9c-9.5,0-16.6,6.3-16.6,14
	c0,7.7,7.7,14,17.6,14c13.3,0,15.4-8.5,19.1-4.6c0.5,0.5,1.2,0.9,1.9,1.6c3.3,3.3-13.3,9.5-21.5,9.5c-5.6,0-25-3.8-25-20.5
	S19,0.4,25.9,0.4c1.7,0,16.3-1.2,35.8,19.7c0,0,0,0.1,0,0.1c13.1,11.6,19.8,14.6,28.6,14.6c9.5,0,16.6-6.3,16.6-14
	c0-7.7-7.7-14-17.6-14c-13.3,0-15.4,8.5-19.1,4.6c-0.5-0.5-1.2-0.9-1.9-1.6c-3.3-3.3,13.3-9.5,21.5-9.5c5.6,0,25,3.8,25,20.5
	S96.3,41.4,89.4,41.4z M15.1,87H12V71.4H3.4V87H0.3V68.7h14.8V87z M3.4,107l9.2-8.8h4.1l-8.6,8.1l8.7,10.2h-4l-7.1-8.3l-2.3,1.9v6.4
	H0.3V98.1h3.1V107z M20.8,100.2c0.7-0.8,1.6-1.5,2.7-1.9c1-0.4,2.2-0.7,3.6-0.7c1.3,0,2.5,0.2,3.6,0.7c1.1,0.4,1.9,1.1,2.7,1.9
	c0.7,0.8,1.3,1.9,1.7,3.1c0.4,1.2,0.6,2.5,0.6,4c0,1.5-0.2,2.9-0.6,4.1c-0.4,1.2-0.9,2.2-1.7,3.1c-0.7,0.8-1.6,1.5-2.7,1.9
	c-1.1,0.4-2.2,0.7-3.6,0.7c-1.3,0-2.5-0.2-3.6-0.7c-1-0.4-1.9-1.1-2.7-1.9c-0.7-0.8-1.3-1.9-1.7-3.1c-0.4-1.2-0.6-2.6-0.6-4.1
	c0-1.5,0.2-2.8,0.6-4C19.5,102.1,20.1,101,20.8,100.2z M22,110.1c0.2,0.9,0.6,1.6,1,2.2c0.5,0.6,1,1.1,1.7,1.4
	c0.7,0.3,1.4,0.5,2.3,0.5c0.9,0,1.6-0.2,2.3-0.5c0.7-0.3,1.2-0.8,1.7-1.4c0.5-0.6,0.8-1.4,1-2.2c0.2-0.9,0.3-1.8,0.3-2.8
	c0-1-0.1-1.9-0.3-2.8c-0.2-0.8-0.6-1.6-1-2.2c-0.5-0.6-1-1.1-1.7-1.4c-0.7-0.3-1.4-0.5-2.3-0.5c-0.9,0-1.6,0.2-2.3,0.5
	c-0.7,0.3-1.2,0.8-1.7,1.4c-0.5,0.6-0.8,1.3-1,2.2c-0.2,0.8-0.3,1.8-0.3,2.8C21.7,108.3,21.8,109.2,22,110.1z M32.5,87
	c-1,0.4-2.1,0.6-3.3,0.6c-0.6,0-1.2-0.1-1.7-0.2c-0.5-0.2-1-0.4-1.4-0.6c-0.4-0.3-0.8-0.5-1.1-0.9c-0.3-0.3-0.5-0.6-0.7-0.9h-0.1
	v9.3h-3.1V68.7h3.1v2.5h0.1c0.2-0.4,0.5-0.8,0.8-1.2c0.3-0.4,0.7-0.7,1.1-1c0.4-0.3,0.9-0.5,1.5-0.7c0.6-0.2,1.2-0.2,2-0.2
	c1,0,1.9,0.2,2.8,0.6c0.9,0.4,1.7,0.9,2.4,1.7c0.7,0.8,1.2,1.7,1.7,2.8c0.4,1.1,0.6,2.5,0.6,4c0,1.9-0.2,3.5-0.6,4.8
	c-0.4,1.3-0.9,2.4-1.6,3.2C34.3,86,33.5,86.6,32.5,87z M33.8,75.1c-0.2-0.9-0.5-1.6-0.9-2.2c-0.4-0.6-0.9-1.1-1.6-1.5
	c-0.6-0.3-1.4-0.5-2.2-0.5c-0.8,0-1.6,0.2-2.2,0.5c-0.6,0.3-1.1,0.8-1.5,1.5c-0.4,0.6-0.7,1.4-0.9,2.2c-0.2,0.9-0.3,1.8-0.3,2.9
	c0,1,0.1,1.9,0.3,2.7c0.2,0.8,0.5,1.6,0.9,2.2c0.4,0.6,0.9,1.1,1.5,1.4c0.6,0.3,1.3,0.5,2.2,0.5c0.9,0,1.6-0.2,2.2-0.5
	c0.6-0.3,1.2-0.8,1.6-1.4c0.4-0.6,0.7-1.3,0.9-2.2c0.2-0.8,0.3-1.8,0.3-2.7C34.1,76.9,34,75.9,33.8,75.1z M40.6,100.2
	c0.7-0.8,1.6-1.5,2.5-1.9c1-0.5,2-0.7,3-0.7c1,0,1.8,0.1,2.5,0.3c0.7,0.2,1.4,0.5,1.9,0.8c0.5,0.3,1,0.7,1.4,1.2
	c0.4,0.4,0.7,0.9,0.9,1.4c0.2,0.5,0.4,1,0.5,1.5c0.1,0.5,0.2,1,0.2,1.5h-2.9c-0.2-1.2-0.6-2.2-1.3-2.9c-0.7-0.7-1.7-1.1-2.9-1.1
	c-0.9,0-1.6,0.2-2.3,0.5c-0.6,0.4-1.2,0.8-1.6,1.5c-0.4,0.6-0.7,1.4-1,2.3c-0.2,0.9-0.3,1.9-0.3,2.9c0,1.2,0.1,2.2,0.3,3.1
	c0.2,0.9,0.6,1.6,1,2.2c0.4,0.6,0.9,1,1.5,1.2c0.6,0.3,1.3,0.4,2.1,0.4c0.5,0,1.1-0.1,1.6-0.3c0.5-0.2,0.9-0.5,1.3-0.9
	c0.4-0.4,0.7-0.9,1-1.4c0.3-0.6,0.5-1.2,0.6-1.9h2.9c0,0.4-0.1,0.9-0.3,1.5c-0.1,0.5-0.3,1-0.6,1.6c-0.3,0.5-0.6,1-1,1.5
	c-0.4,0.5-0.9,0.9-1.4,1.3c-0.6,0.4-1.2,0.7-2,0.9c-0.8,0.2-1.6,0.3-2.6,0.3c-0.5,0-1.1-0.1-1.7-0.2c-0.6-0.1-1.2-0.4-1.7-0.7
	c-0.6-0.3-1.1-0.7-1.6-1.2c-0.5-0.5-1-1.1-1.3-1.8c-0.4-0.7-0.7-1.6-0.9-2.5c-0.2-1-0.3-2-0.3-3.3c0-1.5,0.2-2.9,0.6-4.1
	C39.3,102.1,39.8,101.1,40.6,100.2z M49.8,87.5c-1.3,0-2.5-0.2-3.6-0.7c-1-0.4-1.9-1.1-2.7-1.9c-0.7-0.8-1.3-1.9-1.7-3.1
	c-0.4-1.2-0.6-2.6-0.6-4.1c0-1.5,0.2-2.8,0.6-4c0.4-1.2,0.9-2.2,1.7-3.1c0.7-0.8,1.6-1.5,2.7-1.9c1-0.4,2.2-0.7,3.6-0.7
	c1.3,0,2.5,0.2,3.6,0.7c1.1,0.4,1.9,1.1,2.7,1.9c0.7,0.8,1.3,1.9,1.7,3.1c0.4,1.2,0.6,2.5,0.6,4c0,1.5-0.2,2.9-0.6,4.1
	c-0.4,1.2-0.9,2.2-1.7,3.1c-0.7,0.8-1.6,1.5-2.7,1.9C52.3,87.3,51.1,87.5,49.8,87.5z M53.8,82.8c0.5-0.6,0.8-1.4,1-2.2
	c0.2-0.9,0.3-1.8,0.3-2.8c0-1-0.1-1.9-0.3-2.8c-0.2-0.8-0.6-1.6-1-2.2c-0.5-0.6-1-1.1-1.7-1.4c-0.7-0.3-1.4-0.5-2.3-0.5
	c-0.9,0-1.6,0.2-2.3,0.5c-0.7,0.3-1.2,0.8-1.7,1.4c-0.5,0.6-0.8,1.3-1,2.2c-0.2,0.8-0.3,1.8-0.3,2.8c0,1,0.1,2,0.3,2.8
	c0.2,0.9,0.6,1.6,1,2.2c0.5,0.6,1,1.1,1.7,1.4c0.7,0.3,1.4,0.5,2.3,0.5c0.9,0,1.6-0.2,2.3-0.5C52.7,83.9,53.3,83.4,53.8,82.8z
	 M66.3,113.1L66.3,113.1l5-15h4.3v18.3h-2.9v-14.7h-0.1l-4.8,14.7h-3l-4.8-14.7h-0.1v14.7h-2.9V98.1h4.6L66.3,113.1z M74.5,86.3
	c-0.6,0.4-1.2,0.7-2,0.9c-0.8,0.2-1.6,0.3-2.6,0.3c-0.5,0-1.1-0.1-1.7-0.2c-0.6-0.1-1.2-0.4-1.7-0.7c-0.6-0.3-1.1-0.7-1.6-1.2
	c-0.5-0.5-1-1.1-1.3-1.8c-0.4-0.7-0.7-1.6-0.9-2.5c-0.2-1-0.3-2-0.3-3.3c0-1.5,0.2-2.9,0.6-4.1c0.4-1.2,1-2.2,1.7-3.1
	c0.7-0.8,1.6-1.5,2.5-1.9c1-0.5,2-0.7,3-0.7c1,0,1.8,0.1,2.5,0.3c0.7,0.2,1.4,0.5,1.9,0.8c0.5,0.3,1,0.7,1.4,1.2
	c0.4,0.4,0.7,0.9,0.9,1.4c0.2,0.5,0.4,1,0.5,1.5c0.1,0.5,0.2,1,0.2,1.5h-2.9c-0.2-1.2-0.6-2.2-1.3-2.9c-0.7-0.7-1.7-1.1-2.9-1.1
	c-0.9,0-1.6,0.2-2.3,0.5c-0.6,0.4-1.2,0.8-1.6,1.5c-0.4,0.6-0.7,1.4-1,2.3c-0.2,0.9-0.3,1.9-0.3,2.9c0,1.2,0.1,2.2,0.3,3.1
	c0.2,0.9,0.6,1.6,1,2.2c0.4,0.6,0.9,1,1.5,1.2c0.6,0.3,1.3,0.4,2.1,0.4c0.5,0,1.1-0.1,1.6-0.3c0.5-0.2,0.9-0.5,1.3-0.9
	c0.4-0.4,0.7-0.9,1-1.4c0.3-0.6,0.5-1.2,0.6-1.9h2.9c0,0.4-0.1,0.9-0.3,1.5c-0.1,0.5-0.3,1-0.6,1.6c-0.3,0.5-0.6,1-1,1.5
	C75.6,85.5,75.1,85.9,74.5,86.3z M81.6,100.2c0.7-0.8,1.6-1.5,2.7-1.9c1-0.4,2.2-0.7,3.6-0.7s2.5,0.2,3.6,0.7
	c1.1,0.4,1.9,1.1,2.7,1.9c0.7,0.8,1.3,1.9,1.7,3.1c0.4,1.2,0.6,2.5,0.6,4c0,1.5-0.2,2.9-0.6,4.1c-0.4,1.2-0.9,2.2-1.7,3.1
	c-0.7,0.8-1.6,1.5-2.7,1.9c-1.1,0.4-2.2,0.7-3.6,0.7s-2.5-0.2-3.6-0.7c-1-0.4-1.9-1.1-2.7-1.9c-0.7-0.8-1.3-1.9-1.7-3.1
	c-0.4-1.2-0.6-2.6-0.6-4.1c0-1.5,0.2-2.8,0.6-4C80.3,102.1,80.8,101,81.6,100.2z M82.8,110.1c0.2,0.9,0.6,1.6,1,2.2
	c0.5,0.6,1,1.1,1.7,1.4c0.7,0.3,1.4,0.5,2.3,0.5c0.9,0,1.6-0.2,2.3-0.5c0.7-0.3,1.2-0.8,1.7-1.4c0.5-0.6,0.8-1.4,1-2.2
	c0.2-0.9,0.3-1.8,0.3-2.8c0-1-0.1-1.9-0.3-2.8c-0.2-0.8-0.6-1.6-1-2.2c-0.5-0.6-1-1.1-1.7-1.4c-0.7-0.3-1.4-0.5-2.3-0.5
	c-0.9,0-1.6,0.2-2.3,0.5c-0.7,0.3-1.2,0.8-1.7,1.4c-0.5,0.6-0.8,1.3-1,2.2c-0.2,0.8-0.3,1.8-0.3,2.8
	C82.4,108.3,82.6,109.2,82.8,110.1z M87.3,87V71.4H81v-2.7h15.7v2.7h-6.3V87H87.3z M100.6,70.7c0.7-0.8,1.6-1.5,2.7-1.9
	c1-0.4,2.2-0.7,3.6-0.7s2.5,0.2,3.6,0.7c1.1,0.4,1.9,1.1,2.7,1.9c0.7,0.8,1.3,1.9,1.7,3.1c0.4,1.2,0.6,2.5,0.6,4
	c0,1.5-0.2,2.9-0.6,4.1c-0.4,1.2-0.9,2.2-1.7,3.1c-0.7,0.8-1.6,1.5-2.7,1.9c-1.1,0.4-2.2,0.7-3.6,0.7s-2.5-0.2-3.6-0.7
	c-1-0.4-1.9-1.1-2.7-1.9c-0.7-0.8-1.3-1.9-1.7-3.1c-0.4-1.2-0.6-2.6-0.6-4.1c0-1.5,0.2-2.8,0.6-4C99.3,72.6,99.8,71.6,100.6,70.7z
	 M101.8,80.6c0.2,0.9,0.6,1.6,1,2.2c0.5,0.6,1,1.1,1.7,1.4c0.7,0.3,1.4,0.5,2.3,0.5c0.9,0,1.6-0.2,2.3-0.5c0.7-0.3,1.2-0.8,1.7-1.4
	c0.5-0.6,0.8-1.4,1-2.2c0.2-0.9,0.3-1.8,0.3-2.8c0-1-0.1-1.9-0.3-2.8c-0.2-0.8-0.6-1.6-1-2.2c-0.5-0.6-1-1.1-1.7-1.4
	c-0.7-0.3-1.4-0.5-2.3-0.5c-0.9,0-1.6,0.2-2.3,0.5c-0.7,0.3-1.2,0.8-1.7,1.4c-0.5,0.6-0.8,1.3-1,2.2c-0.2,0.8-0.3,1.8-0.3,2.8
	C101.5,78.8,101.6,79.8,101.8,80.6z M101.3,100.2c0.7-0.8,1.6-1.5,2.5-1.9c1-0.5,2-0.7,3-0.7c1,0,1.8,0.1,2.5,0.3
	c0.7,0.2,1.4,0.5,1.9,0.8c0.5,0.3,1,0.7,1.4,1.2c0.4,0.4,0.7,0.9,0.9,1.4c0.2,0.5,0.4,1,0.5,1.5c0.1,0.5,0.2,1,0.2,1.5h-2.9
	c-0.2-1.2-0.6-2.2-1.3-2.9c-0.7-0.7-1.7-1.1-2.9-1.1c-0.9,0-1.6,0.2-2.3,0.5c-0.6,0.4-1.2,0.8-1.6,1.5c-0.4,0.6-0.7,1.4-1,2.3
	c-0.2,0.9-0.3,1.9-0.3,2.9c0,1.2,0.1,2.2,0.3,3.1c0.2,0.9,0.6,1.6,1,2.2c0.4,0.6,0.9,1,1.5,1.2c0.6,0.3,1.3,0.4,2.1,0.4
	c0.5,0,1.1-0.1,1.6-0.3c0.5-0.2,0.9-0.5,1.3-0.9c0.4-0.4,0.7-0.9,1-1.4c0.3-0.6,0.5-1.2,0.6-1.9h2.9c0,0.4-0.1,0.9-0.3,1.5
	c-0.1,0.5-0.3,1-0.6,1.6c-0.3,0.5-0.6,1-1,1.5c-0.4,0.5-0.9,0.9-1.4,1.3c-0.6,0.4-1.2,0.7-2,0.9c-0.8,0.2-1.6,0.3-2.6,0.3
	c-0.5,0-1.1-0.1-1.7-0.2c-0.6-0.1-1.2-0.4-1.7-0.7c-0.6-0.3-1.1-0.7-1.6-1.2c-0.5-0.5-1-1.1-1.3-1.8c-0.4-0.7-0.7-1.6-0.9-2.5
	c-0.2-1-0.3-2-0.3-3.3c0-1.5,0.2-2.9,0.6-4.1C100,102.1,100.6,101.1,101.3,100.2z"/>
</svg>
