<?xml version="1.0" encoding="utf-8"?>
<!-- Generator: Adobe Illustrator 19.2.0, SVG Export Plug-In . SVG Version: 6.00 Build 0)  -->
<svg version="1.1" id="Layer_1" xmlns="http://www.w3.org/2000/svg" xmlns:xlink="http://www.w3.org/1999/xlink" x="0px" y="0px"
	 width="157px" height="185px" viewBox="0 0 157 185" style="enable-background:new 0 0 157 185;" xml:space="preserve">
<style type="text/css">
	.st0{fill-rule:evenodd;clip-rule:evenodd;fill:#FFFFFF;}
</style>
<path class="st0" d="M151.5,184.5H142h-6c-0.6,0-1-0.4-1-1v-0.2V183v-7.5v-0.2V175c0-0.4,0.2-0.7,0.5-0.9c0,0-0.1-0.1-0.1-0.1h0.5
	h14.2c1,0,1.7-0.8,1.7-1.7v-0.5c0-1-0.8-1.7-1.7-1.7h-14.2h-0.5c0,0,0-0.1,0.1-0.1c-0.3-0.2-0.5-0.5-0.5-0.9v-0.5c0-0.6,0.4-1,1-1
	h3.5H150h1c0.3,0,0.6,0.1,0.8,0.4c1.6,0.7,2.7,2.3,2.7,4.1c0,0.8-0.2,1.5-0.5,2.1c0.3,0.2,0.5,0.5,0.5,0.9v0c1.2,0.9,2,2.3,2,4v0.5
	C156.5,182.2,154.3,184.5,151.5,184.5z M154,179c0-1.4-1.1-2.5-2.5-2.5H150h-10.5h-1.8h-0.2v5.5h0.2h13.8c1.4,0,2.5-1.1,2.5-2.5V179
	z M98.7,147.8v-2.2v-1.8V81.9L16.9,34.7l0-0.1L16,34.1c0.7-1.1,1.5-2.2,2.3-3.3l3.5,2c0,0,0,0,0,0.1l81,46.7l-0.2,0.2h0.2v62.6
	c27.6-9.8,47.3-36,47.3-66.9c0-7-1-13.8-2.9-20.2l-34.9,20.2l-1.4,1.4L24.8,27.2l0-0.1l-2.4-1.4c13.7-15.4,33.8-25.2,56-25.2
	c22.2,0,42.1,9.6,55.8,24.9l-3.2,1.9c0,0,0,0,0,0L82,55.7l6.5,3.8l46.8-27.1c0,0,0,0,0-0.1l3.2-1.8c0.8,1.1,1.6,2.2,2.3,3.3
	l-2.2,1.3l0,0.1L92.5,61.8l6.5,3.8l43.6-25.4l0,0l1.5-0.9c0.7,1.3,1.4,2.6,2.1,4l-3.1,1.8c0,0,0-0.1-0.1-0.1L103,67.9l7.2,4.2
	l37.8-22.4l0,0.1l0.6-0.4c3.1,8.2,4.7,17,4.7,26.2C153.5,110,130.3,139,98.7,147.8z M128.2,24.4C115.4,12.1,97.9,4.5,78.7,4.5
	c-19.5,0-37.1,7.8-49.9,20.4l49.3,28.5L128.2,24.4z M16,41.8l74.8,43.7l0.4-0.3v60.2v2.6v1.4c-1.3,0.2-2.6,0.4-4,0.6v-2v-2v-58
	l-73-42.7c0,0.1-0.1,0.2-0.1,0.2l-3.5-2c0.6-1.4,1.3-2.7,2-4l3.4,2C16.1,41.7,16,41.8,16,41.8z M80.7,91.8L80.7,91.8l0.1,54.7v2.6
	v1.4c-0.7,0-1.5,0-2.2,0c-0.6,0-1.2,0-1.7,0v-1.5v-2.5V93.8L70.3,90v56v3v1c-1.5-0.2-3-0.4-4.5-0.6v-0.4v-3.7V87.5l-6.5-3.7v60.2
	v2.7v1.5c-32.1-8.5-55.8-37.7-55.8-72.5c0-9.1,1.6-17.8,4.6-25.9l1.8,1l0,0l70.9,40.9L80.7,91.8z M55.3,81.4l-45-25.9
	c-1.9,6.3-2.9,13.1-2.9,20c0,31,20,57.4,47.9,67.1V81.4z M21.9,168.5v0.5c0,0.6-0.4,1-1,1h-8.5v13.2c0,0.7-0.6,1.2-1.2,1.2
	s-1.2-0.6-1.2-1.2V170H1.5c-0.6,0-1-0.4-1-1v-0.5c0-0.6,0.4-1,1-1h19.4C21.5,167.5,21.9,168,21.9,168.5z M24.4,167.5h5.5h9h1
	c0.3,0,0.5,0.1,0.7,0.3c1.9,0.7,3.3,2.5,3.3,4.7c0,1.4-0.6,2.6-1.5,3.5c0.6,0.4,1.1,1,1.4,1.7c0.3,0.2,0.6,0.6,0.6,1v1.2v3.2v0.2h0
	c-0.1,0.6-0.6,1-1.2,1s-1.1-0.4-1.2-1h0v-0.2V180c0-1.4-1.1-2.5-2.5-2.5h-13v5.7c0,0.7-0.6,1.2-1.2,1.2s-1.2-0.6-1.2-1.2v-6.7v-0.2
	V176c0-0.6,0.4-1,1-1h0.7h4.1h9.2c1.4,0,2.5-1.1,2.5-2.5c0-1.4-1.1-2.5-2.5-2.5H25.6h-1.2c-0.6,0-1-0.4-1-1v-0.5
	C23.4,168,23.9,167.5,24.4,167.5z M47.3,167.5h19.4c0.6,0,1,0.4,1,1v0.5c0,0.6-0.4,1-1,1H47.3c-0.6,0-1-0.4-1-1v-0.5
	C46.4,168,46.8,167.5,47.3,167.5z M47.3,174.5h17.4c0.6,0,1,0.4,1,1v0.5c0,0.6-0.4,1-1,1H48.8v5h17.9c0.6,0,1,0.4,1,1v0.5
	c0,0.6-0.4,1-1,1H47.3c-0.6,0-1-0.4-1-1v-0.2V183v-6.7c0,0,0-0.1,0-0.1c0,0,0-0.1,0-0.1v-0.5C46.4,174.9,46.8,174.5,47.3,174.5z
	 M69.8,167.5h3.5h10.5h1c0.3,0,0.6,0.1,0.8,0.4c1.6,0.7,2.7,2.3,2.7,4.1c0,0.8-0.2,1.5-0.5,2.1c0.3,0.2,0.5,0.5,0.5,0.9v0
	c1.2,0.9,2,2.3,2,4v0.5c0,2.8-2.2,5-5,5h-9.5h-6c-0.6,0-1-0.4-1-1v-0.2V183v-7.5v-0.2V175c0-0.4,0.2-0.7,0.5-0.9
	c0,0-0.1-0.1-0.1-0.1h0.5H84c1,0,1.7-0.8,1.7-1.7v-0.5c0-1-0.8-1.7-1.7-1.7H69.8h-0.5c0,0,0-0.1,0.1-0.1c-0.3-0.2-0.5-0.5-0.5-0.9
	v-0.5C68.8,168,69.2,167.5,69.8,167.5z M85.2,176.5h-1.5H73.3h-1.8h-0.2v5.5h0.2h13.8c1.4,0,2.5-1.1,2.5-2.5V179
	C87.7,177.6,86.6,176.5,85.2,176.5z M92.5,167.5c0.7,0,1.2,0.6,1.2,1.2V182h17.4c0.6,0,1,0.4,1,1v0.5c0,0.6-0.4,1-1,1H92.2
	c-0.6,0-1-0.4-1-1v-0.2V183v-14.2C91.2,168.1,91.8,167.5,92.5,167.5z M115.5,177.8c0.1-0.1,0.2-0.2,0.3-0.3c0.2-0.3,0.5-0.5,0.9-0.5
	H127l-4.8-7.2c-0.4-0.6-0.2-1.3,0.3-1.7c0.6-0.4,1.3-0.2,1.7,0.3l9.2,13.9c0.4,0.6,0.2,1.3-0.3,1.7c-0.6,0.4-1.3,0.2-1.7-0.3
	l-2.8-4.2h-11.3l-2.5,4.2c-0.4,0.6-1.2,0.7-1.7,0.3c-0.6-0.4-0.7-1.2-0.3-1.7L115.5,177.8z"/>
</svg>
