<?xml version="1.0" encoding="UTF-8"?>
<svg width="25px" height="19px" viewBox="0 0 25 19" version="1.1" xmlns="http://www.w3.org/2000/svg" xmlns:xlink="http://www.w3.org/1999/xlink">
    <!-- Generator: Sketch 44.1 (41455) - http://www.bohemiancoding.com/sketch -->
    <title>Group</title>
    <desc>Created with Sketch.</desc>
    <defs></defs>
    <g id="Page-1" stroke="none" stroke-width="1" fill="none" fill-rule="evenodd">
        <g id="history" transform="translate(-1.000000, -4.000000)" stroke="#33AD68">
            <g id="Group" transform="translate(1.000000, 4.000000)">
                <path d="M16.29288,5.20833333 L21.3623047,5.20833333" id="Path-6-Copy-3" stroke-linecap="round"></path>
                <path d="M16.29288,8.33333333 L21.3623047,8.33333333" id="Path-6-Copy-4" stroke-linecap="round"></path>
                <path d="M13.3912315,17.8602267 C13.1612721,17.9606057 12.9423082,18.0680971 12.7368378,18.1823522 C12.717362,18.193182 12.6980075,18.2040726 12.6787763,18.2150237 L13.1736136,19.0840093 L13.8641792,18.6907719 L13.3693419,17.8217863 C13.0370496,18.0110076 12.4447757,18.0191402 12.1043545,17.8366078 L11.6318034,18.717911 L12.5134599,19.1906516 L12.9860111,18.3093484 C12.905196,18.2660156 12.822092,18.2236788 12.7368378,18.1823522 C12.5275748,18.0809131 12.3053569,17.9855612 12.0722348,17.8965108 C9.74704991,17.0083135 6.33707307,16.7470116 3.87693778,17.3252027 L1.83092172,17.8060658 C1.07354093,17.9840685 0.5,17.5283821 0.5,16.7530517 L0.5,3.03861494 C0.5,2.18161466 1.2070271,1.34666514 2.04955702,1.20569871 L3.85011463,0.904441523 C5.9387532,0.554984572 9.2916538,0.900864815 11.2588834,1.66699272 L12.7549136,2.24961433 L13.9071106,1.77518708 C15.8673347,0.968047471 19.1887322,0.58875244 21.2823706,0.934500787 L22.9459111,1.20922176 C23.7909061,1.34876622 24.5,2.185802 24.5,3.03861494 L24.5,16.7530517 C24.5,17.5321188 23.9320087,17.9765423 23.1682331,17.7913408 L20.4197563,17.1248856 C18.3907609,16.6328914 15.4502389,16.9614548 13.3912315,17.8602267 Z" id="Rectangle"></path>
                <path d="M12.7644857,2.67842611 L12.7644857,17.4005045" id="Path-5" stroke-linecap="round"></path>
                <path d="M4.16666667,5.20833333 L9.23609133,5.20833333" id="Path-6" stroke-linecap="round"></path>
                <path d="M4.16666667,8.33333333 L9.23609133,8.33333333" id="Path-6-Copy" stroke-linecap="round"></path>
                <path d="M4.16666667,11.4583333 L9.23609133,11.4583333" id="Path-6-Copy-2" stroke-linecap="round"></path>
            </g>
        </g>
    </g>
</svg>