<?xml version="1.0" encoding="UTF-8"?>
<svg width="22px" height="21px" viewBox="0 0 22 21" version="1.1" xmlns="http://www.w3.org/2000/svg" xmlns:xlink="http://www.w3.org/1999/xlink">
    <!-- Generator: Sketch 44.1 (41455) - http://www.bohemiancoding.com/sketch -->
    <title>Group Copy</title>
    <desc>Created with Sketch.</desc>
    <defs></defs>
    <g id="Page-1" stroke="none" stroke-width="1" fill="none" fill-rule="evenodd">
        <g id="information" transform="translate(-2.000000, -3.000000)">
            <g id="Group-Copy" transform="translate(3.000000, 3.000000)">
                <path d="M10.3129883,20.5 C15.8358358,20.5 20.3129883,16.0228475 20.3129883,10.5 C20.3129883,4.9771525 15.8358358,0.5 10.3129883,0.5 C4.79014078,0.5 0.312988281,4.9771525 0.312988281,10.5 C0.312988281,16.0228475 4.79014078,20.5 10.3129883,20.5 Z" id="Oval-2-Copy-7" stroke="#33AD68"></path>
                <path d="M10.4615479,6.33813477 C10.8757614,6.33813477 11.2115479,6.00234833 11.2115479,5.58813477 C11.2115479,5.1739212 10.8757614,4.83813477 10.4615479,4.83813477 C10.0473343,4.83813477 9.71154785,5.1739212 9.71154785,5.58813477 C9.71154785,6.00234833 10.0473343,6.33813477 10.4615479,6.33813477 Z" id="Oval-2-Copy-8" fill="#33AD68"></path>
                <path d="M10.3997803,7.91213989 L10.3997803,14.9364244" id="Path-8" stroke="#1AA355" stroke-linecap="round" stroke-linejoin="round"></path>
            </g>
        </g>
    </g>
</svg>