<?xml version="1.0" encoding="UTF-8"?>
<svg width="25px" height="22px" viewBox="0 0 25 22" version="1.1" xmlns="http://www.w3.org/2000/svg" xmlns:xlink="http://www.w3.org/1999/xlink">
    <!-- Generator: Sketch 44.1 (41455) - http://www.bohemiancoding.com/sketch -->
    <title>Page 1 Copy</title>
    <desc>Created with Sketch.</desc>
    <defs></defs>
    <g id="Page-1" stroke="none" stroke-width="1" fill="none" fill-rule="evenodd" stroke-linecap="round" stroke-linejoin="round">
        <g id="procurement" transform="translate(-1.000000, -3.000000)" stroke="#33AD68">
            <path d="M13.5303189,23.9084764 C14.7720548,23.9084764 15.7033568,23.7510608 16.3110335,23.6006806 C16.7841595,23.4828388 17.0620551,22.9956422 16.9380574,22.524275 L16.1870358,19.6820012 C16.1096471,19.390035 16.3321395,19.1077423 16.6346587,19.0998276 C28.1066455,18.7964289 24.861599,9.74371662 23.8898439,7.52231083 C23.7737609,7.25672708 23.4536534,7.15735303 23.2047785,7.30509498 L16.9574045,11.0135939 C16.7041326,11.1639741 16.3849045,11.0127145 16.3242247,10.7242659 C15.564409,7.10019096 17.8684799,6.5549528 18.8279232,6.48284066 C19.0495361,6.46613175 19.1981575,6.25771006 19.1409954,6.04225305 C18.9448856,5.30266387 18.3257764,3.87976815 16.4587754,3.87976815 C15.3463137,3.87976815 14.4537061,4.65101632 13.9242974,5.80920771 C13.7686407,6.14954185 13.291997,6.14954185 13.1363403,5.80920771 C12.6060522,4.65101632 11.714324,3.87976815 10.6009829,3.87976815 C8.73486131,3.87976815 8.11487276,5.30266387 7.91964232,6.04225305 C7.86248026,6.25771006 8.01022221,6.46613175 8.23271455,6.48284066 C9.19303725,6.5549528 11.5006258,7.10107038 10.7337748,10.7348189 C10.6739744,11.017991 10.3644199,11.1692506 10.1164245,11.0215086 C8.79642046,10.238828 5.12397763,8.05787541 3.84442678,7.29805965 C3.59994903,7.15295595 3.28863563,7.25408883 3.1743115,7.51439608 C2.20695347,9.72261063 -1.06007841,18.7964289 10.425979,19.0998276 C10.7284983,19.1077423 10.9509906,19.390035 10.873602,19.6820012 L10.1190627,22.5374662 C9.99506499,23.0070746 10.2694429,23.4942712 10.7399307,23.612113 C11.3273808,23.7589756 12.2419739,23.9084764 13.5303189,23.9084764 Z" id="Page-1-Copy"></path>
        </g>
    </g>
</svg>