<?xml version="1.0" encoding="UTF-8"?>
<svg width="24px" height="16px" viewBox="0 0 24 16" version="1.1" xmlns="http://www.w3.org/2000/svg" xmlns:xlink="http://www.w3.org/1999/xlink">
    <!-- Generator: Sketch 44.1 (41455) - http://www.bohemiancoding.com/sketch -->
    <title>Group</title>
    <desc>Created with Sketch.</desc>
    <defs></defs>
    <g id="Page-1" stroke="none" stroke-width="1" fill="none" fill-rule="evenodd" stroke-linecap="round">
        <g id="command" transform="translate(-1.000000, -5.000000)" stroke="#000000">
            <g id="Group" transform="translate(2.000000, 5.000000)">
                <path d="M21.7251,15.8513 C21.7251,15.8513 22.0111,14.4943 21.7251,13.2443 C21.5781,12.6003 20.0101,12.0863 18.4411,11.7123 C17.0531,11.3823 16.9731,9.2073 17.5251,8.3153 C18.1561,7.2963 18.8671,6.1333 18.8671,4.6653 C18.8671,2.0453 17.2031,0.5003 15.1501,0.5003 C13.0981,0.5003 11.4341,2.0453 11.4341,4.6653 C11.4341,6.1423 12.1881,7.2883 12.7911,8.3313 C13.3761,9.3423 13.7211,11.5063 11.7781,12.0453 C11.1001,12.2333 8.7461,12.7133 8.5761,13.2443 C8.2991,14.1133 8.8711,15.9113 8.8711,15.9113" id="Stroke-1"></path>
                <path d="M8.567,15.023 C8.567,15.023 8.805,13.872 8.567,12.812 C8.444,12.265 7.139,11.829 5.833,11.512 C4.677,11.232 4.61,9.387 5.07,8.629 C5.596,7.765 6.187,6.778 6.187,5.533 C6.187,3.31 4.802,2 3.093,2 C1.385,2 0,3.31 0,5.533 C0,6.786 0.627,7.758 1.13,8.643 C1.616,9.501 1.903,11.337 0.286,11.794" id="Stroke-3-Copy" transform="translate(4.336389, 8.511500) scale(-1, 1) translate(-4.336389, -8.511500) "></path>
            </g>
        </g>
    </g>
</svg>