<?xml version="1.0" encoding="utf-8"?>
<!-- Generator: Adobe Illustrator 21.0.0, SVG Export Plug-In . SVG Version: 6.00 Build 0)  -->
<svg version="1.1" id="Слой_1" xmlns="http://www.w3.org/2000/svg" xmlns:xlink="http://www.w3.org/1999/xlink" x="0px" y="0px"
	 viewBox="0 0 153 116.2" style="enable-background:new 0 0 153 116.2;" xml:space="preserve">
<style type="text/css">
	.st0{fill:none;stroke:#FFFFFF;stroke-linecap:round;stroke-linejoin:round;}
</style>
<g id="конверт">
</g>
<g id="полис">
</g>
<g id="_x33_белый">
</g>
<g id="_x32_полоски">
</g>
<line class="st0" x1="2.3" y1="58.9" x2="24.7" y2="58.9"/>
<line class="st0" x1="13.5" y1="47.7" x2="13.5" y2="70.1"/>
<line class="st0" x1="141.9" y1="80.4" x2="150.2" y2="80.4"/>
<line class="st0" x1="146" y1="76.2" x2="146" y2="84.5"/>
<line class="st0" x1="88" y1="8.2" x2="100.4" y2="8.2"/>
<line class="st0" x1="94.2" y1="2" x2="94.2" y2="14.4"/>
<path class="st0" d="M59.9,49.8c0,0-7,0-7,7v50.3c0,0,0,7,7,7h43.4c0,0,7,0,7-7V56.8c0,0,0-7-7-7H59.9z"/>
<path class="st0" d="M91.8,58.3v-18c0,0,0-5-5-5H76.5c0,0-5,0-5,5v18"/>
<path class="st0" d="M61.3,78.1l9.6,6.7c0,0,1.6,1.1,3.3,0l29.2-20.5"/>
<path class="st0" d="M61.3,86l9.6,6.7c0,0,1.6,1.1,3.3,0l29.2-20.5"/>
<path class="st0" d="M61.3,94l9.6,6.7c0,0,1.6,1.1,3.3,0l29.2-20.5"/>
</svg>
