<?xml version="1.0" encoding="utf-8"?>
<!-- Generator: Adobe Illustrator 21.0.0, SVG Export Plug-In . SVG Version: 6.00 Build 0)  -->
<svg version="1.1" id="Слой_1" xmlns="http://www.w3.org/2000/svg" xmlns:xlink="http://www.w3.org/1999/xlink" x="0px" y="0px"
	 viewBox="0 0 87.5 99" style="enable-background:new 0 0 87.5 99;" xml:space="preserve">
<style type="text/css">
	.st0{fill:none;stroke:#019942;stroke-width:2;stroke-linecap:round;stroke-linejoin:round;stroke-miterlimit:10;}
</style>
<g id="конверт">
</g>
<g id="полис">
</g>
<g id="_x33_белый">
</g>
<g id="_x32_полоски">
</g>
<g>
	<path class="st0" d="M71.5,83.9H47.7c-0.8,0-1.5-0.7-1.5-1.5V75c0-0.8,0.7-1.5,1.5-1.5h23.7c0.8,0,1.5,0.7,1.5,1.5v7.5
		C72.9,83.3,72.3,83.9,71.5,83.9z"/>
	<path class="st0" d="M39.3,83.9h-7.6c-0.8,0-1.5-0.7-1.5-1.5V75c0-0.8,0.7-1.5,1.5-1.5h7.6c0.8,0,1.5,0.7,1.5,1.5v7.5
		C40.8,83.3,40.1,83.9,39.3,83.9z"/>
	<path class="st0" d="M23.2,83.9h-7.6c-0.8,0-1.5-0.7-1.5-1.5V75c0-0.8,0.7-1.5,1.5-1.5h7.6c0.8,0,1.5,0.7,1.5,1.5v7.5
		C24.7,83.3,24.1,83.9,23.2,83.9z"/>
	<path class="st0" d="M71.5,68.2h-7.6c-0.8,0-1.5-0.7-1.5-1.5v-7.5c0-0.8,0.7-1.5,1.5-1.5h7.6c0.8,0,1.5,0.7,1.5,1.5v7.5
		C72.9,67.5,72.3,68.2,71.5,68.2z"/>
	<path class="st0" d="M55.4,68.2h-7.6c-0.8,0-1.5-0.7-1.5-1.5v-7.5c0-0.8,0.7-1.5,1.5-1.5h7.6c0.8,0,1.5,0.7,1.5,1.5v7.5
		C56.9,67.5,56.2,68.2,55.4,68.2z"/>
	<path class="st0" d="M39.3,68.2h-7.6c-0.8,0-1.5-0.7-1.5-1.5v-7.5c0-0.8,0.7-1.5,1.5-1.5h7.6c0.8,0,1.5,0.7,1.5,1.5v7.5
		C40.8,67.5,40.1,68.2,39.3,68.2z"/>
	<path class="st0" d="M23.2,68.2h-7.6c-0.8,0-1.5-0.7-1.5-1.5v-7.5c0-0.8,0.7-1.5,1.5-1.5h7.6c0.8,0,1.5,0.7,1.5,1.5v7.5
		C24.7,67.5,24.1,68.2,23.2,68.2z"/>
	<path class="st0" d="M71.5,52.4h-7.6c-0.8,0-1.5-0.7-1.5-1.5v-7.5c0-0.8,0.7-1.5,1.5-1.5h7.6c0.8,0,1.5,0.7,1.5,1.5v7.5
		C72.9,51.7,72.3,52.4,71.5,52.4z"/>
	<path class="st0" d="M55.4,52.4h-7.6c-0.8,0-1.5-0.7-1.5-1.5v-7.5c0-0.8,0.7-1.5,1.5-1.5h7.6c0.8,0,1.5,0.7,1.5,1.5v7.5
		C56.9,51.7,56.2,52.4,55.4,52.4z"/>
	<path class="st0" d="M39.3,52.4h-7.6c-0.8,0-1.5-0.7-1.5-1.5v-7.5c0-0.8,0.7-1.5,1.5-1.5h7.6c0.8,0,1.5,0.7,1.5,1.5v7.5
		C40.8,51.7,40.1,52.4,39.3,52.4z"/>
	<path class="st0" d="M23.2,52.4h-7.6c-0.8,0-1.5-0.7-1.5-1.5v-7.5c0-0.8,0.7-1.5,1.5-1.5h7.6c0.8,0,1.5,0.7,1.5,1.5v7.5
		C24.7,51.7,24.1,52.4,23.2,52.4z"/>
	<path class="st0" d="M47.5,25.2L47.5,25.2c-1.9,0-3.5-1.7-3.5-3.8v-6.5c0-2.1,1.6-3.8,3.5-3.8c1.9,0,3.5,1.7,3.5,3.8v6.5
		C51,23.5,49.4,25.2,47.5,25.2z"/>
	<path class="st0" d="M39,22h-8.3c-0.3,0-0.4-0.3-0.3-0.5l6-9.7c0.2-0.3,0.6-0.2,0.6,0.2v13.2"/>
	<path class="st0" d="M21.7,14.7l2.3-2.5c0.2-0.2,0.4,0,0.4,0.3v12.7"/>
	<line class="st0" x1="62" y1="22.8" x2="70.7" y2="22.8"/>
	<path class="st0" d="M63.8,25.2V12.4c0-0.3,0.3-0.6,0.6-0.6h4.6c2.2,0,4,1.8,4,4c0,2.2-1.8,4-4,4h-4.9"/>
	<line class="st0" x1="13.9" y1="32.5" x2="73.1" y2="32.5"/>
	<path class="st0" d="M79.3,96.2H7.8c-2.7,0-4.9-2.2-4.9-4.8V7.8C2.9,5.2,5.1,3,7.8,3h71.5c2.7,0,4.9,2.2,4.9,4.8v83.5
		C84.2,94.1,82,96.2,79.3,96.2z"/>
</g>
</svg>
