<?xml version="1.0" encoding="utf-8"?>
<!-- Generator: Adobe Illustrator 21.0.0, SVG Export Plug-In . SVG Version: 6.00 Build 0)  -->
<svg version="1.1" id="Слой_1" xmlns="http://www.w3.org/2000/svg" xmlns:xlink="http://www.w3.org/1999/xlink" x="0px" y="0px"
	 viewBox="0 0 60.2 97.2" style="enable-background:new 0 0 60.2 97.2;" xml:space="preserve">
<style type="text/css">
	.st0{fill:none;stroke:#39B477;stroke-width:2;stroke-linecap:round;stroke-linejoin:round;stroke-miterlimit:10;}
</style>
<g id="конверт">
</g>
<g id="полис">
</g>
<g id="_x33_белый">
</g>
<g id="_x32_полоски">
</g>
<g>
	<path class="st0" d="M51.7,93.5H8.7c-2.8,0-5-2.2-5-5v-80c0-2.8,2.2-5,5-5h43.1c2.8,0,5,2.2,5,5v80C56.7,91.3,54.5,93.5,51.7,93.5z
		"/>
	<path class="st0" d="M45.3,76.7H15.1c-1.7,0-3-1.3-3-3V18.5c0-1.7,1.3-3,3-3h30.1c1.7,0,3,1.3,3,3v55.2
		C48.3,75.4,46.9,76.7,45.3,76.7z"/>
	<circle class="st0" cx="30.2" cy="84.7" r="3.1"/>
	<line class="st0" x1="25.1" y1="9.4" x2="35.3" y2="9.4"/>
	<path class="st0" d="M20.5,45.3l6.1,4.7c0.8,0.6,1.8,0.6,2.6-0.1l12.3-10.8"/>
</g>
</svg>
