<?xml version="1.0" encoding="utf-8"?>
<!-- Generator: Adobe Illustrator 21.0.0, SVG Export Plug-In . SVG Version: 6.00 Build 0)  -->
<svg version="1.1" id="Слой_1" xmlns="http://www.w3.org/2000/svg" xmlns:xlink="http://www.w3.org/1999/xlink" x="0px" y="0px"
	 viewBox="0 0 109.2 97.2" style="enable-background:new 0 0 109.2 97.2;" xml:space="preserve">
<style type="text/css">
	.st0{fill:none;stroke:#3AAC6B;stroke-width:2;stroke-linecap:round;stroke-linejoin:round;stroke-miterlimit:10;}
</style>
<g id="конверт">
</g>
<g id="полис">
</g>
<g id="_x33_белый">
</g>
<g id="_x32_полоски">
</g>
<g>
	<path class="st0" d="M72.5,29.9h9.2c2.9,0,5.2,2.3,5.2,5.2v54.4c0,2.9-2.3,5.2-5.2,5.2H27.3c-2.9,0-5.2-2.3-5.2-5.2V35.1
		c0-2.9,2.3-5.2,5.2-5.2h9.3"/>
	<line class="st0" x1="33.8" y1="46.7" x2="75.2" y2="46.7"/>
	<line class="st0" x1="33.8" y1="58" x2="75.2" y2="58"/>
	<line class="st0" x1="33.8" y1="68.3" x2="75.2" y2="68.3"/>
	<line class="st0" x1="33.8" y1="78.7" x2="75.2" y2="78.7"/>
	<path class="st0" d="M92.4,46.3h8.9c2.7,0,4.9,2.2,4.9,4.9v34.7c0,2.7-2.2,4.9-4.9,4.9h-8.9"/>
	<path class="st0" d="M16.4,46.3H7.5c-2.7,0-4.9,2.2-4.9,4.9v34.7c0,2.7,2.2,4.9,4.9,4.9h8.9"/>
	<g>
		<polyline class="st0" points="40,11.8 47.9,16.8 65.9,5.9 		"/>
		<polyline class="st0" points="39.1,17.4 47.9,23.3 68.6,10.7 		"/>
		<path class="st0" d="M42.7,7.1l5.1,3.2l12.6-7.6c0.6-0.4,1.4-0.4,2.1,0c5.2,3.1,8.5,9,7.8,15.6c-0.8,7.3-6.7,13.2-14,14
			c-9.6,1.1-17.8-6.4-17.8-15.8c0-3.4,1.1-6.5,2.9-9.1C41.7,6.9,42.3,6.8,42.7,7.1z"/>
	</g>
</g>
</svg>
