<?xml version="1.0" encoding="utf-8"?>
<!-- Generator: Adobe Illustrator 21.0.0, SVG Export Plug-In . SVG Version: 6.00 Build 0)  -->
<svg version="1.1" id="Слой_1" xmlns="http://www.w3.org/2000/svg" xmlns:xlink="http://www.w3.org/1999/xlink" x="0px" y="0px"
	 viewBox="0 0 89 97.2" style="enable-background:new 0 0 89 97.2;" xml:space="preserve">
<style type="text/css">
	.st0{fill:none;stroke:#019941;stroke-width:2;stroke-linecap:round;stroke-linejoin:round;stroke-miterlimit:10;}
</style>
<g id="конверт">
</g>
<g id="полис">
</g>
<g id="_x33_белый">
</g>
<g id="_x32_полоски">
</g>
<g>
	<path class="st0" d="M82.8,35.3c1.3,0,2.4,1.1,2.4,2.4v52.5c0,2.2-1.8,4-3.9,4H7.4c-2.2,0-3.9-1.8-3.9-4V37.3c0-1.1,0.9-2,2-2"/>
	<path class="st0" d="M6.8,37.5V7.4C6.8,4,8.6,3,10.8,3h66.7c2.2,0,3.9,1,3.9,4.4v30.2"/>
	<path class="st0" d="M39.6,28.2c0,6.8-5.5,12.4-12.3,12.4c-6.8,0-12.3-5.5-12.3-12.4s5.5-12.4,12.3-12.4
		C34.1,15.8,39.6,21.3,39.6,28.2z M21.4,27.6l4.1,4.1c0.4,0.4,1,0.4,1.4,0l7-7 M47.7,37h23.4 M47.7,30h23.4 M47.7,19.1h13.6"/>
	<path class="st0" d="M43.8,70.5l40.5-34.8 M4.3,35.7l66.3,58.6"/>
</g>
</svg>
