<?xml version="1.0" encoding="utf-8"?>
<!-- Generator: Adobe Illustrator 21.0.0, SVG Export Plug-In . SVG Version: 6.00 Build 0)  -->
<svg version="1.1" id="Слой_1" xmlns="http://www.w3.org/2000/svg" xmlns:xlink="http://www.w3.org/1999/xlink" x="0px" y="0px"
	 viewBox="0 0 102.5 97.2" style="enable-background:new 0 0 102.5 97.2;" xml:space="preserve">
<style type="text/css">
	.st0{fill:none;stroke:#FFFFFF;stroke-width:2;stroke-linecap:round;stroke-linejoin:round;stroke-miterlimit:10;}
	.st1{fill:#FFFFFF;}
</style>
<g id="конверт">
</g>
<g id="полис">
</g>
<g id="_x33_белый">
</g>
<g id="_x32_полоски">
</g>
<path class="st0" d="M73.9,22.9h21.7c1.9,0,3.5,1.6,3.5,3.6v27.9c0,2-1.6,3.6-3.5,3.6H73.4"/>
<rect x="73.4" y="42.9" class="st1" width="26.3" height="7.2"/>
<path class="st0" d="M56,81.5v9.3c0,2-1.6,3.6-3.6,3.6H8.2c-2.6,0-4.7-2.1-4.7-4.7V8.2c0-2.6,2.1-4.7,4.7-4.7h60.1
	c2.6,0,4.7,2.1,4.7,4.7v65.4c0,2-1.6,3.7-3.6,3.6l-9-0.1C57.9,77.2,56,79.1,56,81.5z"/>
<path class="st0" d="M55,93.4l16.9-17.2 M15.6,58.5h45.9 M15.6,48.2h45.9 M15.6,38h45.9 M15.6,24.1h20.8"/>
<line class="st0" x1="15.6" y1="57.8" x2="61.3" y2="57.8"/>
<line class="st0" x1="15.6" y1="47.8" x2="61.3" y2="47.8"/>
<line class="st0" x1="15.6" y1="37.8" x2="61.3" y2="37.8"/>
<line class="st0" x1="15.6" y1="24.1" x2="36.3" y2="24.1"/>
</svg>
