<?xml version="1.0" encoding="utf-8"?>
<!-- Generator: Adobe Illustrator 21.0.0, SVG Export Plug-In . SVG Version: 6.00 Build 0)  -->
<svg version="1.1" id="Слой_1" xmlns="http://www.w3.org/2000/svg" xmlns:xlink="http://www.w3.org/1999/xlink" x="0px" y="0px"
	 viewBox="0 0 64.3 67.2" style="enable-background:new 0 0 64.3 67.2;" xml:space="preserve">
<style type="text/css">
	.st0{fill:none;stroke:#FFFFFF;stroke-linecap:round;stroke-linejoin:round;stroke-miterlimit:10;}
</style>
<g id="конверт">
</g>
<g id="полис">
</g>
<g id="_x33_белый">
</g>
<g id="_x32_полоски">
</g>
<g>
	<g>
		<path class="st0" d="M1.8,32.2v-9.8c0-1.4,1.2-2.6,2.6-2.6h9.2"/>
		<line class="st0" x1="29.2" y1="23.1" x2="44.9" y2="7.5"/>
		<line class="st0" x1="22.6" y1="23.1" x2="41.6" y2="4.1"/>
		<path class="st0" d="M14.5,23L34.7,2.8c1.5-1.5,4-1.5,5.5,0l10.9,10.9c1.5,1.5,1.5,4,0,5.5L47,23.2"/>
		<path class="st0" d="M58.9,52.3v7.4c0,2.8-2.2,5-5,5H6.8c-2.8,0-5-2.2-5-5V31.8c0-3.3,2.7-6,6-6h45.1c3.3,0,6,2.7,6,6v7"/>
		<path class="st0" d="M61,52.3H44.8c-3.6,0-6.5-2.9-6.5-6.5v0c0-3.6,2.9-6.5,6.5-6.5H61c0.7,0,1.3,0.6,1.3,1.3V51
			C62.3,51.7,61.7,52.3,61,52.3z"/>
		<ellipse transform="matrix(0.7071 -0.7071 0.7071 0.7071 -19.283 44.9955)" class="st0" cx="44.7" cy="45.8" rx="3" ry="3"/>
		<g>
			<path class="st0" d="M33.6,18.4"/>
			<path class="st0" d="M33.6,12.4"/>
		</g>
	</g>
</g>
</svg>
