<?xml version="1.0" encoding="utf-8"?>
<!-- Generator: Adobe Illustrator 21.0.0, SVG Export Plug-In . SVG Version: 6.00 Build 0)  -->
<svg version="1.1" id="Слой_1" xmlns="http://www.w3.org/2000/svg" xmlns:xlink="http://www.w3.org/1999/xlink" x="0px" y="0px"
	 viewBox="0 0 61.4 56.2" style="enable-background:new 0 0 61.4 56.2;" xml:space="preserve">
<style type="text/css">
	.st0{fill:none;stroke:#FFFFFF;stroke-linecap:round;stroke-linejoin:round;stroke-miterlimit:10;}
</style>
<g id="конверт">
</g>
<g id="полис">
</g>
<g id="_x33_белый">
</g>
<g id="_x32_полоски">
</g>
<g>
	<path class="st0" d="M41.2,44.6V48c0,0.8-0.7,1.5-1.5,1.5H4.3c-0.8,0-1.5-0.7-1.5-1.5v-44c0-0.8,0.7-1.5,1.5-1.5h35.4
		c0.8,0,1.5,0.7,1.5,1.5v11.4"/>
	<line class="st0" x1="41.2" y1="29.3" x2="41.2" y2="33.9"/>
	<circle class="st0" cx="9.8" cy="8.6" r="1.3"/>
	<circle class="st0" cx="15.5" cy="8.6" r="1.3"/>
	<line class="st0" x1="7.2" y1="14" x2="36.8" y2="14"/>
	<path class="st0" d="M34.1,10.6h-9.7c-0.7,0-1.4-0.6-1.4-1.4V7.7c0-0.7,0.6-1.4,1.4-1.4h9.7c0.7,0,1.4,0.6,1.4,1.4v1.5
		C35.4,10,34.8,10.6,34.1,10.6z"/>
	<circle class="st0" cx="22" cy="30.5" r="11"/>
	<path class="st0" d="M28.3,34.9c-1.2-1.1-1.9-2.6-1.9-4.4c0-1.8,0.8-3.4,2-4.5"/>
	<ellipse class="st0" cx="49" cy="38.9" rx="10.2" ry="3.7"/>
	<path class="st0" d="M59.2,22.1c0,2.9-4.6,7.4-10.2,7.4s-10.2-4.5-10.2-7.4s4.6-5.2,10.2-5.2S59.2,19.2,59.2,22.1z"/>
	<line class="st0" x1="49" y1="29.4" x2="49" y2="35.2"/>
	<line class="st0" x1="49" y1="43.1" x2="49" y2="50.9"/>
	<path class="st0" d="M39.3,53.4c2.7-1.6,6.1-2.5,9.7-2.5c3.6,0,6.9,0.9,9.7,2.5"/>
</g>
</svg>
