<?xml version="1.0" encoding="utf-8"?>
<!-- Generator: Adobe Illustrator 21.0.0, SVG Export Plug-In . SVG Version: 6.00 Build 0)  -->
<svg version="1.1" id="Слой_1" xmlns="http://www.w3.org/2000/svg" xmlns:xlink="http://www.w3.org/1999/xlink" x="0px" y="0px"
	 viewBox="0 0 78.2 56.2" style="enable-background:new 0 0 78.2 56.2;" xml:space="preserve">
<style type="text/css">
	.st0{fill:none;stroke:#FFFFFF;stroke-linecap:round;stroke-linejoin:round;stroke-miterlimit:10;}
</style>
<g id="конверт">
</g>
<g id="полис">
</g>
<g id="_x33_белый">
</g>
<g id="_x32_полоски">
</g>
<path class="st0" d="M4.3,25.4L37.9,6.9c0.5-0.3,1.1-0.3,1.7,0l33.7,18.6c1.3,0.7,2.9-0.2,2.9-1.7v0c0-0.7-0.4-1.3-1-1.7L41.3,2.5
	c-1.4-0.8-3.2-0.8-4.6,0L2.5,22.2c-0.6,0.3-0.9,0.9-0.9,1.6v0C1.6,25.2,3.1,26.1,4.3,25.4z"/>
<path class="st0" d="M7.5,28v24.2c0,0.9,0.7,1.7,1.7,1.7h59.3c0.9,0,1.7-0.7,1.7-1.7v-24"/>
<path class="st0" d="M30,51.1V21.8c0-0.8,0.5-1.4,1.1-1.4h15.8c0.6,0,1.1,0.6,1.1,1.4v29.3"/>
<path class="st0" d="M15.5,44.9h6.8c1.1,0,2-0.9,2-2V29.8c0-1.1-0.9-2-2-2h-6.8c-1.1,0-2,0.9-2,2v13.1C13.5,44,14.4,44.9,15.5,44.9z
	"/>
<path class="st0" d="M55.7,44.9h6.8c1.1,0,2-0.9,2-2V29.8c0-1.1-0.9-2-2-2h-6.8c-1.1,0-2,0.9-2,2v13.1C53.7,44,54.6,44.9,55.7,44.9z
	"/>
<circle class="st0" cx="43.7" cy="37" r="1.5"/>
<path class="st0" d="M55.1,7.8H64c0.9,0,1.7,0.7,1.7,1.7v4.6"/>
</svg>
