<?xml version="1.0" encoding="utf-8"?>
<!-- Generator: Adobe Illustrator 21.0.0, SVG Export Plug-In . SVG Version: 6.00 Build 0)  -->
<svg version="1.1" id="Слой_1" xmlns="http://www.w3.org/2000/svg" xmlns:xlink="http://www.w3.org/1999/xlink" x="0px" y="0px"
	 viewBox="0 0 68.6 56.2" style="enable-background:new 0 0 68.6 56.2;" xml:space="preserve">
<style type="text/css">
	.st0{fill:none;stroke:#FFFFFF;stroke-linecap:round;stroke-linejoin:round;stroke-miterlimit:10;}
</style>
<g id="конверт">
</g>
<g id="полис">
</g>
<g id="_x33_белый">
</g>
<g id="_x32_полоски">
</g>
<g>
	<path class="st0" d="M30.8,19.6c1.3-7.3-2.5-12-10.1-12C13,7.6,9,12.3,10.5,19.5l0,0c-2,3.1-0.4,5.5,0.7,6.4c0.4,0.4,0.8,0.9,1,1.5
		c0.1,0.3,0.3,0.6,0.4,0.9c1.9,3.6,5,5.9,8,5.9c3.1,0,6.1-2.4,8-6c0-0.1,0.1-0.1,0.1-0.2c0.4-0.8,0.9-1.6,1.5-2.3
		C31.3,24.6,32.6,22.4,30.8,19.6z"/>
	<path class="st0" d="M23.2,27.9c-0.6,0.7-1.5,1.1-2.6,1.1c-1,0-1.9-0.4-2.6-1.1"/>
	<line class="st0" x1="15.7" y1="32.4" x2="15.7" y2="35.6"/>
	<line class="st0" x1="25.5" y1="32.4" x2="25.5" y2="35.6"/>
	<path class="st0" d="M25.5,35.5c0,2.7-2.2,4.9-4.9,4.9s-4.9-2.2-4.9-4.9"/>
	<path class="st0" d="M2.3,53.2c-0.4-2.7-0.7-5.3-0.6-8.1c0-2.1,1.2-4,3.1-4.8l5.3-2.4"/>
	<path class="st0" d="M38.8,53.2c0.4-2.7,0.7-5.3,0.6-8.1c0-2.1-1.2-4-3.1-4.8L31,37.9"/>
	<path class="st0" d="M55.2,33.7"/>
	<path class="st0" d="M10.5,19.5c1,2.8,5.9,1.3,8.9-3.3c0.6-0.9,2-0.9,2.6,0c3,4.6,8,6,8.8,3.4"/>
	<path class="st0" d="M44.4,26.7c0,0-0.8-3.3,2.3-3.7s9.9,2,14.1-2.9l-2.7-1.3c0,0,1.2-1.5,1.2-3.1c0,0-1.7,0.9-2.9,0.9
		c0,0,1-1.9,0.9-3c0,0-1.8,1-6.5,1"/>
	<line class="st0" x1="49.7" y1="30.8" x2="53.1" y2="29.7"/>
	<path class="st0" d="M50.8,14.6c-5.3,0-9,4-9,8.5c0,0.2,0,0.4,0,0.5c0,0.3-0.2,0.5-0.5,0.6c-0.6,0.1-1.4,0.3-1.5,1.3
		c-0.1,1.4,0.9,2.8,3.1,4c0.5,0.3,0.9,0.6,1.1,1.1c1.6,2.7,4,4.7,6.8,4.7c2.7,0,5.1-2,6.7-4.6c0.3-0.5,0.7-0.8,1.2-1.1
		c2.3-1.3,3.4-2.7,3.3-4.2c-0.1-1-1-1.3-1.6-1.3c-0.3,0-0.5-0.2-0.5-0.5c0-0.2,0-0.4,0-0.5c0-0.6-0.1-1.2-0.2-1.8"/>
	<path class="st0" d="M25.9,33.9c0,0,0.9,0.7,1.8,1.5c0.9,0.8,2.3,1.3,2.9,1.7c1.1,0.7-0.3,3-1.8,3.8c-1.2,0.6-2.3,0.3-3.5,1.2
		c-1,0.8-1.6,2.9-4.7,2.9c-3.1,0-3.6-2.1-4.6-2.9c-1.2-0.9-2.3-0.6-3.5-1.2c-1.5-0.8-2.9-3.1-1.8-3.8c0.6-0.4,2-0.9,2.9-1.7
		c0.9-0.8,1.8-1.5,1.8-1.5"/>
	<path class="st0" d="M13.4,9.7C13.2,9,13,8.3,13,7.6c0-3.4,3.4-6.1,7.6-6.1s7.6,2.7,7.6,6.1c0,0.7-0.2,1.4-0.4,2"/>
	<path class="st0" d="M54.9,34.2v4c0,0.7-0.2,1.4-0.6,2C53.7,41,52.7,42,51,42c-1.7,0-2.7-1-3.3-1.8c-0.4-0.6-0.6-1.3-0.6-2v-4"/>
	<path class="st0" d="M46.6,37.3c0,0-2.2,1-3.4,1.8c-1.8,1.2-3.4,1.8-3.4,1.8"/>
	<path class="st0" d="M55.3,37.3c0,0,2.9,1.6,4.6,2.5c2.7,1.5,6.9,2.2,6.9,7.3c0,4.1,0,5.6,0,5.6"/>
</g>
</svg>
