<?xml version="1.0" encoding="utf-8"?>
<!-- Generator: Adobe Illustrator 21.0.0, SVG Export Plug-In . SVG Version: 6.00 Build 0)  -->
<svg version="1.1" id="Слой_1" xmlns="http://www.w3.org/2000/svg" xmlns:xlink="http://www.w3.org/1999/xlink" x="0px" y="0px"
	 viewBox="0 0 66 58.8" style="enable-background:new 0 0 66 58.8;" xml:space="preserve">
<style type="text/css">
	.st0{fill:none;stroke:#FFFFFF;stroke-linecap:round;stroke-linejoin:round;stroke-miterlimit:10;}
	.st1{fill:#FFFFFF;}
</style>
<g id="конверт">
</g>
<g id="полис">
</g>
<g id="_x33_белый">
</g>
<g id="_x32_полоски">
</g>
<path class="st0" d="M6,42.1l-1.3,0c-1.3,0-2.3-1-2.3-2.3L2.2,4.5c0-1.3,1-2.3,2.3-2.3L53.3,2c1.3,0,2.3,1,2.3,2.3l0,1.1"/>
<path class="st0" d="M28.9,47.8l-18.4,0c-1.3,0-2.4-1-2.4-2.3L8,10.3c0-1.3,1-2.4,2.3-2.4l51-0.1c1.3,0,2.4,1,2.4,2.3l0.1,35.3
	c0,1.3-1,2.4-2.3,2.4l-1.5,0"/>
<ellipse transform="matrix(0.7071 -0.7071 0.7071 0.7071 -17.0936 24.3044)" class="st0" cx="20.8" cy="32.8" rx="5.7" ry="5.7"/>
<line class="st0" x1="15.3" y1="16.4" x2="26.1" y2="16.4"/>
<line class="st0" x1="15.3" y1="22" x2="26.1" y2="22"/>
<path class="st0" d="M52.3,57H37.1c-2.2,0-4-1.8-4-4V17.7c0-2.2,1.8-4,4-4h15.2c2.2,0,4,1.8,4,4V53C56.3,55.2,54.5,57,52.3,57z"/>
<circle class="st1" cx="44.7" cy="51.6" r="1.8"/>
<line class="st0" x1="37.1" y1="20.2" x2="52.3" y2="20.2"/>
<line class="st0" x1="37.3" y1="46.6" x2="53" y2="46.6"/>
<path class="st0" d="M40.2,32.3l3.2,3.2c0.5,0.5,1.2,0.5,1.7,0l6-6"/>
</svg>
