<?xml version="1.0" encoding="utf-8"?>
<!-- Generator: Adobe Illustrator 21.0.0, SVG Export Plug-In . SVG Version: 6.00 Build 0)  -->
<svg version="1.1" id="Слой_1" xmlns="http://www.w3.org/2000/svg" xmlns:xlink="http://www.w3.org/1999/xlink" x="0px" y="0px"
	 viewBox="0 0 69.6 47.5" style="enable-background:new 0 0 69.6 47.5;" xml:space="preserve">
<style type="text/css">
	.st0{fill:none;stroke:#FFFFFF;stroke-linecap:round;stroke-linejoin:round;stroke-miterlimit:10;}
</style>
<g id="конверт">
</g>
<g id="полис">
</g>
<g id="_x33_белый">
</g>
<g id="_x32_полоски">
</g>
<path class="st0" d="M52.9,34.6v7.8c0,1.9-1.6,3.5-3.5,3.5H6.9c-1.9,0-3.5-1.6-3.5-3.5v-19"/>
<path class="st0" d="M19.5,8V4.6c0-1.6,1.3-2.9,2.9-2.9H34c1.6,0,2.9,1.3,2.9,2.9V8"/>
<path class="st0" d="M30,35.7h-3.8c-1.5,0-2.7-1.2-2.7-2.7v-3.8c0-1.5,1.2-2.7,2.7-2.7H30c1.5,0,2.7,1.2,2.7,2.7V33
	C32.7,34.5,31.5,35.7,30,35.7z"/>
<line class="st0" x1="40.6" y1="27.3" x2="35" y2="29.7"/>
<circle class="st0" cx="54.3" cy="17.8" r="13.6"/>
<path class="st0" d="M61.3,15h-3.8c-0.3,0-0.5-0.2-0.5-0.5v-3.8c0-0.3-0.2-0.5-0.5-0.5H52c-0.3,0-0.5,0.2-0.5,0.5v3.8
	c0,0.3-0.2,0.5-0.5,0.5h-3.8c-0.3,0-0.5,0.2-0.5,0.5v4.5c0,0.3,0.2,0.5,0.5,0.5H51c0.3,0,0.5,0.2,0.5,0.5v3.8c0,0.3,0.2,0.5,0.5,0.5
	h4.5c0.3,0,0.5-0.2,0.5-0.5v-3.8c0-0.3,0.2-0.5,0.5-0.5h3.8c0.3,0,0.5-0.2,0.5-0.5v-4.5C61.9,15.3,61.6,15,61.3,15z"/>
<path class="st0" d="M39.6,8.9H5.9c-2.3,0-4.1,1.8-4.1,4.1v7.4c0,0.9,0.6,1.8,1.4,2.2l18.1,7.7"/>
</svg>
