<?xml version="1.0" encoding="UTF-8" standalone="no"?>
<!DOCTYPE svg  PUBLIC '-//W3C//DTD SVG 1.1//EN'  'http://www.w3.org/Graphics/SVG/1.1/DTD/svg11.dtd'>
<svg xmlns="http://www.w3.org/2000/svg">
<defs>
<font id="FedraSansPro-DemiItalicLF" horiz-adv-x="540">
<font-face slope="-6" underline-position="-50" font-weight="450" descent="-200" panose-1="2 11 5 3 4 0 0 9 0 4" units-per-em="1000" unicode-range="U+0020-04F9" bbox="-157 -249 1032 954" x-height="546" underline-thickness="50" font-family="FedraSansPro" ascent="800" font-style="italic" cap-height="708"/>
<missing-glyph horiz-adv-x="1000"/>
<glyph glyph-name=".notdef" horiz-adv-x="1000"/>
<glyph glyph-name=".null" horiz-adv-x="0"/>
<glyph glyph-name="nonmarkingreturn" horiz-adv-x="333"/>
<glyph glyph-name="space" horiz-adv-x="246" unicode=" "/>
<glyph glyph-name="exclam" horiz-adv-x="287" unicode="!" d="M58 0l11 100h106l-11 -100h-106zM87 182l11 151l40 374h97l-40 -374l-21 -151h-87z"/>
<glyph glyph-name="quotedbl" horiz-adv-x="350" unicode='&quot;' d="M245 547l19 214h87l-32 -214h-74zM79 547l19 214h88l-33 -214h-74z"/>
<glyph glyph-name="numbersign" horiz-adv-x="638" unicode="#" d="M229 238h154l36 226h-154zM96 0l25 156h-86l9 82h92l36 226h-105l9 82h110l26 161h94l-27 -161h154l26 161h93l-26 -161h87l-9 -82h-91l-37 -226h105l-9 -82h-110l-25 -156h-93l25 156h-155l-25 -156h-93z"/>
<glyph glyph-name="dollar" horiz-adv-x="504" unicode="$" d="M173 -99l12 88q-117 3 -190 49l39 79q95 -41 173 -41q158 0 158 119q0 33 -30.5 61.5t-73.5 52t-86 50t-73.5 69.5t-30.5 98v9q4 75 56.5 119.5t132.5 54.5l7 90h94l-11 -89q84 -7 145 -39l-34 -74q-77 31 -157 31q-132 0 -133 -95q-1 -33 29 -62t73.5 -53.5t87 -52 t74.5 -70t31 -94.5v-7q-4 -84 -56 -134t-135 -63l-8 -96h-94z"/>
<glyph glyph-name="percent" horiz-adv-x="806" unicode="%" d="M123 55l-48 54l599 531l48 -54zM574 62q45 0 68.5 34.5t23.5 82.5q0 78 -69 78q-45 0 -67.5 -38.5t-22.5 -86.5q0 -70 67 -70zM566 -9q-67 0 -105 34.5t-38 100.5q0 83 50 141t131 58q69 0 107.5 -34t38.5 -102q0 -84 -50.5 -141t-133.5 -57zM216 450q46 0 69.5 35 t23.5 83q0 77 -69 77q-46 0 -68 -37.5t-22 -86.5q0 -71 66 -71zM209 379q-67 0 -105.5 35t-38.5 101q0 82 50.5 140.5t130.5 58.5q69 0 108 -34t39 -102q0 -84 -50.5 -141.5t-133.5 -57.5z"/>
<glyph glyph-name="ampersand" horiz-adv-x="690" unicode="&amp;" d="M451 109l8 80q38 26 97 26h99l-9 -82h-96q-56 0 -99 -24zM253 423q40 25 55.5 36t43.5 32.5t39.5 40t11.5 36.5q0 30 -18.5 50.5t-50.5 20.5q-93 0 -93 -121q0 -50 12 -95zM225 73q58 0 102 25q-75 85 -125 200q-78 -66 -78 -138q0 -87 101 -87zM690 -99q-166 1 -310 139 q-75 -49 -166 -49q-83 0 -135 37.5t-52 119.5q0 47 22 90.5t51 73t73 62.5q-20 66 -20 137q0 92 48 147.5t142 55.5q68 0 109.5 -34.5t41.5 -100.5q0 -21 -6 -41t-21 -39t-26.5 -32.5t-37.5 -32.5t-38.5 -27.5t-45 -29t-41.5 -26.5q62 -159 174.5 -263t258.5 -105q15 0 21 1 l-1 -80q-19 -3 -41 -3z"/>
<glyph glyph-name="quotesingle" horiz-adv-x="185" unicode="&apos;" d="M79 547l19 214h88l-33 -214h-74z"/>
<glyph glyph-name="parenleft" horiz-adv-x="352" unicode="(" d="M211 -222q-84 65 -131.5 187t-47.5 238q0 104 32 212.5t98 205.5t154 148l53 -65q-108 -69 -172 -209t-64 -279q0 -100 38.5 -207t106.5 -167z"/>
<glyph glyph-name="parenright" horiz-adv-x="353" unicode=")" d="M31 -222l-53 64q106 80 171.5 225.5t65.5 285.5q0 97 -38.5 198t-108.5 153l66 65q87 -57 135 -173.5t48 -238.5q0 -162 -78.5 -327.5t-207.5 -251.5z"/>
<glyph glyph-name="asterisk" horiz-adv-x="425" unicode="*" d="M317 597l-21 44l93 66l32 -68zM364 460l-81 65l32 47l95 -43zM222 654l-1 108h79l-23 -108h-55zM182 407l25 106h55l-1 -106h-79zM169 596l-96 43l47 69l81 -66zM94 461l-32 69l104 42l20 -45z"/>
<glyph glyph-name="plus" horiz-adv-x="575" unicode="+" d="M213 51l23 211h-210l9 83l210 -2l22 216h85l-25 -217l221 3l-9 -83h-220l-20 -211h-86z"/>
<glyph glyph-name="comma" horiz-adv-x="236" unicode="," d="M-15 -142q20 42 31.5 81.5t15.5 68t12 104.5h111q-10 -91 -24.5 -140.5t-59.5 -113.5h-86z"/>
<glyph glyph-name="hyphen" horiz-adv-x="468" unicode="-" d="M78 246l9 84h298l-9 -84h-298z"/>
<glyph glyph-name="period" horiz-adv-x="236" unicode="." d="M31 0l11 105h113l-11 -105h-113z"/>
<glyph glyph-name="slash" horiz-adv-x="373" unicode="/" d="M-13 -62l319 831h90l-319 -831h-90z"/>
<glyph glyph-name="zero" horiz-adv-x="641" unicode="0" d="M295 74q51 0 88.5 26.5t58 65t33 92.5t16 97t3.5 90q0 186 -134 186q-50 0 -88 -25.5t-59.5 -63.5t-34.5 -90t-17 -95.5t-4 -89.5q0 -193 138 -193zM282 -9q-226 0 -226 269q0 65 9.5 126t32.5 121.5t58.5 105t91.5 72.5t127 28q220 0 220 -263q0 -65 -8.5 -125.5 t-31 -122.5t-56.5 -108t-90 -74.5t-127 -28.5z"/>
<glyph glyph-name="one" horiz-adv-x="311" unicode="1" d="M98 0l65 624h-141l8 77l239 7l-74 -708h-97z"/>
<glyph glyph-name="two" horiz-adv-x="507" unicode="2" d="M-9 0l9 75q143 124 196 178q164 167 164 273q0 54 -26 79.5t-81 25.5q-81 0 -153 -39l-28 71q85 53 197 53q91 0 141.5 -44.5t50.5 -133.5q0 -44 -14.5 -88.5t-44 -88t-58 -78t-74 -76t-72.5 -64.5t-73 -60h328l-9 -83h-453z"/>
<glyph glyph-name="three" horiz-adv-x="470" unicode="3" d="M154 -11q-104 0 -167 30l30 81q70 -24 137 -24q163 0 163 129q0 61 -53 90.5t-123 34.5l8 72q68 5 121 44.5t53 103.5q0 82 -104 82q-59 0 -121 -20l-22 72q63 32 160 32q81 0 132 -38.5t51 -116.5q0 -61 -41 -113.5t-101 -70.5q59 -18 98.5 -62.5t39.5 -104.5 q0 -115 -71.5 -168t-189.5 -53z"/>
<glyph glyph-name="four" horiz-adv-x="533" unicode="4" d="M99 262h203l39 375zM274 0l19 179h-303l8 75l297 453h151l-46 -445h116l-9 -83h-116l-19 -179h-98z"/>
<glyph glyph-name="five" horiz-adv-x="477" unicode="5" d="M180 -11q-93 0 -170 28l26 83q88 -26 151 -26q74 0 117 40t43 109q0 38 -27.5 68t-73 47t-90 26.5t-91.5 12.5l34 330h348l-8 -80h-257l-17 -172q121 -18 200.5 -72.5t79.5 -147.5q0 -108 -75 -177t-190 -69z"/>
<glyph glyph-name="six" horiz-adv-x="542" unicode="6" d="M269 -12q-106 0 -160 64t-54 180q0 72 10.5 138t36 130t64 111t99 75.5t137.5 28.5q62 0 101 -17l-28 -82q-40 15 -86 15q-56 0 -99 -24.5t-68 -63.5t-41 -93t-21.5 -106t-5.5 -111q0 -73 31.5 -119t92.5 -46q64 0 97 51t33 120q0 122 -123 122q-29 0 -75 -10l4 76 q50 15 96 15q87 0 142.5 -50t55.5 -141q0 -117 -62.5 -190t-176.5 -73z"/>
<glyph glyph-name="seven" horiz-adv-x="427" unicode="7" d="M91 -15l-83 37l352 600h-331l10 85h438l-8 -77z"/>
<glyph glyph-name="eight" horiz-adv-x="535" unicode="8" d="M288 406q108 63 108 156q0 35 -28 54.5t-68 19.5q-49 0 -80 -27t-31 -74q0 -25 19 -52t35 -40.5t45 -36.5zM247 69q58 0 95.5 32.5t37.5 88.5q0 11 -4 22.5t-9 20.5t-15.5 20t-17.5 18t-21 17.5l-20 15t-21 14.5t-17 12q-128 -77 -128 -168q0 -45 34 -69t86 -24zM232 -10 q-86 0 -145 40t-59 113q0 138 170 226q-51 39 -78 75.5t-27 87.5q0 88 65 135t160 47q72 0 125 -36.5t53 -104.5q0 -122 -148 -206q130 -83 130 -178q0 -96 -74.5 -147.5t-171.5 -51.5z"/>
<glyph glyph-name="nine" horiz-adv-x="544" unicode="9" d="M151 -13q-59 0 -100 17l27 82q39 -14 87 -14q57 0 100.5 25.5t68.5 64.5t40.5 94.5t20.5 106t5 108.5q0 72 -31.5 118t-92.5 46q-64 0 -97.5 -51t-33.5 -121q0 -122 123 -122q36 0 77 12l-4 -76q-48 -16 -98 -16q-87 0 -142 49.5t-55 141.5q0 116 62.5 189t176.5 73 q106 0 160 -63.5t54 -180.5q0 -72 -10.5 -138t-36 -130t-64 -111t-99.5 -75.5t-138 -28.5z"/>
<glyph glyph-name="colon" horiz-adv-x="292" unicode=":" d="M104 441l11 105h113l-11 -105h-113zM57 0l12 105h113l-11 -105h-114z"/>
<glyph glyph-name="semicolon" horiz-adv-x="289" unicode=";" d="M101 441l12 105h112l-11 -105h-113zM11 -142q20 42 31.5 81.5t15.5 68t12 104.5h110q-10 -91 -24.5 -140.5t-59.5 -113.5h-85z"/>
<glyph glyph-name="less" horiz-adv-x="500" unicode="&lt;" d="M421 59l-389 190l11 109l430 194l-10 -93l-349 -156l317 -151z"/>
<glyph glyph-name="equal" horiz-adv-x="667" unicode="=" d="M99 372l9 84h482l-8 -84h-483zM76 151l8 83h483l-8 -83h-483z"/>
<glyph glyph-name="greater" horiz-adv-x="500" unicode="&gt;" d="M27 59l10 93l348 151l-316 156l10 93l389 -194l-11 -109z"/>
<glyph glyph-name="question" horiz-adv-x="363" unicode="?" d="M50 0l10 100h106l-10 -100h-106zM73 168q-7 24 -7 54q0 43 18 80t44 63t52 49t44 49t18 52q0 28 -16 49.5t-42 33.5t-51.5 18.5t-52.5 9.5l28 83q44 -3 83 -14t75 -31t57.5 -55.5t21.5 -81.5q0 -44 -18.5 -80.5t-45 -61t-54 -47t-48 -50t-23.5 -57.5q-1 -5 -1 -15l3 -36z "/>
<glyph glyph-name="at" horiz-adv-x="786" unicode="@" d="M339 225q39 0 90 44l36 161q-16 4 -28 4q-63 0 -96 -51t-33 -118q0 -20 6 -30t25 -10zM329 -73q-134 0 -210.5 70t-76.5 204q0 223 128.5 369t342.5 146q119 0 182.5 -59.5t63.5 -177.5q0 -60 -16 -118t-46.5 -106.5t-82 -78.5t-115.5 -30q-32 0 -53.5 14.5t-21.5 42.5v6 q-20 -21 -54 -39.5t-59 -18.5q-90 0 -90 98q0 103 61 176t162 73q61 0 113 -23l-47 -206q-4 -20 -4 -27q0 -22 16 -22q40 0 70.5 25.5t47.5 65.5t25 80.5t8 78.5q0 175 -170 175q-118 0 -205.5 -61t-129.5 -157.5t-42 -213.5q0 -208 221 -208q77 0 158 19l5 -71 q-77 -26 -181 -26z"/>
<glyph glyph-name="A" horiz-adv-x="652" unicode="A" d="M227 330h208l-47 243l-12 78l-34 -79zM-38 0l351 707h142l152 -707h-105l-51 252h-263l-123 -252h-103z"/>
<glyph glyph-name="B" horiz-adv-x="625" unicode="B" d="M205 402h90q76 0 113.5 30.5t37.5 103.5q0 54 -37 73.5t-99 19.5h-81zM172 82h114q85 0 131.5 29t46.5 110q0 30 -12.5 51t-29 31t-45.5 15.5t-47.5 6.5t-49.5 1h-83zM61 0l74 707h206q212 0 212 -159q0 -57 -29 -104t-80 -64v-3q56 -10 90 -51t34 -98q0 -116 -74.5 -172 t-196.5 -56h-236z"/>
<glyph glyph-name="C" horiz-adv-x="642" unicode="C" d="M380 -10q-150 0 -238.5 83t-88.5 234q0 189 106.5 298t293.5 109q99 0 172 -31l-33 -77q-69 22 -147 22q-137 0 -212.5 -85t-75.5 -225q0 -117 67.5 -178.5t183.5 -61.5q87 0 155 20l18 -81q-87 -27 -201 -27z"/>
<glyph glyph-name="D" horiz-adv-x="737" unicode="D" d="M170 82h120q148 0 225 78t77 230q0 122 -70.5 178.5t-194.5 56.5h-99zM61 0l74 707h203q159 0 257.5 -76.5t98.5 -233.5q0 -197 -111 -297t-311 -100h-211z"/>
<glyph glyph-name="E" horiz-adv-x="573" unicode="E" d="M61 0l74 707h410l-8 -81h-309l-24 -231h287l-9 -80h-286l-25 -234h332l-8 -81h-434z"/>
<glyph glyph-name="F" horiz-adv-x="518" unicode="F" d="M61 0l74 707h387l-9 -81h-285l-26 -250h263l-8 -80h-264l-31 -296h-101z"/>
<glyph glyph-name="G" horiz-adv-x="671" unicode="G" d="M380 -10q-150 0 -238.5 83t-88.5 233q0 190 107 299t295 109q103 0 176 -31l-36 -77q-72 22 -148 22q-138 0 -213.5 -84t-75.5 -226q0 -116 67 -178t183 -62q42 0 82 9l26 263h101l-33 -324q-93 -36 -204 -36z"/>
<glyph glyph-name="H" horiz-adv-x="750" unicode="H" d="M61 0l74 707h101l-32 -312h360l33 312h102l-74 -707h-102l34 314h-361l-34 -314h-101z"/>
<glyph glyph-name="I" horiz-adv-x="287" unicode="I" d="M61 0l74 707h101l-74 -707h-101z"/>
<glyph glyph-name="J" horiz-adv-x="288" unicode="J" d="M-62 -189l-32 73q91 49 126 105.5t47 161.5l58 556h101l-58 -554q-5 -50 -14 -89t-26.5 -78.5t-43 -69.5t-65.5 -57.5t-93 -47.5z"/>
<glyph glyph-name="K" horiz-adv-x="625" unicode="K" d="M61 0l74 707h101l-74 -707h-101zM484 -25l-271 394l1 12l307 326h126l-317 -328l250 -356z"/>
<glyph glyph-name="L" horiz-adv-x="502" unicode="L" d="M61 0l74 707h101l-65 -623h307l-9 -84h-408z"/>
<glyph glyph-name="M" horiz-adv-x="913" unicode="M" d="M-1 0l237 707h127l49 -638l280 638h126l-2 -707h-99l11 574l-253 -574h-149l-44 576l-183 -576h-100z"/>
<glyph glyph-name="N" horiz-adv-x="739" unicode="N" d="M61 0l75 707h136l255 -609l61 609h101l-76 -707h-142l-248 594l-61 -594h-101z"/>
<glyph glyph-name="O" horiz-adv-x="805" unicode="O" d="M373 71q137 0 210.5 92t73.5 234q0 109 -56 173t-163 64q-135 0 -208.5 -90.5t-73.5 -230.5q0 -110 55 -176t162 -66zM361 -11q-146 0 -227 84t-81 231q0 187 107 300.5t292 113.5q147 0 228.5 -83.5t81.5 -230.5q0 -189 -107 -302t-294 -113z"/>
<glyph glyph-name="P" horiz-adv-x="601" unicode="P" d="M61 0l74 707h240q98 0 158 -50.5t60 -146.5q0 -69 -26.5 -121.5t-73 -83t-103 -45.5t-121.5 -15h-3h-27l10 82q32 0 44 1q90 6 141 44.5t51 127.5q0 126 -140 126h-116l-66 -626h-102z"/>
<glyph glyph-name="Q" horiz-adv-x="805" unicode="Q" d="M373 71q137 0 210.5 92t73.5 234q0 109 -56 173t-163 64q-135 0 -208.5 -90.5t-73.5 -230.5q0 -110 55 -176t162 -66zM361 -11q-146 0 -227 84t-81 231q0 187 107 300.5t292 113.5q147 0 228.5 -83.5t81.5 -230.5q0 -189 -107 -302t-294 -113zM737 -165l-381 59l8 74 l382 -53z"/>
<glyph glyph-name="R" horiz-adv-x="654" unicode="R" d="M202 368h85q192 0 192 156q0 102 -141 102h-109zM525 -24l-198 317q-26 -3 -74 -3h-59l-31 -290h-102l74 707h232q97 0 158 -45.5t61 -132.5q0 -74 -39.5 -130.5t-113.5 -81.5l187 -295z"/>
<glyph glyph-name="S" horiz-adv-x="535" unicode="S" d="M214 -12q-51 0 -109 14t-97 35l38 82q101 -43 175 -43q69 0 114 27.5t45 91.5q0 35 -30.5 63.5t-74 51t-86.5 49t-73.5 69.5t-30.5 99q0 92 68 140.5t167 48.5q107 0 190 -43l-35 -76q-76 33 -157 33q-134 0 -134 -97q0 -33 30.5 -61.5t74 -53t87.5 -51.5t74.5 -69.5 t30.5 -94.5q0 -105 -77.5 -160t-189.5 -55z"/>
<glyph glyph-name="T" horiz-adv-x="582" unicode="T" d="M207 0l65 624h-237l10 83h575l-9 -83h-237l-65 -624h-102z"/>
<glyph glyph-name="U" horiz-adv-x="737" unicode="U" d="M342 -12q-42 0 -79 6t-72 22t-60 40.5t-40 64t-15 89.5q0 27 2 41l48 456h103l-47 -449q-2 -24 -2 -34q0 -150 166 -150q88 0 141 47.5t65 160.5l44 425h98l-45 -428q-9 -83 -39 -142.5t-74.5 -90.5t-92 -44.5t-101.5 -13.5z"/>
<glyph glyph-name="V" horiz-adv-x="667" unicode="V" d="M220 0l-171 707h106l142 -630l315 630h105l-360 -707h-137z"/>
<glyph glyph-name="W" horiz-adv-x="988" unicode="W" d="M179 0l-109 707h106l86 -624l218 452l-38 172h106l122 -624l246 624h102l-288 -707h-136l-85 406l-196 -406h-134z"/>
<glyph glyph-name="X" horiz-adv-x="609" unicode="X" d="M-31 0l289 371l-168 336h114l121 -259l193 259h112l-261 -335l188 -372h-115l-140 292l-218 -292h-115z"/>
<glyph glyph-name="Y" horiz-adv-x="612" unicode="Y" d="M219 0l27 262l-190 445h114l139 -358l227 358h111l-300 -442l-27 -265h-101z"/>
<glyph glyph-name="Z" horiz-adv-x="570" unicode="Z" d="M2 0l8 80l417 538h-334l9 89h455l-7 -74l-420 -545h383l-9 -88h-502z"/>
<glyph glyph-name="bracketleft" horiz-adv-x="301" unicode="[" d="M21 -220l102 974h198l-8 -82h-100l-86 -810h100l-8 -82h-198z"/>
<glyph glyph-name="backslash" horiz-adv-x="375" unicode="\" d="M221 -62l-146 831h90l146 -831h-90z"/>
<glyph glyph-name="bracketright" horiz-adv-x="300" unicode="]" d="M-29 -220l9 82h100l85 810h-100l8 82h199l-103 -974h-198z"/>
<glyph glyph-name="asciicircum" horiz-adv-x="532" unicode="^" d="M-2 294l207 413h121l107 -413h-97l-78 341l-163 -341h-97z"/>
<glyph glyph-name="underscore" horiz-adv-x="553" unicode="_" d="M-23 -173l8 84h500l-9 -84h-499z"/>
<glyph glyph-name="grave" horiz-adv-x="557" unicode="`" d="M392 611l-202 114l43 76l193 -129z"/>
<glyph glyph-name="a" horiz-adv-x="521" unicode="a" d="M172 77q20 0 56.5 21.5t62 41.5t46.5 39l30 288q-6 1 -27 1q-63 0 -113.5 -47.5t-75.5 -116t-25 -139.5q0 -88 46 -88zM147 -13q-119 0 -119 168q0 97 39.5 186.5t118 149.5t177.5 60q64 0 109 -8l-56 -543h-98l10 91q-112 -104 -181 -104z"/>
<glyph glyph-name="b" horiz-adv-x="534" unicode="b" d="M203 71q52 0 91 32.5t59.5 83t30.5 101.5t10 98q0 82 -57 82q-52 0 -157 -65l-34 -324q35 -8 57 -8zM196 -9q-68 0 -154 24l78 740h97l-28 -273q99 69 174 69q130 0 130 -164q0 -68 -17 -135t-51 -127t-93.5 -97t-135.5 -37z"/>
<glyph glyph-name="c" horiz-adv-x="455" unicode="c" d="M179 -12q-51 0 -84 29.5t-45.5 71.5t-12.5 96q0 160 74.5 268t202.5 108q83 0 134 -49l-48 -64q-44 31 -89 31q-48 0 -83.5 -28t-53.5 -73t-26.5 -89.5t-8.5 -88.5q0 -59 14.5 -92.5t35.5 -33.5q67 0 174 55l33 -69q-39 -23 -59.5 -34t-66 -24.5t-91.5 -13.5z"/>
<glyph glyph-name="d" horiz-adv-x="524" unicode="d" d="M174 77q33 0 79.5 32t84.5 70l31 289q-7 1 -33 1h-1q-83 0 -144 -86t-61 -197q0 -61 11 -85t33 -24zM148 -13q-116 0 -116 180q0 167 92 274.5t234 109.5q2 0 10 -0.5t10 -0.5l22 204h98l-80 -754h-98l10 91q-106 -104 -182 -104z"/>
<glyph glyph-name="e" horiz-adv-x="481" unicode="e" d="M149 296l148 58q70 26 70 71q0 28 -17 42t-41 14q-67 0 -106 -52t-54 -133zM178 -12q-139 0 -139 206q0 98 29.5 180t93 134.5t150.5 52.5q74 0 112 -37.5t38 -93.5q0 -101 -155 -155l-167 -60v-23q0 -61 13.5 -90t44.5 -29q64 0 169 56l34 -70q-58 -34 -109 -52.5 t-114 -18.5z"/>
<glyph glyph-name="f" horiz-adv-x="331" unicode="f" d="M51 -189l68 658h-80l9 77h80l3 37q10 110 67 150.5t150 40.5q63 0 125 -22l-27 -78q-58 15 -103 15q-56 0 -83 -23.5t-32 -78.5l-4 -41h119l-8 -77h-119l-70 -658h-95z"/>
<glyph glyph-name="g" horiz-adv-x="520" unicode="g" d="M172 77q29 0 79.5 35t84.5 67l30 288q-6 1 -26 1q-88 0 -150.5 -91t-62.5 -209q0 -91 45 -91zM153 -230q-111 0 -181 26l23 84q79 -25 145 -25q39 0 66 4.5t52 17.5t39.5 40t18.5 68l12 106q-57 -54 -99 -79t-83 -25q-62 0 -89.5 42.5t-27.5 126.5q0 163 96 279t238 116 q63 0 109 -8l-60 -575q-6 -56 -31 -96.5t-63 -61.5t-78.5 -30.5t-86.5 -9.5z"/>
<glyph glyph-name="h" d="M42 0l79 754h99l-31 -289q37 30 60.5 46.5t61 32.5t71.5 16q56 0 78.5 -24.5t22.5 -82.5q0 -30 -4 -59l-42 -394h-98l41 374q3 28 3 48q0 24 -8.5 34.5t-28.5 10.5q-57 0 -166 -86l-40 -381h-98z" unicode="h"/>
<glyph glyph-name="i" horiz-adv-x="246" unicode="i" d="M158 641l-68 74l84 74l69 -74zM42 0l57 546h98l-57 -546h-98z"/>
<glyph glyph-name="j" horiz-adv-x="246" unicode="j" d="M153 641l-68 74l84 74l69 -74zM-69 -220q-50 0 -88 16l24 80q41 -11 71 -11q52 0 74 29.5t29 93.5l58 558h98l-59 -559q-12 -116 -65 -161.5t-142 -45.5z"/>
<glyph glyph-name="k" horiz-adv-x="499" unicode="k" d="M42 0l79 754h98l-80 -754h-97zM359 -10l-181 295l199 261h111l-200 -255l174 -283z"/>
<glyph glyph-name="l" horiz-adv-x="246" unicode="l" d="M42 0l79 754h98l-80 -754h-97z"/>
<glyph glyph-name="m" horiz-adv-x="817" unicode="m" d="M42 0l58 546h98l-8 -80q33 27 53.5 42t59.5 33.5t71 18.5q51 0 74 -21.5t25 -67.5q112 89 188 89q54 0 76.5 -24.5t22.5 -81.5q0 -31 -4 -60l-42 -394h-98l41 374q3 27 3 45q0 27 -8 37.5t-30 10.5q-51 0 -153 -79l-41 -388h-98l41 374q3 27 3 45q0 27 -8.5 37t-29.5 10 q-51 0 -155 -85l-41 -381h-98z"/>
<glyph glyph-name="n" horiz-adv-x="541" unicode="n" d="M42 0l58 546h98l-8 -81q35 29 59.5 46t62 33t71.5 16q55 0 78 -25t23 -82q0 -30 -4 -59l-42 -394h-98l41 374q2 17 2 44q0 26 -8 37.5t-28 11.5q-59 0 -166 -86l-41 -381h-98z"/>
<glyph glyph-name="o" horiz-adv-x="527" unicode="o" d="M228 71q63 0 110.5 80t47.5 205q0 65 -23 94t-72 29q-63 0 -109 -81t-46 -200q0 -127 92 -127zM208 -12q-81 0 -127 56t-46 142q0 168 76.5 270.5t203.5 102.5q82 0 126.5 -56.5t44.5 -136.5q0 -66 -14.5 -128.5t-45 -120.5t-87 -93.5t-131.5 -35.5z"/>
<glyph glyph-name="p" horiz-adv-x="535" unicode="p" d="M204 71q52 0 91 32.5t59.5 82.5t30.5 101t10 98q0 82 -57 82q-53 0 -156 -65l-34 -323q44 -8 56 -8zM18 -220l82 766h97l-6 -65q93 69 173 69q130 0 130 -165q0 -68 -17 -134.5t-51 -126t-93 -96.5t-135 -37q-29 0 -59 5l-23 -216h-98z"/>
<glyph glyph-name="q" horiz-adv-x="521" unicode="q" d="M172 77q20 0 56.5 21.5t62 41.5t46.5 39l30 288q-8 1 -27 1q-88 0 -150 -90.5t-62 -207.5q0 -52 11 -72.5t33 -20.5zM295 -220l33 311q-58 -53 -100.5 -78.5t-80.5 -25.5q-62 0 -89.5 43t-27.5 128q0 163 95.5 278t237.5 115q64 0 109 -8l-79 -763h-98z"/>
<glyph glyph-name="r" horiz-adv-x="363" unicode="r" d="M42 0l58 546h97l-8 -81q2 2 7 6q98 85 160 85q16 0 29 -2l-18 -94q-14 3 -34 3q-9 0 -20 -3t-24 -9.5t-22.5 -12t-24.5 -16.5t-22 -16t-22.5 -17t-17.5 -14l-40 -375h-98z"/>
<glyph glyph-name="s" horiz-adv-x="427" unicode="s" d="M160 -10q-96 0 -159 29l27 80q73 -25 139 -25q25 0 47 4.5t42 21t20 43.5q0 25 -21.5 48t-53 43t-62.5 42t-52.5 54.5t-21.5 71.5q0 81 52.5 118t135.5 37q91 0 151 -30l-27 -75q-70 25 -129 25q-89 0 -89 -65q0 -25 22 -48.5t53 -44t62 -43.5t53 -57t22 -74 q0 -36 -13.5 -64t-34.5 -44.5t-50 -27.5t-56.5 -15t-56.5 -4z"/>
<glyph glyph-name="t" horiz-adv-x="392" unicode="t" d="M191 -12q-55 0 -83.5 26t-29.5 86q0 28 2 45l36 323h-80l8 78h81l11 112h97l-11 -112h160l-7 -78h-161l-36 -326q-1 -7 -1 -18q0 -49 39 -49q51 0 116 30l21 -74q-74 -43 -162 -43z"/>
<glyph glyph-name="u" d="M161 -11q-59 0 -84.5 26t-25.5 89q0 21 3 50l42 392h98l-41 -376q-3 -26 -3 -43q0 -29 9.5 -40.5t31.5 -11.5q65 0 161 87l42 384h97l-58 -546h-97l8 81q-96 -92 -183 -92z" unicode="u"/>
<glyph glyph-name="v" horiz-adv-x="493" unicode="v" d="M131 0l-88 546h105l62 -465l133 278q42 89 42 161q0 10 -2 26h102q3 -9 3 -26q0 -74 -49 -174l-171 -346h-137z"/>
<glyph glyph-name="w" horiz-adv-x="799" unicode="w" d="M129 0l-85 546h105l59 -465l169 303l-27 162h105l62 -465l133 278q42 87 42 160q0 19 -2 27h103q2 -12 2 -26q0 -76 -49 -174l-171 -346h-138l-42 265l-149 -265h-117z"/>
<glyph glyph-name="x" horiz-adv-x="482" unicode="x" d="M-27 0l219 287l-119 259h105l79 -178l131 178h105l-197 -260l129 -286h-106l-88 204l-151 -204h-107z"/>
<glyph glyph-name="y" horiz-adv-x="496" unicode="y" d="M61 -220l109 220h-41l-84 546h105l61 -466l135 279q42 89 42 161q0 10 -2 26h103q2 -12 2 -26q0 -76 -48 -174l-280 -566h-102z"/>
<glyph glyph-name="z" horiz-adv-x="468" unicode="z" d="M-1 0l9 77l320 387h-255l10 82h369l-8 -74l-321 -390h283l-9 -82h-398z"/>
<glyph glyph-name="braceleft" horiz-adv-x="341" unicode="{" d="M230 -220q-55 0 -93 9t-64 37t-26 75q0 22 6 50l42 196q1 4 1 13q0 28 -19.5 49.5t-54.5 21.5l9 84q39 0 64.5 26.5t25.5 57.5v202q0 171 213 171h30l-9 -83h-30q-107 0 -107 -95l2 -180q0 -112 -93 -139v-2q68 -27 68 -97q0 -17 -5 -42l-39 -180q-3 -15 -3 -26 q0 -66 90 -66h30l-9 -82h-29z"/>
<glyph glyph-name="bar" horiz-adv-x="245" unicode="|" d="M21 -220l102 974h93l-102 -974h-93z"/>
<glyph glyph-name="braceright" horiz-adv-x="341" unicode="}" d="M-29 -220l9 82h30q107 0 107 92l-2 180q0 105 93 139v2q-68 21 -68 96q0 23 5 43l39 180q3 16 3 29q0 65 -90 65h-30l9 84h30q182 0 182 -124q0 -19 -5 -47l-43 -202q-1 -5 -1 -14q0 -28 20 -49t54 -21l-10 -84q-38 0 -63.5 -27t-25.5 -57v-196q0 -51 -16 -86t-47.5 -53 t-67 -25t-82.5 -7h-30z"/>
<glyph glyph-name="asciitilde" horiz-adv-x="571" unicode="~" d="M389 274q-53 0 -115 30t-93 30q-43 0 -87 -30l-42 65q67 63 141 63q52 0 109 -30.5t93 -30.5q46 0 89 33l45 -59q-27 -31 -64.5 -51t-75.5 -20z"/>
<glyph glyph-name="uni00A0" horiz-adv-x="246" unicode=" "/>
<glyph glyph-name="exclamdown" horiz-adv-x="257" unicode="¡" d="M91 446l10 100h106l-10 -100h-106zM31 -161l39 374l21 151h87l-11 -151l-39 -374h-97z"/>
<glyph glyph-name="cent" horiz-adv-x="460" unicode="¢" d="M189 0l12 94q-14 -2 -23 -2q-71 3 -101.5 60t-30.5 141q0 137 56.5 237.5t156.5 126.5l7 97h94l-12 -91q71 -9 108 -48l-47 -65q-38 33 -89 33q-39 0 -69.5 -19t-49 -48.5t-31 -68t-17 -73.5t-4.5 -69q0 -60 14 -93.5t36 -33.5q40 0 78 13.5t94 41.5l34 -69 q-56 -37 -114 -57l-8 -107h-94z"/>
<glyph glyph-name="sterling" horiz-adv-x="521" unicode="£" d="M24 0l8 83q20 7 37 28t28.5 49t18 48t10.5 38h-93l9 79h98q4 23 7 52t6.5 67t5.5 61q6 56 28.5 96t50 60t67.5 31t69 13.5t67 3.5h11l-5 -85q-8 -1 -28 -2.5t-28 -2t-24.5 -2.5t-24 -4.5t-20.5 -7.5t-19.5 -11t-15.5 -14.5t-13.5 -20t-8.5 -26t-6 -32.5 q-13 -139 -20 -176h172l-9 -79h-180q-25 -111 -76 -163h314l-9 -83h-427z"/>
<glyph glyph-name="currency" horiz-adv-x="549" unicode="¤" d="M280 255q49 0 72.5 27.5t23.5 71.5q0 41 -24.5 68.5t-71.5 27.5t-72.5 -28t-25.5 -70q0 -41 25.5 -69t72.5 -28zM107 133l-46 45l67 66q-38 45 -38 108q0 65 37 108l-65 65l45 44l69 -69q51 28 104 28q60 0 104 -27l68 69l46 -46l-65 -64q36 -40 36 -108t-38 -109l66 -64 l-45 -46l-69 69q-50 -25 -103 -25q-59 0 -102 26z"/>
<glyph glyph-name="yen" horiz-adv-x="659" unicode="¥" d="M668 707l-253 -377h183l-9 -83h-222l-11 -101h222l-9 -83h-221l-7 -63h-100l6 63h-209l9 83h208l12 101h-209l9 83h170l-160 377h114l140 -360l227 360h110z"/>
<glyph glyph-name="brokenbar" horiz-adv-x="288" unicode="¦" d="M107 392l38 362h93l-38 -362h-93zM42 -220l38 362h93l-38 -362h-93z"/>
<glyph glyph-name="section" horiz-adv-x="467" unicode="§" d="M195 -125q42 28 63 77.5t21 105.5q0 31 -5 71l-47 367q-4 38 -4 57q0 74 20 112l-2 2q-73 -46 -73 -177q0 -29 3 -59l46 -367q4 -29 4 -67q0 -71 -28 -120zM71 -216q-66 0 -114 39l37 78q44 -36 84 -36q22 0 35 21t16 42.5t3 44.5q0 39 -7 91l-42 338q-4 44 -4 66 q0 132 78.5 212t209.5 80q88 0 149 -48l-44 -70q-55 39 -111 39q-53 0 -53 -93q0 -27 4 -48l47 -343q8 -61 8 -117q0 -131 -82.5 -213.5t-213.5 -82.5z"/>
<glyph glyph-name="dieresis" horiz-adv-x="429" unicode="¨" d="M400 647l-58 66l72 65l59 -65zM195 647l-59 66l73 65l59 -65z"/>
<glyph glyph-name="copyright" horiz-adv-x="829" unicode="©" d="M346 50q150 0 237 99t87 248q0 117 -65 188t-186 71q-146 0 -233.5 -98.5t-87.5 -245.5q0 -115 63.5 -188.5t184.5 -73.5zM337 -8q-145 0 -227 84t-82 225q0 180 111.5 297t292.5 117q147 0 227 -85t80 -224q0 -179 -110 -296.5t-292 -117.5zM383 149q-91 0 -141 48.5 t-50 127.5v11q5 104 66 167.5t168 63.5q70 0 121 -28l-29 -56q-42 19 -99 19q-66 0 -109 -41.5t-46 -118.5v-6q0 -60 38.5 -90.5t98.5 -30.5q38 0 97 17l13 -59q-67 -24 -128 -24z"/>
<glyph glyph-name="ordfeminine" horiz-adv-x="398" unicode="ª" d="M58 293l7 60h285l-7 -60h-285zM176 448q15 0 42.5 17t45.5 33l16 156l-13 1h-1q-43 0 -76 -46t-33 -106q0 -55 19 -55zM159 387q-72 0 -72 111q0 92 56.5 154t140.5 62q34 0 71 -7l-33 -314h-69l5 46q-57 -52 -99 -52z"/>
<glyph glyph-name="guillemotleft" horiz-adv-x="449" unicode="«" d="M308 50l-87 222l134 222l64 -27l-109 -195l67 -192zM123 50l-88 222l134 222l65 -27l-109 -195l67 -192z"/>
<glyph glyph-name="logicalnot" horiz-adv-x="615" unicode="¬" d="M432 104l16 158h-392l8 84h483l-25 -242h-90z"/>
<glyph glyph-name="registered" horiz-adv-x="550" unicode="®" d="M260 545h31q47 0 47 42q0 22 -9 32t-34 10h-35v-84zM416 414q-48 0 -75 26q-21 19 -49 71q-3 -1 -18 -1h-14v-91h-54v247h94q42 0 66 -19.5t24 -58.5q0 -47 -44 -68q23 -36 34 -47t42 -23zM304 353q79 0 129.5 47t50.5 132q0 89 -54.5 135.5t-130.5 46.5 q-82 0 -135.5 -44.5t-53.5 -133.5q0 -45 14.5 -79.5t35.5 -53.5t49 -31t50.5 -15.5t44.5 -3.5zM299 309q-42 0 -82 11.5t-76 36.5t-58 70t-22 105q0 106 67 166t170 60q96 0 165.5 -56t69.5 -170q0 -105 -66.5 -164t-167.5 -59z"/>
<glyph glyph-name="macron" horiz-adv-x="521" unicode="¯" d="M146 665l9 81h272l-9 -81h-272z"/>
<glyph glyph-name="degree" horiz-adv-x="396" unicode="°" d="M214 472q77 0 87 89q1 5 1 15q0 34 -18.5 53.5t-50.5 19.5q-36 0 -58.5 -23t-26.5 -65q-1 -6 -1 -18q0 -35 18 -53t49 -18zM205 403q-68 0 -104 34t-36 99q0 16 1 25q7 70 57 113t118 43q67 0 105.5 -35.5t38.5 -98.5q0 -15 -1 -22q-8 -72 -57.5 -115t-121.5 -43z"/>
<glyph glyph-name="plusminus" d="M20 0l8 85h439l-8 -85h-439zM208 124l19 176l-176 -1l9 84l176 -1l18 177h88l-22 -179l179 3l-9 -84l-177 1l-17 -176h-88z" unicode="±"/>
<glyph glyph-name="twosuperior" horiz-adv-x="307" unicode="²" d="M-5 415l6 58q122 83 157 117q42 41 45 75v5q0 22 -14.5 34t-37.5 12q-49 0 -87 -30q-2 7 -12.5 28l-12.5 25q55 47 132 47q52 0 84 -27.5t32 -72.5q0 -2 -0.5 -6.5t-0.5 -6.5q-6 -57 -55 -101.5t-129 -89.5h169l-7 -67h-269z"/>
<glyph glyph-name="threesuperior" horiz-adv-x="302" unicode="³" d="M113 410q-59 0 -109 16q2 7 11 32.5t10 29.5q50 -13 87 -13q74 0 79 51v8q0 27 -23 38t-72 13l5 43q90 8 90 61q0 17 -13.5 26.5t-34.5 9.5q-37 0 -74 -17q-1 6 -6.5 27t-6.5 27q47 25 104 25q52 0 83 -21.5t31 -61.5q0 -2 -0.5 -5t-0.5 -5q-3 -26 -20 -48t-44 -33 q65 -17 65 -81v-10q-6 -58 -51.5 -85t-109.5 -27z"/>
<glyph glyph-name="acute" horiz-adv-x="551" unicode="´" d="M248 613l-34 61l201 133l42 -77z"/>
<glyph glyph-name="mu" horiz-adv-x="550" unicode="µ" d="M17 -220l81 766h98l-41 -376q-3 -28 -3 -46q1 -27 10.5 -37t32.5 -10q20 0 45.5 11.5t44 24t41.5 30t29 21.5l40 382h99l-58 -546h-98l9 81q-2 -2 -33 -27t-44.5 -34t-41.5 -20.5t-54 -12.5q-20 0 -37 5l-22 -212h-98z"/>
<glyph glyph-name="paragraph" horiz-adv-x="586" unicode="¶" d="M237 260q-93 0 -143 47t-50 139q0 135 69 198t204 63h61l-47 -447h-94zM264 -220q-41 0 -80 15l26 76q20 -5 64 -5q55 0 78 31.5t30 91.5l75 718h98l-76 -719q-22 -208 -215 -208z"/>
<glyph glyph-name="periodcentered" horiz-adv-x="244" unicode="·" d="M119 291l-69 76l86 76l71 -76z"/>
<glyph glyph-name="cedilla" horiz-adv-x="467" unicode="¸" d="M152 -249l-27 57q66 37 70 75v7q0 22 -13 59h87q14 -30 14 -57q0 -9 -1 -13q-8 -79 -130 -128z"/>
<glyph glyph-name="onesuperior" horiz-adv-x="250" unicode="¹" d="M86 415l31 300h-84l6 65q53 0 169 4l-39 -369h-83z"/>
<glyph glyph-name="ordmasculine" horiz-adv-x="409" unicode="º" d="M60 294l7 59h286l-8 -59h-285zM219 443q41 0 61 44.5t20 95.5q0 33 -14.5 55.5t-43.5 22.5t-48 -24t-26 -53.5t-7 -60.5q0 -34 14 -57t44 -23zM209 384q-54 0 -87 37t-33 95q0 90 44 146.5t119 56.5q58 0 89 -37.5t31 -95.5q0 -82 -41.5 -142t-121.5 -60z"/>
<glyph glyph-name="guillemotright" horiz-adv-x="449" unicode="»" d="M272 50l-62 30l107 192l-68 195l70 27l87 -222zM87 50l-62 30l106 192l-67 195l70 27l88 -222z"/>
<glyph glyph-name="onequarter" horiz-adv-x="810" unicode="¼" d="M98 72l-40 46l587 538l39 -45zM106 415l31 300h-84l6 65q53 0 169 4l-39 -369h-83zM483 147h105l18 176zM573 1l9 85h-165l7 66l146 215h119l-24 -220h59l-7 -61h-58l-9 -85h-77z"/>
<glyph glyph-name="onehalf" horiz-adv-x="809" unicode="½" d="M91 72l-40 46l587 538l39 -45zM106 415l31 300h-84l6 65q53 0 169 4l-39 -369h-83zM419 0l6 58q122 83 157 117q42 41 45 75v5q0 22 -14.5 34t-37.5 12q-49 0 -87 -30q-2 7 -12.5 27.5t-12.5 25.5q55 47 132 47q52 0 84 -27.5t32 -72.5q0 -2 -0.5 -6.5t-0.5 -6.5 q-6 -57 -55 -101.5t-129 -89.5h169l-7 -67h-269z"/>
<glyph glyph-name="threequarters" horiz-adv-x="815" unicode="¾" d="M115 72l-40 46l587 538l39 -45zM129 410q-59 0 -109 16q2 7 11 32.5t10 29.5q50 -13 87 -13q74 0 79 51v8q0 27 -23 38t-72 13l5 43q90 8 90 61q0 17 -13.5 26.5t-34.5 9.5q-37 0 -74 -17q-1 6 -6.5 27t-6.5 27q47 25 104 25q52 0 83 -21.5t31 -61.5q0 -2 -0.5 -5 t-0.5 -5q-3 -26 -20 -48t-44 -33q65 -17 65 -81v-10q-6 -58 -51.5 -85t-109.5 -27zM488 147h105l18 176zM578 1l9 85h-165l7 66l146 215h119l-24 -220h59l-7 -61h-58l-9 -85h-77z"/>
<glyph glyph-name="questiondown" horiz-adv-x="332" unicode="¿" d="M175 446l11 100h106l-10 -100h-107zM234 -163q-44 3 -83 14t-75 31t-57.5 55.5t-21.5 81.5q0 44 18.5 80.5t45 61t54 47t48 50t23.5 57.5v9q0 14 -2 42l85 11q7 -24 7 -53q0 -43 -18 -80t-44 -63t-52 -49t-44 -49t-18 -52q0 -52 50.5 -79t111.5 -32z"/>
<glyph glyph-name="Agrave" horiz-adv-x="652" unicode="À" d="M227 330h208l-47 243l-12 78l-34 -79zM-38 0l351 707h142l152 -707h-105l-51 252h-263l-123 -252h-103zM454 736l-233 65l29 85l225 -84z"/>
<glyph glyph-name="Aacute" horiz-adv-x="652" unicode="Á" d="M312 737l-19 66l239 83l23 -85zM227 330h208l-47 243l-12 78l-34 -79zM-38 0l351 707h142l152 -707h-105l-51 252h-263l-123 -252h-103z"/>
<glyph glyph-name="Acircumflex" horiz-adv-x="652" unicode="Â" d="M533 737l-137 65l-154 -63l-28 67l189 83l165 -84zM227 330h208l-47 243l-12 78l-34 -79zM-38 0l351 707h142l152 -707h-105l-51 252h-263l-123 -252h-103z"/>
<glyph glyph-name="Atilde" horiz-adv-x="652" unicode="Ã" d="M445 746q-22 0 -63 18.5t-58 18.5q-38 0 -75 -26l-35 53q58 52 116 52q26 0 67 -18t57 -18q35 0 78 27l31 -55q-54 -52 -118 -52zM227 330h208l-47 243l-12 78l-34 -79zM-38 0l351 707h142l152 -707h-105l-51 252h-263l-123 -252h-103z"/>
<glyph glyph-name="Adieresis" horiz-adv-x="652" unicode="Ä" d="M493 749l-58 67l71 65l60 -65zM278 749l-58 67l72 65l58 -65zM227 330h208l-47 243l-12 78l-34 -79zM-38 0l351 707h142l152 -707h-105l-51 252h-263l-123 -252h-103z"/>
<glyph glyph-name="Aring" horiz-adv-x="652" unicode="Å" d="M394 780q24 0 40.5 15t16.5 39q0 21 -14 34t-35 13q-26 0 -41.5 -14.5t-15.5 -39.5q0 -22 13.5 -34.5t35.5 -12.5zM390 736q-42 0 -71 21t-29 59q0 50 34 81t84 31q40 0 68.5 -23t28.5 -61q0 -49 -32.5 -78.5t-82.5 -29.5zM227 330h208l-47 243l-12 78l-34 -79zM-38 0 l351 707h142l152 -707h-105l-51 252h-263l-123 -252h-103z"/>
<glyph glyph-name="AE" horiz-adv-x="921" unicode="Æ" d="M304 394h149l25 232h-27zM-54 0l462 707h485l-8 -81h-309l-24 -231h287l-8 -80h-287l-25 -234h332l-8 -81h-434l35 315h-188l-197 -315h-113z"/>
<glyph glyph-name="Ccedilla" horiz-adv-x="642" unicode="Ç" d="M301 -249l-27 57q66 37 70 75v7q0 22 -13 59h87q14 -30 14 -57q0 -9 -1 -13q-8 -79 -130 -128zM380 -10q-150 0 -238.5 83t-88.5 234q0 189 106.5 298t293.5 109q99 0 172 -31l-33 -77q-69 22 -147 22q-137 0 -212.5 -85t-75.5 -225q0 -117 67.5 -178.5t183.5 -61.5 q87 0 155 20l18 -81q-87 -27 -201 -27z"/>
<glyph glyph-name="Egrave" horiz-adv-x="573" unicode="È" d="M61 0l74 707h410l-8 -81h-309l-24 -231h287l-9 -80h-286l-25 -234h332l-8 -81h-434zM422 736l-233 65l29 85l225 -84z"/>
<glyph glyph-name="Eacute" horiz-adv-x="573" unicode="É" d="M61 0l74 707h410l-8 -81h-309l-24 -231h287l-9 -80h-286l-25 -234h332l-8 -81h-434zM273 737l-19 66l239 83l23 -85z"/>
<glyph glyph-name="Ecircumflex" horiz-adv-x="573" unicode="Ê" d="M489 737l-137 65l-154 -63l-28 67l189 83l165 -84zM61 0l74 707h410l-8 -81h-309l-24 -231h287l-9 -80h-286l-25 -234h332l-8 -81h-434z"/>
<glyph glyph-name="Edieresis" horiz-adv-x="573" unicode="Ë" d="M61 0l74 707h410l-8 -81h-309l-24 -231h287l-9 -80h-286l-25 -234h332l-8 -81h-434zM457 749l-58 67l71 65l60 -65zM242 749l-58 67l72 65l58 -65z"/>
<glyph glyph-name="Igrave" horiz-adv-x="287" unicode="Ì" d="M61 0l74 707h101l-74 -707h-101zM244 736l-233 65l29 85l225 -84z"/>
<glyph glyph-name="Iacute" horiz-adv-x="287" unicode="Í" d="M131 737l-19 66l239 83l23 -85zM61 0l74 707h101l-74 -707h-101z"/>
<glyph glyph-name="Icircumflex" horiz-adv-x="287" unicode="Î" d="M338 737l-137 65l-154 -63l-28 67l189 83l165 -84zM61 0l74 707h101l-74 -707h-101z"/>
<glyph glyph-name="Idieresis" horiz-adv-x="287" unicode="Ï" d="M299 749l-58 67l71 65l60 -65zM84 749l-58 67l72 65l58 -65zM61 0l74 707h101l-74 -707h-101z"/>
<glyph glyph-name="Eth" horiz-adv-x="765" unicode="Ð" d="M198 82h120q148 0 225 78t77 230q0 122 -70.5 178.5t-194.5 56.5h-99l-25 -233h147l-9 -80h-147zM48 312l9 80h73l33 315h203q159 0 257.5 -76.5t98.5 -233.5q0 -197 -111 -297t-311 -100h-211l32 312h-73z"/>
<glyph glyph-name="Ntilde" horiz-adv-x="739" unicode="Ñ" d="M61 0l75 707h136l255 -609l61 609h101l-76 -707h-142l-248 594l-61 -594h-101zM487 746q-22 0 -63 18.5t-58 18.5q-38 0 -75 -26l-35 53q58 52 116 52q26 0 67 -18t57 -18q35 0 78 27l31 -55q-54 -52 -118 -52z"/>
<glyph glyph-name="Ograve" horiz-adv-x="805" unicode="Ò" d="M373 71q137 0 210.5 92t73.5 234q0 109 -56 173t-163 64q-135 0 -208.5 -90.5t-73.5 -230.5q0 -110 55 -176t162 -66zM361 -11q-146 0 -227 84t-81 231q0 187 107 300.5t292 113.5q147 0 228.5 -83.5t81.5 -230.5q0 -189 -107 -302t-294 -113zM517 736l-233 65l29 85 l225 -84z"/>
<glyph glyph-name="Oacute" horiz-adv-x="805" unicode="Ó" d="M373 71q137 0 210.5 92t73.5 234q0 109 -56 173t-163 64q-135 0 -208.5 -90.5t-73.5 -230.5q0 -110 55 -176t162 -66zM361 -11q-146 0 -227 84t-81 231q0 187 107 300.5t292 113.5q147 0 228.5 -83.5t81.5 -230.5q0 -189 -107 -302t-294 -113zM360 737l-19 66l239 83 l23 -85z"/>
<glyph glyph-name="Ocircumflex" horiz-adv-x="805" unicode="Ô" d="M373 71q137 0 210.5 92t73.5 234q0 109 -56 173t-163 64q-135 0 -208.5 -90.5t-73.5 -230.5q0 -110 55 -176t162 -66zM361 -11q-146 0 -227 84t-81 231q0 187 107 300.5t292 113.5q147 0 228.5 -83.5t81.5 -230.5q0 -189 -107 -302t-294 -113zM590 737l-137 65l-154 -63 l-28 67l189 83l165 -84z"/>
<glyph glyph-name="Otilde" horiz-adv-x="805" unicode="Õ" d="M373 71q137 0 210.5 92t73.5 234q0 109 -56 173t-163 64q-135 0 -208.5 -90.5t-73.5 -230.5q0 -110 55 -176t162 -66zM361 -11q-146 0 -227 84t-81 231q0 187 107 300.5t292 113.5q147 0 228.5 -83.5t81.5 -230.5q0 -189 -107 -302t-294 -113zM510 746q-22 0 -63 18.5 t-58 18.5q-38 0 -75 -26l-35 53q58 52 116 52q26 0 67 -18t57 -18q35 0 78 27l31 -55q-54 -52 -118 -52z"/>
<glyph glyph-name="Odieresis" horiz-adv-x="805" unicode="Ö" d="M373 71q137 0 210.5 92t73.5 234q0 109 -56 173t-163 64q-135 0 -208.5 -90.5t-73.5 -230.5q0 -110 55 -176t162 -66zM361 -11q-146 0 -227 84t-81 231q0 187 107 300.5t292 113.5q147 0 228.5 -83.5t81.5 -230.5q0 -189 -107 -302t-294 -113zM554 749l-58 67l71 65 l60 -65zM339 749l-58 67l72 65l58 -65z"/>
<glyph glyph-name="multiply" horiz-adv-x="550" unicode="×" d="M422 75l-155 174l-184 -169l-54 61l186 167l-150 166l64 60l149 -169l188 171l55 -60l-192 -170l157 -172z"/>
<glyph glyph-name="Oslash" horiz-adv-x="831" unicode="Ø" d="M386 71q137 0 210.5 92t73.5 234q0 74 -30 131l-399 -407q56 -50 145 -50zM200 173l401 411q-56 50 -150 50q-135 0 -208.5 -91t-73.5 -230q0 -82 31 -140zM86 -33l-46 46l84 86q-58 79 -58 205q0 188 107 301t293 113q126 0 207 -64l83 83l45 -48l-83 -84 q57 -80 57 -201q0 -189 -107 -302t-294 -113q-128 0 -204 63z"/>
<glyph glyph-name="Ugrave" horiz-adv-x="738" unicode="Ù" d="M342 -12q-42 0 -79 6t-72 22t-60 40.5t-40 64t-15 89.5q0 27 2 41l48 456h103l-47 -449q-2 -24 -2 -34q0 -150 166 -150q88 0 141 47.5t65 160.5l44 425h98l-45 -428q-9 -83 -39 -142.5t-74.5 -90.5t-92 -44.5t-101.5 -13.5zM500 736l-233 65l29 85l225 -84z"/>
<glyph glyph-name="Uacute" horiz-adv-x="738" unicode="Ú" d="M342 -12q-42 0 -79 6t-72 22t-60 40.5t-40 64t-15 89.5q0 27 2 41l48 456h103l-47 -449q-2 -24 -2 -34q0 -150 166 -150q88 0 141 47.5t65 160.5l44 425h98l-45 -428q-9 -83 -39 -142.5t-74.5 -90.5t-92 -44.5t-101.5 -13.5zM344 737l-19 66l239 83l23 -85z"/>
<glyph glyph-name="Ucircumflex" horiz-adv-x="738" unicode="Û" d="M561 737l-137 65l-154 -63l-28 67l189 83l165 -84zM342 -12q-42 0 -79 6t-72 22t-60 40.5t-40 64t-15 89.5q0 27 2 41l48 456h103l-47 -449q-2 -24 -2 -34q0 -150 166 -150q88 0 141 47.5t65 160.5l44 425h98l-45 -428q-9 -83 -39 -142.5t-74.5 -90.5t-92 -44.5 t-101.5 -13.5z"/>
<glyph glyph-name="Udieresis" horiz-adv-x="738" unicode="Ü" d="M342 -12q-42 0 -79 6t-72 22t-60 40.5t-40 64t-15 89.5q0 27 2 41l48 456h103l-47 -449q-2 -24 -2 -34q0 -150 166 -150q88 0 141 47.5t65 160.5l44 425h98l-45 -428q-9 -83 -39 -142.5t-74.5 -90.5t-92 -44.5t-101.5 -13.5zM518 749l-58 67l71 65l60 -65zM303 749 l-58 67l72 65l58 -65z"/>
<glyph glyph-name="Yacute" horiz-adv-x="612" unicode="Ý" d="M297 737l-19 66l239 83l23 -85zM219 0l27 262l-190 445h114l139 -358l227 358h111l-300 -442l-27 -265h-101z"/>
<glyph glyph-name="Thorn" horiz-adv-x="601" unicode="Þ" d="M61 0l74 707h101l-12 -121h119q235 0 235 -193q0 -132 -83.5 -197t-219.5 -65q-41 0 -48 1l8 82h21h4q103 0 157 40t54 132q0 65 -36.5 92t-104.5 27h-114l-53 -505h-102z"/>
<glyph glyph-name="germandbls" horiz-adv-x="596" unicode="ß" d="M19 -220l82 787q23 207 236 207q67 0 121.5 -39t54.5 -114q0 -37 -21.5 -72.5t-47 -57.5t-47 -45.5t-21.5 -40.5q0 -26 28.5 -53.5t62 -50.5t62 -64.5t28.5 -91.5q0 -55 -33.5 -91.5t-77 -50t-92.5 -13.5q-77 0 -148 25l22 79q65 -21 120 -21q46 0 79 17.5t33 44.5 q0 29 -18 54t-44 45t-52.5 41t-44.5 51.5t-18 66.5q0 26 13.5 50.5t33 44.5l39 40t33 43.5t13.5 47.5q0 32 -26.5 52t-62.5 20q-64 0 -92.5 -32.5t-34.5 -92.5l-83 -786h-97z"/>
<glyph glyph-name="agrave" horiz-adv-x="521" unicode="à" d="M423 612l-202 114l43 76l193 -129zM172 77q20 0 56.5 21.5t62 41.5t46.5 39l30 288q-6 1 -27 1q-63 0 -113.5 -47.5t-75.5 -116t-25 -139.5q0 -88 46 -88zM147 -13q-119 0 -119 168q0 97 39.5 186.5t118 149.5t177.5 60q64 0 109 -8l-56 -543h-98l10 91 q-112 -104 -181 -104z"/>
<glyph glyph-name="aacute" horiz-adv-x="521" unicode="á" d="M300 613l-34 61l201 133l42 -77zM172 77q20 0 56.5 21.5t62 41.5t46.5 39l30 288q-6 1 -27 1q-63 0 -113.5 -47.5t-75.5 -116t-25 -139.5q0 -88 46 -88zM147 -13q-119 0 -119 168q0 97 39.5 186.5t118 149.5t177.5 60q64 0 109 -8l-56 -543h-98l10 91 q-112 -104 -181 -104z"/>
<glyph glyph-name="acircumflex" horiz-adv-x="521" unicode="â" d="M172 77q20 0 56.5 21.5t62 41.5t46.5 39l30 288q-6 1 -27 1q-63 0 -113.5 -47.5t-75.5 -116t-25 -139.5q0 -88 46 -88zM147 -13q-119 0 -119 168q0 97 39.5 186.5t118 149.5t177.5 60q64 0 109 -8l-56 -543h-98l10 91q-112 -104 -181 -104zM491 616l-129 90l-147 -89 l-40 62l198 119l166 -119z"/>
<glyph glyph-name="atilde" horiz-adv-x="521" unicode="ã" d="M421 644q-22 0 -63.5 18t-58.5 18q-36 0 -69 -25l-38 50q56 56 114 56q28 0 65.5 -18t54.5 -18q33 0 76 26l34 -51q-52 -56 -115 -56zM172 77q20 0 56.5 21.5t62 41.5t46.5 39l30 288q-6 1 -27 1q-63 0 -113.5 -47.5t-75.5 -116t-25 -139.5q0 -88 46 -88zM147 -13 q-119 0 -119 168q0 97 39.5 186.5t118 149.5t177.5 60q64 0 109 -8l-56 -543h-98l10 91q-112 -104 -181 -104z"/>
<glyph glyph-name="adieresis" horiz-adv-x="521" unicode="ä" d="M172 77q20 0 56.5 21.5t62 41.5t46.5 39l30 288q-6 1 -27 1q-63 0 -113.5 -47.5t-75.5 -116t-25 -139.5q0 -88 46 -88zM147 -13q-119 0 -119 168q0 97 39.5 186.5t118 149.5t177.5 60q64 0 109 -8l-56 -543h-98l10 91q-112 -104 -181 -104zM458 647l-58 66l72 65l59 -65z M253 647l-59 66l73 65l59 -65z"/>
<glyph glyph-name="aring" horiz-adv-x="521" unicode="å" d="M359 659q26 0 43.5 16.5t17.5 42.5q0 22 -14.5 36t-37.5 14q-27 0 -44 -16t-17 -43q0 -23 14.5 -36.5t37.5 -13.5zM354 608q-46 0 -78 23.5t-32 66.5q0 55 38 89t93 34q45 0 76.5 -25t31.5 -68q0 -55 -36.5 -87.5t-92.5 -32.5zM172 77q20 0 56.5 21.5t62 41.5t46.5 39 l30 288q-6 1 -27 1q-63 0 -113.5 -47.5t-75.5 -116t-25 -139.5q0 -88 46 -88zM147 -13q-119 0 -119 168q0 97 39.5 186.5t118 149.5t177.5 60q64 0 109 -8l-56 -543h-98l10 91q-112 -104 -181 -104z"/>
<glyph glyph-name="ae" horiz-adv-x="779" unicode="æ" d="M449 298l147 58q69 28 69 72q0 26 -16 39t-40 13q-67 0 -106.5 -52t-53.5 -130zM174 77q29 0 78.5 35t84.5 67l31 289l-32 2h-2q-83 0 -143.5 -86.5t-60.5 -197.5q0 -61 11 -85t33 -24zM148 -13q-117 0 -117 180q0 167 95.5 276.5t239.5 109.5q41 0 97 -8l-7 -54 q65 70 157 70q77 0 112 -36t35 -93q0 -101 -155 -155l-166 -60v-21q0 -123 60 -123q56 0 168 55l35 -69q-60 -34 -110 -52.5t-113 -18.5q-109 0 -128 121q-120 -122 -203 -122z"/>
<glyph glyph-name="ccedilla" horiz-adv-x="455" unicode="ç" d="M138 -249l-27 57q66 37 70 75v7q0 22 -13 59h87q14 -30 14 -57q0 -9 -1 -13q-8 -79 -130 -128zM179 -12q-51 0 -84 29.5t-45.5 71.5t-12.5 96q0 160 74.5 268t202.5 108q83 0 134 -49l-48 -64q-44 31 -89 31q-48 0 -83.5 -28t-53.5 -73t-26.5 -89.5t-8.5 -88.5 q0 -59 14.5 -92.5t35.5 -33.5q67 0 174 55l33 -69q-39 -23 -59.5 -34t-66 -24.5t-91.5 -13.5z"/>
<glyph glyph-name="egrave" horiz-adv-x="481" unicode="è" d="M340 612l-202 114l43 76l193 -129zM149 296l148 58q70 26 70 71q0 28 -17 42t-41 14q-67 0 -106 -52t-54 -133zM178 -12q-139 0 -139 206q0 98 29.5 180t93 134.5t150.5 52.5q74 0 112 -37.5t38 -93.5q0 -101 -155 -155l-167 -60v-23q0 -61 13.5 -90t44.5 -29 q64 0 169 56l34 -70q-58 -34 -109 -52.5t-114 -18.5z"/>
<glyph glyph-name="eacute" horiz-adv-x="481" unicode="é" d="M236 613l-34 61l201 133l42 -77zM149 296l148 58q70 26 70 71q0 28 -17 42t-41 14q-67 0 -106 -52t-54 -133zM178 -12q-139 0 -139 206q0 98 29.5 180t93 134.5t150.5 52.5q74 0 112 -37.5t38 -93.5q0 -101 -155 -155l-167 -60v-23q0 -61 13.5 -90t44.5 -29q64 0 169 56 l34 -70q-58 -34 -109 -52.5t-114 -18.5z"/>
<glyph glyph-name="ecircumflex" horiz-adv-x="481" unicode="ê" d="M149 296l148 58q70 26 70 71q0 28 -17 42t-41 14q-67 0 -106 -52t-54 -133zM441 616l-129 90l-147 -89l-40 62l198 119l166 -119zM178 -12q-139 0 -139 206q0 98 29.5 180t93 134.5t150.5 52.5q74 0 112 -37.5t38 -93.5q0 -101 -155 -155l-167 -60v-23q0 -61 13.5 -90 t44.5 -29q64 0 169 56l34 -70q-58 -34 -109 -52.5t-114 -18.5z"/>
<glyph glyph-name="edieresis" horiz-adv-x="481" unicode="ë" d="M407 647l-58 66l72 65l59 -65zM202 647l-59 66l73 65l59 -65zM149 296l148 58q70 26 70 71q0 28 -17 42t-41 14q-67 0 -106 -52t-54 -133zM178 -12q-139 0 -139 206q0 98 29.5 180t93 134.5t150.5 52.5q74 0 112 -37.5t38 -93.5q0 -101 -155 -155l-167 -60v-23 q0 -61 13.5 -90t44.5 -29q64 0 169 56l34 -70q-58 -34 -109 -52.5t-114 -18.5z"/>
<glyph glyph-name="igrave" horiz-adv-x="246" unicode="ì" d="M205 612l-202 114l43 76l193 -129zM42 0l57 546h98l-57 -546h-98z"/>
<glyph glyph-name="iacute" horiz-adv-x="246" unicode="í" d="M42 0l57 546h98l-57 -546h-98zM104 613l-34 61l201 133l42 -77z"/>
<glyph glyph-name="icircumflex" horiz-adv-x="246" unicode="î" d="M42 0l57 546h98l-57 -546h-98zM300 616l-129 90l-147 -89l-40 62l198 119l166 -119z"/>
<glyph glyph-name="idieresis" horiz-adv-x="246" unicode="ï" d="M42 0l57 546h98l-57 -546h-98zM260 647l-58 66l72 65l59 -65zM55 647l-59 66l73 65l59 -65z"/>
<glyph glyph-name="eth" horiz-adv-x="536" unicode="ð" d="M232 71q47 0 83 42t54 106t18 135q0 125 -99 125q-43 0 -78.5 -44t-54 -108t-18.5 -129q0 -127 95 -127zM208 -12q-80 0 -126.5 57t-46.5 141q0 164 73 265.5t195 106.5q25 0 43 -9q-8 24 -30 68l-85 -35l-23 49l75 30q-23 29 -43 43l66 65q32 -22 60 -59l85 36l24 -49 l-77 -30q89 -138 89 -311q0 -60 -14.5 -120.5t-45 -118t-87.5 -93.5t-132 -36z"/>
<glyph glyph-name="ntilde" horiz-adv-x="541" unicode="ñ" d="M42 0l58 546h98l-8 -81q35 29 59.5 46t62 33t71.5 16q55 0 78 -25t23 -82q0 -30 -4 -59l-42 -394h-98l41 374q2 17 2 44q0 26 -8 37.5t-28 11.5q-59 0 -166 -86l-41 -381h-98zM385 644q-22 0 -63.5 18t-58.5 18q-36 0 -69 -25l-38 50q56 56 114 56q28 0 65.5 -18 t54.5 -18q33 0 76 26l34 -51q-52 -56 -115 -56z"/>
<glyph glyph-name="ograve" horiz-adv-x="527" unicode="ò" d="M228 71q63 0 110.5 80t47.5 205q0 65 -23 94t-72 29q-63 0 -109 -81t-46 -200q0 -127 92 -127zM208 -12q-81 0 -127 56t-46 142q0 168 76.5 270.5t203.5 102.5q82 0 126.5 -56.5t44.5 -136.5q0 -66 -14.5 -128.5t-45 -120.5t-87 -93.5t-131.5 -35.5zM362 612l-202 114 l43 76l193 -129z"/>
<glyph glyph-name="oacute" horiz-adv-x="527" unicode="ó" d="M228 71q63 0 110.5 80t47.5 205q0 65 -23 94t-72 29q-63 0 -109 -81t-46 -200q0 -127 92 -127zM208 -12q-81 0 -127 56t-46 142q0 168 76.5 270.5t203.5 102.5q82 0 126.5 -56.5t44.5 -136.5q0 -66 -14.5 -128.5t-45 -120.5t-87 -93.5t-131.5 -35.5zM251 613l-34 61 l201 133l42 -77z"/>
<glyph glyph-name="ocircumflex" horiz-adv-x="527" unicode="ô" d="M228 71q63 0 110.5 80t47.5 205q0 65 -23 94t-72 29q-63 0 -109 -81t-46 -200q0 -127 92 -127zM208 -12q-81 0 -127 56t-46 142q0 168 76.5 270.5t203.5 102.5q82 0 126.5 -56.5t44.5 -136.5q0 -66 -14.5 -128.5t-45 -120.5t-87 -93.5t-131.5 -35.5zM455 616l-129 90 l-147 -89l-40 62l198 119l166 -119z"/>
<glyph glyph-name="otilde" horiz-adv-x="527" unicode="õ" d="M380 644q-22 0 -63.5 18t-58.5 18q-36 0 -69 -25l-38 50q56 56 114 56q28 0 65.5 -18t54.5 -18q33 0 76 26l34 -51q-52 -56 -115 -56zM228 71q63 0 110.5 80t47.5 205q0 65 -23 94t-72 29q-63 0 -109 -81t-46 -200q0 -127 92 -127zM208 -12q-81 0 -127 56t-46 142 q0 168 76.5 270.5t203.5 102.5q82 0 126.5 -56.5t44.5 -136.5q0 -66 -14.5 -128.5t-45 -120.5t-87 -93.5t-131.5 -35.5z"/>
<glyph glyph-name="odieresis" horiz-adv-x="527" unicode="ö" d="M228 71q63 0 110.5 80t47.5 205q0 65 -23 94t-72 29q-63 0 -109 -81t-46 -200q0 -127 92 -127zM208 -12q-81 0 -127 56t-46 142q0 168 76.5 270.5t203.5 102.5q82 0 126.5 -56.5t44.5 -136.5q0 -66 -14.5 -128.5t-45 -120.5t-87 -93.5t-131.5 -35.5zM413 647l-58 66 l72 65l59 -65zM208 647l-59 66l73 65l59 -65z"/>
<glyph glyph-name="divide" horiz-adv-x="632" unicode="÷" d="M279 453l10 93h96l-10 -93h-96zM55 262l8 83h514l-9 -83h-513zM237 62l10 92h97l-10 -92h-97z"/>
<glyph glyph-name="oslash" horiz-adv-x="555" unicode="ø" d="M245 71q62 0 109.5 78t48.5 199q0 21 -2 39l-234 -270q22 -46 78 -46zM155 180l228 265q-22 34 -75 34q-60 0 -106.5 -76.5t-48.5 -194.5q0 -12 2 -28zM41 -29l-38 33l70 82q-21 47 -21 100q0 167 76.5 270t203.5 103q66 0 112 -43l52 60l38 -33l-58 -69q27 -46 27 -108 q0 -66 -14.5 -128.5t-45 -120.5t-87 -93.5t-131.5 -35.5q-76 0 -122 54z"/>
<glyph glyph-name="ugrave" d="M353 611l-202 114l43 76l193 -129zM161 -11q-59 0 -84.5 26t-25.5 89q0 21 3 50l42 392h98l-41 -376q-3 -26 -3 -43q0 -29 9.5 -40.5t31.5 -11.5q65 0 161 87l42 384h97l-58 -546h-97l8 81q-96 -92 -183 -92z" unicode="ù"/>
<glyph glyph-name="uacute" d="M161 -11q-59 0 -84.5 26t-25.5 89q0 21 3 50l42 392h98l-41 -376q-3 -26 -3 -43q0 -29 9.5 -40.5t31.5 -11.5q65 0 161 87l42 384h97l-58 -546h-97l8 81q-96 -92 -183 -92zM252 613l-34 61l201 133l42 -77z" unicode="ú"/>
<glyph glyph-name="ucircumflex" d="M161 -11q-59 0 -84.5 26t-25.5 89q0 21 3 50l42 392h98l-41 -376q-3 -26 -3 -43q0 -29 9.5 -40.5t31.5 -11.5q65 0 161 87l42 384h97l-58 -546h-97l8 81q-96 -92 -183 -92zM446 616l-129 90l-147 -89l-40 62l198 119l166 -119z" unicode="û"/>
<glyph glyph-name="udieresis" d="M161 -11q-59 0 -84.5 26t-25.5 89q0 21 3 50l42 392h98l-41 -376q-3 -26 -3 -43q0 -29 9.5 -40.5t31.5 -11.5q65 0 161 87l42 384h97l-58 -546h-97l8 81q-96 -92 -183 -92zM404 647l-58 66l72 65l59 -65zM199 647l-59 66l73 65l59 -65z" unicode="ü"/>
<glyph glyph-name="yacute" horiz-adv-x="496" unicode="ý" d="M246 613l-34 61l201 133l42 -77zM61 -220l109 220h-41l-84 546h105l61 -466l135 279q42 89 42 161q0 10 -2 26h103q2 -12 2 -26q0 -76 -48 -174l-280 -566h-102z"/>
<glyph glyph-name="thorn" horiz-adv-x="545" unicode="þ" d="M204 70q44 0 79.5 21t57.5 54t36.5 76t20 83t5.5 79q0 85 -57 85q-50 0 -163 -70l-35 -320q44 -8 56 -8zM18 -220l104 973h98l-29 -271q98 68 172 68q141 0 141 -166q0 -60 -11 -116t-35 -107t-59 -88.5t-86.5 -60t-114.5 -22.5q-30 0 -60 5l-23 -215h-97z"/>
<glyph glyph-name="uni0400" horiz-adv-x="573" unicode="Ѐ" d="M61 0l74 707h410l-8 -81h-309l-24 -231h287l-9 -80h-286l-25 -234h332l-8 -81h-434zM429 736l-233 65l29 85l225 -84z"/>
<glyph glyph-name="uni0401" horiz-adv-x="573" unicode="Ё" d="M61 0l74 707h410l-8 -81h-309l-24 -231h287l-9 -80h-286l-25 -234h332l-8 -81h-434zM454 749l-58 67l71 65l60 -65zM239 749l-58 67l72 65l58 -65z"/>
<glyph glyph-name="uni0402" horiz-adv-x="745" unicode="Ђ" d="M407 -220l-49 68q239 177 239 387q0 122 -122 122q-84 0 -169 -44l-33 -313h-101l65 624h-200l9 83h555l-9 -83h-254l-23 -225q106 39 193 39q99 0 146 -54.5t47 -147.5q0 -255 -294 -456z"/>
<glyph glyph-name="uni0403" horiz-adv-x="500" unicode="Ѓ" d="M61 0l74 707h424l-9 -83h-322l-66 -624h-101zM257 737l-19 66l239 83l23 -85z"/>
<glyph glyph-name="uni0404" horiz-adv-x="641" unicode="Є" d="M380 -10q-150 0 -238.5 83t-88.5 234q0 189 106.5 298t293.5 109q99 0 172 -31l-33 -77q-69 22 -147 22q-116 0 -188.5 -62.5t-92.5 -169.5h366l-9 -82h-363q0 -10 3 -25q8 -102 73.5 -156.5t173.5 -54.5q87 0 155 20l18 -81q-87 -27 -201 -27z"/>
<glyph glyph-name="uni0405" horiz-adv-x="535" unicode="Ѕ" d="M214 -12q-51 0 -109 14t-97 35l38 82q101 -43 175 -43q69 0 114 27.5t45 91.5q0 35 -30.5 63.5t-74 51t-86.5 49t-73.5 69.5t-30.5 99q0 92 68 140.5t167 48.5q107 0 190 -43l-35 -76q-76 33 -157 33q-134 0 -134 -97q0 -33 30.5 -61.5t74 -53t87.5 -51.5t74.5 -69.5 t30.5 -94.5q0 -105 -77.5 -160t-189.5 -55z"/>
<glyph glyph-name="uni0406" horiz-adv-x="287" unicode="І" d="M61 0l74 707h101l-74 -707h-101z"/>
<glyph glyph-name="uni0407" horiz-adv-x="287" unicode="Ї" d="M299 749l-58 67l71 65l60 -65zM84 749l-58 67l72 65l58 -65zM61 0l74 707h101l-74 -707h-101z"/>
<glyph glyph-name="uni0408" horiz-adv-x="288" unicode="Ј" d="M-62 -189l-32 73q91 49 126 105.5t47 161.5l58 556h101l-58 -554q-5 -50 -14 -89t-26.5 -78.5t-43 -69.5t-65.5 -57.5t-93 -47.5z"/>
<glyph glyph-name="uni0409" horiz-adv-x="982" unicode="Љ" d="M7 -22l-38 93q104 47 142 108q58 97 123 528h391l-65 -625q4 -1 97 -1q83 0 131.5 37t52.5 113q0 3 0.5 8t0.5 8q0 114 -151 114h-59l8 82h70q112 0 175.5 -48.5t63.5 -143.5q0 -12 -1 -18q-3 -61 -28 -107t-67 -73t-93.5 -40t-112.5 -13h-197l65 626h-198 q-6 -30 -19.5 -102t-19 -97t-16.5 -78t-17.5 -76t-17 -57.5t-20.5 -56.5t-22 -41q-55 -88 -178 -140z"/>
<glyph glyph-name="uni040A" horiz-adv-x="999" unicode="Њ" d="M61 0l74 707h101l-30 -290h316l31 290h101l-65 -625q4 -1 94 -1q165 0 174 135l1 13q0 105 -144 105h-55l8 83h66q109 0 171 -46t62 -135q0 -11 -1 -17q-5 -111 -86 -165t-203 -54h-197l35 336h-316l-36 -336h-101z"/>
<glyph glyph-name="uni040B" horiz-adv-x="755" unicode="Ћ" d="M171 0l66 624h-200l9 83h555l-9 -83h-254l-22 -225q105 42 197 42q194 0 194 -168q0 -11 -2 -37l-25 -236h-102l25 234q2 16 2 22q0 102 -136 102q-79 0 -163 -45l-33 -313h-102z"/>
<glyph glyph-name="uni040C" horiz-adv-x="625" unicode="Ќ" d="M291 737l-19 66l239 83l23 -85zM61 0l74 707h101l-74 -707h-101zM484 -25l-271 394l1 12l307 326h126l-317 -328l250 -356z"/>
<glyph glyph-name="uni040D" horiz-adv-x="766" unicode="Ѝ" d="M61 0l75 707h101l-48 -457l-14 -103l72 105l367 455h101l-74 -707h-102l48 457l14 103l-56 -79l-383 -481h-101zM517 736l-233 65l29 85l225 -84z"/>
<glyph glyph-name="uni040E" horiz-adv-x="577" unicode="Ў" d="M326 751q-116 0 -173 90l57 53q45 -59 125 -59q77 0 137 59l50 -53q-73 -90 -196 -90zM131 -9l-30 88q57 18 90.5 41t60.5 73l16 29h-40l-192 485h113l158 -416l199 416h116l-274 -516q-29 -55 -53.5 -89.5t-52.5 -56t-49 -31t-62 -23.5z"/>
<glyph glyph-name="uni040F" horiz-adv-x="731" unicode="Џ" d="M272 -153l16 153h-226l73 707h102l-64 -626h341l64 626h102l-73 -707h-221l-16 -153h-98z"/>
<glyph glyph-name="uni0410" horiz-adv-x="652" unicode="А" d="M227 330h208l-47 243l-12 78l-34 -79zM-38 0l351 707h142l152 -707h-105l-51 252h-263l-123 -252h-103z"/>
<glyph glyph-name="uni0411" horiz-adv-x="618" unicode="Б" d="M61 0l74 707h435l-9 -86h-334l-55 -539q4 -1 101 -1q85 0 135.5 35.5t54.5 110.5v13q0 112 -156 112h-66l9 83h75q113 0 179 -47t66 -141q0 -28 -4 -48q-17 -100 -100.5 -149.5t-201.5 -49.5h-203z"/>
<glyph glyph-name="uni0412" horiz-adv-x="625" unicode="В" d="M205 402h90q76 0 113.5 30.5t37.5 103.5q0 54 -37 73.5t-99 19.5h-81zM172 82h114q85 0 131.5 29t46.5 110q0 30 -12.5 51t-29 31t-45.5 15.5t-47.5 6.5t-49.5 1h-83zM61 0l74 707h206q212 0 212 -159q0 -57 -29 -104t-80 -64v-3q56 -10 90 -51t34 -98q0 -116 -74.5 -172 t-196.5 -56h-236z"/>
<glyph glyph-name="uni0413" horiz-adv-x="520" unicode="Г" d="M61 0l74 707h424l-9 -83h-322l-66 -624h-101z"/>
<glyph glyph-name="uni0414" horiz-adv-x="718" unicode="Д" d="M157 81h310l56 543h-198q-44 -236 -87 -369q-29 -79 -81 -174zM-42 -153l24 234h62q52 81 99 185q21 52 49 171.5t52 269.5h390l-64 -626h92l-24 -234h-98l16 153h-486l-15 -153h-97z"/>
<glyph glyph-name="uni0415" horiz-adv-x="573" unicode="Е" d="M61 0l74 707h410l-8 -81h-309l-24 -231h287l-9 -80h-286l-25 -234h332l-8 -81h-434z"/>
<glyph glyph-name="uni0416" horiz-adv-x="903" unicode="Ж" d="M366 0l74 707h101l-74 -707h-101zM763 -29l-244 393l1 11l274 332h126l-287 -331l225 -354zM77 -29l-95 51l300 364l-208 321h115l203 -331l-1 -11z"/>
<glyph glyph-name="uni0417" horiz-adv-x="541" unicode="З" d="M207 -10q-118 0 -206 49l38 81q86 -43 173 -43q69 0 114.5 30.5t50.5 94.5v10q0 104 -160 104h-73l9 81h73q67 0 110 32.5t47 89.5v11q0 48 -31.5 74t-88.5 26t-149 -33l-26 73q92 44 195 44q99 0 151 -45.5t52 -118.5v-12q-2 -38 -16 -69.5t-34.5 -52.5t-37 -33 t-33.5 -20v-2q116 -38 116 -145q0 -2 -0.5 -7t-0.5 -8q-2 -39 -18.5 -75t-47.5 -67.5t-84.5 -50t-122.5 -18.5z"/>
<glyph glyph-name="uni0418" horiz-adv-x="766" unicode="И" d="M61 0l75 707h101l-48 -457l-14 -103l72 105l367 455h101l-74 -707h-102l48 457l14 103l-56 -79l-383 -481h-101z"/>
<glyph glyph-name="uni0419" horiz-adv-x="766" unicode="Й" d="M61 0l75 707h101l-48 -457l-14 -103l72 105l367 455h101l-74 -707h-102l48 457l14 103l-56 -79l-383 -481h-101zM433 751q-116 0 -173 90l57 53q45 -59 125 -59q77 0 137 59l50 -53q-73 -90 -196 -90z"/>
<glyph glyph-name="uni041A" horiz-adv-x="625" unicode="К" d="M61 0l74 707h101l-74 -707h-101zM484 -25l-271 394l1 12l307 326h126l-317 -328l250 -356z"/>
<glyph glyph-name="uni041B" horiz-adv-x="676" unicode="Л" d="M7 -22l-38 93q104 47 142 108q58 97 123 528h391l-73 -707h-102l65 626h-198q-6 -30 -19.5 -102t-19 -97t-16.5 -78t-17.5 -76t-17 -57.5t-20.5 -56.5t-22 -41q-55 -88 -178 -140z"/>
<glyph glyph-name="uni041C" horiz-adv-x="913" unicode="М" d="M-1 0l237 707h127l49 -638l280 638h126l-2 -707h-99l11 574l-253 -574h-149l-44 576l-183 -576h-100z"/>
<glyph glyph-name="uni041D" horiz-adv-x="750" unicode="Н" d="M61 0l74 707h101l-32 -312h360l33 312h102l-74 -707h-102l34 314h-361l-34 -314h-101z"/>
<glyph glyph-name="uni041E" horiz-adv-x="805" unicode="О" d="M373 71q137 0 210.5 92t73.5 234q0 109 -56 173t-163 64q-135 0 -208.5 -90.5t-73.5 -230.5q0 -110 55 -176t162 -66zM361 -11q-146 0 -227 84t-81 231q0 187 107 300.5t292 113.5q147 0 228.5 -83.5t81.5 -230.5q0 -189 -107 -302t-294 -113z"/>
<glyph glyph-name="uni041F" horiz-adv-x="740" unicode="П" d="M61 0l74 708h553l-73 -708h-101l65 622h-351l-66 -622h-101z"/>
<glyph glyph-name="uni0420" horiz-adv-x="601" unicode="Р" d="M61 0l74 707h240q98 0 158 -50.5t60 -146.5q0 -69 -26.5 -121.5t-73 -83t-103 -45.5t-121.5 -15h-3h-27l10 82q32 0 44 1q90 6 141 44.5t51 127.5q0 126 -140 126h-116l-66 -626h-102z"/>
<glyph glyph-name="uni0421" horiz-adv-x="636" unicode="С" d="M380 -10q-150 0 -238.5 83t-88.5 234q0 189 106.5 298t293.5 109q99 0 172 -31l-33 -77q-69 22 -147 22q-137 0 -212.5 -85t-75.5 -225q0 -117 67.5 -178.5t183.5 -61.5q87 0 155 20l18 -81q-87 -27 -201 -27z"/>
<glyph glyph-name="uni0422" horiz-adv-x="582" unicode="Т" d="M207 0l65 624h-237l10 83h575l-9 -83h-237l-65 -624h-102z"/>
<glyph glyph-name="uni0423" horiz-adv-x="577" unicode="У" d="M131 -9l-30 88q57 18 90.5 41t60.5 73l16 29h-40l-192 485h113l158 -416l199 416h116l-274 -516q-29 -55 -53.5 -89.5t-52.5 -56t-49 -31t-62 -23.5z"/>
<glyph glyph-name="uni0424" horiz-adv-x="792" unicode="Ф" d="M432 167q105 1 168.5 64t63.5 168q0 88 -50.5 134t-139.5 46zM331 167l42 412q-104 0 -168 -60t-64 -170q0 -88 51 -135t139 -47zM314 0l9 85q-129 0 -206.5 64t-77.5 188q0 151 93.5 236t249.5 88l8 76h101l-8 -76q129 0 206.5 -64t77.5 -190q0 -149 -94.5 -234 t-248.5 -88l-9 -85h-101z"/>
<glyph glyph-name="uni0425" horiz-adv-x="609" unicode="Х" d="M-30 0l289 371l-168 336h114l121 -259l193 259h112l-261 -335l188 -372h-115l-140 292l-218 -292h-115z"/>
<glyph glyph-name="uni0426" horiz-adv-x="764" unicode="Ц" d="M586 -153l16 153h-540l73 707h102l-64 -626h341l64 626h102l-66 -626h94l-24 -234h-98z"/>
<glyph glyph-name="uni0427" horiz-adv-x="642" unicode="Ч" d="M415 0l32 313q-94 -39 -193 -39q-199 0 -199 166q0 24 2 36l24 231h101l-24 -228q-1 -8 -1 -22q0 -102 129 -102q86 0 169 44l33 308h102l-74 -707h-101z"/>
<glyph glyph-name="uni0428" horiz-adv-x="991" unicode="Ш" d="M62 0l73 707h102l-64 -626h249l65 626h102l-65 -626h249l65 626h102l-73 -707h-805z"/>
<glyph glyph-name="uni0429" horiz-adv-x="1024" unicode="Щ" d="M846 -153l16 153h-800l73 707h102l-64 -626h249l65 626h102l-65 -626h249l65 626h102l-65 -626h93l-24 -234h-98z"/>
<glyph glyph-name="uni042A" horiz-adv-x="698" unicode="Ъ" d="M166 0l65 624h-193l8 83h295l-65 -625q4 -1 96 -1q83 0 132 37t53 113q0 3 0.5 7t0.5 7q0 116 -151 116h-61l8 82h71q112 0 176 -49t64 -143q0 -3 -0.5 -9t-0.5 -9q-6 -119 -90 -176t-211 -57h-197z"/>
<glyph glyph-name="uni042B" horiz-adv-x="860" unicode="Ы" d="M634 0l74 707h101l-74 -707h-101zM135 707h101l-65 -625q4 -1 97 -1q83 0 132 37t53 113v15q0 115 -151 115h-64l8 82h75q112 0 175.5 -48.5t63.5 -143.5q0 -12 -1 -18q-3 -61 -28 -107t-67 -73t-93.5 -40t-112.5 -13h-197z"/>
<glyph glyph-name="uni042C" horiz-adv-x="594" unicode="Ь" d="M135 707h101l-65 -625q4 -1 97 -1q83 0 132 37t53 113v15q0 115 -151 115h-64l8 82h75q112 0 175.5 -48.5t63.5 -143.5q0 -12 -1 -18q-3 -61 -28 -107t-67 -73t-93.5 -40t-112.5 -13h-197z"/>
<glyph glyph-name="uni042D" horiz-adv-x="653" unicode="Э" d="M206 -10q-131 0 -196 38l33 77q78 -32 165 -32q113 0 192.5 62t97.5 180h-351l9 81h350q1 123 -63.5 179.5t-169.5 56.5q-95 0 -169 -33l-26 77q90 40 207 40q159 0 243 -79t84 -224q0 -24 -4 -68q-18 -160 -124.5 -257.5t-277.5 -97.5z"/>
<glyph glyph-name="uni042E" horiz-adv-x="1075" unicode="Ю" d="M643 71q137 0 210.5 92t73.5 234q0 110 -56 173.5t-163 63.5q-134 0 -208 -90.5t-74 -230.5q0 -110 55 -176t162 -66zM631 -11q-137 0 -216.5 75.5t-88.5 207.5q-3 15 -3 42h-127l-34 -314h-101l74 707h101l-32 -312h127q24 149 127.5 236t264.5 87q147 0 228 -83.5 t81 -230.5q0 -189 -107 -302t-294 -113z"/>
<glyph glyph-name="uni042F" horiz-adv-x="646" unicode="Я" d="M363 357h93l28 269h-113q-77 0 -121.5 -41.5t-44.5 -109.5q0 -118 158 -118zM87 -27l-92 47l226 283q-123 40 -123 166q0 111 75.5 174.5t183.5 63.5h237l-72 -707h-102l28 280h-85q-25 0 -36 1z"/>
<glyph glyph-name="uni0430" horiz-adv-x="521" unicode="а" d="M172 77q20 0 56.5 21.5t62 41.5t46.5 39l30 288q-6 1 -27 1q-63 0 -113.5 -47.5t-75.5 -116t-25 -139.5q0 -88 46 -88zM147 -13q-119 0 -119 168q0 97 39.5 186.5t118 149.5t177.5 60q64 0 109 -8l-56 -543h-98l10 91q-112 -104 -181 -104z"/>
<glyph glyph-name="uni0431" horiz-adv-x="542" unicode="б" d="M236 73q53 0 91.5 44t55 103t16.5 122q0 53 -15.5 73t-45.5 20q-60 0 -170 -76q-16 -87 -16 -171q0 -115 84 -115zM219 -9q-77 0 -122 48t-45 129q0 143 37.5 281t97.5 211q49 60 318 111l18 -89q-11 -3 -82 -15.5t-117.5 -27t-70.5 -35.5q-34 -31 -68 -157 q110 71 187 71q127 0 127 -169q0 -143 -79.5 -250.5t-200.5 -107.5z"/>
<glyph glyph-name="uni0432" horiz-adv-x="500" unicode="в" d="M141 297l120 42q54 20 76 41.5t22 47.5q0 25 -16 39t-41 14q-64 0 -105.5 -54t-55.5 -130zM219 68q60 0 95 33t35 79q0 69 -73 88l-143 -48q-3 -12 -3 -38q0 -114 89 -114zM217 -12q-98 0 -141.5 51t-43.5 126q0 100 32 188.5t99 148t156 59.5q71 0 103.5 -35.5 t32.5 -85.5q0 -88 -95 -134q84 -33 84 -122q0 -84 -64.5 -140t-162.5 -56z"/>
<glyph glyph-name="uni0433" horiz-adv-x="429" unicode="г" d="M158 -10q-62 0 -101 30t-39 90q0 31 12.5 58.5t38 53t47 42.5t56.5 41q84 58 104 80q20 23 20 43q0 48 -55 48q-52 0 -140 -55l-35 72q90 64 200 64q53 0 89 -29.5t36 -87.5q0 -26 -10.5 -51t-23 -42.5t-38 -39.5t-41.5 -33.5t-47 -32.5q-80 -56 -98 -77q-19 -22 -19 -41 q0 -49 57 -49q61 0 166 71l38 -74q-44 -33 -105 -57t-112 -24z"/>
<glyph glyph-name="uni0434" horiz-adv-x="530" unicode="д" d="M225 70q64 0 111 90.5t48 221.5q-19 21 -52.5 35.5t-57.5 14.5q-64 0 -100.5 -57.5t-36.5 -168.5q0 -136 88 -136zM213 -12q-78 0 -127.5 54.5t-49.5 141.5q0 84 20.5 149.5t55 104t75.5 58t86 19.5q53 0 117 -44q-8 192 -132 192q-37 0 -110 -19l-12 80q79 25 153 25 q91 0 145 -71.5t54 -229.5q0 -51 -6 -105t-24.5 -120t-47 -116.5t-80 -84.5t-117.5 -34z"/>
<glyph glyph-name="uni0435" horiz-adv-x="481" unicode="е" d="M149 296l148 58q70 26 70 71q0 28 -17 42t-41 14q-67 0 -106 -52t-54 -133zM178 -12q-139 0 -139 206q0 98 29.5 180t93 134.5t150.5 52.5q74 0 112 -37.5t38 -93.5q0 -101 -155 -155l-167 -60v-23q0 -61 13.5 -90t44.5 -29q64 0 169 56l34 -70q-58 -34 -109 -52.5 t-114 -18.5z"/>
<glyph glyph-name="uni0436" horiz-adv-x="754" unicode="ж" d="M610 -10l-177 292l205 264h112l-208 -257l172 -281zM295 0l57 546h99l-58 -546h-98zM86 -10l-106 18l233 288l-160 250h109l154 -264z"/>
<glyph glyph-name="uni0437" horiz-adv-x="430" unicode="з" d="M154 -10q-90 0 -157 28l26 78q66 -22 120 -22q67 0 99.5 25t32.5 62q0 79 -142 85l-8 65q69 15 114 44.5t45 66.5q0 51 -91 51q-59 0 -112 -16l-21 74q59 26 148 26q80 0 127 -29t47 -88q0 -48 -33 -85.5t-86 -60.5q109 -26 109 -129q0 -78 -60 -126.5t-158 -48.5z"/>
<glyph glyph-name="uni0438" d="M161 -11q-59 0 -84.5 26t-25.5 89q0 21 3 50l42 392h98l-41 -376q-3 -26 -3 -43q0 -29 9.5 -40.5t31.5 -11.5q65 0 161 87l42 384h97l-58 -546h-97l8 81q-96 -92 -183 -92z" unicode="и"/>
<glyph glyph-name="uni0439" d="M161 -11q-59 0 -84.5 26t-25.5 89q0 21 3 50l42 392h98l-41 -376q-3 -26 -3 -43q0 -29 9.5 -40.5t31.5 -11.5q65 0 161 87l42 384h97l-58 -546h-97l8 81q-96 -92 -183 -92zM279 642q-31 0 -67 29.5t-61 74.5l77 50q48 -73 78 -73q59 0 147 73l35 -42q-50 -50 -107.5 -81 t-101.5 -31z" unicode="й"/>
<glyph glyph-name="uni043A" horiz-adv-x="501" unicode="к" d="M42 0l57 546h99l-58 -546h-98zM357 -10l-178 295l206 261h112l-208 -257l172 -281z"/>
<glyph glyph-name="uni043B" horiz-adv-x="478" unicode="л" d="M3 0q-3 9 -3 25q0 75 49 175l176 346h152l28 -546h-104l-10 454h-18l-129 -267q-42 -87 -42 -162q0 -19 1 -25h-100z"/>
<glyph glyph-name="uni043C" horiz-adv-x="738" unicode="м" d="M15 0q-2 6 -2 25q0 74 36 175l125 346h140l33 -420l189 420h152l-57 -546h-98l49 466l-210 -466h-110l-30 465l-87 -278q-30 -92 -30 -162q0 -4 0.5 -13t0.5 -12h-101z"/>
<glyph glyph-name="uni043D" horiz-adv-x="543" unicode="н" d="M42 0l58 546h98l-25 -227l202 16l23 211h97l-58 -546h-98l26 247l-201 -16l-25 -231h-97z"/>
<glyph glyph-name="uni043E" horiz-adv-x="527" unicode="о" d="M228 71q63 0 110.5 80t47.5 205q0 65 -23 94t-72 29q-63 0 -109 -81t-46 -200q0 -127 92 -127zM208 -12q-81 0 -127 56t-46 142q0 168 76.5 270.5t203.5 102.5q82 0 126.5 -56.5t44.5 -136.5q0 -66 -14.5 -128.5t-45 -120.5t-87 -93.5t-131.5 -35.5z"/>
<glyph glyph-name="uni043F" horiz-adv-x="541" unicode="п" d="M42 0l58 546h98l-8 -81q35 29 59.5 46t62 33t71.5 16q55 0 78 -25t23 -82q0 -30 -4 -59l-42 -394h-98l41 374q2 17 2 44q0 26 -8 37.5t-28 11.5q-59 0 -166 -86l-41 -381h-98z"/>
<glyph glyph-name="uni0440" horiz-adv-x="535" unicode="р" d="M204 71q52 0 91 32.5t59.5 82.5t30.5 101t10 98q0 82 -57 82q-53 0 -156 -65l-34 -323q44 -8 56 -8zM18 -220l82 766h97l-6 -65q93 69 173 69q130 0 130 -165q0 -68 -17 -134.5t-51 -126t-93 -96.5t-135 -37q-29 0 -59 5l-23 -216h-98z"/>
<glyph glyph-name="uni0441" horiz-adv-x="455" unicode="с" d="M179 -12q-51 0 -84 29.5t-45.5 71.5t-12.5 96q0 160 74.5 268t202.5 108q83 0 134 -49l-48 -64q-44 31 -89 31q-48 0 -83.5 -28t-53.5 -73t-26.5 -89.5t-8.5 -88.5q0 -59 14.5 -92.5t35.5 -33.5q67 0 174 55l33 -69q-39 -23 -59.5 -34t-66 -24.5t-91.5 -13.5z"/>
<glyph glyph-name="uni0442" horiz-adv-x="817" unicode="т" d="M42 0l58 546h98l-8 -80q33 27 53.5 42t59.5 33.5t71 18.5q51 0 74 -21.5t25 -67.5q112 89 188 89q54 0 76.5 -24.5t22.5 -81.5q0 -31 -4 -60l-42 -394h-98l41 374q3 27 3 45q0 27 -8 37.5t-30 10.5q-51 0 -153 -79l-41 -388h-98l41 374q3 27 3 45q0 27 -8.5 37t-29.5 10 q-51 0 -155 -85l-41 -381h-98z"/>
<glyph glyph-name="uni0443" horiz-adv-x="496" unicode="у" d="M61 -220l109 220h-41l-84 546h105l61 -466l135 279q42 89 42 161q0 10 -2 26h103q2 -12 2 -26q0 -76 -48 -174l-280 -566h-102z"/>
<glyph glyph-name="uni0444" horiz-adv-x="715" unicode="ф" d="M381 68q88 0 138.5 72t50.5 190q0 142 -145 147zM284 71l43 408q-88 0 -138 -71.5t-50 -190.5q0 -145 145 -146zM253 -220l22 208q-109 1 -173 58.5t-64 153.5q0 166 76 261t221 97l21 196h98l-21 -195q109 -1 173.5 -58.5t64.5 -153.5q0 -166 -76.5 -261t-221.5 -98 l-22 -208h-98z"/>
<glyph glyph-name="uni0445" horiz-adv-x="477" unicode="х" d="M-31 0l219 287l-119 259h105l79 -178l131 178h105l-197 -260l129 -286h-106l-88 204l-151 -204h-107z"/>
<glyph glyph-name="uni0446" horiz-adv-x="575" unicode="ц" d="M418 -137l14 137q-43 0 -62 13.5t-24 40.5q-2 8 -2 27q-102 -92 -183 -92q-59 0 -84.5 26t-25.5 89q0 21 3 50l42 392h98l-41 -376q-3 -30 -3 -49q1 -25 10 -35.5t31 -10.5q57 0 161 87l42 384h97l-43 -408q-2 -18 -2 -25q1 -21 11.5 -28t37.5 -8h39l-23 -214h-93z"/>
<glyph glyph-name="uni0447" horiz-adv-x="500" unicode="ч" d="M297 0l28 262q-100 -82 -180 -82q-58 0 -81 22.5t-23 79.5q0 24 5 69l20 195h99l-20 -185q-5 -37 -5 -51q0 -23 9 -32.5t32 -9.5q39 0 152 75l21 203h97l-57 -546h-97z"/>
<glyph glyph-name="uni0448" horiz-adv-x="781" unicode="ш" d="M143 -14q-54 0 -76.5 22.5t-22.5 75.5q0 29 6 68l56 394h98l-55 -374q-1 -9 -2 -20.5t-2 -19.5t-1 -13q0 -22 8.5 -31t28.5 -9q10 0 23.5 4.5t24.5 10t27.5 16.5t24 17t23.5 18t18 13l48 388h98l-48 -374q-5 -35 -5 -53q0 -22 8 -30.5t28 -8.5q37 0 143 85l41 381h97 l-57 -546h-98l8 80q-4 -3 -21 -17.5t-26 -21.5t-26.5 -19.5t-31 -19t-31.5 -11.5t-35 -5q-53 0 -74 20.5t-23 68.5q-32 -27 -49.5 -40t-55 -31t-69.5 -18z"/>
<glyph glyph-name="uni0449" horiz-adv-x="816" unicode="щ" d="M659 -137l14 137q-42 0 -61 13t-24 39q-3 12 -3 28q-4 -3 -21 -17.5t-26 -21.5t-26.5 -19.5t-31 -19t-31.5 -11.5t-35 -5q-53 0 -74 20.5t-23 68.5q-32 -27 -49.5 -40t-55 -31t-69.5 -18q-54 0 -76.5 22.5t-22.5 75.5q0 29 6 68l56 394h98l-55 -374q-5 -42 -5 -57 q1 -20 9 -28t28 -8q10 0 23.5 4.5t24.5 10t27.5 16.5t24 17t23.5 18t18 13l48 388h98l-48 -374q-5 -43 -5 -59q1 -19 9 -26t27 -7q37 0 143 85l41 381h97l-42 -408q-2 -21 -1 -28q1 -19 11.5 -25.5t37.5 -7.5h38l-23 -214h-94z"/>
<glyph glyph-name="uni044A" horiz-adv-x="530" unicode="ъ" d="M261 69q53 0 93.5 48.5t40.5 132.5q0 60 -50 60q-51 0 -132 -59q-19 -57 -19 -107q0 -75 67 -75zM241 -10q-63 0 -105 35t-42 111q0 86 34.5 163.5t100.5 164.5h-199l10 82h309l15 -38q-81 -89 -117 -169q79 54 136 54t83.5 -36t26.5 -95q0 -119 -74.5 -195.5 t-177.5 -76.5z"/>
<glyph glyph-name="uni044B" horiz-adv-x="689" unicode="ы" d="M199 70q59 0 103.5 47.5t44.5 131.5q0 61 -51 61q-42 0 -131 -61l-26 -170q24 -9 60 -9zM185 -10q-80 0 -153 28l78 528h97l-30 -218q93 65 157 65q56 0 84 -35t28 -96q0 -116 -74.5 -194t-186.5 -78zM485 0l57 546h98l-57 -546h-98z"/>
<glyph glyph-name="uni044C" horiz-adv-x="481" unicode="ь" d="M199 70q59 0 103.5 47.5t44.5 131.5q0 61 -51 61q-42 0 -131 -61l-26 -170q24 -9 60 -9zM185 -10q-80 0 -153 28l78 528h97l-30 -218q93 65 157 65q56 0 84 -35t28 -96q0 -116 -74.5 -194t-186.5 -78z"/>
<glyph glyph-name="uni044D" horiz-adv-x="444" unicode="э" d="M125 -12q-78 0 -130 48l43 69q55 -35 99 -35q55 0 95 47.5t57 125.5h-162l6 71h167q2 11 2 39q0 64 -17.5 94t-63.5 30q-59 0 -133 -31l-26 70q88 45 173 45t126.5 -52.5t41.5 -137.5q0 -73 -17 -140t-49.5 -122t-87.5 -88t-124 -33z"/>
<glyph glyph-name="uni044E" horiz-adv-x="754" unicode="ю" d="M455 71q63 0 110.5 80t47.5 205q0 65 -23 94t-72 29q-63 0 -109 -81t-46 -200q0 -127 92 -127zM435 -12q-81 0 -127 56t-46 142q0 39 2 53l-100 -8l-25 -231h-97l58 546h98l-25 -227l106 9q28 108 97 169.5t166 61.5q82 0 126.5 -56.5t44.5 -136.5q0 -66 -14.5 -128.5 t-45 -120.5t-87 -93.5t-131.5 -35.5z"/>
<glyph glyph-name="uni044F" horiz-adv-x="504" unicode="я" d="M91 -10l-105 18l181 210q-98 40 -98 133q0 22 4.5 45.5t20.5 53.5t41.5 52.5t73 38t109.5 15.5q81 0 136 -22l-55 -534h-97l50 473q-30 5 -50 5q-58 0 -97 -30t-39 -91q0 -23 11 -41.5t23.5 -29t35.5 -19.5t33.5 -12t30.5 -7z"/>
<glyph glyph-name="uni0450" horiz-adv-x="481" unicode="ѐ" d="M353 612l-202 114l43 76l193 -129zM149 296l148 58q70 26 70 71q0 28 -17 42t-41 14q-67 0 -106 -52t-54 -133zM178 -12q-139 0 -139 206q0 98 29.5 180t93 134.5t150.5 52.5q74 0 112 -37.5t38 -93.5q0 -101 -155 -155l-167 -60v-23q0 -61 13.5 -90t44.5 -29 q64 0 169 56l34 -70q-58 -34 -109 -52.5t-114 -18.5z"/>
<glyph glyph-name="uni0451" horiz-adv-x="481" unicode="ё" d="M410 647l-58 66l72 65l59 -65zM205 647l-59 66l73 65l59 -65zM149 296l148 58q70 26 70 71q0 28 -17 42t-41 14q-67 0 -106 -52t-54 -133zM178 -12q-139 0 -139 206q0 98 29.5 180t93 134.5t150.5 52.5q74 0 112 -37.5t38 -93.5q0 -101 -155 -155l-167 -60v-23 q0 -61 13.5 -90t44.5 -29q64 0 169 56l34 -70q-58 -34 -109 -52.5t-114 -18.5z"/>
<glyph glyph-name="uni0452" horiz-adv-x="550" unicode="ђ" d="M282 -220l-66 53q72 86 121 213.5t49 243.5q0 55 -11.5 78.5t-43.5 23.5q-15 0 -39.5 -11.5t-44.5 -24t-44.5 -30t-30.5 -20.5l-32 -306h-98l59 569h-93l8 77h94l11 109h98l-11 -109h187l-7 -77h-188l-19 -179q37 28 55 40.5t64 33.5t82 21q108 0 108 -166 q0 -144 -59 -288t-149 -251z"/>
<glyph glyph-name="uni0453" horiz-adv-x="429" unicode="ѓ" d="M158 -10q-62 0 -101 30t-39 90q0 31 12.5 58.5t38 53t47 42.5t56.5 41q84 58 104 80q20 23 20 43q0 48 -55 48q-52 0 -140 -55l-35 72q90 64 200 64q53 0 89 -29.5t36 -87.5q0 -26 -10.5 -51t-23 -42.5t-38 -39.5t-41.5 -33.5t-47 -32.5q-80 -56 -98 -77q-19 -22 -19 -41 q0 -49 57 -49q61 0 166 71l38 -74q-44 -33 -105 -57t-112 -24zM211 613l-34 61l201 133l42 -77z"/>
<glyph glyph-name="uni0454" horiz-adv-x="455" unicode="є" d="M179 -12q-51 0 -84 29.5t-45.5 71.5t-12.5 96q0 160 74.5 268t202.5 108q83 0 134 -49l-48 -64q-44 31 -89 31q-113 0 -156 -155h184l-9 -74h-188q-3 -27 -3 -50q0 -59 14.5 -92.5t35.5 -33.5q67 0 174 55l33 -69q-39 -23 -59.5 -34t-66 -24.5t-91.5 -13.5z"/>
<glyph glyph-name="uni0455" horiz-adv-x="427" unicode="ѕ" d="M160 -10q-96 0 -159 29l27 80q73 -25 139 -25q25 0 47 4.5t42 21t20 43.5q0 25 -21.5 48t-53 43t-62.5 42t-52.5 54.5t-21.5 71.5q0 81 52.5 118t135.5 37q91 0 151 -30l-27 -75q-70 25 -129 25q-89 0 -89 -65q0 -25 22 -48.5t53 -44t62 -43.5t53 -57t22 -74 q0 -36 -13.5 -64t-34.5 -44.5t-50 -27.5t-56.5 -15t-56.5 -4z"/>
<glyph glyph-name="uni0456" horiz-adv-x="246" unicode="і" d="M158 641l-68 74l84 74l69 -74zM42 0l57 546h98l-57 -546h-98z"/>
<glyph glyph-name="uni0457" horiz-adv-x="246" unicode="ї" d="M42 0l57 546h98l-57 -546h-98zM262 647l-58 66l72 65l59 -65zM57 647l-59 66l73 65l59 -65z"/>
<glyph glyph-name="uni0458" horiz-adv-x="246" unicode="ј" d="M153 641l-68 74l84 74l69 -74zM-69 -220q-50 0 -88 16l24 80q41 -11 71 -11q52 0 74 29.5t29 93.5l58 558h98l-59 -559q-12 -116 -65 -161.5t-142 -45.5z"/>
<glyph glyph-name="uni0459" horiz-adv-x="708" unicode="љ" d="M429 70q59 0 101.5 47.5t42.5 131.5q0 61 -51 61q-47 0 -139 -68l14 -171q9 -1 32 -1zM420 -10q-56 0 -121 20l-22 448h-9l-123 -271q-43 -93 -43 -162q0 -13 2 -25h-102q-2 6 -2 25q0 75 49 175l168 346h139l20 -236q34 25 55 38.5t58.5 29t69.5 15.5q112 0 112 -131 q0 -115 -72.5 -193.5t-178.5 -78.5z"/>
<glyph glyph-name="uni045A" horiz-adv-x="782" unicode="њ" d="M500 70q60 0 104.5 47.5t44.5 131.5q0 61 -51 61q-42 0 -135 -62l-18 -171q20 -7 55 -7zM487 -10q-83 0 -146 26l24 231l-201 -16l-25 -231h-97l58 546h98l-25 -227l202 16l23 211h97l-24 -223q94 70 164 70q56 0 84 -35t28 -96q0 -116 -74 -194t-186 -78z"/>
<glyph glyph-name="uni045B" horiz-adv-x="537" unicode="ћ" d="M42 0l59 569h-93l8 77h94l11 109h98l-11 -109h187l-7 -77h-188l-19 -179q123 95 193 95q57 0 79.5 -22t22.5 -76q0 -25 -5 -68l-34 -319h-98l33 299q5 38 5 55q0 21 -8.5 29.5t-31.5 8.5q-14 0 -40.5 -12t-47.5 -25t-47.5 -30t-29.5 -19l-32 -306h-98z"/>
<glyph glyph-name="uni045C" horiz-adv-x="501" unicode="ќ" d="M42 0l57 546h99l-58 -546h-98zM357 -10l-178 295l206 261h112l-208 -257l172 -281zM240 613l-34 61l201 133l42 -77z"/>
<glyph glyph-name="uni045D" d="M346 612l-202 114l43 76l193 -129zM161 -11q-59 0 -84.5 26t-25.5 89q0 21 3 50l42 392h98l-41 -376q-3 -26 -3 -43q0 -29 9.5 -40.5t31.5 -11.5q65 0 161 87l42 384h97l-58 -546h-97l8 81q-96 -92 -183 -92z" unicode="ѝ"/>
<glyph glyph-name="uni045E" horiz-adv-x="496" unicode="ў" d="M256 642q-31 0 -67 29.5t-61 74.5l77 50q48 -73 78 -73q59 0 147 73l35 -42q-50 -50 -107.5 -81t-101.5 -31zM61 -220l109 220h-41l-84 546h105l61 -466l135 279q42 89 42 161q0 10 -2 26h103q2 -12 2 -26q0 -76 -48 -174l-280 -566h-102z"/>
<glyph glyph-name="uni045F" d="M161 -11q-59 0 -84.5 26t-25.5 89q0 21 3 50l42 392h98l-41 -376q-3 -26 -3 -43q0 -29 9.5 -40.5t31.5 -11.5q65 0 161 87l42 384h97l-58 -546h-97l8 81q-96 -92 -183 -92zM194 -220l47 182h74l-19 -182h-102z" unicode="џ"/>
<glyph glyph-name="uni0462" horiz-adv-x="685" unicode="Ѣ" d="M155 0l55 523h-182l9 86h182l10 98h102l-11 -98h215l-8 -85h-215l-47 -439h107q82 0 126.5 36t44.5 96q0 59 -40 84t-124 25h-46l10 84h47q259 0 259 -188q0 -105 -74.5 -163.5t-202.5 -58.5h-217z"/>
<glyph glyph-name="uni0463" horiz-adv-x="783" unicode="ѣ" d="M501 70q60 0 104.5 47.5t44.5 131.5q0 61 -51 61q-44 0 -135 -62l-18 -171q19 -7 55 -7zM488 -10q-84 0 -147 26l40 358q0 5 1.5 20t1.5 22q0 28 -9 39.5t-30 11.5q-45 0 -164 -86l-41 -381h-98l58 546h98l-8 -81q34 26 53.5 40t63 34.5t76.5 20.5q55 0 78 -25t23 -83 q0 -14 -4 -58l-8 -71q96 70 164 70q56 0 84 -35t28 -96q0 -116 -74 -194t-186 -78z"/>
<glyph glyph-name="uni0472" horiz-adv-x="805" unicode="Ѳ" d="M438 634q-115 0 -185.5 -66.5t-90.5 -175.5h495v5q0 109 -56 173t-163 64zM373 71q117 0 188 68.5t89 180.5h-494v-7q0 -110 55 -176t162 -66zM361 -11q-146 0 -227 84t-81 231q0 187 107 300.5t292 113.5q147 0 228.5 -83.5t81.5 -230.5q0 -189 -107 -302t-294 -113z "/>
<glyph glyph-name="uni0473" horiz-adv-x="527" unicode="ѳ" d="M291 479q-46 0 -85 -45.5t-57 -120.5h235q2 28 2 43q0 65 -23 94t-72 29zM228 71q47 0 87 46.5t58 125.5h-235q-2 -15 -2 -45q0 -127 92 -127zM208 -12q-81 0 -127 56t-46 142q0 168 76.5 270.5t203.5 102.5q82 0 126.5 -56.5t44.5 -136.5q0 -66 -14.5 -128.5t-45 -120.5 t-87 -93.5t-131.5 -35.5z"/>
<glyph glyph-name="uni0474" horiz-adv-x="694" unicode="Ѵ" d="M212 0l-171 707h107l142 -630l227 454q72 149 158 197l65 -63q-73 -42 -132 -158l-259 -507h-137z"/>
<glyph glyph-name="uni0475" horiz-adv-x="545" unicode="ѵ" d="M130 0l-88 546h105l62 -465q139 289 139 290q69 144 154 195l67 -61q-76 -48 -140 -178l-161 -327h-138z"/>
<glyph glyph-name="uni048A" horiz-adv-x="804" unicode="Ҋ" d="M430 751q-116 0 -173 90l57 53q45 -59 125 -59q77 0 137 59l50 -53q-73 -90 -196 -90zM550 109l37 348l14 103l-56 -79l-383 -481h-101l75 707h101l-48 -457l-14 -103l72 105l367 455h101l-60 -576q0 -1 -0.5 -5t-0.5 -5q0 -41 57 -41h61l-115 -233h-106l80 152 q-82 10 -82 92q0 12 1 18z"/>
<glyph glyph-name="uni048B" d="M281 642q-31 0 -67 29.5t-61 74.5l77 50q48 -73 78 -73q59 0 147 73l35 -42q-50 -50 -107.5 -81t-101.5 -31zM162 -11q-59 0 -84.5 25.5t-25.5 89.5q0 21 3 50l41 392h99l-42 -376q-2 -17 -2 -43q0 -29 9.5 -40.5t31.5 -11.5q65 0 161 87l41 384h98l-58 -546 q-61 -28 -61 -71q0 -35 55 -35l-8 -77q-62 0 -99 25t-37 69q0 59 54 110l7 60q-98 -92 -183 -92z" unicode="ҋ"/>
<glyph glyph-name="uni048C" horiz-adv-x="625" unicode="Ҍ" d="M164 707h101l-10 -95h153l-9 -80h-152l-47 -450q4 -1 97 -1q83 0 132 37t53 113v15q0 115 -151 115h-64l8 82h75q112 0 175.5 -48.5t63.5 -143.5q0 -12 -1 -18q-3 -61 -28 -107t-67 -73t-93.5 -40t-112.5 -13h-197l55 532h-81l9 80h81z"/>
<glyph glyph-name="uni048D" horiz-adv-x="507" unicode="ҍ" d="M224 70q59 0 103.5 47.5t44.5 131.5q0 61 -51 61q-42 0 -131 -61l-26 -170q24 -9 60 -9zM42 423l6 64h78l9 59h97l-8 -59h93l-7 -64h-95l-13 -95q93 65 157 65q56 0 84 -35t28 -96q0 -116 -74.5 -194t-186.5 -78q-80 0 -153 28l60 405h-75z"/>
<glyph glyph-name="uni048E" horiz-adv-x="615" unicode="Ҏ" d="M61 0l74 707h240q98 0 158 -50.5t60 -146.5q0 -130 -93 -200l52 -58l-58 -53l-65 73q-71 -27 -154 -27h-9h-27l10 82q32 0 44 1q48 4 76 12l-37 42l59 52l49 -56q45 43 45 122q0 126 -140 126h-116l-66 -626h-102z"/>
<glyph glyph-name="uni048F" d="M233 118l51 51l38 -38q37 47 55 118t18 136q0 82 -57 82q-53 0 -156 -65l-34 -323q44 -8 56 -8q33 0 63 14zM18 -220l82 766h97l-6 -65q93 69 173 69q130 0 130 -165q0 -87 -27.5 -172.5t-81.5 -142.5l47 -45l-48 -51l-55 52q-59 -35 -131 -35q-29 0 -59 5l-23 -216h-98z " unicode="ҏ"/>
<glyph glyph-name="uni0490" horiz-adv-x="521" unicode="Ґ" d="M61 0l74 707h328l16 161h97l-26 -244h-322l-66 -624h-101z"/>
<glyph glyph-name="uni0491" horiz-adv-x="409" unicode="ґ" d="M42 0l58 546h233l12 114h92l-19 -195h-229l-49 -465h-98z"/>
<glyph glyph-name="uni0492" horiz-adv-x="555" unicode="Ғ" d="M48 308l10 80h69l34 319h424l-9 -83h-322l-25 -236h191l-10 -80h-190l-32 -308h-101l32 308h-71z"/>
<glyph glyph-name="uni0493" horiz-adv-x="446" unicode="ғ" d="M44 243l8 69h141q31 21 44.5 31t33.5 27t28 30.5t8 27.5q0 48 -55 48q-52 0 -140 -55l-35 72q90 64 200 64q53 0 89 -29.5t36 -87.5q0 -67 -66 -128h47l-8 -69h-130q-2 -2 -3 -2q-80 -56 -98 -77q-19 -22 -19 -41q0 -49 57 -49q61 0 166 71l38 -74q-44 -33 -105 -57 t-112 -24q-62 0 -101 30t-39 90q0 68 72 133h-57z"/>
<glyph glyph-name="uni0494" horiz-adv-x="635" unicode="Ҕ" d="M296 -220l-49 68q81 60 127 112q112 128 112 269q0 122 -122 122q-83 0 -169 -43l-33 -308h-100l73 707h378l-9 -83h-277l-23 -230q111 39 193 39q99 0 146 -55t47 -148q0 -251 -294 -450z"/>
<glyph glyph-name="uni0495" horiz-adv-x="523" unicode="ҕ" d="M42 0l58 546h326l-8 -82h-229l-19 -180q107 91 193 91q110 0 110 -182q0 -226 -210 -418l-54 60q159 157 159 342q0 59 -12 86t-42 27q-27 0 -74.5 -27.5t-76.5 -52.5l-23 -210h-98z"/>
<glyph glyph-name="uni0496" horiz-adv-x="937" unicode="Җ" d="M908 80l-30 -233h-102l19 148q-48 3 -84 64l-192 305l1 11l274 332h126l-286 -331l167 -254q15 -22 27 -32t33 -10h47zM366 0l74 707h101l-73 -707h-102zM77 -29l-95 51l300 364l-207 321h114l203 -331l-1 -11z"/>
<glyph glyph-name="uni0497" horiz-adv-x="780" unicode="җ" d="M542 289l111 -179q19 -33 57 -33h35l-23 -214h-94l14 137q-39 0 -78 66l-131 216l205 264h112zM295 0l57 546h99l-58 -546h-98zM86 -10l-106 18l233 288l-160 250h109l154 -264z"/>
<glyph glyph-name="uni0498" horiz-adv-x="541" unicode="Ҙ" d="M151 -249l-27 57q66 37 70 75v7q0 22 -13 59h87q14 -30 14 -57q0 -9 -1 -13q-8 -79 -130 -128zM207 -10q-118 0 -206 49l38 81q86 -43 173 -43q69 0 114.5 30.5t50.5 94.5v10q0 104 -160 104h-73l9 81h73q67 0 110 32.5t47 89.5v11q0 48 -31.5 74t-88.5 26t-149 -33 l-26 73q92 44 195 44q99 0 151 -45.5t52 -118.5v-12q-2 -38 -16 -69.5t-34.5 -52.5t-37 -33t-33.5 -20v-2q116 -38 116 -145q0 -2 -0.5 -7t-0.5 -8q-2 -39 -18.5 -75t-47.5 -67.5t-84.5 -50t-122.5 -18.5z"/>
<glyph glyph-name="uni0499" horiz-adv-x="430" unicode="ҙ" d="M98 -249l-27 57q66 37 70 75v7q0 22 -13 59h87q14 -30 14 -57q0 -9 -1 -13q-8 -79 -130 -128zM154 -10q-90 0 -157 28l26 78q66 -22 120 -22q67 0 99.5 25t32.5 62q0 79 -142 85l-8 65q69 15 114 44.5t45 66.5q0 51 -91 51q-59 0 -112 -16l-21 74q59 26 148 26 q80 0 127 -29t47 -88q0 -48 -33 -85.5t-86 -60.5q109 -26 109 -129q0 -78 -60 -126.5t-158 -48.5z"/>
<glyph glyph-name="uni049A" horiz-adv-x="649" unicode="Қ" d="M61 0l74 707h101l-74 -707h-101zM505 -5q-40 3 -82 67l-210 307l1 12l307 326h126l-317 -328l181 -257q15 -22 27.5 -32t32.5 -10h47l-30 -233h-102z"/>
<glyph glyph-name="uni049B" horiz-adv-x="519" unicode="қ" d="M42 0l57 546h99l-58 -546h-98zM377 0q-39 0 -78 66l-120 219l206 261h112l-208 -257l99 -179q21 -33 58 -33h34l-23 -214h-94z"/>
<glyph glyph-name="uni049C" horiz-adv-x="643" unicode="Ҝ" d="M226 277l19 183h55l-19 -183h-55zM61 0l74 707h101l-74 -707h-101zM498 -29l-195 398l1 12l227 326h126l-253 -328l188 -359z"/>
<glyph glyph-name="uni049D" horiz-adv-x="542" unicode="ҝ" d="M189 188l21 187h55l-21 -187h-55zM42 0l57 546h99l-58 -546h-98zM389 -10l-125 295l164 261h111l-175 -257l123 -281z"/>
<glyph glyph-name="uni049E" horiz-adv-x="650" unicode="Ҟ" d="M59 538l9 77h82l10 92h101l-10 -92h97l-9 -77h-96l-56 -538h-101l56 538h-83zM509 -25l-271 394l1 12l307 326h126l-317 -328l250 -356z"/>
<glyph glyph-name="uni049F" horiz-adv-x="521" unicode="ҟ" d="M380 -10l-181 295l199 261h111l-200 -255l174 -283zM45 549l6 64h76l15 141h98l-15 -141h86l-6 -64h-87l-58 -549h-97l57 549h-75z"/>
<glyph glyph-name="uni04A0" horiz-adv-x="710" unicode="Ҡ" d="M30 624l9 83h281l-74 -707h-101l65 624h-180zM568 -25l-271 394l1 12l307 326h126l-317 -328l250 -356z"/>
<glyph glyph-name="uni04A1" horiz-adv-x="597" unicode="ҡ" d="M454 -10l-179 295l206 261h112l-208 -257l172 -281zM14 464l9 82h271l-58 -546h-98l48 464h-172z"/>
<glyph glyph-name="uni04A2" horiz-adv-x="787" unicode="Ң" d="M536 106l21 208h-361l-34 -314h-101l74 707h101l-32 -312h360l33 313h102l-62 -581v-7q0 -40 58 -40h47l-30 -233h-102l19 148q-38 0 -66 24.5t-28 70.5q0 11 1 16z"/>
<glyph glyph-name="uni04A3" horiz-adv-x="578" unicode="ң" d="M495 546l-45 -427q0 -1 -0.5 -4t-0.5 -5q0 -19 12.5 -26t39.5 -7h34l-23 -214h-94l14 137q-33 0 -59 19.5t-26 54.5q0 2 0.5 5t0.5 5l17 163l-201 -16l-25 -231h-97l58 546h98l-25 -227l202 16l23 211h97z"/>
<glyph glyph-name="uni04A4" horiz-adv-x="852" unicode="Ҥ" d="M61 0l74 707h101l-32 -312h360l33 312h23v1h281l-8 -84h-203l-65 -624h-102l34 314h-361l-34 -314h-101z"/>
<glyph glyph-name="uni04A5" horiz-adv-x="630" unicode="ҥ" d="M42 0l58 546h98l-25 -227l202 16l23 211h256l-9 -82h-159l-49 -464h-98l26 247l-201 -16l-25 -231h-97z"/>
<glyph glyph-name="uni04A6" horiz-adv-x="778" unicode="Ҧ" d="M688 708l-60 -581q0 -1 -0.5 -4t-0.5 -4q0 -39 59 -39h47l-30 -233h-103l19 148q-38 0 -66.5 25t-28.5 71q0 10 1 15l54 516h-351l-66 -622h-101l74 708h553z"/>
<glyph glyph-name="uni04A7" horiz-adv-x="575" unicode="ҧ" d="M289 642q-31 0 -67 29.5t-61 74.5l77 50q48 -73 78 -73q59 0 147 73l35 -42q-50 -50 -107.5 -81t-101.5 -31zM418 -137l14 137q-43 0 -62 13.5t-24 40.5q-2 8 -2 27q-102 -92 -183 -92q-59 0 -84.5 26t-25.5 89q0 21 3 50l42 392h98l-41 -376q-3 -30 -3 -49 q1 -25 10 -35.5t31 -10.5q57 0 161 87l42 384h97l-43 -408q-2 -18 -2 -25q1 -21 11.5 -28t37.5 -8h39l-23 -214h-93z"/>
<glyph glyph-name="uni04A8" horiz-adv-x="782" unicode="Ҩ" d="M421 212q0 -76 22 -135q56 6 97.5 27.5t64.5 52t34 64t11 70.5q0 52 -30 79t-71 27q-67 0 -97.5 -52t-30.5 -133zM748 295q0 -107 -69 -188t-192 -107q60 -71 155 -71q48 0 110 16l8 -78q-61 -21 -134 -21q-83 0 -148.5 38t-105.5 105q-148 2 -233 84t-85 234 q0 194 109 301.5t301 107.5q111 0 194 -37l-35 -79q-74 31 -174 31q-136 0 -213.5 -86t-77.5 -223q0 -102 45 -163.5t130 -78.5q-15 55 -15 119q0 126 63 202t184 76q87 0 135 -51.5t48 -130.5z"/>
<glyph glyph-name="uni04A9" horiz-adv-x="533" unicode="ҩ" d="M284 136q0 -37 7 -64q56 12 85 55.5t29 106.5q0 36 -12.5 51t-37.5 15q-30 0 -50.5 -38t-20.5 -126zM224 -12q-89 0 -138.5 54t-49.5 145q0 99 28.5 181.5t92.5 137.5t154 55q89 0 144 -39l-43 -71q-52 28 -105 28q-81 0 -125 -82t-44 -191t67 -132q-3 24 -3 52 q0 104 39.5 173.5t119.5 69.5q60 0 94 -34.5t34 -93.5q0 -89 -45 -150t-120 -87q37 -40 100 -40q39 0 82 12l22 -73q-62 -20 -121 -20q-125 0 -177 105h-6z"/>
<glyph glyph-name="uni04AA" horiz-adv-x="636" unicode="Ҫ" d="M315 -249l-27 57q66 37 70 75v7q0 22 -13 59h87q14 -30 14 -57q0 -9 -1 -13q-8 -79 -130 -128zM380 -10q-150 0 -238.5 83t-88.5 234q0 189 106.5 298t293.5 109q99 0 172 -31l-33 -77q-69 22 -147 22q-137 0 -212.5 -85t-75.5 -225q0 -117 67.5 -178.5t183.5 -61.5 q87 0 155 20l18 -81q-87 -27 -201 -27z"/>
<glyph glyph-name="uni04AB" horiz-adv-x="455" unicode="ҫ" d="M136 -249l-27 57q66 37 70 75v7q0 22 -13 59h87q14 -30 14 -57q0 -9 -1 -13q-8 -79 -130 -128zM179 -12q-51 0 -84 29.5t-45.5 71.5t-12.5 96q0 160 74.5 268t202.5 108q83 0 134 -49l-48 -64q-44 31 -89 31q-48 0 -83.5 -28t-53.5 -73t-26.5 -89.5t-8.5 -88.5 q0 -59 14.5 -92.5t35.5 -33.5q67 0 174 55l33 -69q-39 -23 -59.5 -34t-66 -24.5t-91.5 -13.5z"/>
<glyph glyph-name="uni04AC" horiz-adv-x="588" unicode="Ҭ" d="M217 106l55 518h-237l9 83h575l-9 -83h-237l-52 -497v-7q0 -40 58 -40h47l-30 -233h-103l19 148q-39 0 -67.5 24.5t-28.5 71.5q0 10 1 15z"/>
<glyph glyph-name="uni04AD" horiz-adv-x="852" unicode="ҭ" d="M625 84l32 290q3 27 3 45q0 27 -8 37.5t-30 10.5q-51 0 -153 -79l-41 -388h-98l41 374q3 27 3 45q0 27 -8.5 37t-29.5 10q-51 0 -155 -85l-41 -381h-98l58 546h98l-8 -80q33 27 53.5 42t59.5 33.5t71 18.5q51 0 74 -21.5t25 -67.5q112 89 188 89q54 0 76.5 -24.5 t22.5 -81.5q0 -31 -4 -60l-29 -275q0 -1 -0.5 -4t-0.5 -5q0 -19 12.5 -26t39.5 -7h34l-22 -214h-94l14 137q-34 0 -59.5 20t-25.5 56v8z"/>
<glyph glyph-name="uni04AE" horiz-adv-x="567" unicode="Ү" d="M192 0l27 262l-190 445h114l139 -358l227 358h111l-300 -442l-27 -265h-101z"/>
<glyph glyph-name="uni04AF" horiz-adv-x="481" unicode="ү" d="M117 -220l26 228l-110 538h106l74 -417l121 230q42 93 42 161q0 10 -2 26h102q2 -6 2 -26q0 -76 -48 -174l-190 -338l-25 -228h-98z"/>
<glyph glyph-name="uni04B0" horiz-adv-x="590" unicode="Ұ" d="M92 205l10 85h117l-178 417h114l139 -358l227 358h111l-283 -417h125l-10 -85h-138l-21 -205h-101l21 205h-133z"/>
<glyph glyph-name="uni04B1" horiz-adv-x="505" unicode="ұ" d="M45 0l8 83h87l-94 463h106l74 -417l121 230q42 93 42 161q0 10 -2 26h102q2 -6 2 -26q0 -76 -48 -174l-148 -263h102l-8 -83h-137l-24 -220h-98l25 220h-110z"/>
<glyph glyph-name="uni04B2" horiz-adv-x="639" unicode="Ҳ" d="M412 67l-108 225l-218 -292h-116l290 371l-169 336h114l122 -259l192 259h113l-261 -335l122 -243q14 -27 28 -38t36 -11h47l-30 -233h-103l20 148q-46 3 -79 72z"/>
<glyph glyph-name="uni04B3" horiz-adv-x="500" unicode="ҳ" d="M292 286l73 -164q11 -25 22.5 -35t33.5 -10h34l-22 -214h-94l14 137q-25 0 -39.5 18t-34.5 63l-52 123l-151 -204h-108l220 287l-119 259h105l79 -178l131 178h105z"/>
<glyph glyph-name="uni04B4" horiz-adv-x="909" unicode="Ҵ" d="M593 624h-219l-56 -543h341l64 626h102l-65 -626h93l-24 -234h-98l16 153h-540l64 624h-236l10 83h557z"/>
<glyph glyph-name="uni04B5" horiz-adv-x="656" unicode="ҵ" d="M17 463l9 83h249l-41 -376q-3 -30 -3 -49q1 -25 10 -35.5t31 -10.5q55 0 162 87l41 384h98l-44 -408q-1 -9 -1 -25q0 -21 10.5 -28t37.5 -8h39l-22 -214h-94l14 137q-43 0 -62 13.5t-24 40.5q-2 17 -1 27q-102 -92 -183 -92q-59 0 -85 25.5t-26 89.5q0 21 3 50l33 309 h-151z"/>
<glyph glyph-name="uni04B6" horiz-adv-x="680" unicode="Ҷ" d="M425 106l22 207q-94 -39 -193 -39q-199 0 -199 166q0 24 2 36l24 231h101l-24 -228q-1 -8 -1 -22q0 -102 129 -102q86 0 169 44l33 308h102l-61 -580v-7q0 -40 58 -40h47l-30 -233h-103l20 148q-39 0 -68 24.5t-29 71.5q0 10 1 15z"/>
<glyph glyph-name="uni04B7" horiz-adv-x="535" unicode="ҷ" d="M451 546l-44 -424v-7q0 -21 12.5 -29.5t38.5 -8.5h34l-22 -214h-94l14 137q-33 0 -58.5 21.5t-25.5 56.5q0 2 0.5 5t0.5 5l18 174q-100 -82 -180 -82q-58 0 -81 22.5t-23 79.5q0 24 5 69l20 195h99l-20 -185q-5 -37 -5 -51q0 -23 9 -32.5t32 -9.5q39 0 152 75l21 203h97z "/>
<glyph glyph-name="uni04B8" horiz-adv-x="642" unicode="Ҹ" d="M415 0l32 313q-53 -22 -123 -34l-8 -72h-72l7 67q-196 1 -196 166q0 24 2 36l24 231h101l-24 -228q-1 -8 -1 -22q0 -93 103 -101l8 71h72l-8 -69q65 10 123 41l33 308h102l-74 -707h-101z"/>
<glyph glyph-name="uni04B9" horiz-adv-x="500" unicode="ҹ" d="M297 0l28 262q-45 -36 -78 -53l-7 -67h-55l4 44q-21 -6 -44 -6q-58 0 -81 22.5t-23 79.5q0 24 5 69l20 195h99l-20 -185q-5 -37 -5 -51q0 -23 9 -32.5t32 -9.5q5 0 17 2l8 71h55l-5 -46q41 23 77 48l21 203h97l-57 -546h-97z"/>
<glyph glyph-name="uni04BA" horiz-adv-x="643" unicode="Һ" d="M61 0l75 707h101l-32 -308q107 42 198 42q194 0 194 -168q0 -11 -2 -37l-26 -236h-101l25 234q1 8 1 22q0 102 -135 102q-79 0 -163 -45l-34 -313h-101z"/>
<glyph glyph-name="uni04BB" d="M42 0l79 754h99l-31 -289q37 30 60.5 46.5t61 32.5t71.5 16q56 0 78.5 -24.5t22.5 -82.5q0 -30 -4 -59l-42 -394h-98l41 374q3 28 3 48q0 24 -8.5 34.5t-28.5 10.5q-57 0 -166 -86l-40 -381h-98z" unicode="һ"/>
<glyph glyph-name="uni04BC" horiz-adv-x="936" unicode="Ҽ" d="M599 634q-220 0 -262 -239h463q0 5 0.5 12.5t0.5 11.5q-2 100 -50 157.5t-152 57.5zM611 717q141 0 216 -79.5t75 -214.5q0 -20 -9 -107h-565q6 -244 233 -244q128 0 249 57l29 -70q-129 -71 -302 -71q-145 0 -228.5 84.5t-83.5 227.5v16h-9q-90 1 -135 38t-45 100 t44 138h80q-38 -64 -38 -116q0 -38 22.5 -58.5t76.5 -21.5q0 -1 11 -1q25 147 123 234.5t256 87.5z"/>
<glyph glyph-name="uni04BD" horiz-adv-x="604" unicode="ҽ" d="M271 296l149 58q70 26 70 71q0 28 -17 42t-41 14q-124 0 -161 -185zM301 -12q-139 0 -139 206v8q-19 -3 -37 -3q-99 0 -99 108q0 56 27 124h77q-24 -77 -24 -107q0 -52 42 -52q12 0 19 1q17 126 86 207t182 81q74 0 112 -37.5t38 -93.5q0 -101 -155 -155l-167 -60 q-1 -5 -1 -23q0 -61 13.5 -90t45.5 -29q64 0 169 56l34 -70q-58 -34 -109 -52.5t-114 -18.5z"/>
<glyph glyph-name="uni04BE" horiz-adv-x="937" unicode="Ҿ" d="M599 634q-220 0 -262 -239h463q0 5 0.5 12.5t0.5 11.5q-2 100 -50 157.5t-152 57.5zM611 717q141 0 216 -79.5t75 -214.5q0 -20 -9 -107h-565q6 -244 233 -244q128 0 249 57l29 -70q-69 -38 -154 -56q-119 -68 -119 -120q0 -43 47 -43q26 0 57 12l13 -67q-48 -18 -93 -18 q-52 0 -82.5 26t-30.5 74q0 62 73 121h-13q-145 0 -228.5 84.5t-83.5 227.5v16h-9q-90 1 -135 38t-45 100t44 138h80q-38 -64 -38 -116q0 -38 22.5 -58.5t76.5 -21.5q0 -1 11 -1q25 147 123 234.5t256 87.5z"/>
<glyph glyph-name="uni04BF" horiz-adv-x="605" unicode="ҿ" d="M271 296l149 58q70 26 70 71q0 28 -17 42t-41 14q-124 0 -161 -185zM383 -148l13 -67q-48 -18 -93 -18q-52 0 -82.5 26t-30.5 74q0 64 77 125q-105 23 -105 202v8q-19 -3 -37 -3q-99 0 -99 108q0 56 27 124h77q-24 -77 -24 -107q0 -52 42 -52q12 0 19 1q17 126 86 207 t182 81q74 0 112 -37.5t38 -93.5q0 -101 -155 -155l-167 -60q-1 -5 -1 -23q0 -61 13.5 -90t45.5 -29q64 0 169 56l34 -70q-79 -46 -132 -59q-113 -68 -113 -117q0 -43 47 -43q26 0 57 12z"/>
<glyph glyph-name="uni04C0" horiz-adv-x="287" unicode="Ӏ" d="M61 0l74 707h101l-74 -707h-101z"/>
<glyph glyph-name="uni04C1" horiz-adv-x="903" unicode="Ӂ" d="M494 751q-116 0 -173 90l57 53q45 -59 125 -59q77 0 137 59l50 -53q-73 -90 -196 -90zM366 0l74 707h101l-74 -707h-101zM763 -29l-244 393l1 11l274 332h126l-287 -331l225 -354zM77 -29l-95 51l300 364l-208 321h115l203 -331l-1 -11z"/>
<glyph glyph-name="uni04C2" horiz-adv-x="754" unicode="ӂ" d="M385 642q-31 0 -67 29.5t-61 74.5l77 50q48 -73 78 -73q59 0 147 73l35 -42q-50 -50 -107.5 -81t-101.5 -31zM610 -10l-177 292l205 264h112l-208 -257l172 -281zM295 0l57 546h99l-58 -546h-98zM86 -10l-106 18l233 288l-160 250h109l154 -264z"/>
<glyph glyph-name="uni04C3" horiz-adv-x="642" unicode="Ӄ" d="M61 0l74 707h101l-74 -707h-101zM649 707l-306 -311q107 -14 168.5 -72t61.5 -148q0 -116 -69.5 -214t-193.5 -189l-50 69q203 160 203 321q0 73 -58.5 116t-178.5 47l7 77l284 304h132z"/>
<glyph glyph-name="uni04C4" horiz-adv-x="532" unicode="ӄ" d="M42 0l57 546h99l-58 -546h-98zM497 546l-195 -238q43 5 47 5q127 0 127 -157q0 -91 -73.5 -200.5t-169.5 -179.5l-49 62q78 65 132.5 147.5t54.5 155.5q0 61 -18.5 83.5t-55.5 22.5q-45 0 -91 -13l-14 56l193 256h112z"/>
<glyph glyph-name="uni04C5" horiz-adv-x="714" unicode="Ӆ" d="M461 109l54 517h-198q-6 -30 -19.5 -102t-19 -97t-16.5 -78t-17.5 -76t-17 -57.5t-20.5 -56.5t-22 -41q-55 -88 -178 -140l-38 93q104 47 142 108q58 97 123 528h391l-59 -576q0 -1 -0.5 -5t-0.5 -5q0 -41 57 -41h61l-115 -233h-106l80 152q-82 10 -82 94q0 2 0.5 7.5 t0.5 8.5z"/>
<glyph glyph-name="uni04C6" horiz-adv-x="478" unicode="ӆ" d="M377 546l28 -546q-61 -28 -61 -71q0 -35 55 -35l-8 -77q-63 0 -100.5 25t-37.5 69q0 56 53 106l-15 437h-18l-129 -267q-42 -87 -42 -162q0 -19 1 -25h-100q-3 9 -3 25q0 75 49 175l176 346h152z"/>
<glyph glyph-name="uni04C7" horiz-adv-x="748" unicode="Ӈ" d="M699 708l-59 -555q-6 -62 -18 -107.5t-37.5 -91t-71.5 -81t-114 -62.5l-33 74q91 47 127 106t46 161l18 162h-361l-34 -314h-101l74 707h101l-32 -312h360l33 313h102z"/>
<glyph glyph-name="uni04C8" horiz-adv-x="543" unicode="ӈ" d="M436 -12q-13 -117 -66 -162.5t-142 -45.5q-50 0 -88 16l24 80q41 -11 71 -11q52 0 74 29.5t29 93.5l27 259l-201 -16l-25 -231h-97l58 546h98l-25 -227l202 16l23 211h97z"/>
<glyph glyph-name="uni04C9" horiz-adv-x="788" unicode="Ӊ" d="M699 708l-60 -577v-8q0 -43 57 -43h61l-115 -233h-106l80 152q-82 10 -82 92q0 12 1 18l22 205h-361l-34 -314h-101l74 707h101l-32 -312h360l33 313h102z"/>
<glyph glyph-name="uni04CA" horiz-adv-x="543" unicode="ӊ" d="M341 21l24 226l-201 -16l-25 -231h-97l58 546h98l-25 -227l202 16l23 211h97l-58 -546q-61 -28 -61 -71q0 -35 55 -35l-8 -77q-63 0 -100.5 25t-37.5 69q0 57 56 110z"/>
<glyph glyph-name="uni04CB" horiz-adv-x="640" unicode="Ӌ" d="M313 81h67q45 0 49 45l20 187q-96 -39 -194 -39q-199 0 -199 166q0 12 2 36l24 231h101l-23 -228q-2 -16 -2 -22q0 -102 130 -102q84 0 169 44l32 308h102l-62 -601q-4 -41 -32.5 -73.5t-73.5 -32.5h-17l-16 -153h-102z"/>
<glyph glyph-name="uni04CC" horiz-adv-x="500" unicode="ӌ" d="M297 0l28 262q-100 -82 -180 -82q-58 0 -81 22.5t-23 79.5q0 24 5 69l20 195h99l-20 -185q-5 -37 -5 -51q0 -23 9 -32.5t32 -9.5q39 0 152 75l21 203h97l-57 -546h-97zM151 -140l35 140h71l-19 -140h-87z"/>
<glyph glyph-name="uni04CD" horiz-adv-x="955" unicode="Ӎ" d="M717 109l11 465l-253 -574h-149l-44 576l-183 -576h-100l237 707h127l49 -638l280 638h126l-3 -576q0 -51 57 -51h61l-115 -233h-106l80 152q-75 12 -75 110z"/>
<glyph glyph-name="uni04CE" horiz-adv-x="772" unicode="ӎ" d="M542 84l40 382l-210 -466h-110l-30 465l-87 -278q-30 -92 -30 -162q0 -4 0.5 -13t0.5 -12h-101q-2 6 -2 25q0 74 36 175l125 346h140l33 -420l189 420h152l-44 -427q0 -1 -0.5 -4t-0.5 -5q0 -19 12.5 -26t39.5 -7h34l-22 -214h-94l14 137q-34 0 -59.5 20t-25.5 56v8z"/>
<glyph glyph-name="uni04CF" horiz-adv-x="246" unicode="ӏ" d="M42 0l79 754h98l-80 -754h-97z"/>
<glyph glyph-name="uni04D0" horiz-adv-x="652" unicode="Ӑ" d="M381 751q-116 0 -173 90l57 53q45 -59 125 -59q77 0 137 59l50 -53q-73 -90 -196 -90zM227 330h208l-47 243l-12 78l-34 -79zM-38 0l351 707h142l152 -707h-105l-51 252h-263l-123 -252h-103z"/>
<glyph glyph-name="uni04D1" horiz-adv-x="521" unicode="ӑ" d="M319 642q-31 0 -67 29.5t-61 74.5l77 50q48 -73 78 -73q59 0 147 73l35 -42q-50 -50 -107.5 -81t-101.5 -31zM172 77q20 0 56.5 21.5t62 41.5t46.5 39l30 288q-6 1 -27 1q-63 0 -113.5 -47.5t-75.5 -116t-25 -139.5q0 -88 46 -88zM147 -13q-119 0 -119 168 q0 97 39.5 186.5t118 149.5t177.5 60q64 0 109 -8l-56 -543h-98l10 91q-112 -104 -181 -104z"/>
<glyph glyph-name="uni04D2" horiz-adv-x="652" unicode="Ӓ" d="M497 749l-58 67l71 65l60 -65zM282 749l-58 67l72 65l58 -65zM227 330h208l-47 243l-12 78l-34 -79zM-38 0l351 707h142l152 -707h-105l-51 252h-263l-123 -252h-103z"/>
<glyph glyph-name="uni04D3" horiz-adv-x="521" unicode="ӓ" d="M442 647l-58 66l72 65l59 -65zM237 647l-59 66l73 65l59 -65zM172 77q20 0 56.5 21.5t62 41.5t46.5 39l30 288q-6 1 -27 1q-63 0 -113.5 -47.5t-75.5 -116t-25 -139.5q0 -88 46 -88zM147 -13q-119 0 -119 168q0 97 39.5 186.5t118 149.5t177.5 60q64 0 109 -8l-56 -543 h-98l10 91q-112 -104 -181 -104z"/>
<glyph glyph-name="uni04D4" horiz-adv-x="929" unicode="Ӕ" d="M311 394h149l25 232h-27zM-47 0l462 707h485l-8 -81h-309l-24 -231h287l-8 -80h-287l-25 -234h332l-8 -81h-434l35 315h-188l-197 -315h-113z"/>
<glyph glyph-name="uni04D5" horiz-adv-x="779" unicode="ӕ" d="M449 298l147 58q69 28 69 72q0 26 -16 39t-40 13q-67 0 -106.5 -52t-53.5 -130zM174 77q29 0 78.5 35t84.5 67l31 289l-32 2h-2q-83 0 -143.5 -86.5t-60.5 -197.5q0 -61 11 -85t33 -24zM148 -13q-117 0 -117 180q0 167 95.5 276.5t239.5 109.5q41 0 97 -8l-7 -54 q65 70 157 70q77 0 112 -36t35 -93q0 -101 -155 -155l-166 -60v-21q0 -123 60 -123q56 0 168 55l35 -69q-60 -34 -110 -52.5t-113 -18.5q-109 0 -128 121q-120 -122 -203 -122z"/>
<glyph glyph-name="uni04D6" horiz-adv-x="573" unicode="Ӗ" d="M350 751q-116 0 -173 90l57 53q45 -59 125 -59q77 0 137 59l50 -53q-73 -90 -196 -90zM61 0l74 707h410l-8 -81h-309l-24 -231h287l-9 -80h-286l-25 -234h332l-8 -81h-434z"/>
<glyph glyph-name="uni04D7" horiz-adv-x="481" unicode="ӗ" d="M149 296l148 58q70 26 70 71q0 28 -17 42t-41 14q-67 0 -106 -52t-54 -133zM308 642q-31 0 -67 29.5t-61 74.5l77 50q48 -73 78 -73q59 0 147 73l35 -42q-50 -50 -107.5 -81t-101.5 -31zM178 -12q-139 0 -139 206q0 98 29.5 180t93 134.5t150.5 52.5q74 0 112 -37.5 t38 -93.5q0 -101 -155 -155l-167 -60v-23q0 -61 13.5 -90t44.5 -29q64 0 169 56l34 -70q-58 -34 -109 -52.5t-114 -18.5z"/>
<glyph glyph-name="uni04D8" horiz-adv-x="762" unicode="Ә" d="M347 71q115 0 178.5 66.5t83.5 178.5h-464v-32q2 -97 50 -155t152 -58zM334 -12q-148 0 -219.5 79t-71.5 221q0 20 9 107h566v6q0 105 -54.5 168.5t-165.5 63.5q-131 0 -257 -62l-28 70q136 76 301 76q150 0 228 -84t78 -223q0 -186 -101.5 -304t-284.5 -118z"/>
<glyph glyph-name="uni04D9" horiz-adv-x="481" unicode="ә" d="M326 252l-149 -58q-70 -28 -70 -72q0 -27 17 -41t41 -14q67 0 106.5 52t54.5 133zM296 560q140 0 140 -206q0 -153 -72 -260t-202 -107q-74 0 -111.5 37.5t-37.5 93.5q0 59 42.5 95t112.5 60l166 59q1 6 1 23q0 61 -13.5 90.5t-45.5 29.5q-62 0 -169 -56l-34 69 q59 35 109.5 53.5t113.5 18.5z"/>
<glyph glyph-name="uni04DA" horiz-adv-x="762" unicode="Ӛ" d="M295 749l-58 67l72 65l58 -65zM510 749l-58 67l71 65l60 -65zM347 71q115 0 178.5 66.5t83.5 178.5h-464v-32q2 -97 50 -155t152 -58zM334 -12q-148 0 -219.5 79t-71.5 221q0 20 9 107h566v6q0 105 -54.5 168.5t-165.5 63.5q-131 0 -257 -62l-28 70q136 76 301 76 q150 0 228 -84t78 -223q0 -186 -101.5 -304t-284.5 -118z"/>
<glyph glyph-name="uni04DB" horiz-adv-x="481" unicode="ӛ" d="M326 252l-149 -58q-70 -28 -70 -72q0 -27 17 -41t41 -14q67 0 106.5 52t54.5 133zM296 560q140 0 140 -206q0 -153 -72 -260t-202 -107q-74 0 -111.5 37.5t-37.5 93.5q0 59 42.5 95t112.5 60l166 59q1 6 1 23q0 61 -13.5 90.5t-45.5 29.5q-62 0 -169 -56l-34 69 q59 35 109.5 53.5t113.5 18.5zM381 647l-58 66l72 65l59 -65zM176 647l-59 66l73 65l59 -65z"/>
<glyph glyph-name="uni04DC" horiz-adv-x="903" unicode="Ӝ" d="M601 749l-58 67l71 65l60 -65zM386 749l-58 67l72 65l58 -65zM366 0l74 707h101l-74 -707h-101zM763 -29l-244 393l1 11l274 332h126l-287 -331l225 -354zM77 -29l-95 51l300 364l-208 321h115l203 -331l-1 -11z"/>
<glyph glyph-name="uni04DD" horiz-adv-x="754" unicode="ӝ" d="M610 -10l-177 292l205 264h112l-208 -257l172 -281zM295 0l57 546h99l-58 -546h-98zM86 -10l-106 18l233 288l-160 250h109l154 -264zM513 647l-58 66l72 65l59 -65zM308 647l-59 66l73 65l59 -65z"/>
<glyph glyph-name="uni04DE" horiz-adv-x="541" unicode="Ӟ" d="M399 749l-58 67l71 65l60 -65zM184 749l-58 67l72 65l58 -65zM207 -10q-118 0 -206 49l38 81q86 -43 173 -43q69 0 114.5 30.5t50.5 94.5v10q0 104 -160 104h-73l9 81h73q67 0 110 32.5t47 89.5v11q0 48 -31.5 74t-88.5 26t-149 -33l-26 73q92 44 195 44q99 0 151 -45.5 t52 -118.5v-12q-2 -38 -16 -69.5t-34.5 -52.5t-37 -33t-33.5 -20v-2q116 -38 116 -145q0 -2 -0.5 -7t-0.5 -8q-2 -39 -18.5 -75t-47.5 -67.5t-84.5 -50t-122.5 -18.5z"/>
<glyph glyph-name="uni04DF" horiz-adv-x="430" unicode="ӟ" d="M154 -10q-90 0 -157 28l26 78q66 -22 120 -22q67 0 99.5 25t32.5 62q0 79 -142 85l-8 65q69 15 114 44.5t45 66.5q0 51 -91 51q-59 0 -112 -16l-21 74q59 26 148 26q80 0 127 -29t47 -88q0 -48 -33 -85.5t-86 -60.5q109 -26 109 -129q0 -78 -60 -126.5t-158 -48.5z M331 647l-58 66l72 65l59 -65zM126 647l-59 66l73 65l59 -65z"/>
<glyph glyph-name="uni04E0" horiz-adv-x="536" unicode="Ӡ" d="M168 399l213 217h-301l10 91h420l-8 -77l-227 -229q87 -11 145 -60.5t58 -123.5q0 -75 -42 -128.5t-103 -77t-131 -23.5q-69 0 -121.5 13t-73.5 28l34 85q74 -37 164 -37q69 0 116.5 32t47.5 102q0 56 -51.5 86t-121.5 31h-22z"/>
<glyph glyph-name="uni04E1" horiz-adv-x="462" unicode="ӡ" d="M90 168l8 77l217 213h-284l9 88h402l-8 -76l-235 -231q85 -13 142 -63t57 -124q0 -83 -62 -146.5t-149 -95.5t-183 -38l-8 82q81 10 144.5 31t106.5 61t43 93q0 58 -60.5 91t-139.5 38z"/>
<glyph glyph-name="uni04E2" horiz-adv-x="766" unicode="Ӣ" d="M61 0l75 707h101l-48 -457l-14 -103l72 105l367 455h101l-74 -707h-102l48 457l14 103l-56 -79l-383 -481h-101zM292 767l8 82h294l-9 -82h-293z"/>
<glyph glyph-name="uni04E3" d="M161 -11q-59 0 -84.5 26t-25.5 89q0 21 3 50l42 392h98l-41 -376q-3 -26 -3 -43q0 -29 9.5 -40.5t31.5 -11.5q65 0 161 87l42 384h97l-58 -546h-97l8 81q-96 -92 -183 -92zM167 665l9 81h272l-9 -81h-272z" unicode="ӣ"/>
<glyph glyph-name="uni04E4" horiz-adv-x="766" unicode="Ӥ" d="M61 0l75 707h101l-48 -457l-14 -103l72 105l367 455h101l-74 -707h-102l48 457l14 103l-56 -79l-383 -481h-101zM547 749l-58 67l71 65l60 -65zM332 749l-58 67l72 65l58 -65z"/>
<glyph glyph-name="uni04E5" d="M161 -11q-59 0 -84.5 26t-25.5 89q0 21 3 50l42 392h98l-41 -376q-3 -26 -3 -43q0 -29 9.5 -40.5t31.5 -11.5q65 0 161 87l42 384h97l-58 -546h-97l8 81q-96 -92 -183 -92zM413 647l-58 66l72 65l59 -65zM208 647l-59 66l73 65l59 -65z" unicode="ӥ"/>
<glyph glyph-name="uni04E6" horiz-adv-x="805" unicode="Ӧ" d="M373 71q137 0 210.5 92t73.5 234q0 109 -56 173t-163 64q-135 0 -208.5 -90.5t-73.5 -230.5q0 -110 55 -176t162 -66zM361 -11q-146 0 -227 84t-81 231q0 187 107 300.5t292 113.5q147 0 228.5 -83.5t81.5 -230.5q0 -189 -107 -302t-294 -113zM558 749l-58 67l71 65 l60 -65zM343 749l-58 67l72 65l58 -65z"/>
<glyph glyph-name="uni04E7" horiz-adv-x="527" unicode="ӧ" d="M228 71q63 0 110.5 80t47.5 205q0 65 -23 94t-72 29q-63 0 -109 -81t-46 -200q0 -127 92 -127zM208 -12q-81 0 -127 56t-46 142q0 168 76.5 270.5t203.5 102.5q82 0 126.5 -56.5t44.5 -136.5q0 -66 -14.5 -128.5t-45 -120.5t-87 -93.5t-131.5 -35.5zM416 647l-58 66 l72 65l59 -65zM211 647l-59 66l73 65l59 -65z"/>
<glyph glyph-name="uni04E8" horiz-adv-x="805" unicode="Ө" d="M438 634q-115 0 -185.5 -66.5t-90.5 -176.5h495v6q0 109 -56 173t-163 64zM373 71q117 0 188 68.5t89 180.5h-494v-7q0 -110 55 -176t162 -66zM361 -11q-146 0 -227 84t-81 231q0 187 107 300.5t292 113.5q147 0 228.5 -83.5t81.5 -230.5q0 -189 -107 -302t-294 -113z "/>
<glyph glyph-name="uni04E9" horiz-adv-x="527" unicode="ө" d="M228 71q46 0 86 45t58 123h-235q-1 -14 -1 -41q0 -127 92 -127zM291 479q-46 0 -85.5 -46.5t-57.5 -123.5h236q2 30 2 47q0 65 -23 94t-72 29zM208 -12q-81 0 -127 56t-46 142q0 168 76.5 270.5t203.5 102.5q82 0 126.5 -56.5t44.5 -136.5q0 -66 -14.5 -128.5t-45 -120.5 t-87 -93.5t-131.5 -35.5z"/>
<glyph glyph-name="uni04EA" horiz-adv-x="805" unicode="Ӫ" d="M346 749l-58 67l72 65l58 -65zM561 749l-58 67l71 65l60 -65zM438 634q-115 0 -185.5 -66.5t-90.5 -176.5h495v6q0 109 -56 173t-163 64zM373 71q117 0 188 68.5t89 180.5h-494v-7q0 -110 55 -176t162 -66zM361 -11q-146 0 -227 84t-81 231q0 187 107 300.5t292 113.5 q147 0 228.5 -83.5t81.5 -230.5q0 -189 -107 -302t-294 -113z"/>
<glyph glyph-name="uni04EB" horiz-adv-x="527" unicode="ӫ" d="M414 647l-58 66l72 65l59 -65zM209 647l-59 66l73 65l59 -65zM291 479q-46 0 -85 -45.5t-57 -120.5h235q2 28 2 43q0 65 -23 94t-72 29zM228 71q47 0 87 46.5t58 125.5h-235q-2 -15 -2 -45q0 -127 92 -127zM208 -12q-81 0 -127 56t-46 142q0 168 76.5 270.5t203.5 102.5 q82 0 126.5 -56.5t44.5 -136.5q0 -66 -14.5 -128.5t-45 -120.5t-87 -93.5t-131.5 -35.5z"/>
<glyph glyph-name="uni04EC" horiz-adv-x="653" unicode="Ӭ" d="M206 -10q-131 0 -196 38l33 77q78 -32 165 -32q113 0 192.5 62t97.5 180h-351l9 81h350q1 123 -63.5 179.5t-169.5 56.5q-95 0 -169 -33l-26 77q90 40 207 40q159 0 243 -79t84 -224q0 -24 -4 -68q-18 -160 -124.5 -257.5t-277.5 -97.5zM419 749l-58 67l71 65l60 -65z M204 749l-58 67l72 65l58 -65z"/>
<glyph glyph-name="uni04ED" horiz-adv-x="444" unicode="ӭ" d="M125 -12q-78 0 -130 48l43 69q55 -35 99 -35q55 0 95 47.5t57 125.5h-162l6 71h167q2 11 2 39q0 64 -17.5 94t-63.5 30q-59 0 -133 -31l-26 70q88 45 173 45t126.5 -52.5t41.5 -137.5q0 -73 -17 -140t-49.5 -122t-87.5 -88t-124 -33zM346 647l-58 66l72 65l59 -65z M141 647l-59 66l73 65l59 -65z"/>
<glyph glyph-name="uni04EE" horiz-adv-x="577" unicode="Ӯ" d="M131 -9l-30 88q57 18 90.5 41t60.5 73l16 29h-40l-192 485h113l158 -416l199 416h116l-274 -516q-29 -55 -53.5 -89.5t-52.5 -56t-49 -31t-62 -23.5zM197 767l8 82h294l-9 -82h-293z"/>
<glyph glyph-name="uni04EF" horiz-adv-x="496" unicode="ӯ" d="M144 665l9 81h272l-9 -81h-272zM61 -220l109 220h-41l-84 546h105l61 -466l135 279q42 89 42 161q0 10 -2 26h103q2 -12 2 -26q0 -76 -48 -174l-280 -566h-102z"/>
<glyph glyph-name="uni04F0" horiz-adv-x="577" unicode="Ӱ" d="M131 -9l-30 88q57 18 90.5 41t60.5 73l16 29h-40l-192 485h113l158 -416l199 416h116l-274 -516q-29 -55 -53.5 -89.5t-52.5 -56t-49 -31t-62 -23.5zM440 749l-58 67l71 65l60 -65zM225 749l-58 67l72 65l58 -65z"/>
<glyph glyph-name="uni04F1" horiz-adv-x="496" unicode="ӱ" d="M385 647l-58 66l72 65l59 -65zM180 647l-59 66l73 65l59 -65zM61 -220l109 220h-41l-84 546h105l61 -466l135 279q42 89 42 161q0 10 -2 26h103q2 -12 2 -26q0 -76 -48 -174l-280 -566h-102z"/>
<glyph glyph-name="uni04F2" horiz-adv-x="577" unicode="Ӳ" d="M371 735l-20 68l237 83l24 -88zM172 735l-46 55l189 164l56 -71zM131 -9l-30 88q57 18 90.5 41t60.5 73l16 29h-40l-192 485h113l158 -416l199 416h116l-274 -516q-29 -55 -53.5 -89.5t-52.5 -56t-49 -31t-62 -23.5z"/>
<glyph glyph-name="uni04F3" horiz-adv-x="496" unicode="ӳ" d="M353 617l-31 57l203 123l38 -76zM120 615l-34 52l200 154l49 -72zM61 -220l109 220h-41l-84 546h105l61 -466l135 279q42 89 42 161q0 10 -2 26h103q2 -12 2 -26q0 -76 -48 -174l-280 -566h-102z"/>
<glyph glyph-name="uni04F4" horiz-adv-x="642" unicode="Ӵ" d="M444 749l-58 67l71 65l60 -65zM229 749l-58 67l72 65l58 -65zM415 0l32 313q-94 -39 -193 -39q-199 0 -199 166q0 24 2 36l24 231h101l-24 -228q-1 -8 -1 -22q0 -102 129 -102q86 0 169 44l33 308h102l-74 -707h-101z"/>
<glyph glyph-name="uni04F5" horiz-adv-x="500" unicode="ӵ" d="M297 0l28 262q-100 -82 -180 -82q-58 0 -81 22.5t-23 79.5q0 24 5 69l20 195h99l-20 -185q-5 -37 -5 -51q0 -23 9 -32.5t32 -9.5q39 0 152 75l21 203h97l-57 -546h-97zM375 647l-58 66l72 65l59 -65zM170 647l-59 66l73 65l59 -65z"/>
<glyph glyph-name="uni04F6" horiz-adv-x="521" unicode="Ӷ" d="M226 624l-52 -497q0 -1 -0.5 -4t-0.5 -4q0 -39 58 -39h47l-30 -233h-102l19 148q-39 0 -67.5 25t-28.5 71q0 10 1 15l63 601h424l-9 -83h-322z"/>
<glyph glyph-name="uni04F7" horiz-adv-x="430" unicode="ӷ" d="M338 145l38 -74q-136 -71 -136 -142q0 -35 55 -35l-8 -77q-63 0 -100.5 25t-37.5 69q0 43 31 82q-16 -2 -24 -2h-8q-57 2 -93.5 32t-36.5 87q0 31 12.5 58.5t38 53t47 42.5t56.5 41q86 58 106 81q19 22 19 42q0 48 -55 48q-51 0 -141 -55l-35 72q90 64 201 64 q52 0 88 -29.5t36 -87.5q0 -32 -12.5 -60.5t-40 -55t-48 -42t-58.5 -41.5q-35 -24 -46.5 -32.5t-33.5 -26.5t-29.5 -31.5t-7.5 -27.5q0 -49 56 -49q59 0 167 71z"/>
<glyph glyph-name="uni04F8" horiz-adv-x="868" unicode="Ӹ" d="M383 749l-58 67l72 65l58 -65zM598 749l-58 67l71 65l60 -65zM641 0l74 707h101l-74 -707h-101zM135 707h101l-65 -625q4 -1 97 -1q83 0 132 37t53 113v15q0 115 -151 115h-64l8 82h75q112 0 175.5 -48.5t63.5 -143.5q0 -12 -1 -18q-3 -61 -28 -107t-67 -73t-93.5 -40 t-112.5 -13h-197z"/>
<glyph glyph-name="uni04F9" horiz-adv-x="689" unicode="ӹ" d="M199 70q59 0 103.5 47.5t44.5 131.5q0 61 -51 61q-42 0 -131 -61l-26 -170q24 -9 60 -9zM185 -10q-80 0 -153 28l78 528h97l-30 -218q93 65 157 65q56 0 84 -35t28 -96q0 -116 -74.5 -194t-186.5 -78zM485 0l57 546h98l-57 -546h-98zM491 647l-58 66l72 65l59 -65z M286 647l-59 66l73 65l59 -65z"/>
</font>
</defs>
</svg>
