<?xml version="1.0" encoding="UTF-8" standalone="no"?>
<!DOCTYPE svg  PUBLIC '-//W3C//DTD SVG 1.1//EN'  'http://www.w3.org/Graphics/SVG/1.1/DTD/svg11.dtd'>
<svg xmlns="http://www.w3.org/2000/svg">
<defs>
<font id="FedraSansPro-DemiLF" horiz-adv-x="558">
<font-face underline-position="-50" font-weight="450" descent="-200" panose-1="2 11 5 3 4 0 0 2 0 4" units-per-em="1000" unicode-range="U+0020-FB04" bbox="-98 -253 1073 943" x-height="546" underline-thickness="50" font-family="FedraSansPro" ascent="800" cap-height="707"/>
<missing-glyph horiz-adv-x="1000"/>
<glyph glyph-name="f_f" horiz-adv-x="693" unicode="ff" d="M214 546h240v46q0 46 13 75q-76 21 -146 21q-107 0 -107 -99v-43zM109 -189v656h-80v79h80v43q0 190 222 190q92 0 185 -36q46 36 140 36q26 0 67.5 -7.5t59.5 -13.5l-20 -82q-56 12 -101 12q-104 0 -104 -99v-43h118v-79h-118v-656h-104v656h-240v-656h-105z"/>
<glyph glyph-name="fi" horiz-adv-x="639" unicode="fi" d="M109 -189v656h-80v79h80v33q0 110 53.5 154.5t143.5 44.5q21 0 69 -3t72 -3q47 0 92 5l16 -80q-51 -17 -125 -17q-21 0 -62.5 3t-62.5 3q-50 0 -71 -26t-21 -82v-32h346v-546h-105v467h-241v-656h-104z"/>
<glyph glyph-name="fl" horiz-adv-x="639" unicode="fl" d="M109 -189v656h-80v79h80v31q0 105 54.5 152.5t142.5 47.5q19 0 67 -3.5t74 -3.5h9q38 0 103 7v-777h-105v680h-16q-21 0 -64.5 3t-68.5 3q-50 0 -71 -26.5t-21 -79.5v-34h118v-79h-118v-656h-104z"/>
<glyph glyph-name="f_f_i" horiz-adv-x="983" unicode="ffi" d="M214 546h240v28q0 57 14 93q-76 21 -147 21q-107 0 -107 -99v-43zM109 -189v656h-80v79h80v43q0 190 212 190q104 0 198 -37q52 37 131 37q21 0 69.5 -3t72.5 -3q48 0 91 5l16 -79q-50 -18 -124 -18q-21 0 -63 3.5t-63 3.5q-50 0 -70 -28t-20 -87v-27h344v-546h-105v467 h-239v-656h-105v656h-240v-656h-105z"/>
<glyph glyph-name="f_f_l" horiz-adv-x="975" unicode="ffl" d="M214 546h240v28q0 57 13 92q-74 22 -146 22q-107 0 -107 -99v-43zM109 -189v656h-80v79h80v43q0 190 222 190q88 0 187 -37q48 37 131 37q20 0 68.5 -4t73.5 -4q34 0 104 7v-778h-104v682h-10q-21 0 -64.5 3t-68.5 3q-50 0 -70.5 -28t-20.5 -85v-29h117v-79h-117v-656 h-104v656h-239v-656h-105z"/>
<glyph glyph-name=".notdef" horiz-adv-x="1000"/>
<glyph glyph-name=".null" horiz-adv-x="0"/>
<glyph glyph-name="nonmarkingreturn" horiz-adv-x="333"/>
<glyph glyph-name="space" horiz-adv-x="249" unicode=" "/>
<glyph glyph-name="exclam" horiz-adv-x="301" unicode="!" d="M94 0v104h113v-104h-113zM105 186l-6 155v366h104v-366l-6 -155h-92z"/>
<glyph glyph-name="quotedbl" horiz-adv-x="375" unicode='&quot;' d="M237 515l-6 238h90l-8 -238h-76zM61 515l-7 239h90l-7 -239h-76z"/>
<glyph glyph-name="numbersign" horiz-adv-x="665" unicode="#" d="M414 459h-149l-13 -217h149zM605 154h-110l-9 -154h-99l9 154h-150l-9 -154h-99l9 154h-87v88h92l13 217h-105v87h111l9 161h100l-9 -161h149l9 161h100l-10 -161h86v-87h-91l-13 -217h104v-88z"/>
<glyph glyph-name="dollar" horiz-adv-x="551" unicode="$" d="M508 191q0 -82 -51.5 -130.5t-136.5 -62.5l3 -97h-99l1 90q-114 4 -187 44l33 82q81 -34 173 -34q68 0 112.5 24t44.5 78q0 32 -19 57t-49 42t-66.5 32.5t-73.5 34t-67 41.5t-49 60.5t-19 84.5q0 73 46 116t121 55l-2 92h99l-2 -90q77 -5 146 -35l-30 -78q-81 27 -153 27 q-122 0 -122 -84q0 -28 19 -51t49.5 -40t67.5 -33.5t74.5 -36.5t68 -44t49.5 -61t19 -83z"/>
<glyph glyph-name="percent" horiz-adv-x="812" unicode="%" d="M151 52l-56 59l548 531l56 -58zM599 65q36 0 57.5 25t21.5 71q0 93 -76 93q-32 0 -53.5 -25t-21.5 -76q0 -88 72 -88zM599 -9q-71 0 -116 39.5t-45 122.5q0 81 47.5 128t116.5 47q73 0 119 -39.5t46 -127.5q0 -79 -48 -124.5t-120 -45.5zM206 451q35 0 57 25.5t22 70.5 q0 94 -76 94q-33 0 -54 -25t-21 -76q0 -89 72 -89zM206 377q-72 0 -117 40t-45 123q0 81 48 127.5t117 46.5q73 0 118.5 -39.5t45.5 -127.5q0 -79 -48 -124.5t-119 -45.5z"/>
<glyph glyph-name="ampersand" horiz-adv-x="690" unicode="&amp;" d="M258 420q27 16 45.5 28t41 30.5t34.5 38.5t12 39q0 35 -20.5 56t-54.5 21q-38 0 -61 -23.5t-23 -62.5q0 -63 26 -127zM259 71q61 0 116 42q-100 75 -158 187q-73 -58 -73 -128q0 -52 33.5 -76.5t81.5 -24.5zM247 -10q-85 0 -143.5 42.5t-58.5 133.5q0 66 36 114t103 94 q-42 84 -42 166q0 67 46 119t134 52q81 0 120.5 -42.5t39.5 -104.5q0 -36 -15 -66.5t-47 -57t-58 -43t-72 -41.5q58 -111 166.5 -186t229.5 -91l-12 -83q-124 8 -233 71q-46 -39 -88.5 -58t-105.5 -19z"/>
<glyph glyph-name="quotesingle" horiz-adv-x="202" unicode="&apos;" d="M61 515l-7 239h95l-8 -239h-80z"/>
<glyph glyph-name="parenleft" horiz-adv-x="359" unicode="(" d="M322 -162l-53 -59q-226 185 -226 501q0 168 64.5 291.5t161.5 190.5l55 -56q-184 -161 -184 -425q0 -269 182 -443z"/>
<glyph glyph-name="parenright" horiz-adv-x="358" unicode=")" d="M89 -221l-52 59q181 174 181 443q0 265 -183 425l55 56q97 -67 161.5 -190.5t64.5 -291.5q0 -316 -227 -501z"/>
<glyph glyph-name="asterisk" horiz-adv-x="432" unicode="*" d="M277 596l-20 34l94 78l41 -71zM351 458l-94 78l21 36l114 -42zM196 643l-20 119h82l-21 -119h-41zM174 406l23 119h39l20 -119h-82zM156 595l-115 43l41 71l94 -79zM81 460l-40 71l114 41l20 -35z"/>
<glyph glyph-name="plus" horiz-adv-x="579" unicode="+" d="M243 51v211h-210v83l210 -2v216h85l-3 -217l221 3v-83h-219l1 -211h-85z"/>
<glyph glyph-name="comma" horiz-adv-x="238" unicode="," d="M38 -127q27 60 27 150v83h109v-48q0 -108 -46 -185h-90z"/>
<glyph glyph-name="hyphen" horiz-adv-x="475" unicode="-" d="M88 243v87h298v-87h-298z"/>
<glyph glyph-name="period" horiz-adv-x="251" unicode="." d="M65 0v114h121v-114h-121z"/>
<glyph glyph-name="slash" horiz-adv-x="436" unicode="/" d="M54 -62l233 829h94l-232 -829h-95z"/>
<glyph glyph-name="zero" horiz-adv-x="672" unicode="0" d="M495 358q0 41 -2.5 72.5t-11.5 70.5t-25 64t-45.5 42.5t-69.5 17.5q-43 0 -74.5 -18t-48.5 -44.5t-27 -66.5t-12.5 -73.5t-2.5 -76.5q0 -267 159 -267q42 0 72.5 17t47 42.5t26 65t12 74t2.5 80.5zM602 364q0 -174 -65 -273.5t-207 -99.5q-261 0 -261 351q0 60 8 112 t27.5 100.5t50.5 83t80 55t112 20.5q255 0 255 -349z"/>
<glyph glyph-name="one" horiz-adv-x="362" unicode="1" d="M261 0h-105v619h-141v82l246 7v-708z"/>
<glyph glyph-name="two" horiz-adv-x="542" unicode="2" d="M501 0h-467v79q1 1 37 34.5t65.5 62t73.5 76.5t74 88t52 84.5t22 76.5q0 68 -30 96.5t-90 28.5q-72 0 -145 -38l-36 74q81 53 191 53q216 0 216 -205q0 -44 -18 -90.5t-42.5 -84t-69 -85.5t-78.5 -80.5t-89 -81.5h334v-88z"/>
<glyph glyph-name="three" horiz-adv-x="509" unicode="3" d="M454 191q0 -200 -243 -200q-53 0 -99 6.5t-65 12.5l-19 7l22 86q73 -22 151 -22q70 0 109 23t39 87q0 125 -189 136v80q72 5 115 38.5t43 88.5q0 93 -110 93q-30 0 -60.5 -5.5t-45.5 -10.5l-16 -5l-30 75q70 34 158 34q92 0 148.5 -43.5t56.5 -125.5q0 -66 -36 -109 t-83 -59q64 -20 109 -67.5t45 -119.5z"/>
<glyph glyph-name="four" horiz-adv-x="587" unicode="4" d="M336 264v358l-208 -358h208zM554 176h-114v-176h-104v176h-310v87l264 444h150v-443h114v-88z"/>
<glyph glyph-name="five" horiz-adv-x="534" unicode="5" d="M482 217q0 -107 -68 -166.5t-179 -59.5q-115 0 -181 22l25 89q65 -18 155 -18q65 0 104.5 33t39.5 89q0 68 -36.5 100.5t-99.5 32.5h-41q-74 -2 -122 -8v376h375v-87h-275v-196q28 2 78 2q104 0 164.5 -55.5t60.5 -153.5z"/>
<glyph glyph-name="six" horiz-adv-x="595" unicode="6" d="M316 -13q-124 0 -186.5 73t-62.5 244q0 200 85.5 305t230.5 105q73 0 117 -17l-23 -83q-38 10 -95 10q-107 0 -159 -87.5t-52 -238.5q0 -118 32.5 -171t119.5 -53q57 0 90 41t33 104q0 71 -35 105.5t-96 34.5q-30 0 -90 -12l4 84q50 13 97 13q110 0 167.5 -56.5 t57.5 -158.5q0 -114 -66 -178t-169 -64z"/>
<glyph glyph-name="seven" horiz-adv-x="473" unicode="7" d="M459 627l-310 -637l-90 29l298 598h-340v90h442v-80z"/>
<glyph glyph-name="eight" horiz-adv-x="594" unicode="8" d="M295 408q115 60 115 130q0 44 -26.5 71.5t-80.5 27.5q-59 0 -89 -27.5t-30 -72.5q0 -68 111 -129zM300 70q60 0 96 29.5t36 86.5q0 41 -37 74t-106 71q-61 -34 -96 -70t-35 -81q0 -52 39 -81t103 -29zM294 -12q-108 0 -173.5 48t-65.5 135q0 70 41 114t115 85 q-61 39 -95 78t-34 94q0 83 60.5 129t161.5 46q97 0 153.5 -49.5t56.5 -117.5q0 -58 -37 -98.5t-104 -79.5q39 -22 62 -37t50 -38.5t40 -52t13 -62.5q0 -92 -66.5 -143t-177.5 -51z"/>
<glyph glyph-name="nine" horiz-adv-x="597" unicode="9" d="M206 -9q-66 0 -112 17l23 84q41 -11 90 -11q64 0 108 22.5t67 67.5t32.5 99t9.5 129v9q0 220 -149 220q-57 0 -90 -38.5t-33 -99.5q0 -81 34 -114.5t97 -33.5q43 0 93 13l-1 -83q-56 -14 -107 -14q-107 0 -164.5 56t-57.5 167t66.5 173t169.5 62q117 0 183 -80.5 t66 -235.5q0 -215 -82 -312t-243 -97z"/>
<glyph glyph-name="colon" horiz-adv-x="301" unicode=":" d="M90 432v114h121v-114h-121zM90 0v114h121v-114h-121z"/>
<glyph glyph-name="semicolon" horiz-adv-x="300" unicode=";" d="M88 432v114h121v-114h-121zM65 -127q29 63 29 136v97h113v-62q0 -96 -50 -171h-92z"/>
<glyph glyph-name="less" horiz-adv-x="505" unicode="&lt;" d="M449 59l-409 190v109l409 194v-93l-332 -156l332 -151v-93z"/>
<glyph glyph-name="equal" horiz-adv-x="672" unicode="=" d="M95 372l-1 84h483l1 -84h-483zM95 151l-1 83h483l1 -83h-483z"/>
<glyph glyph-name="greater" horiz-adv-x="505" unicode="&gt;" d="M56 59v93l333 151l-333 156v93l409 -194v-109z"/>
<glyph glyph-name="question" horiz-adv-x="391" unicode="?" d="M88 0v104h113v-104h-113zM99 169q-25 47 -25 92q0 36 17.5 68.5t42 55.5t49 43.5t42 41.5t17.5 41q0 96 -192 112l20 89q54 -4 100.5 -15.5t88.5 -33.5t66.5 -59.5t24.5 -87.5q0 -42 -28.5 -81t-62.5 -64.5t-62.5 -56.5t-28.5 -58q0 -33 18 -72z"/>
<glyph glyph-name="at" horiz-adv-x="795" unicode="@" d="M353 229q37 0 81 41l20 158q-21 3 -26 3q-52 0 -80.5 -38.5t-28.5 -102.5q0 -33 7.5 -47t26.5 -14zM374 -72q-153 0 -238 86t-85 251q0 115 33.5 203.5t93 142t134.5 80t163 26.5q129 0 202 -71.5t73 -218.5q0 -137 -67.5 -211t-162.5 -74q-39 0 -61.5 18.5t-22.5 47.5 q-17 -22 -49 -39.5t-56 -17.5q-50 0 -76.5 29.5t-26.5 101.5q0 96 54.5 156.5t145.5 60.5q60 0 117 -23l-25 -216q-1 -5 -1 -14q0 -28 20 -28q45 0 85.5 51t40.5 157q0 217 -196 217q-68 0 -126 -20.5t-105 -63t-73.5 -115.5t-26.5 -171q0 -266 245 -266q77 0 158 18l12 -71 q-78 -26 -179 -26z"/>
<glyph glyph-name="A" horiz-adv-x="684" unicode="A" d="M235 330h209l-99 305zM-4 0l285 707h139l252 -707h-115l-86 247h-267l-97 -247h-111z"/>
<glyph glyph-name="B" horiz-adv-x="649" unicode="B" d="M208 402h104q127 0 127 109q0 61 -37.5 86.5t-115.5 25.5h-78v-221zM208 87h116q80 0 122.5 25t42.5 91q0 119 -179 119h-102v-235zM99 0v707h210q119 0 178.5 -48t59.5 -135q0 -52 -25.5 -91t-65.5 -55v-2q57 -12 99.5 -56t42.5 -114q0 -96 -62 -151t-197 -55h-240z"/>
<glyph glyph-name="C" horiz-adv-x="677" unicode="C" d="M428 -12q-178 0 -276 97.5t-98 263.5q0 169 98.5 268.5t271.5 99.5q124 0 210 -41l-31 -82q-96 31 -177 31h-3q-114 0 -186.5 -66t-72.5 -200q0 -138 78 -207.5t203 -69.5q87 0 165 25l25 -84q-93 -35 -207 -35z"/>
<glyph glyph-name="D" horiz-adv-x="763" unicode="D" d="M207 87h118q134 0 204 65.5t70 192.5q0 137 -77 206t-217 69h-98v-533zM99 0v707h209q120 0 208 -36t140.5 -116t52.5 -199q0 -180 -103.5 -268t-291.5 -88h-215z"/>
<glyph glyph-name="E" horiz-adv-x="590" unicode="E" d="M99 0v707h416v-86h-308v-224h286v-84h-286v-226h331v-87h-439z"/>
<glyph glyph-name="F" horiz-adv-x="581" unicode="F" d="M99 0v707h439v-86h-331v-243h309v-84h-309v-294h-108z"/>
<glyph glyph-name="G" horiz-adv-x="710" unicode="G" d="M430 -11q-176 0 -276 95t-100 265q0 175 97 271.5t275 96.5q121 0 206 -40l-29 -83q-95 31 -177 31q-115 0 -188 -65.5t-73 -200.5q0 -139 78 -208t201 -69q52 0 94 11v255h107v-323q-100 -36 -215 -36z"/>
<glyph glyph-name="H" horiz-adv-x="776" unicode="H" d="M99 0v707h108v-309h362v309h108v-707h-108v312h-362v-312h-108z"/>
<glyph glyph-name="I" horiz-adv-x="306" unicode="I" d="M99 0v707h108v-707h-108z"/>
<glyph glyph-name="J" horiz-adv-x="308" unicode="J" d="M-1 -190l-42 78q86 48 115.5 105.5t29.5 157.5v556h108v-554q0 -50 -4 -86.5t-17 -76.5t-35.5 -70.5t-61.5 -59t-93 -50.5z"/>
<glyph glyph-name="K" horiz-adv-x="656" unicode="K" d="M99 0v707h108v-707h-108zM510 0l-290 373v11l274 323h137l-291 -328l310 -379h-140z"/>
<glyph glyph-name="L" horiz-adv-x="522" unicode="L" d="M99 0v707h108v-618h307v-89h-415z"/>
<glyph glyph-name="M" horiz-adv-x="957" unicode="M" d="M99 0v707h139l229 -628l259 628h131v-707h-107v413l4 126h-3l-217 -539h-140l-190 540h-4l7 -117v-423h-108z"/>
<glyph glyph-name="N" horiz-adv-x="780" unicode="N" d="M99 0v707h132l344 -576h2l-4 85v491h108v-707h-137l-338 567h-3l4 -79v-488h-108z"/>
<glyph glyph-name="O" horiz-adv-x="830" unicode="O" d="M409 76q128 0 193 76.5t65 201.5q0 122 -65.5 199t-185.5 77q-124 0 -189 -76t-65 -198q0 -121 63.5 -200.5t183.5 -79.5zM406 -12q-168 0 -260 99.5t-92 267.5q0 166 100 264t268 98q171 0 262.5 -100.5t91.5 -263.5q0 -166 -98.5 -265.5t-271.5 -99.5z"/>
<glyph glyph-name="P" horiz-adv-x="616" unicode="P" d="M99 0v707h243q111 0 176.5 -60.5t65.5 -169.5q0 -103 -75.5 -170.5t-218.5 -67.5h-44v87h50q84 0 130 37t46 110q0 148 -152 148h-112v-621h-109z"/>
<glyph glyph-name="Q" horiz-adv-x="830" unicode="Q" d="M409 76q128 0 193 76.5t65 201.5q0 122 -65.5 199t-185.5 77q-124 0 -189 -76t-65 -198q0 -121 63.5 -200.5t183.5 -79.5zM406 -12q-168 0 -260 99.5t-92 267.5q0 166 100 264t268 98q171 0 262.5 -100.5t91.5 -263.5q0 -166 -98.5 -265.5t-271.5 -99.5zM787 -169h-28 q-57 0 -88 5q-93 8 -149 27q-73 25 -123 25v79q58 0 127 -20q91 -26 162 -29q35 -5 99 -5v-82z"/>
<glyph glyph-name="R" horiz-adv-x="708" unicode="R" d="M208 353h89q175 0 175 135q0 72 -36 102.5t-115 30.5h-113v-268zM677 -12q-70 6 -122.5 44.5t-107.5 109.5l-98 132q-21 -4 -58 -4h-83v-270h-109v707h244q111 0 176.5 -54t65.5 -160q0 -138 -128 -193l88 -115q37 -46 72.5 -73t83.5 -41z"/>
<glyph glyph-name="S" horiz-adv-x="554" unicode="S" d="M251 -12q-121 0 -209 51l33 85q93 -44 176 -44q66 0 110 27t44 81q0 32 -19 56.5t-49.5 40.5t-67 31.5t-73 33.5t-67 40.5t-49.5 59.5t-19 84q0 86 65.5 134.5t158.5 48.5q110 0 187 -43l-32 -82q-75 35 -153 35q-53 0 -87 -24t-34 -68q0 -38 36 -67t87 -50.5t102 -47 t87 -70.5t36 -106q0 -100 -75.5 -153t-187.5 -53z"/>
<glyph glyph-name="T" horiz-adv-x="599" unicode="T" d="M245 0v619h-236v88h580v-88h-236v-619h-108z"/>
<glyph glyph-name="U" horiz-adv-x="768" unicode="U" d="M385 -12q-46 0 -86.5 7.5t-80 26.5t-67.5 49t-45 78t-17 109v449h109v-442q0 -99 51 -143t136 -44q189 0 189 210v419h106v-423q0 -83 -26.5 -143.5t-71 -92t-93.5 -46t-104 -14.5z"/>
<glyph glyph-name="V" horiz-adv-x="681" unicode="V" d="M261 0l-251 707h116l210 -624l239 624h109l-278 -707h-145z"/>
<glyph glyph-name="W" horiz-adv-x="1046" unicode="W" d="M215 0l-184 707h108l158 -640l184 467l-59 173h108l210 -638l190 638h104l-221 -707h-147l-142 415l-161 -415h-148z"/>
<glyph glyph-name="X" horiz-adv-x="632" unicode="X" d="M7 0l250 370l-212 337h123l151 -252l163 252h118l-224 -334l236 -373h-125l-174 289l-185 -289h-121z"/>
<glyph glyph-name="Y" horiz-adv-x="630" unicode="Y" d="M259 0v256l-240 451h123l175 -358l187 358h118l-255 -449v-258h-108z"/>
<glyph glyph-name="Z" horiz-adv-x="586" unicode="Z" d="M39 0v84l360 532h-334v91h460v-77l-364 -539h385v-91h-507z"/>
<glyph glyph-name="bracketleft" horiz-adv-x="322" unicode="[" d="M79 -220v974h205v-83h-104v-808h104v-83h-205z"/>
<glyph glyph-name="backslash" horiz-adv-x="436" unicode="\" d="M287 -62l-232 829h94l233 -829h-95z"/>
<glyph glyph-name="bracketright" horiz-adv-x="322" unicode="]" d="M38 -220v83h105v808h-105v83h205v-974h-205z"/>
<glyph glyph-name="asciicircum" horiz-adv-x="532" unicode="^" d="M44 294l164 413h129l152 -413h-106l-112 336l-125 -336h-102z"/>
<glyph glyph-name="underscore" horiz-adv-x="605" unicode="_" d="M49 -175v88h507v-88h-507z"/>
<glyph glyph-name="grave" horiz-adv-x="573" unicode="`" d="M375 613l-208 116l41 76l203 -128z"/>
<glyph glyph-name="a" horiz-adv-x="564" unicode="a" d="M233 74q65 0 141 49v126l-116 -5q-56 -2 -87 -25t-31 -65q0 -40 25.5 -60t67.5 -20zM206 -9q-77 0 -122.5 41t-45.5 115q0 49 20 83.5t54 51.5t68.5 24.5t74.5 7.5l119 2v59q0 54 -27.5 74.5t-90.5 20.5q-77 0 -153 -26l-22 79q90 37 192 37q203 0 203 -157v-285 q0 -40 57 -42l-4 -80q-14 -2 -25 -2q-47 0 -80.5 16t-40.5 50q-90 -69 -177 -69z"/>
<glyph glyph-name="b" horiz-adv-x="601" unicode="b" d="M261 -12q-94 0 -186 32v734h104v-666q59 -14 98 -14q84 0 126.5 60t42.5 163q0 178 -144 178q-46 0 -92 -17l-5 73q50 26 117 26q112 0 171.5 -66t59.5 -199q0 -159 -79.5 -231.5t-212.5 -72.5z"/>
<glyph glyph-name="c" horiz-adv-x="507" unicode="c" d="M330 -12q-147 0 -215 67t-68 206q0 146 72 222.5t200 76.5q88 0 152 -35l-29 -79q-68 26 -120 26q-168 0 -168 -207q0 -96 42 -142.5t145 -46.5q47 0 112 15l16 -82q-74 -21 -139 -21z"/>
<glyph glyph-name="d" horiz-adv-x="599" unicode="d" d="M291 78q60 0 124 49v334q-39 15 -91 15q-91 0 -131.5 -57.5t-40.5 -149.5q0 -97 38.5 -144t100.5 -47zM274 -10q-31 0 -60 7t-60 25.5t-54 48t-38 79t-15 113.5q0 149 76 223t202 74q42 0 90 -12v206h105v-754h-105v49q-31 -28 -62.5 -43.5t-78.5 -15.5z"/>
<glyph glyph-name="e" d="M156 321h248q0 160 -115 160q-56 0 -92 -41t-41 -119zM316 -12q-131 0 -199.5 62.5t-68.5 212.5q0 153 68 225t179 72q112 0 164.5 -69t52.5 -206v-37h-359q1 -99 48.5 -136t130.5 -37q69 0 150 24l18 -81q-80 -30 -184 -30z" unicode="e"/>
<glyph glyph-name="f" horiz-adv-x="348" unicode="f" d="M109 -189v656h-80v79h80v32q0 101 51.5 145t136.5 44q49 0 88 -13l-17 -81q-32 8 -68 8q-45 0 -66 -25t-21 -78v-32h117v-79h-117v-656h-104z"/>
<glyph glyph-name="g" horiz-adv-x="595" unicode="g" d="M306 75q53 0 108 37v346q-49 13 -90 13q-173 0 -173 -205q0 -101 40 -146t115 -45zM269 -230q-110 0 -181 31l19 90q90 -29 167 -29q66 0 103.5 28t37.5 102v41q-30 -22 -56 -31t-68 -9q-243 0 -243 266q0 153 77 227t207 74q89 0 186 -25v-560q0 -102 -68 -153.5 t-181 -51.5z"/>
<glyph glyph-name="h" horiz-adv-x="618" unicode="h" d="M79 0v754h105v-269q100 74 189 74q46 0 79 -13t50.5 -31.5t27 -49.5t11.5 -55.5t2 -61.5v-348h-102v333q0 72 -19.5 103t-77.5 31q-68 0 -160 -56v-411h-105z"/>
<glyph glyph-name="i" horiz-adv-x="264" unicode="i" d="M131 635l-79 80l79 80l80 -80zM79 0v546h106v-546h-106z"/>
<glyph glyph-name="j" horiz-adv-x="264" unicode="j" d="M131 635l-79 80l79 80l80 -80zM-10 -224q-46 0 -88 16l19 83q32 -10 67 -10q51 0 71 30.5t20 92.5v558h105v-559q0 -61 -15 -104t-43 -65.5t-60.5 -32t-75.5 -9.5z"/>
<glyph glyph-name="k" horiz-adv-x="555" unicode="k" d="M79 0v754h105v-754h-105zM520 -9q-32 2 -55.5 8t-59 29.5t-68.5 65.5l-150 192l219 260h117l-222 -254l102 -124q66 -80 135 -99z"/>
<glyph glyph-name="l" horiz-adv-x="263" unicode="l" d="M79 0v754h105v-754h-105z"/>
<glyph glyph-name="m" horiz-adv-x="951" unicode="m" d="M79 0v546h105v-62q96 75 181 75q55 0 93 -22.5t53 -58.5q103 81 196 81q47 0 80 -14t50.5 -33t26.5 -50.5t11 -54.5t2 -58v-349h-105v334q0 68 -19.5 101t-77.5 33q-67 0 -150 -56q5 -33 5 -62v-350h-104v334q0 68 -19 101t-74 33q-73 0 -149 -58v-410h-105z"/>
<glyph glyph-name="n" horiz-adv-x="618" unicode="n" d="M79 0v546h105v-60q50 37 93 55.5t101 18.5q44 0 76 -13t49 -32t26.5 -49.5t12 -55.5t2.5 -61v-349h-103v334q0 72 -19.5 103.5t-77.5 31.5q-75 0 -160 -57v-412h-105z"/>
<glyph glyph-name="o" horiz-adv-x="608" unicode="o" d="M306 73q149 0 149 198q0 205 -150 205q-43 0 -74.5 -17.5t-48 -48t-23.5 -64.5t-7 -75q0 -88 36 -143t118 -55zM299 -12q-119 0 -185.5 73.5t-66.5 205.5q0 138 71.5 215.5t191.5 77.5q124 0 187.5 -74.5t63.5 -210.5q0 -140 -72 -213.5t-190 -73.5z"/>
<glyph glyph-name="p" horiz-adv-x="605" unicode="p" d="M276 73q90 0 132.5 56t42.5 153q0 83 -33.5 135.5t-106.5 52.5q-9 0 -18 -1t-18 -3t-16 -3.5t-16 -5t-13.5 -5t-13.5 -6l-12 -6t-11.5 -6.5t-9.5 -5v-346q65 -10 93 -10zM79 -220v766h104v-43q80 56 157 56q100 0 158.5 -69.5t58.5 -202.5q0 -81 -22.5 -140.5t-62.5 -93 t-88 -49t-106 -15.5q-31 0 -95 8v-217h-104z"/>
<glyph glyph-name="q" horiz-adv-x="596" unicode="q" d="M299 78q64 0 116 27v355q-36 15 -92 15q-172 0 -172 -205q0 -99 39.5 -145.5t108.5 -46.5zM415 -220v241q-57 -31 -126 -31q-34 0 -65.5 6.5t-64.5 25t-57 48t-39.5 79.5t-15.5 115q0 151 77 223.5t211 72.5q95 0 185 -31v-749h-105z"/>
<glyph glyph-name="r" horiz-adv-x="406" unicode="r" d="M79 0v546h105v-73q22 34 61.5 59.5t89.5 25.5q38 0 67 -9l-15 -88q-31 7 -67 7q-43 0 -79 -22.5t-57 -53.5v-392h-105z"/>
<glyph glyph-name="s" horiz-adv-x="464" unicode="s" d="M201 -12q-86 0 -161 24l15 84q91 -22 151 -22q58 0 89 19t31 52q0 28 -28.5 48.5t-69 35t-80.5 32.5t-68.5 53.5t-28.5 86.5q0 76 57 117.5t143 41.5q81 0 149 -28l-21 -79q-63 22 -127 22q-49 0 -73.5 -18t-24.5 -48t28 -50.5t68 -35t80.5 -33t68.5 -54t28 -86.5 q0 -58 -36.5 -96.5t-84.5 -52t-105 -13.5z"/>
<glyph glyph-name="t" horiz-adv-x="423" unicode="t" d="M277 -12q-86 0 -130.5 38t-44.5 131v306h-80v83h80v112h103v-112h171v-83h-170v-301q0 -48 20.5 -66t66.5 -18q50 0 100 16l14 -85q-58 -21 -130 -21z"/>
<glyph glyph-name="u" horiz-adv-x="616" unicode="u" d="M238 -12q-43 0 -74.5 13t-48 32.5t-26 50t-12 56t-2.5 60.5v346h104v-330q0 -71 17.5 -103t77.5 -32q77 0 160 56v409h103v-546h-103v62q-34 -24 -53.5 -36t-59.5 -25t-83 -13z"/>
<glyph glyph-name="v" horiz-adv-x="540" unicode="v" d="M198 0l-185 546h113l108 -352l33 -114l37 116l121 350h109l-202 -546h-134z"/>
<glyph glyph-name="w" horiz-adv-x="887" unicode="w" d="M181 0l-161 546h110l120 -466l134 466h130l116 -466l140 466h106l-181 -546h-135l-96 370l-18 79l-20 -79l-109 -370h-136z"/>
<glyph glyph-name="x" horiz-adv-x="539" unicode="x" d="M17 0l193 279l-181 267h121l120 -198l120 198h118l-180 -265l195 -281h-126l-128 210l-129 -210h-123z"/>
<glyph glyph-name="y" horiz-adv-x="536" unicode="y" d="M161 -220l74 220h-44l-179 546h113l111 -371l28 -95l31 94l127 372h106l-267 -766h-100z"/>
<glyph glyph-name="z" horiz-adv-x="508" unicode="z" d="M36 0v80l303 378h-279v88h401v-76l-304 -383h308v-87h-429z"/>
<glyph glyph-name="braceleft" horiz-adv-x="348" unicode="{" d="M287 -221q-93 0 -144.5 31.5t-51.5 112.5q0 9 2 29l21 196v7q0 28 -21.5 51t-58.5 23v88q37 0 58.5 22.5t21.5 51.5v7l-21 201q-1 8 -1 24v9q5 139 195 139h32v-88h-32q-94 0 -94 -76q0 -10 1 -16l20 -179q2 -18 2 -25q0 -87 -78 -112v-2q77 -31 77 -112q0 -16 -1 -24 l-20 -180q0 -3 -0.5 -7.5t-0.5 -6.5q0 -76 94 -76h32v-88h-32z"/>
<glyph glyph-name="bar" horiz-adv-x="254" unicode="|" d="M79 -220v974h96v-974h-96z"/>
<glyph glyph-name="braceright" horiz-adv-x="348" unicode="}" d="M62 -221h-33v88h32q95 0 95 77q0 2 -0.5 6t-0.5 7l-21 180q-1 8 -1 24q0 81 77 112v2q-77 25 -77 112q0 16 1 25l21 179q0 3 0.5 7t0.5 7q0 78 -95 78h-32v88h33q190 0 195 -139q0 -9 -2 -33l-21 -201v-7q0 -29 22 -51.5t59 -22.5v-88q-37 0 -59 -23t-22 -51v-7l21 -196 q2 -20 2 -29q0 -81 -51.5 -112.5t-143.5 -31.5z"/>
<glyph glyph-name="asciitilde" horiz-adv-x="577" unicode="~" d="M390 271q-52 0 -114 30t-93 30q-45 0 -85 -31l-49 69q67 67 140 67q52 0 109 -31t93 -31q46 0 87 33l51 -62q-25 -33 -62.5 -53.5t-76.5 -20.5z"/>
<glyph glyph-name="uni00A0" horiz-adv-x="249" unicode=" "/>
<glyph glyph-name="exclamdown" horiz-adv-x="272" unicode="¡" d="M80 441v104h113v-104h-113zM84 -162v366l6 156h92l6 -156v-366h-104z"/>
<glyph glyph-name="cent" horiz-adv-x="526" unicode="¢" d="M260 0l3 99q-110 16 -159 82.5t-49 196.5q0 115 55 188.5t152 90.5l-2 97h98l-2 -93q66 -5 119 -32l-30 -79q-63 25 -123 25q-73 0 -116.5 -49.5t-43.5 -146.5q0 -106 40 -152t149 -46q26 0 64.5 6.5t41.5 6.5l15 -82q-67 -16 -116 -17l3 -95h-99z"/>
<glyph glyph-name="sterling" horiz-adv-x="538" unicode="£" d="M498 0h-430v88q33 13 51 62.5t23 93.5h-91v87h97q1 16 1 51v56v66q0 57 18.5 97t44 60t65.5 31t69 13.5t69 3.5h10l4 -88q-8 -1 -28 -2.5t-27.5 -2t-24.5 -2.5t-24 -4.5t-19.5 -7t-18 -10t-13.5 -14t-11.5 -19t-6 -24t-2.5 -30.5q0 -10 0.5 -30.5t0.5 -29.5 q0 -44 -4 -114h173v-87h-183q-14 -108 -55 -157h312v-87z"/>
<glyph glyph-name="currency" horiz-adv-x="543" unicode="¤" d="M271 255q49 0 73 27t24 70t-24.5 70.5t-72.5 27.5q-47 0 -72.5 -28t-25.5 -70q0 -41 26 -69t72 -28zM99 134l-46 45l66 65q-38 47 -38 108q0 65 37 108l-65 65l45 44l69 -69q51 28 104 28q61 0 104 -27l68 69l46 -46l-65 -64q37 -42 37 -108t-38 -109l65 -64l-44 -46 l-69 69q-50 -25 -104 -25q-58 0 -102 26z"/>
<glyph glyph-name="yen" horiz-adv-x="686" unicode="¥" d="M645 707l-212 -375h180v-88h-223v-94h223v-87h-222l-1 -63h-108v63h-209v87h209v94h-209v88h168l-198 375h122l175 -358l187 358h118z"/>
<glyph glyph-name="brokenbar" horiz-adv-x="295" unicode="¦" d="M99 392v361h96v-361h-96zM99 -220v362h96v-362h-96z"/>
<glyph glyph-name="section" horiz-adv-x="560" unicode="§" d="M261 -121q73 60 73 149q0 40 -11 101l-73 363q-8 46 -8 93q0 46 11 78q-62 -42 -62 -145q0 -45 9 -90l71 -363q10 -52 10 -94q0 -32 -20 -92zM141 -218q-68 0 -117 40l32 81q49 -36 85 -36q26 0 36.5 25.5t10.5 55.5q0 39 -14 117l-66 335q-10 53 -10 99q0 121 79 191.5 t202 70.5q93 0 153 -49q-39 -69 -44 -74q-54 39 -111 39q-48 0 -48 -65q0 -30 8 -76l71 -337q18 -99 18 -159q0 -110 -81.5 -184t-203.5 -74z"/>
<glyph glyph-name="dieresis" horiz-adv-x="415" unicode="¨" d="M314 648l-67 68l67 67l68 -67zM104 648l-67 68l67 67l67 -67z"/>
<glyph glyph-name="copyright" horiz-adv-x="830" unicode="©" d="M410 46q141 0 215 84.5t74 219.5q0 133 -75.5 217.5t-207.5 84.5q-137 0 -211 -83.5t-74 -216.5q0 -130 73 -218t206 -88zM406 -13q-162 0 -253.5 99.5t-91.5 264.5q0 166 100 263t264 97q165 0 254 -100.5t89 -261.5q0 -165 -97 -263.5t-265 -98.5zM437 149 q-98 0 -152.5 57t-54.5 146q0 95 53.5 151t151.5 56q75 0 122 -28l-22 -57q-50 19 -99 19q-58 0 -95.5 -34t-37.5 -102q0 -69 40 -104t104 -35q48 0 93 15l21 -60q-58 -24 -124 -24z"/>
<glyph glyph-name="ordfeminine" horiz-adv-x="425" unicode="ª" d="M64 295v59h302v-59h-302zM178 445q11 0 28 5.5t34.5 13t19.5 8.5v54l-60 -2q-62 -2 -62 -39q0 -40 40 -40zM168 387q-99 0 -99 93q0 94 127 94l64 1v33q0 27 -14 35.5t-53 8.5q-18 0 -86 -14l-16 54q57 22 116 22q57 0 90 -18.5t33 -71.5v-159q0 -18 29 -20l-3 -56h-13 q-67 0 -77 35q-48 -37 -98 -37z"/>
<glyph glyph-name="guillemotleft" horiz-adv-x="467" unicode="«" d="M345 49l-112 223l113 222l71 -28l-89 -194l88 -190zM156 49l-113 223l112 222l72 -28l-88 -194l87 -190z"/>
<glyph glyph-name="logicalnot" horiz-adv-x="621" unicode="¬" d="M456 104v158h-393v84h484v-242h-91z"/>
<glyph glyph-name="registered" horiz-adv-x="553" unicode="®" d="M318 587q0 22 -9 32t-34 10h-36v-84h31q48 0 48 42zM402 450l-6 -36q-48 0 -75 26q-21 19 -49 71q-3 -1 -18 -1h-14v-91h-54v247h94q42 0 66 -19.5t24 -58.5q0 -47 -44 -68q23 -36 34 -47t42 -23zM464 532q0 89 -54.5 135.5t-130.5 46.5q-82 0 -135.5 -44.5t-53.5 -133.5 q0 -45 14.5 -79.5t35.5 -53.5t49 -31t50.5 -15.5t44.5 -3.5q79 0 129.5 47t50.5 132zM512 532q0 -105 -66 -164t-167 -59q-42 0 -82 11.5t-76 36.5t-58 70t-22 105q0 106 67 166t170 60q44 0 84.5 -12.5t74.5 -38t54.5 -71t20.5 -104.5z"/>
<glyph glyph-name="macron" horiz-adv-x="545" unicode="¯" d="M126 662v83h285v-83h-285z"/>
<glyph glyph-name="degree" horiz-adv-x="401" unicode="°" d="M200 472q77 0 77 89q0 42 -20.5 65t-56.5 23t-56 -23t-20 -65q0 -44 20.5 -66.5t55.5 -22.5zM198 403q-75 0 -115.5 41t-40.5 117q0 70 45 113t114 43q73 0 116 -41.5t43 -114.5q0 -72 -45 -115t-117 -43z"/>
<glyph glyph-name="plusminus" horiz-adv-x="545" unicode="±" d="M53 0v85h440v-85h-440zM229 123v177l-176 -1v84l176 -1v177h87l-2 -179l179 3v-84l-178 1l1 -177h-87z"/>
<glyph glyph-name="twosuperior" horiz-adv-x="306" unicode="²" d="M14 415v58q49 36 70.5 52t53.5 44.5t45 51t13 44.5q0 24 -16.5 37.5t-40.5 13.5q-50 0 -83 -30q-3 6 -16 26.5t-16 26.5q50 47 127 47q56 0 91.5 -31t35.5 -82q0 -57 -44.5 -101.5t-119.5 -89.5h169v-67h-269z"/>
<glyph glyph-name="threesuperior" horiz-adv-x="302" unicode="³" d="M134 410q-58 0 -111 16l15 62q52 -13 88 -13q74 0 74 51q0 31 -24 44t-77 15v43q84 7 84 58q-1 18 -15.5 28.5t-36.5 10.5q-36 0 -72 -17l-20 54q47 25 103 25q55 0 88.5 -24t33.5 -69q0 -26 -14.5 -48t-40.5 -33q35 -9 54.5 -33.5t19.5 -57.5q0 -58 -42.5 -85 t-106.5 -27z"/>
<glyph glyph-name="acute" horiz-adv-x="573" unicode="´" d="M207 613l-34 64l203 126l40 -74z"/>
<glyph glyph-name="mu" horiz-adv-x="641" unicode="µ" d="M76 -220v766h104v-338q0 -66 18 -96.5t78 -30.5q15 0 31.5 3.5t29.5 7.5t29 12l24 12t21.5 12t15.5 9v409h104v-425q0 -25 13 -35.5t40 -10.5q2 0 7 0.5t8 0.5l-3 -81q-24 -3 -48 -3q-103 0 -116 73q-31 -23 -49.5 -35.5t-58 -27.5t-78.5 -15q-44 0 -66 19v-226h-104z "/>
<glyph glyph-name="paragraph" horiz-adv-x="602" unicode="¶" d="M247 257q-103 0 -158 58t-55 170q0 120 63 170.5t177 51.5h68v-450h-95zM329 -223q-50 0 -86 15l19 89q34 -9 68 -9q51 0 71 28t20 89v718h105v-719q0 -211 -197 -211z"/>
<glyph glyph-name="periodcentered" horiz-adv-x="246" unicode="·" d="M123 289l-76 77l76 76l76 -76z"/>
<glyph glyph-name="cedilla" horiz-adv-x="458" unicode="¸" d="M194 -253l-35 62q64 38 64 75q0 19 -20 65h91q21 -40 21 -73q0 -78 -121 -129z"/>
<glyph glyph-name="onesuperior" horiz-adv-x="249" unicode="¹" d="M105 415v300h-84v65q51 0 167 4v-369h-83z"/>
<glyph glyph-name="ordmasculine" horiz-adv-x="434" unicode="º" d="M66 295v59h302v-59h-302zM218 444q78 0 78 106t-79 106t-79 -107q0 -105 80 -105zM214 384q-72 0 -111.5 43t-39.5 120q0 79 42 124.5t113 45.5q154 0 154 -167q0 -80 -44 -123t-114 -43z"/>
<glyph glyph-name="guillemotright" horiz-adv-x="466" unicode="»" d="M311 49l-70 33l86 190l-88 194l72 28l112 -222zM121 49l-70 33l87 190l-89 194l72 28l113 -222z"/>
<glyph glyph-name="onequarter" horiz-adv-x="780" unicode="¼" d="M106 72l-44 46l531 538l43 -45zM132 415v300h-84v65q51 0 167 4v-369h-83zM497 147h105v176zM602 1v85h-165v66l123 215h119v-220h58v-61h-58v-85h-77z"/>
<glyph glyph-name="onehalf" horiz-adv-x="776" unicode="½" d="M98 72l-44 46l531 538l43 -45zM129 415v300h-84v65q51 0 167 4v-369h-83zM443 0v58q49 36 70.5 52t53.5 44.5t45 51t13 44.5q0 24 -16.5 37.5t-40.5 13.5q-50 0 -83 -30q-3 6 -16 26.5t-16 26.5q50 47 127 47q56 0 91.5 -31t35.5 -82q0 -57 -44.5 -101.5t-119.5 -89.5 h169v-67h-269z"/>
<glyph glyph-name="threequarters" horiz-adv-x="783" unicode="¾" d="M500 147h105v176zM122 72l-44 46l531 538l43 -45zM156 410q-58 0 -111 16l15 62q52 -13 88 -13q74 0 74 51q0 31 -24 44t-77 15v43q84 7 84 58q-1 18 -15.5 28.5t-36.5 10.5q-36 0 -72 -17l-20 54q47 25 103 25q55 0 88.5 -24t33.5 -69q0 -26 -14.5 -48t-40.5 -33 q35 -9 54.5 -33.5t19.5 -57.5q0 -58 -42.5 -85t-106.5 -27zM605 1v85h-165v66l123 215h119v-220h58v-61h-58v-85h-77z"/>
<glyph glyph-name="questiondown" horiz-adv-x="379" unicode="¿" d="M192 442v104h113v-104h-113zM321 -164q-43 3 -80 10.5t-75 22t-64.5 35.5t-43 54t-16.5 74t28.5 80t63 64t63 56t28.5 58q0 29 -19 71l87 16q25 -54 25 -91t-17.5 -69t-42 -55t-49 -43.5t-42 -42t-17.5 -41.5q0 -93 191 -111z"/>
<glyph glyph-name="Agrave" horiz-adv-x="684" unicode="À" d="M235 330h209l-99 305zM-4 0l285 707h139l252 -707h-115l-86 247h-267l-97 -247h-111zM419 746l-239 60l23 87l236 -76z"/>
<glyph glyph-name="Aacute" horiz-adv-x="684" unicode="Á" d="M269 746l-19 70l234 79l23 -86zM235 330h209l-99 305zM-4 0l285 707h139l252 -707h-115l-86 247h-267l-97 -247h-111z"/>
<glyph glyph-name="Acircumflex" horiz-adv-x="684" unicode="Â" d="M217 748l-36 69l167 82l163 -81l-37 -70l-127 58zM235 330h209l-99 305zM-4 0l285 707h139l252 -707h-115l-86 247h-267l-97 -247h-111z"/>
<glyph glyph-name="Atilde" horiz-adv-x="684" unicode="Ã" d="M411 754q-23 0 -63.5 19t-58.5 19q-37 0 -69 -26l-40 54q51 56 112 56q30 0 68 -18.5t53 -18.5q36 0 71 26l37 -53q-47 -58 -110 -58zM235 330h209l-99 305zM-4 0l285 707h139l252 -707h-115l-86 247h-267l-97 -247h-111z"/>
<glyph glyph-name="Adieresis" horiz-adv-x="684" unicode="Ä" d="M450 744l-70 71l70 69l70 -69zM240 744l-70 71l70 69l69 -69zM235 330h209l-99 305zM-4 0l285 707h139l252 -707h-115l-86 247h-267l-97 -247h-111z"/>
<glyph glyph-name="Aring" horiz-adv-x="684" unicode="Å" d="M350 789q52 0 54 51q0 23 -15.5 37.5t-38.5 14.5q-55 0 -55 -50q0 -24 15.5 -38.5t39.5 -14.5zM352 744q-46 0 -78 23t-32 72q0 47 31.5 73.5t75.5 26.5q42 0 75.5 -24t33.5 -74q0 -46 -30.5 -71.5t-75.5 -25.5zM235 330h209l-99 305zM-4 0l285 707h139l252 -707h-115 l-86 247h-267l-97 -247h-111z"/>
<glyph glyph-name="AE" horiz-adv-x="932" unicode="Æ" d="M287 375h154v246h-33zM-17 0l363 707h510v-86h-308v-224h286v-84h-286v-226h332v-87h-439v292h-192l-144 -292h-122z"/>
<glyph glyph-name="Ccedilla" horiz-adv-x="677" unicode="Ç" d="M356 -253l-35 62q64 38 64 75q0 19 -20 65h91q21 -40 21 -73q0 -78 -121 -129zM428 -12q-178 0 -276 97.5t-98 263.5q0 169 98.5 268.5t271.5 99.5q124 0 210 -41l-31 -82q-96 31 -177 31h-3q-114 0 -186.5 -66t-72.5 -200q0 -138 78 -207.5t203 -69.5q87 0 165 25 l25 -84q-93 -35 -207 -35z"/>
<glyph glyph-name="Egrave" horiz-adv-x="590" unicode="È" d="M99 0v707h416v-86h-308v-224h286v-84h-286v-226h331v-87h-439zM399 746l-239 60l23 87l236 -76z"/>
<glyph glyph-name="Eacute" horiz-adv-x="590" unicode="É" d="M99 0v707h416v-86h-308v-224h286v-84h-286v-226h331v-87h-439zM238 746l-19 70l234 79l23 -86z"/>
<glyph glyph-name="Ecircumflex" horiz-adv-x="590" unicode="Ê" d="M183 748l-36 69l167 82l163 -81l-37 -70l-127 58zM99 0v707h416v-86h-308v-224h286v-84h-286v-226h331v-87h-439z"/>
<glyph glyph-name="Edieresis" horiz-adv-x="590" unicode="Ë" d="M99 0v707h416v-86h-308v-224h286v-84h-286v-226h331v-87h-439zM416 744l-70 71l70 69l70 -69zM206 744l-70 71l70 69l69 -69z"/>
<glyph glyph-name="Igrave" horiz-adv-x="306" unicode="Ì" d="M99 0v707h108v-707h-108zM212 746l-239 60l23 87l236 -76z"/>
<glyph glyph-name="Iacute" horiz-adv-x="306" unicode="Í" d="M97 746l-19 70l234 79l23 -86zM99 0v707h108v-707h-108z"/>
<glyph glyph-name="Icircumflex" horiz-adv-x="306" unicode="Î" d="M25 748l-36 69l167 82l163 -81l-37 -70l-127 58zM99 0v707h108v-707h-108z"/>
<glyph glyph-name="Idieresis" horiz-adv-x="306" unicode="Ï" d="M258 744l-70 71l70 69l70 -69zM48 744l-70 71l70 69l69 -69zM99 0v707h108v-707h-108z"/>
<glyph glyph-name="Eth" horiz-adv-x="791" unicode="Ð" d="M234 87h118q134 0 204 65.5t70 192.5q0 137 -77 206t-217 69h-98v-232h157v-74h-157v-227zM49 314v74h77v319h209q120 0 208 -36t140.5 -116t52.5 -199q0 -180 -103.5 -268t-291.5 -88h-215v314h-77z"/>
<glyph glyph-name="Ntilde" horiz-adv-x="780" unicode="Ñ" d="M99 0v707h132l344 -576h2l-4 85v491h108v-707h-137l-338 567h-3l4 -79v-488h-108zM458 754q-23 0 -63.5 19t-58.5 19q-36 0 -69 -26l-40 54q51 56 112 56q29 0 68 -18.5t53 -18.5q36 0 71 26l37 -53q-47 -58 -110 -58z"/>
<glyph glyph-name="Ograve" horiz-adv-x="830" unicode="Ò" d="M409 76q128 0 193 76.5t65 201.5q0 122 -65.5 199t-185.5 77q-124 0 -189 -76t-65 -198q0 -121 63.5 -200.5t183.5 -79.5zM406 -12q-168 0 -260 99.5t-92 267.5q0 166 100 264t268 98q171 0 262.5 -100.5t91.5 -263.5q0 -166 -98.5 -265.5t-271.5 -99.5zM502 746l-239 60 l23 87l236 -76z"/>
<glyph glyph-name="Oacute" horiz-adv-x="830" unicode="Ó" d="M409 76q128 0 193 76.5t65 201.5q0 122 -65.5 199t-185.5 77q-124 0 -189 -76t-65 -198q0 -121 63.5 -200.5t183.5 -79.5zM406 -12q-168 0 -260 99.5t-92 267.5q0 166 100 264t268 98q171 0 262.5 -100.5t91.5 -263.5q0 -166 -98.5 -265.5t-271.5 -99.5zM325 746l-19 70 l234 79l23 -86z"/>
<glyph glyph-name="Ocircumflex" horiz-adv-x="830" unicode="Ô" d="M409 76q128 0 193 76.5t65 201.5q0 122 -65.5 199t-185.5 77q-124 0 -189 -76t-65 -198q0 -121 63.5 -200.5t183.5 -79.5zM406 -12q-168 0 -260 99.5t-92 267.5q0 166 100 264t268 98q171 0 262.5 -100.5t91.5 -263.5q0 -166 -98.5 -265.5t-271.5 -99.5zM287 748l-36 69 l167 82l163 -81l-37 -70l-127 58z"/>
<glyph glyph-name="Otilde" horiz-adv-x="830" unicode="Õ" d="M409 76q128 0 193 76.5t65 201.5q0 122 -65.5 199t-185.5 77q-124 0 -189 -76t-65 -198q0 -121 63.5 -200.5t183.5 -79.5zM406 -12q-168 0 -260 99.5t-92 267.5q0 166 100 264t268 98q171 0 262.5 -100.5t91.5 -263.5q0 -166 -98.5 -265.5t-271.5 -99.5zM481 754 q-23 0 -63.5 19t-58.5 19q-37 0 -69 -26l-40 54q51 56 112 56q30 0 68 -18.5t53 -18.5q36 0 71 26l37 -53q-47 -58 -110 -58z"/>
<glyph glyph-name="Odieresis" horiz-adv-x="830" unicode="Ö" d="M409 76q128 0 193 76.5t65 201.5q0 122 -65.5 199t-185.5 77q-124 0 -189 -76t-65 -198q0 -121 63.5 -200.5t183.5 -79.5zM406 -12q-168 0 -260 99.5t-92 267.5q0 166 100 264t268 98q171 0 262.5 -100.5t91.5 -263.5q0 -166 -98.5 -265.5t-271.5 -99.5zM514 744l-70 71 l70 69l70 -69zM304 744l-70 71l70 69l69 -69z"/>
<glyph glyph-name="multiply" horiz-adv-x="555" unicode="×" d="M449 75l-174 174l-166 -169l-61 61l168 167l-167 166l58 60l167 -169l170 171l61 -60l-174 -170l175 -172z"/>
<glyph glyph-name="Oslash" horiz-adv-x="860" unicode="Ø" d="M176 356q0 -97 40 -167l375 387q-64 54 -161 54q-124 0 -189 -76t-65 -198zM423 76q128 0 193 76.5t65 201.5q0 100 -45 171l-377 -390q64 -59 164 -59zM95 -34l-48 48l93 96q-72 94 -72 245q0 166 100 264t268 98q136 0 226 -68l91 94l50 -46l-92 -95q79 -97 79 -249 q0 -166 -98.5 -265.5t-271.5 -99.5q-142 0 -232 74z"/>
<glyph glyph-name="Ugrave" horiz-adv-x="768" unicode="Ù" d="M385 -12q-46 0 -86.5 7.5t-80 26.5t-67.5 49t-45 78t-17 109v449h109v-442q0 -99 51 -143t136 -44q189 0 189 210v419h106v-423q0 -83 -26.5 -143.5t-71 -92t-93.5 -46t-104 -14.5zM462 746l-239 60l23 87l236 -76z"/>
<glyph glyph-name="Uacute" horiz-adv-x="768" unicode="Ú" d="M385 -12q-46 0 -86.5 7.5t-80 26.5t-67.5 49t-45 78t-17 109v449h109v-442q0 -99 51 -143t136 -44q189 0 189 210v419h106v-423q0 -83 -26.5 -143.5t-71 -92t-93.5 -46t-104 -14.5zM315 746l-19 70l234 79l23 -86z"/>
<glyph glyph-name="Ucircumflex" horiz-adv-x="768" unicode="Û" d="M260 748l-36 69l167 82l163 -81l-37 -70l-127 58zM385 -12q-46 0 -86.5 7.5t-80 26.5t-67.5 49t-45 78t-17 109v449h109v-442q0 -99 51 -143t136 -44q189 0 189 210v419h106v-423q0 -83 -26.5 -143.5t-71 -92t-93.5 -46t-104 -14.5z"/>
<glyph glyph-name="Udieresis" horiz-adv-x="768" unicode="Ü" d="M385 -12q-46 0 -86.5 7.5t-80 26.5t-67.5 49t-45 78t-17 109v449h109v-442q0 -99 51 -143t136 -44q189 0 189 210v419h106v-423q0 -83 -26.5 -143.5t-71 -92t-93.5 -46t-104 -14.5zM491 744l-70 71l70 69l70 -69zM281 744l-70 71l70 69l69 -69z"/>
<glyph glyph-name="Yacute" horiz-adv-x="630" unicode="Ý" d="M249 746l-19 70l234 79l23 -86zM259 0v256l-240 451h123l175 -358l187 358h118l-255 -449v-258h-108z"/>
<glyph glyph-name="Thorn" horiz-adv-x="619" unicode="Þ" d="M99 0v707h109v-120h135q113 0 177.5 -58t64.5 -169q0 -103 -75.5 -167.5t-218.5 -64.5h-49v87h55q175 0 175 141q0 73 -36 108.5t-115 35.5h-113v-500h-109z"/>
<glyph glyph-name="germandbls" horiz-adv-x="612" unicode="ß" d="M79 -189v742q0 214 214 214q29 0 59 -7t62 -23t52 -50t20 -81q0 -34 -17.5 -67.5t-38.5 -54.5t-38.5 -46.5t-17.5 -45.5q0 -28 22 -50.5t53 -39t62 -35.5t53 -50t22 -72q0 -42 -17 -74t-45 -48.5t-58.5 -24.5t-63.5 -8q-97 0 -154 21l16 83q68 -18 117 -18q104 0 104 60 q0 27 -22 47t-53.5 36t-62.5 35t-53 53t-22 81q0 30 16 60t36 51t36 49t16 55q0 37 -25.5 57t-63.5 20q-59 0 -81.5 -32.5t-22.5 -95.5v-741h-104z"/>
<glyph glyph-name="agrave" horiz-adv-x="564" unicode="à" d="M342 614l-208 116l41 76l203 -128zM233 74q65 0 141 49v126l-116 -5q-56 -2 -87 -25t-31 -65q0 -40 25.5 -60t67.5 -20zM206 -9q-77 0 -122.5 41t-45.5 115q0 49 20 83.5t54 51.5t68.5 24.5t74.5 7.5l119 2v59q0 54 -27.5 74.5t-90.5 20.5q-77 0 -153 -26l-22 79 q90 37 192 37q203 0 203 -157v-285q0 -40 57 -42l-4 -80q-14 -2 -25 -2q-47 0 -80.5 16t-40.5 50q-90 -69 -177 -69z"/>
<glyph glyph-name="aacute" horiz-adv-x="564" unicode="á" d="M212 613l-34 64l203 126l40 -74zM233 74q65 0 141 49v126l-116 -5q-56 -2 -87 -25t-31 -65q0 -40 25.5 -60t67.5 -20zM206 -9q-77 0 -122.5 41t-45.5 115q0 49 20 83.5t54 51.5t68.5 24.5t74.5 7.5l119 2v59q0 54 -27.5 74.5t-90.5 20.5q-77 0 -153 -26l-22 79 q90 37 192 37q203 0 203 -157v-285q0 -40 57 -42l-4 -80q-14 -2 -25 -2q-47 0 -80.5 16t-40.5 50q-90 -69 -177 -69z"/>
<glyph glyph-name="acircumflex" horiz-adv-x="564" unicode="â" d="M233 74q65 0 141 49v126l-116 -5q-56 -2 -87 -25t-31 -65q0 -40 25.5 -60t67.5 -20zM206 -9q-77 0 -122.5 41t-45.5 115q0 49 20 83.5t54 51.5t68.5 24.5t74.5 7.5l119 2v59q0 54 -27.5 74.5t-90.5 20.5q-77 0 -153 -26l-22 79q90 37 192 37q203 0 203 -157v-285 q0 -40 57 -42l-4 -80q-14 -2 -25 -2q-47 0 -80.5 16t-40.5 50q-90 -69 -177 -69zM393 622l-122 85l-129 -85l-45 59l176 118l165 -117z"/>
<glyph glyph-name="atilde" horiz-adv-x="564" unicode="ã" d="M333 641q-25 0 -65 19t-60 19q-36 0 -69 -26l-40 54q52 56 116 56q30 0 68 -18.5t55 -18.5q32 0 75 27l38 -53q-51 -59 -118 -59zM233 74q65 0 141 49v126l-116 -5q-56 -2 -87 -25t-31 -65q0 -40 25.5 -60t67.5 -20zM206 -9q-77 0 -122.5 41t-45.5 115q0 49 20 83.5 t54 51.5t68.5 24.5t74.5 7.5l119 2v59q0 54 -27.5 74.5t-90.5 20.5q-77 0 -153 -26l-22 79q90 37 192 37q203 0 203 -157v-285q0 -40 57 -42l-4 -80q-14 -2 -25 -2q-47 0 -80.5 16t-40.5 50q-90 -69 -177 -69z"/>
<glyph glyph-name="adieresis" horiz-adv-x="564" unicode="ä" d="M233 74q65 0 141 49v126l-116 -5q-56 -2 -87 -25t-31 -65q0 -40 25.5 -60t67.5 -20zM206 -9q-77 0 -122.5 41t-45.5 115q0 49 20 83.5t54 51.5t68.5 24.5t74.5 7.5l119 2v59q0 54 -27.5 74.5t-90.5 20.5q-77 0 -153 -26l-22 79q90 37 192 37q203 0 203 -157v-285 q0 -40 57 -42l-4 -80q-14 -2 -25 -2q-47 0 -80.5 16t-40.5 50q-90 -69 -177 -69zM380 648l-67 68l67 67l68 -67zM170 648l-67 68l67 67l67 -67z"/>
<glyph glyph-name="aring" horiz-adv-x="564" unicode="å" d="M285 656q58 0 60 57q0 26 -17.5 42t-43.5 16q-60 0 -60 -56q0 -27 16.5 -43t44.5 -16zM286 606q-51 0 -86.5 26t-35.5 80q0 53 35.5 82.5t84.5 29.5q46 0 84 -27t38 -83q0 -52 -34 -80t-86 -28zM233 74q65 0 141 49v126l-116 -5q-56 -2 -87 -25t-31 -65q0 -40 25.5 -60 t67.5 -20zM206 -9q-77 0 -122.5 41t-45.5 115q0 49 20 83.5t54 51.5t68.5 24.5t74.5 7.5l119 2v59q0 54 -27.5 74.5t-90.5 20.5q-77 0 -153 -26l-22 79q90 37 192 37q203 0 203 -157v-285q0 -40 57 -42l-4 -80q-14 -2 -25 -2q-47 0 -80.5 16t-40.5 50q-90 -69 -177 -69z"/>
<glyph glyph-name="ae" horiz-adv-x="881" unicode="æ" d="M479 319l247 12q1 69 -29 110t-82 41q-55 0 -93.5 -40t-42.5 -123zM224 75q58 0 166 59q-14 43 -17 109l-114 -3q-120 -4 -120 -84q0 -81 85 -81zM641 -9q-163 0 -227 91q-115 -90 -211 -90q-79 0 -122 40t-43 116q0 158 217 163q106 3 119 3v66q0 56 -28 73t-100 17 q-37 0 -143 -24l-21 77q86 36 188 36q137 0 179 -66q63 66 178 66q207 0 207 -266v-36l-358 -12q1 -53 14.5 -87.5t41 -51.5t58 -23t75.5 -6q37 0 141 19l16 -80q-71 -25 -181 -25z"/>
<glyph glyph-name="ccedilla" horiz-adv-x="507" unicode="ç" d="M249 -253l-35 62q64 38 64 75q0 19 -20 65h91q21 -40 21 -73q0 -78 -121 -129zM330 -12q-147 0 -215 67t-68 206q0 146 72 222.5t200 76.5q88 0 152 -35l-29 -79q-68 26 -120 26q-168 0 -168 -207q0 -96 42 -142.5t145 -46.5q47 0 112 15l16 -82q-74 -21 -139 -21z"/>
<glyph glyph-name="egrave" d="M354 614l-208 116l41 76l203 -128zM156 321h248q0 160 -115 160q-56 0 -92 -41t-41 -119zM316 -12q-131 0 -199.5 62.5t-68.5 212.5q0 153 68 225t179 72q112 0 164.5 -69t52.5 -206v-37h-359q1 -99 48.5 -136t130.5 -37q69 0 150 24l18 -81q-80 -30 -184 -30z" unicode="è"/>
<glyph glyph-name="eacute" d="M156 321h248q0 160 -115 160q-56 0 -92 -41t-41 -119zM316 -12q-131 0 -199.5 62.5t-68.5 212.5q0 153 68 225t179 72q112 0 164.5 -69t52.5 -206v-37h-359q1 -99 48.5 -136t130.5 -37q69 0 150 24l18 -81q-80 -30 -184 -30zM225 613l-34 64l203 126l40 -74z" unicode="é"/>
<glyph glyph-name="ecircumflex" d="M156 321h248q0 160 -115 160q-56 0 -92 -41t-41 -119zM316 -12q-131 0 -199.5 62.5t-68.5 212.5q0 153 68 225t179 72q112 0 164.5 -69t52.5 -206v-37h-359q1 -99 48.5 -136t130.5 -37q69 0 150 24l18 -81q-80 -30 -184 -30zM405 622l-122 85l-129 -85l-45 59l176 118 l165 -117z" unicode="ê"/>
<glyph glyph-name="edieresis" d="M156 321h248q0 160 -115 160q-56 0 -92 -41t-41 -119zM316 -12q-131 0 -199.5 62.5t-68.5 212.5q0 153 68 225t179 72q112 0 164.5 -69t52.5 -206v-37h-359q1 -99 48.5 -136t130.5 -37q69 0 150 24l18 -81q-80 -30 -184 -30zM390 648l-67 68l67 67l68 -67zM180 648 l-67 68l67 67l67 -67z" unicode="ë"/>
<glyph glyph-name="igrave" horiz-adv-x="264" unicode="ì" d="M180 614l-208 116l41 76l203 -128zM79 0v546h106v-546h-106z"/>
<glyph glyph-name="iacute" horiz-adv-x="264" unicode="í" d="M79 0v546h106v-546h-106zM72 613l-34 64l203 126l40 -74z"/>
<glyph glyph-name="icircumflex" horiz-adv-x="264" unicode="î" d="M79 0v546h106v-546h-106zM256 622l-122 85l-129 -85l-45 59l176 118l165 -117z"/>
<glyph glyph-name="idieresis" horiz-adv-x="264" unicode="ï" d="M79 0v546h106v-546h-106zM239 648l-67 68l67 67l68 -67zM29 648l-67 68l67 67l67 -67z"/>
<glyph glyph-name="eth" horiz-adv-x="621" unicode="ð" d="M307 75q149 0 149 192t-155 192q-80 0 -114 -53.5t-34 -137.5q0 -193 154 -193zM301 -10q-121 0 -187 70.5t-66 202.5q0 130 72 205.5t184 75.5q59 0 108 -30q-32 61 -93 114l-85 -63l-37 44l74 54q-28 19 -78 43l56 68q57 -25 97 -51l85 62l37 -43l-74 -54 q167 -144 167 -409q0 -134 -68 -211.5t-192 -77.5z"/>
<glyph glyph-name="ntilde" horiz-adv-x="618" unicode="ñ" d="M79 0v546h105v-60q50 37 93 55.5t101 18.5q44 0 76 -13t49 -32t26.5 -49.5t12 -55.5t2.5 -61v-349h-103v334q0 72 -19.5 103.5t-77.5 31.5q-75 0 -160 -57v-412h-105zM371 641q-25 0 -65 19t-60 19q-36 0 -69 -26l-40 54q52 56 116 56q30 0 68 -18.5t55 -18.5q32 0 75 27 l38 -53q-51 -59 -118 -59z"/>
<glyph glyph-name="ograve" horiz-adv-x="608" unicode="ò" d="M306 73q149 0 149 198q0 205 -150 205q-43 0 -74.5 -17.5t-48 -48t-23.5 -64.5t-7 -75q0 -88 36 -143t118 -55zM299 -12q-119 0 -185.5 73.5t-66.5 205.5q0 138 71.5 215.5t191.5 77.5q124 0 187.5 -74.5t63.5 -210.5q0 -140 -72 -213.5t-190 -73.5zM376 614l-208 116 l41 76l203 -128z"/>
<glyph glyph-name="oacute" horiz-adv-x="608" unicode="ó" d="M306 73q149 0 149 198q0 205 -150 205q-43 0 -74.5 -17.5t-48 -48t-23.5 -64.5t-7 -75q0 -88 36 -143t118 -55zM299 -12q-119 0 -185.5 73.5t-66.5 205.5q0 138 71.5 215.5t191.5 77.5q124 0 187.5 -74.5t63.5 -210.5q0 -140 -72 -213.5t-190 -73.5zM229 613l-34 64 l203 126l40 -74z"/>
<glyph glyph-name="ocircumflex" horiz-adv-x="608" unicode="ô" d="M306 73q149 0 149 198q0 205 -150 205q-43 0 -74.5 -17.5t-48 -48t-23.5 -64.5t-7 -75q0 -88 36 -143t118 -55zM299 -12q-119 0 -185.5 73.5t-66.5 205.5q0 138 71.5 215.5t191.5 77.5q124 0 187.5 -74.5t63.5 -210.5q0 -140 -72 -213.5t-190 -73.5zM425 622l-122 85 l-129 -85l-45 59l176 118l165 -117z"/>
<glyph glyph-name="otilde" horiz-adv-x="608" unicode="õ" d="M360 641q-25 0 -65 19t-60 19q-37 0 -69 -26l-40 54q52 56 116 56q30 0 68 -18.5t55 -18.5q32 0 75 27l38 -53q-51 -59 -118 -59zM306 73q149 0 149 198q0 205 -150 205q-43 0 -74.5 -17.5t-48 -48t-23.5 -64.5t-7 -75q0 -88 36 -143t118 -55zM299 -12 q-119 0 -185.5 73.5t-66.5 205.5q0 138 71.5 215.5t191.5 77.5q124 0 187.5 -74.5t63.5 -210.5q0 -140 -72 -213.5t-190 -73.5z"/>
<glyph glyph-name="odieresis" horiz-adv-x="608" unicode="ö" d="M306 73q149 0 149 198q0 205 -150 205q-43 0 -74.5 -17.5t-48 -48t-23.5 -64.5t-7 -75q0 -88 36 -143t118 -55zM299 -12q-119 0 -185.5 73.5t-66.5 205.5q0 138 71.5 215.5t191.5 77.5q124 0 187.5 -74.5t63.5 -210.5q0 -140 -72 -213.5t-190 -73.5zM409 648l-67 68 l67 67l68 -67zM199 648l-67 68l67 67l67 -67z"/>
<glyph glyph-name="divide" horiz-adv-x="638" unicode="÷" d="M266 453v93h96v-93h-96zM62 262v83h513v-83h-513zM266 62v92h96v-92h-96z"/>
<glyph glyph-name="oslash" horiz-adv-x="630" unicode="ø" d="M316 73q149 0 149 198q0 68 -17 112l-241 -267q38 -43 109 -43zM162 271q0 -63 17 -107l241 268q-37 44 -105 44q-43 0 -74.5 -17.5t-48 -48t-23.5 -64.5t-7 -75zM309 -12q-103 0 -167 55l-64 -71l-39 38l67 74q-49 70 -49 183q0 138 71.5 215.5t191.5 77.5 q103 0 166 -54l60 66l39 -38l-62 -69q48 -72 48 -190q0 -140 -72 -213.5t-190 -73.5z"/>
<glyph glyph-name="ugrave" horiz-adv-x="616" unicode="ù" d="M360 614l-208 116l41 76l203 -128zM238 -12q-43 0 -74.5 13t-48 32.5t-26 50t-12 56t-2.5 60.5v346h104v-330q0 -71 17.5 -103t77.5 -32q77 0 160 56v409h103v-546h-103v62q-34 -24 -53.5 -36t-59.5 -25t-83 -13z"/>
<glyph glyph-name="uacute" horiz-adv-x="616" unicode="ú" d="M238 -12q-43 0 -74.5 13t-48 32.5t-26 50t-12 56t-2.5 60.5v346h104v-330q0 -71 17.5 -103t77.5 -32q77 0 160 56v409h103v-546h-103v62q-34 -24 -53.5 -36t-59.5 -25t-83 -13zM257 615l-34 64l203 126l40 -74z"/>
<glyph glyph-name="ucircumflex" horiz-adv-x="616" unicode="û" d="M238 -12q-43 0 -74.5 13t-48 32.5t-26 50t-12 56t-2.5 60.5v346h104v-330q0 -71 17.5 -103t77.5 -32q77 0 160 56v409h103v-546h-103v62q-34 -24 -53.5 -36t-59.5 -25t-83 -13zM430 622l-122 85l-129 -85l-45 59l176 118l165 -117z"/>
<glyph glyph-name="udieresis" horiz-adv-x="616" unicode="ü" d="M238 -12q-43 0 -74.5 13t-48 32.5t-26 50t-12 56t-2.5 60.5v346h104v-330q0 -71 17.5 -103t77.5 -32q77 0 160 56v409h103v-546h-103v62q-34 -24 -53.5 -36t-59.5 -25t-83 -13zM412 648l-67 68l67 67l68 -67zM202 648l-67 68l67 67l67 -67z"/>
<glyph glyph-name="yacute" horiz-adv-x="536" unicode="ý" d="M218 613l-34 64l203 126l40 -74zM161 -220l74 220h-44l-179 546h113l111 -371l28 -95l31 94l127 372h106l-267 -766h-100z"/>
<glyph glyph-name="thorn" horiz-adv-x="605" unicode="þ" d="M285 73q79 0 122 56.5t43 146.5q0 91 -32.5 141.5t-114.5 50.5q-51 0 -121 -39v-346q73 -10 103 -10zM79 -220v974h103v-251q72 54 147 54q110 0 169 -67t59 -198q0 -82 -22.5 -142.5t-62 -94.5t-86.5 -49.5t-104 -15.5q-42 0 -100 7v-217h-103z"/>
<glyph glyph-name="uni0400" horiz-adv-x="590" unicode="Ѐ" d="M99 0v707h416v-86h-308v-224h286v-84h-286v-226h331v-87h-439zM392 746l-239 60l23 87l236 -76z"/>
<glyph glyph-name="uni0401" horiz-adv-x="590" unicode="Ё" d="M99 0v707h416v-86h-308v-224h286v-84h-286v-226h331v-87h-439zM414 744l-70 71l70 69l70 -69zM204 744l-70 71l70 69l69 -69z"/>
<glyph glyph-name="uni0402" horiz-adv-x="771" unicode="Ђ" d="M501 -220l-59 73q16 13 29.5 25t44 48t51.5 72.5t38 93.5t17 117q0 69 -35 107t-99 38q-88 0 -164 -41v-313h-108v619h-205v88h569v-88h-256v-218q105 39 188 39q111 0 165 -61.5t54 -163.5q0 -241 -230 -435z"/>
<glyph glyph-name="uni0403" horiz-adv-x="545" unicode="Ѓ" d="M99 0v707h439v-86h-331v-621h-108zM227 746l-19 70l234 79l23 -86z"/>
<glyph glyph-name="uni0404" horiz-adv-x="678" unicode="Є" d="M428 -10q-178 0 -276 97t-98 262q0 174 96 270.5t274 96.5q128 0 208 -37l-29 -83q-91 28 -177 28q-106 0 -177 -56t-82 -171h360v-83h-358q12 -116 87.5 -174t189.5 -58q86 0 165 22l25 -83q-81 -31 -208 -31z"/>
<glyph glyph-name="uni0405" horiz-adv-x="554" unicode="Ѕ" d="M251 -12q-121 0 -209 51l33 85q93 -44 176 -44q66 0 110 27t44 81q0 32 -19 56.5t-49.5 40.5t-67 31.5t-73 33.5t-67 40.5t-49.5 59.5t-19 84q0 86 65.5 134.5t158.5 48.5q110 0 187 -43l-32 -82q-75 35 -153 35q-53 0 -87 -24t-34 -68q0 -38 36 -67t87 -50.5t102 -47 t87 -70.5t36 -106q0 -100 -75.5 -153t-187.5 -53z"/>
<glyph glyph-name="uni0406" horiz-adv-x="306" unicode="І" d="M99 0v707h108v-707h-108z"/>
<glyph glyph-name="uni0407" horiz-adv-x="306" unicode="Ї" d="M259 744l-70 71l70 69l70 -69zM49 744l-70 71l70 69l69 -69zM99 0v707h108v-707h-108z"/>
<glyph glyph-name="uni0408" horiz-adv-x="308" unicode="Ј" d="M-1 -190l-42 78q86 48 115.5 105.5t29.5 157.5v556h108v-554q0 -50 -4 -86.5t-17 -76.5t-35.5 -70.5t-61.5 -59t-93 -50.5z"/>
<glyph glyph-name="uni0409" horiz-adv-x="1011" unicode="Љ" d="M48 -22l-46 96q101 45 131 105q48 99 68 528h402v-621h107q79 0 118.5 36.5t39.5 101.5q0 137 -176 137h-46v87h44q141 0 215.5 -58t74.5 -169q0 -101 -68.5 -161t-192.5 -60h-224v624h-200q-18 -225 -33 -334t-47 -172q-43 -84 -167 -140z"/>
<glyph glyph-name="uni040A" horiz-adv-x="1043" unicode="Њ" d="M99 0v707h108v-289h325v289h108v-621h100q79 0 120.5 32.5t41.5 91.5q0 122 -174 122h-44v86h42q141 0 215 -54t74 -158q0 -93 -74 -149.5t-198 -56.5h-211v332h-325v-332h-108z"/>
<glyph glyph-name="uni040B" horiz-adv-x="781" unicode="Ћ" d="M216 0v619h-205v88h569v-88h-256v-218q103 42 183 42q224 0 224 -193v-250h-108v240q0 30 -9 51.5t-22.5 33.5t-34 18.5t-38 8.5t-39.5 2q-76 0 -156 -43v-311h-108z"/>
<glyph glyph-name="uni040C" horiz-adv-x="656" unicode="Ќ" d="M261 754l-19 70l234 79l23 -86zM99 0v707h108v-707h-108zM510 0l-290 373v11l274 323h137l-291 -328l310 -379h-140z"/>
<glyph glyph-name="uni040D" horiz-adv-x="788" unicode="Ѝ" d="M99 0v707h108v-460l-3 -103l63 104l313 459h108v-707h-108v460l4 103l-49 -79l-328 -484h-108zM477 746l-239 60l23 87l236 -76z"/>
<glyph glyph-name="uni040E" horiz-adv-x="596" unicode="Ў" d="M306 756q-115 0 -178 92l50 51q54 -59 128 -59t127 59l51 -51q-65 -92 -178 -92zM169 -9l-34 90q57 19 87 40.5t52 71.5l14 29h-41l-246 485h120l201 -407l156 407h119l-225 -516q-25 -55 -46.5 -90t-48.5 -56t-47 -30.5t-61 -23.5z"/>
<glyph glyph-name="uni040F" horiz-adv-x="764" unicode="Џ" d="M329 -153v153h-230v707h108v-621h350v621h108v-707h-228v-153h-108z"/>
<glyph glyph-name="uni0410" horiz-adv-x="684" unicode="А" d="M235 330h209l-99 305zM-4 0l285 707h139l252 -707h-115l-86 247h-267l-97 -247h-111z"/>
<glyph glyph-name="uni0411" horiz-adv-x="638" unicode="Б" d="M99 0v707h444v-86h-335v-535h113q80 0 120.5 34.5t40.5 96.5q0 131 -179 131h-59v87h58q292 0 292 -221q0 -100 -68.5 -157t-194.5 -57h-232z"/>
<glyph glyph-name="uni0412" horiz-adv-x="649" unicode="В" d="M208 402h104q127 0 127 109q0 61 -37.5 86.5t-115.5 25.5h-78v-221zM208 87h116q80 0 122.5 25t42.5 91q0 119 -179 119h-102v-235zM99 0v707h210q119 0 178.5 -48t59.5 -135q0 -52 -25.5 -91t-65.5 -55v-2q57 -12 99.5 -56t42.5 -114q0 -96 -62 -151t-197 -55h-240z"/>
<glyph glyph-name="uni0413" horiz-adv-x="545" unicode="Г" d="M99 0v707h439v-86h-331v-621h-108z"/>
<glyph glyph-name="uni0414" horiz-adv-x="746" unicode="Д" d="M194 86h311v538h-196q-20 -253 -51 -369q-20 -72 -64 -169zM12 -153v239h63q50 89 80 180q42 131 59 441h399v-621h95v-239h-103v153h-490v-153h-103z"/>
<glyph glyph-name="uni0415" horiz-adv-x="590" unicode="Е" d="M99 0v707h416v-86h-308v-224h286v-84h-286v-226h331v-87h-439z"/>
<glyph glyph-name="uni0416" horiz-adv-x="950" unicode="Ж" d="M421 0v707h108v-707h-108zM803 0l-263 363v12l245 332h132l-254 -333l278 -374h-138zM9 0l278 374l-254 333h132l244 -331v-12l-263 -364h-137z"/>
<glyph glyph-name="uni0417" horiz-adv-x="565" unicode="З" d="M252 -8q-125 0 -221 49l36 84q88 -43 177 -43q70 0 113 28.5t43 90.5q0 114 -166 114h-80v83h80q63 0 100 31t37 85q0 53 -33 81t-94 28t-149 -33l-35 75q94 46 195 46q107 0 166.5 -49.5t59.5 -126.5q0 -117 -106 -172v-2q19 -5 38 -14t43.5 -27t39.5 -50t15 -73 q0 -38 -13.5 -72.5t-41.5 -65t-80.5 -49t-123.5 -18.5z"/>
<glyph glyph-name="uni0418" horiz-adv-x="788" unicode="И" d="M99 0v707h108v-460l-3 -103l63 104l313 459h108v-707h-108v460l4 103l-49 -79l-328 -484h-108z"/>
<glyph glyph-name="uni0419" horiz-adv-x="788" unicode="Й" d="M99 0v707h108v-460l-3 -103l63 104l313 459h108v-707h-108v460l4 103l-49 -79l-328 -484h-108zM396 756q-115 0 -178 92l50 51q54 -59 128 -59t127 59l51 -51q-65 -92 -178 -92z"/>
<glyph glyph-name="uni041A" horiz-adv-x="656" unicode="К" d="M99 0v707h108v-707h-108zM510 0l-290 373v11l274 323h137l-291 -328l310 -379h-140z"/>
<glyph glyph-name="uni041B" horiz-adv-x="702" unicode="Л" d="M48 -22l-46 96q101 45 131 105q48 99 68 528h402v-707h-108v624h-200q-27 -302 -42 -381t-38 -125q-43 -84 -167 -140z"/>
<glyph glyph-name="uni041C" horiz-adv-x="957" unicode="М" d="M99 0v707h139l229 -628l259 628h131v-707h-107v413l4 126h-3l-217 -539h-140l-190 540h-4l7 -117v-423h-108z"/>
<glyph glyph-name="uni041D" horiz-adv-x="776" unicode="Н" d="M99 0v707h108v-309h362v309h108v-707h-108v312h-362v-312h-108z"/>
<glyph glyph-name="uni041E" horiz-adv-x="830" unicode="О" d="M409 76q128 0 193 76.5t65 201.5q0 122 -65.5 199t-185.5 77q-124 0 -189 -76t-65 -198q0 -121 63.5 -200.5t183.5 -79.5zM406 -12q-168 0 -260 99.5t-92 267.5q0 166 100 264t268 98q171 0 262.5 -100.5t91.5 -263.5q0 -166 -98.5 -265.5t-271.5 -99.5z"/>
<glyph glyph-name="uni041F" horiz-adv-x="766" unicode="П" d="M99 0v707h568v-707h-108v621h-352v-621h-108z"/>
<glyph glyph-name="uni0420" horiz-adv-x="616" unicode="Р" d="M99 0v707h243q111 0 176.5 -60.5t65.5 -169.5q0 -103 -75.5 -170.5t-218.5 -67.5h-44v87h50q84 0 130 37t46 110q0 148 -152 148h-112v-621h-109z"/>
<glyph glyph-name="uni0421" horiz-adv-x="677" unicode="С" d="M428 -12q-178 0 -276 97.5t-98 263.5q0 169 98.5 268.5t271.5 99.5q124 0 210 -41l-31 -82q-96 31 -177 31h-3q-114 0 -186.5 -66t-72.5 -200q0 -138 78 -207.5t203 -69.5q87 0 165 25l25 -84q-93 -35 -207 -35z"/>
<glyph glyph-name="uni0422" horiz-adv-x="599" unicode="Т" d="M245 0v619h-236v88h580v-88h-236v-619h-108z"/>
<glyph glyph-name="uni0423" horiz-adv-x="596" unicode="У" d="M169 -9l-34 90q57 19 87 40.5t52 71.5l14 29h-41l-246 485h120l201 -407l156 407h119l-225 -516q-25 -55 -46.5 -90t-48.5 -56t-47 -30.5t-61 -23.5z"/>
<glyph glyph-name="uni0424" horiz-adv-x="815" unicode="Ф" d="M354 167v412q-97 0 -152.5 -53.5t-55.5 -152.5q0 -98 55.5 -152t152.5 -54zM461 167q97 0 152.5 54t55.5 152q0 99 -55.5 152.5t-152.5 53.5v-412zM354 0v85q-142 0 -229 73.5t-87 214.5t87 214.5t229 73.5v76h107v-76q142 0 229 -73.5t87 -214.5t-87 -214.5t-229 -73.5 v-85h-107z"/>
<glyph glyph-name="uni0425" horiz-adv-x="631" unicode="Х" d="M7 0l250 370l-212 337h123l151 -252l163 252h118l-224 -334l236 -373h-125l-174 289l-185 -289h-121z"/>
<glyph glyph-name="uni0426" horiz-adv-x="793" unicode="Ц" d="M652 -153v153h-553v707h108v-621h344v621h108v-621h96v-239h-103z"/>
<glyph glyph-name="uni0427" horiz-adv-x="667" unicode="Ч" d="M459 0v311q-100 -39 -191 -39q-222 0 -222 191v244h108v-234q0 -37 13 -61.5t37 -35.5t46 -14.5t50 -3.5q80 0 159 44v305h108v-707h-108z"/>
<glyph glyph-name="uni0428" horiz-adv-x="1021" unicode="Ш" d="M99 0v707h108v-621h250v621h108v-621h249v621h108v-707h-823z"/>
<glyph glyph-name="uni0429" horiz-adv-x="1056" unicode="Щ" d="M914 -153v153h-815v707h108v-621h250v621h108v-621h249v621h108v-621h96v-239h-104z"/>
<glyph glyph-name="uni042A" horiz-adv-x="726" unicode="Ъ" d="M209 0v621h-198v86h307v-621h106q79 0 118.5 36.5t39.5 101.5q0 137 -175 137h-55v87h53q141 0 215 -58t74 -169q0 -101 -68.5 -161t-191.5 -60h-225z"/>
<glyph glyph-name="uni042B" horiz-adv-x="889" unicode="Ы" d="M99 0v707h109v-621h106q79 0 118.5 37.5t39.5 102.5q0 135 -175 135h-46v87h44q141 0 215 -57t74 -168q0 -101 -68.5 -162t-191.5 -61h-225zM681 0v707h108v-707h-108z"/>
<glyph glyph-name="uni042C" horiz-adv-x="616" unicode="Ь" d="M99 0v707h109v-621h106q79 0 118.5 37.5t39.5 102.5q0 135 -175 135h-46v87h44q141 0 215 -57t74 -168q0 -101 -68.5 -162t-191.5 -61h-225z"/>
<glyph glyph-name="uni042D" horiz-adv-x="678" unicode="Э" d="M250 -10q-127 0 -208 31l25 83q79 -22 165 -22q114 0 190 58t87 174h-358v83h359q-11 115 -81 170.5t-174 55.5h-3q-89 0 -177 -27l-30 83q81 36 209 36q179 0 274.5 -94t95.5 -266q0 -166 -98.5 -265.5t-275.5 -99.5z"/>
<glyph glyph-name="uni042E" horiz-adv-x="1110" unicode="Ю" d="M690 76q128 0 192.5 76.5t64.5 201.5q0 122 -65.5 199t-184.5 77q-125 0 -190 -76t-65 -198q0 -121 64 -200.5t184 -79.5zM687 -12q-157 0 -248.5 87.5t-103.5 236.5h-128v-312h-108v707h108v-309h129q13 150 112 234.5t258 84.5q171 0 260.5 -99.5t89.5 -264.5 q0 -169 -97.5 -267t-271.5 -98z"/>
<glyph glyph-name="uni042F" horiz-adv-x="676" unicode="Я" d="M379 352h89v269h-109q-75 0 -115.5 -35t-40.5 -102q0 -132 176 -132zM46 -11l-20 85q52 15 80.5 39t63.5 88l54 96q-63 19 -98 68.5t-35 117.5q0 105 67 164.5t175 59.5h243v-707h-108v270h-83q-21 0 -53 2l-75 -134q-40 -73 -88.5 -108t-122.5 -41z"/>
<glyph glyph-name="uni0430" horiz-adv-x="564" unicode="а" d="M233 74q65 0 141 49v126l-116 -5q-56 -2 -87 -25t-31 -65q0 -40 25.5 -60t67.5 -20zM206 -9q-77 0 -122.5 41t-45.5 115q0 49 20 83.5t54 51.5t68.5 24.5t74.5 7.5l119 2v59q0 54 -27.5 74.5t-90.5 20.5q-77 0 -153 -26l-22 79q90 37 192 37q203 0 203 -157v-285 q0 -40 57 -42l-4 -80q-14 -2 -25 -2q-47 0 -80.5 16t-40.5 50q-90 -69 -177 -69z"/>
<glyph glyph-name="uni0431" horiz-adv-x="617" unicode="б" d="M312 75q81 0 116 56t35 138q0 70 -33 112t-103 42t-162 -47q-2 -36 -2 -62q0 -239 149 -239zM304 -9q-242 0 -242 314q0 102 20.5 204.5t63.5 142.5q65 61 373 119l17 -94q-95 -16 -147 -26t-104.5 -25.5t-68.5 -30.5q-35 -33 -48 -140q90 49 186 49q214 0 214 -231 q0 -140 -72.5 -211t-191.5 -71z"/>
<glyph glyph-name="uni0432" d="M184 315h91q107 0 107 78q0 41 -29 57.5t-85 16.5h-84v-152zM184 79h98q123 0 123 81q0 46 -34 65t-102 19h-85v-165zM79 0v546h219q90 0 138 -37t48 -104q0 -42 -21.5 -73t-54.5 -44q42 -7 73 -40.5t31 -88.5q0 -73 -54.5 -116t-151.5 -43h-227z" unicode="в"/>
<glyph glyph-name="uni0433" horiz-adv-x="451" unicode="г" d="M79 0v546h360v-83h-255v-463h-105z"/>
<glyph glyph-name="uni0434" horiz-adv-x="639" unicode="д" d="M183 82h239v382h-159q-16 -183 -30 -246q-15 -65 -50 -136zM16 -147v229h57q45 72 69 171q22 92 30 293h354v-464h83v-229h-97v147h-399v-147h-97z"/>
<glyph glyph-name="uni0435" d="M156 321h248q0 160 -115 160q-56 0 -92 -41t-41 -119zM316 -12q-131 0 -199.5 62.5t-68.5 212.5q0 153 68 225t179 72q112 0 164.5 -69t52.5 -206v-37h-359q1 -99 48.5 -136t130.5 -37q69 0 150 24l18 -81q-80 -30 -184 -30z" unicode="е"/>
<glyph glyph-name="uni0436" horiz-adv-x="791" unicode="ж" d="M41 -9l-22 78q65 22 122 99l90 118l-199 260h117l194 -264v264h105v-262l194 262h117l-199 -260l90 -118q57 -77 122 -99l-22 -78q-47 3 -83 22t-82 81l-137 182v-276h-105v274l-137 -180q-47 -62 -83 -81t-82 -22z"/>
<glyph glyph-name="uni0437" horiz-adv-x="471" unicode="з" d="M216 -9q-104 0 -188 42l31 80q78 -38 151 -38q46 0 75.5 22t29.5 63q0 80 -117 80h-67v79h65q51 0 75.5 24.5t24.5 57.5t-24 53t-68 20q-55 0 -129 -30l-26 77q78 38 172 38q89 0 134.5 -41t45.5 -100q0 -47 -23.5 -80.5t-61.5 -49.5q44 -11 77 -44.5t33 -90.5 q0 -65 -52.5 -113.5t-157.5 -48.5z"/>
<glyph glyph-name="uni0438" horiz-adv-x="645" unicode="и" d="M79 0v546h105v-334l-3 -73l47 74l233 333h105v-546h-105v332l3 75l-47 -76l-233 -331h-105z"/>
<glyph glyph-name="uni0439" horiz-adv-x="645" unicode="й" d="M79 0v546h105v-334l-3 -73l47 74l233 333h105v-546h-105v332l3 75l-47 -76l-233 -331h-105zM323 640q-50 0 -93.5 24.5t-69.5 67.5l45 50q51 -60 118 -60t119 60l44 -50q-26 -43 -69 -67.5t-94 -24.5z"/>
<glyph glyph-name="uni043A" horiz-adv-x="555" unicode="к" d="M79 0v546h105v-546h-105zM523 -9q-48 3 -92 23.5t-92 79.5l-151 186l213 266h118l-218 -258l104 -120q71 -81 136 -99z"/>
<glyph glyph-name="uni043B" horiz-adv-x="598" unicode="л" d="M38 -17l-31 88q77 29 105 80q45 84 55 395h351v-546h-104v464h-155q-22 -285 -70 -373q-45 -78 -151 -108z"/>
<glyph glyph-name="uni043C" horiz-adv-x="763" unicode="м" d="M79 0v546h137l159 -466l175 466h133v-546h-99v306l4 107l-152 -413h-126l-137 415l5 -109v-306h-99z"/>
<glyph glyph-name="uni043D" horiz-adv-x="625" unicode="н" d="M79 0v546h105v-231h257v231h105v-546h-105v232h-257v-232h-105z"/>
<glyph glyph-name="uni043E" horiz-adv-x="608" unicode="о" d="M306 73q149 0 149 198q0 205 -150 205q-43 0 -74.5 -17.5t-48 -48t-23.5 -64.5t-7 -75q0 -88 36 -143t118 -55zM299 -12q-119 0 -185.5 73.5t-66.5 205.5q0 138 71.5 215.5t191.5 77.5q124 0 187.5 -74.5t63.5 -210.5q0 -140 -72 -213.5t-190 -73.5z"/>
<glyph glyph-name="uni043F" horiz-adv-x="615" unicode="п" d="M79 0v546h457v-546h-105v464h-247v-464h-105z"/>
<glyph glyph-name="uni0440" horiz-adv-x="605" unicode="р" d="M276 73q90 0 132.5 56t42.5 153q0 83 -33.5 135.5t-106.5 52.5q-9 0 -18 -1t-18 -3t-16 -3.5t-16 -5t-13.5 -5t-13.5 -6l-12 -6t-11.5 -6.5t-9.5 -5v-346q65 -10 93 -10zM79 -220v766h104v-43q80 56 157 56q100 0 158.5 -69.5t58.5 -202.5q0 -81 -22.5 -140.5t-62.5 -93 t-88 -49t-106 -15.5q-31 0 -95 8v-217h-104z"/>
<glyph glyph-name="uni0441" horiz-adv-x="507" unicode="с" d="M330 -12q-147 0 -215 67t-68 206q0 146 72 222.5t200 76.5q88 0 152 -35l-29 -79q-68 26 -120 26q-168 0 -168 -207q0 -96 42 -142.5t145 -46.5q47 0 112 15l16 -82q-74 -21 -139 -21z"/>
<glyph glyph-name="uni0442" horiz-adv-x="495" unicode="т" d="M196 0v463h-182v83h467v-83h-181v-463h-104z"/>
<glyph glyph-name="uni0443" horiz-adv-x="536" unicode="у" d="M161 -220l74 220h-44l-179 546h113l111 -371l28 -95l31 94l127 372h106l-267 -766h-100z"/>
<glyph glyph-name="uni0444" horiz-adv-x="772" unicode="ф" d="M334 73v401q-93 0 -137.5 -53t-44.5 -147q0 -201 182 -201zM437 75q181 0 181 199q0 94 -44 146.5t-137 53.5v-399zM334 -220v211q-134 0 -210.5 70.5t-76.5 210.5q0 141 78.5 213.5t208.5 72.5v196h103v-196q135 0 211 -71t76 -213q0 -141 -79 -211t-208 -72v-211h-103z "/>
<glyph glyph-name="uni0445" horiz-adv-x="526" unicode="х" d="M11 0l193 279l-181 267h121l120 -198l120 198h118l-180 -265l195 -281h-126l-128 210l-129 -210h-123z"/>
<glyph glyph-name="uni0446" horiz-adv-x="645" unicode="ц" d="M518 -147v147h-439v546h105v-464h244v464h105v-464h82v-229h-97z"/>
<glyph glyph-name="uni0447" d="M375 0v230q-90 -28 -158 -28q-98 0 -137.5 42t-39.5 131v171h104v-162q0 -51 22 -74.5t83 -23.5q56 0 126 26v234h104v-546h-104z" unicode="ч"/>
<glyph glyph-name="uni0448" horiz-adv-x="859" unicode="ш" d="M79 0v546h105v-464h193v464h105v-464h193v464h105v-546h-701z"/>
<glyph glyph-name="uni0449" horiz-adv-x="892" unicode="щ" d="M765 -147v147h-686v546h105v-464h193v464h105v-464h193v464h105v-464h82v-229h-97z"/>
<glyph glyph-name="uni044A" horiz-adv-x="632" unicode="ъ" d="M178 0v463h-163v83h267v-463h104q52 0 81 25t29 71q0 98 -130 98h-64v82h71q108 0 169 -46.5t61 -134.5q0 -77 -52 -127.5t-134 -50.5h-239z"/>
<glyph glyph-name="uni044B" horiz-adv-x="759" unicode="ы" d="M573 0v546h106v-546h-106zM79 0v546h105v-463h103q51 0 78.5 25t27.5 71q0 98 -126 98h-68v82h76q108 0 166.5 -46.5t58.5 -134.5q0 -77 -50 -127.5t-132 -50.5h-239z"/>
<glyph glyph-name="uni044C" horiz-adv-x="533" unicode="ь" d="M79 0v546h105v-463h103q52 0 81 25t29 71q0 98 -130 98h-68v82h76q108 0 168.5 -46.5t60.5 -134.5q0 -77 -51.5 -127.5t-134.5 -50.5h-239z"/>
<glyph glyph-name="uni044D" horiz-adv-x="507" unicode="э" d="M197 -10q-90 0 -164 37l30 79q77 -33 132 -33q75 0 114 44.5t44 118.5h-218v82h218q-7 70 -43.5 113.5t-106.5 43.5q-56 0 -131 -29l-31 78q70 35 164 35q126 0 190.5 -71.5t64.5 -211.5q0 -135 -72 -210.5t-191 -75.5z"/>
<glyph glyph-name="uni044E" horiz-adv-x="854" unicode="ю" d="M552 75q148 0 148 198q0 201 -150 201q-82 0 -117 -57.5t-35 -144.5q0 -197 154 -197zM546 -10q-112 0 -177.5 62.5t-74.5 179.5h-110v-232h-105v546h105v-231h111q13 116 82.5 180t175.5 64q126 0 189.5 -74t63.5 -212t-71.5 -210.5t-188.5 -72.5z"/>
<glyph glyph-name="uni044F" horiz-adv-x="565" unicode="я" d="M305 264h76v199h-90q-52 0 -80.5 -26.5t-28.5 -75.5q0 -48 35 -72.5t88 -24.5zM40 -8l-14 82q40 8 64 24t51 53l36 59q-46 17 -73.5 57t-27.5 94q0 86 58 135.5t149 49.5h203v-546h-105v185h-67q-4 0 -17 0.5t-16 0.5l-64 -95q-41 -58 -82.5 -77.5t-94.5 -21.5z"/>
<glyph glyph-name="uni0450" d="M335 614l-208 116l41 76l203 -128zM156 321h248q0 160 -115 160q-56 0 -92 -41t-41 -119zM316 -12q-131 0 -199.5 62.5t-68.5 212.5q0 153 68 225t179 72q112 0 164.5 -69t52.5 -206v-37h-359q1 -99 48.5 -136t130.5 -37q69 0 150 24l18 -81q-80 -30 -184 -30z" unicode="ѐ"/>
<glyph glyph-name="uni0451" d="M156 321h248q0 160 -115 160q-56 0 -92 -41t-41 -119zM316 -12q-131 0 -199.5 62.5t-68.5 212.5q0 153 68 225t179 72q112 0 164.5 -69t52.5 -206v-37h-359q1 -99 48.5 -136t130.5 -37q69 0 150 24l18 -81q-80 -30 -184 -30zM386 648l-67 68l67 67l68 -67zM176 648 l-67 68l67 67l67 -67z" unicode="ё"/>
<glyph glyph-name="uni0452" horiz-adv-x="621" unicode="ђ" d="M365 -220l-67 66q69 66 113.5 162.5t44.5 219.5q0 164 -118 164q-14 0 -28.5 -2t-28.5 -6.5t-25 -8.5t-24 -10.5t-19 -10t-17 -10t-12 -7.5v-337h-105v568h-104v79h104v107h105v-107h187v-79h-187v-157q102 74 186 74q69 0 114 -36.5t62 -89.5t17 -120 q0 -148 -57.5 -266.5t-140.5 -192.5z"/>
<glyph glyph-name="uni0453" horiz-adv-x="451" unicode="ѓ" d="M79 0v546h360v-83h-255v-463h-105zM171 613l-34 64l203 126l40 -74z"/>
<glyph glyph-name="uni0454" horiz-adv-x="507" unicode="є" d="M337 -10q-154 0 -222 67t-68 218q0 131 72.5 208t195.5 77q94 0 156 -33l-29 -80q-63 26 -126 26t-105.5 -39t-52.5 -112h218v-82h-220q5 -85 48 -124t141 -39q20 0 39 2t41 6t28 5l16 -82q-72 -18 -132 -18z"/>
<glyph glyph-name="uni0455" horiz-adv-x="464" unicode="ѕ" d="M201 -12q-86 0 -161 24l15 84q91 -22 151 -22q58 0 89 19t31 52q0 28 -28.5 48.5t-69 35t-80.5 32.5t-68.5 53.5t-28.5 86.5q0 76 57 117.5t143 41.5q81 0 149 -28l-21 -79q-63 22 -127 22q-49 0 -73.5 -18t-24.5 -48t28 -50.5t68 -35t80.5 -33t68.5 -54t28 -86.5 q0 -58 -36.5 -96.5t-84.5 -52t-105 -13.5z"/>
<glyph glyph-name="uni0456" horiz-adv-x="264" unicode="і" d="M131 635l-79 80l79 80l80 -80zM79 0v546h106v-546h-106z"/>
<glyph glyph-name="uni0457" horiz-adv-x="264" unicode="ї" d="M79 0v546h106v-546h-106zM237 648l-67 68l67 67l68 -67zM27 648l-67 68l67 67l67 -67z"/>
<glyph glyph-name="uni0458" horiz-adv-x="264" unicode="ј" d="M131 635l-79 80l79 80l80 -80zM-10 -224q-46 0 -88 16l19 83q32 -10 67 -10q51 0 71 30.5t20 92.5v558h105v-559q0 -61 -15 -104t-43 -65.5t-60.5 -32t-75.5 -9.5z"/>
<glyph glyph-name="uni0459" horiz-adv-x="868" unicode="љ" d="M37 -17l-31 87q78 29 106 81q45 84 55 395h351v-463h103q52 0 81.5 25t29.5 71q0 98 -131 98h-63v82h71q108 0 168.5 -46.5t60.5 -134.5q0 -77 -51.5 -127.5t-133.5 -50.5h-240v464h-155q-24 -283 -69 -369q-43 -82 -152 -112z"/>
<glyph glyph-name="uni045A" horiz-adv-x="877" unicode="њ" d="M79 0v546h105v-213h248v213h104v-463h99q49 0 77 21.5t28 61.5q0 84 -124 84h-60v83h70q106 0 165 -43t59 -125q0 -71 -50.5 -118t-130.5 -47h-237v250h-248v-250h-105z"/>
<glyph glyph-name="uni045B" horiz-adv-x="611" unicode="ћ" d="M79 0v568h-104v79h104v107h105v-107h187v-79h-187v-157q99 74 187 74q47 0 80.5 -12.5t51 -31t27 -49t11.5 -55t2 -62.5v-275h-102v267q0 71 -19.5 98.5t-81.5 27.5q-60 0 -156 -56v-337h-105z"/>
<glyph glyph-name="uni045C" horiz-adv-x="555" unicode="ќ" d="M79 0v546h105v-546h-105zM523 -9q-48 3 -92 23.5t-92 79.5l-151 186l213 266h118l-218 -258l104 -120q71 -81 136 -99zM209 613l-34 64l203 126l40 -74z"/>
<glyph glyph-name="uni045D" horiz-adv-x="645" unicode="ѝ" d="M379 614l-208 116l41 76l203 -128zM79 0v546h105v-334l-3 -73l47 74l233 333h105v-546h-105v332l3 75l-47 -76l-233 -331h-105z"/>
<glyph glyph-name="uni045E" horiz-adv-x="536" unicode="ў" d="M268 645q-50 0 -93.5 24.5t-69.5 67.5l45 50q51 -60 118 -60t119 60l44 -50q-26 -43 -69 -67.5t-94 -24.5zM161 -220l74 220h-44l-179 546h113l111 -371l28 -95l31 94l127 372h106l-267 -766h-100z"/>
<glyph glyph-name="uni045F" horiz-adv-x="616" unicode="џ" d="M259 -147v147h-180v546h105v-464h248v464h104v-546h-179v-147h-98z"/>
<glyph glyph-name="uni0462" horiz-adv-x="701" unicode="Ѣ" d="M185 0v523h-183v86h183v98h108v-98h215v-85h-215v-438h106q82 0 120 29t38 91q0 68 -43.5 94t-131.5 26h-47v86h49q143 0 214.5 -50.5t71.5 -158.5q0 -97 -68 -150t-193 -53h-224z"/>
<glyph glyph-name="uni0463" horiz-adv-x="614" unicode="ѣ" d="M161 0v463h-164v83h164v161h104v-161h189v-83h-189v-380h104q52 0 81 23t29 67q0 90 -130 90h-63v83h70q109 0 169.5 -44t60.5 -131q0 -76 -51.5 -123.5t-134.5 -47.5h-239z"/>
<glyph glyph-name="uni0472" horiz-adv-x="830" unicode="Ѳ" d="M416 630q-115 0 -179.5 -65.5t-73.5 -173.5h502q-9 107 -74 173t-175 66zM409 76q119 0 183 66.5t73 177.5h-502q10 -108 72.5 -176t173.5 -68zM406 -12q-168 0 -260 99.5t-92 267.5q0 166 100 264t268 98q171 0 262.5 -100.5t91.5 -263.5q0 -166 -98.5 -265.5 t-271.5 -99.5z"/>
<glyph glyph-name="uni0473" horiz-adv-x="608" unicode="ѳ" d="M305 476q-74 0 -109.5 -46.5t-42.5 -120.5h300q-14 167 -148 167zM306 73q137 0 148 166h-301q13 -166 153 -166zM299 -12q-119 0 -185.5 73.5t-66.5 205.5q0 138 71.5 215.5t191.5 77.5q124 0 187.5 -74.5t63.5 -210.5q0 -140 -72 -213.5t-190 -73.5z"/>
<glyph glyph-name="uni0474" horiz-adv-x="709" unicode="Ѵ" d="M256 0l-251 707h116l210 -624l171 446q58 154 137 204l77 -60q-69 -48 -116 -168l-199 -505h-145z"/>
<glyph glyph-name="uni0475" horiz-adv-x="570" unicode="ѵ" d="M193 0l-183 546h113l108 -352l33 -114l37 116l59 173q51 146 132 199l76 -61q-72 -51 -118 -180l-120 -327h-137z"/>
<glyph glyph-name="uni048A" horiz-adv-x="820" unicode="Ҋ" d="M405 756q-115 0 -178 92l50 51q54 -59 128 -59t127 59l51 -51q-65 -92 -178 -92zM99 0v707h108v-460l-3 -103l63 104l313 459h108v-621h121l-58 -261h-99l36 175h-108v460l4 103l-49 -79l-328 -484h-108z"/>
<glyph glyph-name="uni048B" horiz-adv-x="677" unicode="ҋ" d="M326 644q-50 0 -93.5 24.5t-69.5 67.5l45 50q51 -60 118 -60t119 60l44 -50q-26 -43 -69 -67.5t-94 -24.5zM79 0v546h105v-334l-3 -73l47 74l233 333h105v-460h102l-57 -261h-100l36 175h-86v332l3 75l-47 -76l-233 -331h-105z"/>
<glyph glyph-name="uni048C" horiz-adv-x="648" unicode="Ҍ" d="M37 544v74h92v89h109v-89h117v-74h-117v-458h106q79 0 118.5 37.5t39.5 102.5q0 135 -175 135h-46v87h44q141 0 215 -57t74 -168q0 -101 -68.5 -162t-191.5 -61h-225v544h-92z"/>
<glyph glyph-name="uni048D" horiz-adv-x="561" unicode="ҍ" d="M106 0v421h-73v61h73v64h105v-64h131v-61h-131v-338h103q52 0 81 25t29 71q0 98 -130 98h-68v82h76q108 0 168.5 -46.5t60.5 -134.5q0 -77 -51.5 -127.5t-134.5 -50.5h-239z"/>
<glyph glyph-name="uni048E" horiz-adv-x="627" unicode="Ҏ" d="M99 0v707h243q111 0 176.5 -60.5t65.5 -169.5q0 -111 -84 -177l54 -58l-51 -48l-66 70q-64 -25 -147 -25h-44v87h50q41 0 74 9l-43 46l54 48l54 -58q37 37 37 102q0 148 -152 148h-112v-621h-109z"/>
<glyph glyph-name="uni048F" horiz-adv-x="606" unicode="ҏ" d="M306 126l54 49l45 -50q46 55 46 157q0 83 -33.5 135.5t-106.5 52.5q-9 0 -18 -1t-18 -3t-16 -3.5t-16 -5t-13.5 -5t-13.5 -6l-12 -6t-11.5 -6.5t-9.5 -5v-346q65 -10 93 -10q42 0 69 11zM79 -220v766h104v-43q80 56 157 56q100 0 158.5 -69.5t58.5 -202.5 q0 -156 -86 -234l43 -46l-49 -49l-54 56q-59 -25 -133 -25q-31 0 -95 8v-217h-104z"/>
<glyph glyph-name="uni0490" horiz-adv-x="540" unicode="Ґ" d="M99 0v707h330v161h103v-247h-325v-621h-108z"/>
<glyph glyph-name="uni0491" horiz-adv-x="451" unicode="ґ" d="M79 0v546h261v114h98l1 -197h-256v-463h-104z"/>
<glyph glyph-name="uni0492" horiz-adv-x="578" unicode="Ғ" d="M48 308v80h80v319h439v-86h-331v-233h173v-80h-173v-308h-108v308h-80z"/>
<glyph glyph-name="uni0493" horiz-adv-x="476" unicode="ғ" d="M35 225v79h64v242h360v-83h-255v-159h141v-79h-141v-225h-105v225h-64z"/>
<glyph glyph-name="uni0494" horiz-adv-x="655" unicode="Ҕ" d="M384 -220l-58 73q21 15 45.5 40t57.5 67.5t54.5 103.5t21.5 126q0 69 -35 107.5t-99 38.5q-85 0 -164 -42v-294h-108v707h405v-88h-297v-236q110 39 189 39q111 0 164.5 -62t53.5 -164q0 -125 -58 -222.5t-172 -193.5z"/>
<glyph glyph-name="uni0495" horiz-adv-x="568" unicode="ҕ" d="M79 0v546h391v-83h-286v-156q74 49 149 49q101 0 147 -67t46 -172q0 -223 -192 -347l-55 65q75 59 107.5 118t32.5 154q0 156 -120 156q-59 0 -115 -35v-228h-105z"/>
<glyph glyph-name="uni0496" horiz-adv-x="986" unicode="Җ" d="M421 0v707h108v-707h-108zM9 0l278 374l-254 333h132l244 -331v-12l-263 -364h-137zM803 0l-263 363v12l245 332h132l-254 -333l214 -288h104v-239h-103v153h-75z"/>
<glyph glyph-name="uni0497" horiz-adv-x="837" unicode="җ" d="M343 0v274l-137 -180q-47 -62 -83 -81t-82 -22l-22 78q65 22 122 99l90 118l-199 260h117l194 -264v264h105v-262l194 262h117l-199 -260l99 -129q37 -49 63.5 -61t89.5 -12h23v-237h-104v151q-43 3 -73.5 21.5t-72.5 74.5l-137 182v-276h-105z"/>
<glyph glyph-name="uni0498" horiz-adv-x="565" unicode="Ҙ" d="M221 -253l-35 62q64 38 64 75q0 19 -20 65h91q21 -40 21 -73q0 -78 -121 -129zM252 -8q-125 0 -221 49l36 84q88 -43 177 -43q70 0 113 28.5t43 90.5q0 114 -166 114h-80v83h80q63 0 100 31t37 85q0 53 -33 81t-94 28t-149 -33l-35 75q94 46 195 46q107 0 166.5 -49.5 t59.5 -126.5q0 -117 -106 -172v-2q19 -5 38 -14t43.5 -27t39.5 -50t15 -73q0 -38 -13.5 -72.5t-41.5 -65t-80.5 -49t-123.5 -18.5z"/>
<glyph glyph-name="uni0499" horiz-adv-x="471" unicode="ҙ" d="M179 -253l-35 62q64 38 64 75q0 19 -20 65h91q21 -40 21 -73q0 -78 -121 -129zM216 -9q-104 0 -188 42l31 80q78 -38 151 -38q46 0 75.5 22t29.5 63q0 80 -117 80h-67v79h65q51 0 75.5 24.5t24.5 57.5t-24 53t-68 20q-55 0 -129 -30l-26 77q78 38 172 38q89 0 134.5 -41 t45.5 -100q0 -47 -23.5 -80.5t-61.5 -49.5q44 -11 77 -44.5t33 -90.5q0 -65 -52.5 -113.5t-157.5 -48.5z"/>
<glyph glyph-name="uni049A" horiz-adv-x="689" unicode="Қ" d="M99 0v707h108v-707h-108zM510 0l-290 373v11l274 323h137l-291 -328l239 -293h107v-239h-104v153h-72z"/>
<glyph glyph-name="uni049B" horiz-adv-x="583" unicode="қ" d="M578 -153h-104v155q-74 17 -135 92l-151 186l213 266h118l-218 -258l104 -120q38 -43 71.5 -64t82.5 -21h19v-236zM79 0v546h105v-546h-105z"/>
<glyph glyph-name="uni049C" horiz-adv-x="723" unicode="Ҝ" d="M99 0v707h108v-707h-108zM572 0l-264 373v11l252 323h137l-269 -328l283 -379h-139zM237 273v191h59v-191h-59z"/>
<glyph glyph-name="uni049D" horiz-adv-x="587" unicode="ҝ" d="M214 188v187h59v-187h-59zM79 0v546h105v-546h-105zM540 -9q-21 1 -30.5 2t-27.5 7t-30 16t-28.5 29.5t-33.5 48.5l-107 186l174 266h105l-176 -259l69 -120q26 -48 47.5 -68.5t54.5 -29.5z"/>
<glyph glyph-name="uni049E" horiz-adv-x="675" unicode="Ҟ" d="M118 0v552h-84v65h84v90h108v-90h108v-65h-108v-552h-108zM529 0l-290 373v11l274 323h137l-291 -328l310 -379h-140z"/>
<glyph glyph-name="uni049F" horiz-adv-x="572" unicode="ҟ" d="M96 0v418h-63v61h63v67h105v-67h72v-61h-72v-418h-105zM540 -9q-48 3 -92 23.5t-92 79.5l-151 186l213 266h118l-218 -258l104 -120q71 -81 136 -99z"/>
<glyph glyph-name="uni04A0" horiz-adv-x="743" unicode="Ҡ" d="M597 0l-290 373v11l274 323h137l-291 -328l310 -379h-140zM186 0v619h-196v88h304v-707h-108z"/>
<glyph glyph-name="uni04A1" horiz-adv-x="650" unicode="ҡ" d="M174 463h-181v83h285v-546h-104v463zM618 -9q-49 3 -92 23.5t-92 79.5l-152 186l213 266h119l-219 -258l105 -120q71 -82 135 -99z"/>
<glyph glyph-name="uni04A2" horiz-adv-x="807" unicode="Ң" d="M99 0v707h108v-309h362v309h108v-621h98v-239h-104v153h-102v312h-362v-312h-108z"/>
<glyph glyph-name="uni04A3" horiz-adv-x="664" unicode="ң" d="M79 0v546h105v-231h257v231h105v-460h104v-239h-104v153h-105v232h-257v-232h-105z"/>
<glyph glyph-name="uni04A4" horiz-adv-x="862" unicode="Ҥ" d="M99 0v707h108v-309h362v309h302v-88h-194v-619h-108v312h-362v-312h-108z"/>
<glyph glyph-name="uni04A5" horiz-adv-x="779" unicode="ҥ" d="M441 0v232h-257v-232h-105v546h105v-231h257v231h359v-83h-254v-463h-105z"/>
<glyph glyph-name="uni04A6" horiz-adv-x="1110" unicode="Ҧ" d="M843 -220l-58 73q17 12 34 27t45 47.5t48.5 68.5t36 89.5t15.5 110.5q0 69 -35 107t-99 38q-87 0 -163 -41v-300h-108v621h-352v-621h-108v707h568v-319q103 39 188 39q111 0 164.5 -62t53.5 -164q0 -125 -58.5 -225.5t-171.5 -195.5z"/>
<glyph glyph-name="uni04A7" horiz-adv-x="911" unicode="ҧ" d="M79 0v546h457v-228q71 51 143 51q54 0 93.5 -20t61.5 -55t32 -77t10 -91q0 -121 -53.5 -211t-138.5 -145l-55 65q74 58 107 121.5t33 159.5q0 160 -116 160q-62 0 -117 -34v-242h-105v464h-247v-464h-105z"/>
<glyph glyph-name="uni04A8" horiz-adv-x="795" unicode="Ҩ" d="M432 240q0 -92 38 -168q97 12 144 62t47 123q0 68 -32.5 102.5t-80.5 34.5q-58 0 -87 -43.5t-29 -110.5zM672 -154q-84 0 -153.5 37.5t-114.5 104.5q-167 1 -258.5 100t-91.5 267q0 166 101.5 264t270.5 98q124 0 210 -41l-31 -82q-86 33 -184 33q-127 0 -193 -74.5 t-66 -196.5q0 -107 51 -186t147 -97q-28 79 -28 168q0 105 58 171t164 66q93 0 149 -58.5t56 -143.5q0 -108 -60 -180.5t-176 -96.5q67 -65 158 -65q42 0 108 15l16 -82q-60 -21 -133 -21z"/>
<glyph glyph-name="uni04A9" horiz-adv-x="594" unicode="ҩ" d="M338 180q0 -62 16 -110q55 12 84 49.5t29 95.5q0 87 -62 87q-28 0 -47.5 -28.5t-19.5 -93.5zM257 174q0 102 43.5 149t108.5 47q66 0 104.5 -41t38.5 -113q0 -79 -43 -134.5t-113 -78.5q41 -38 101 -38q37 0 94 16l15 -72q-55 -20 -119 -20q-124 0 -185 99h-2 q-120 0 -186.5 73.5t-66.5 205.5q0 138 71.5 215.5t188.5 77.5q94 0 156 -35l-30 -77q-64 29 -119 29q-82 0 -122 -56.5t-40 -148.5q0 -79 27.5 -134t88.5 -68q-11 47 -11 104z"/>
<glyph glyph-name="uni04AA" horiz-adv-x="677" unicode="Ҫ" d="M366 -253l-35 62q64 38 64 75q0 19 -20 65h91q21 -40 21 -73q0 -78 -121 -129zM428 -12q-178 0 -276 97.5t-98 263.5q0 169 98.5 268.5t271.5 99.5q124 0 210 -41l-31 -82q-96 31 -177 31h-3q-114 0 -186.5 -66t-72.5 -200q0 -138 78 -207.5t203 -69.5q87 0 165 25 l25 -84q-93 -35 -207 -35z"/>
<glyph glyph-name="uni04AB" horiz-adv-x="507" unicode="ҫ" d="M245 -253l-35 62q64 38 64 75q0 19 -20 65h91q21 -40 21 -73q0 -78 -121 -129zM330 -12q-147 0 -215 67t-68 206q0 146 72 222.5t200 76.5q88 0 152 -35l-29 -79q-68 26 -120 26q-168 0 -168 -207q0 -96 42 -142.5t145 -46.5q47 0 112 15l16 -82q-74 -21 -139 -21z"/>
<glyph glyph-name="uni04AC" horiz-adv-x="608" unicode="Ҭ" d="M245 0v619h-236v88h580v-88h-236v-533h139v-239h-103v153h-144z"/>
<glyph glyph-name="uni04AD" horiz-adv-x="505" unicode="ҭ" d="M196 0v463h-182v83h467v-83h-181v-377h117v-239h-100v153h-121z"/>
<glyph glyph-name="uni04AE" horiz-adv-x="588" unicode="Ү" d="M234 0v256l-240 451h123l175 -358l187 358h118l-255 -449v-258h-108z"/>
<glyph glyph-name="uni04AF" horiz-adv-x="534" unicode="ү" d="M206 -220v219l-198 547h113l108 -325l33 -114l37 116l121 323h109l-218 -550v-216h-105z"/>
<glyph glyph-name="uni04B0" horiz-adv-x="614" unicode="Ұ" d="M98 213v85h127l-217 409h123l175 -358l187 358h118l-233 -409h127v-85h-149v-213h-108v213h-150z"/>
<glyph glyph-name="uni04B1" horiz-adv-x="564" unicode="ұ" d="M70 0v83h122l-167 463h113l108 -325l33 -114l37 116l121 323h109l-184 -463h124v-83h-157l-1 -4v-216h-105v219l-1 1h-152z"/>
<glyph glyph-name="uni04B2" horiz-adv-x="677" unicode="Ҳ" d="M7 0l250 370l-212 337h123l151 -252l163 252h118l-224 -334l181 -287h112v-239h-103v153h-79l-174 289l-185 -289h-121z"/>
<glyph glyph-name="uni04B3" horiz-adv-x="567" unicode="ҳ" d="M11 0l193 279l-181 267h121l120 -198l120 198h118l-180 -265l135 -195h108v-239h-104v153h-70l-128 210l-129 -210h-123z"/>
<glyph glyph-name="uni04B4" horiz-adv-x="926" unicode="Ҵ" d="M785 -153v153h-552v619h-223v88h553v-88h-222v-533h344v621h108v-621h95v-239h-103z"/>
<glyph glyph-name="uni04B5" horiz-adv-x="762" unicode="ҵ" d="M634 -147v147h-438v463h-182v83h286v-464h245v464h104v-464h82v-229h-97z"/>
<glyph glyph-name="uni04B6" horiz-adv-x="697" unicode="Ҷ" d="M459 0v311q-100 -39 -191 -39q-222 0 -222 191v244h108v-234q0 -37 13 -61.5t37 -35.5t46 -14.5t50 -3.5q80 0 159 44v305h108v-621h106v-239h-104v153h-110z"/>
<glyph glyph-name="uni04B7" horiz-adv-x="594" unicode="ҷ" d="M375 0v230q-90 -28 -158 -28q-98 0 -137.5 42t-39.5 131v171h104v-162q0 -51 22 -74.5t83 -23.5q56 0 126 26v234h104v-460h100v-239h-104v153h-100z"/>
<glyph glyph-name="uni04B8" horiz-adv-x="667" unicode="Ҹ" d="M459 0v311q-61 -24 -131 -35v-69h-60v65q-222 0 -222 191v244h108v-234q0 -104 114 -114v68h60v-68q70 9 131 43v305h108v-707h-108z"/>
<glyph glyph-name="uni04B9" d="M375 0v230q-56 -17 -94 -23v-75h-59v70h-5q-98 0 -137.5 42t-39.5 131v171h104v-162q0 -45 16.5 -68.5t61.5 -28.5v65h59v-65q35 4 94 25v234h104v-546h-104z" unicode="ҹ"/>
<glyph glyph-name="uni04BA" horiz-adv-x="662" unicode="Һ" d="M99 0v707h108v-306q97 45 182 45q119 0 172 -53.5t53 -142.5v-250h-107v240q0 37 -13 61t-36.5 35t-45 14.5t-49.5 3.5q-76 0 -156 -43v-311h-108z"/>
<glyph glyph-name="uni04BB" horiz-adv-x="618" unicode="һ" d="M79 0v754h105v-269q100 74 189 74q46 0 79 -13t50.5 -31.5t27 -49.5t11.5 -55.5t2 -61.5v-348h-102v333q0 72 -19.5 103t-77.5 31q-68 0 -160 -56v-411h-105z"/>
<glyph glyph-name="uni04BC" horiz-adv-x="918" unicode="Ҽ" d="M542 630q-108 0 -163.5 -56t-64.5 -171h448q-3 104 -58.5 165.5t-161.5 61.5zM872 323h-560q8 -115 71.5 -181t168.5 -66q127 0 253 65l30 -76q-57 -33 -134.5 -55t-157.5 -22q-152 0 -242.5 89.5t-98.5 245.5q-175 4 -175 146q0 59 29 131h80q-25 -75 -25 -111 q0 -45 20 -65t72 -21q15 143 104 228.5t236 85.5q80 0 143.5 -27t103 -74t60.5 -106t22 -126v-61z"/>
<glyph glyph-name="uni04BD" horiz-adv-x="679" unicode="ҽ" d="M277 321h248q0 160 -115 160q-56 0 -92 -41t-41 -119zM437 -12q-128 0 -196.5 59.5t-71.5 202.5q-140 17 -140 144q0 53 29 130h80q-25 -73 -25 -111q0 -37 13 -57t46 -27q15 119 80.5 175t163.5 56q112 0 164.5 -69t52.5 -206v-37h-359q1 -99 48.5 -136t130.5 -37 q69 0 150 24l18 -81q-80 -30 -184 -30z"/>
<glyph glyph-name="uni04BE" horiz-adv-x="918" unicode="Ҿ" d="M542 630q-108 0 -163.5 -56t-64.5 -171h448q-3 104 -58.5 165.5t-161.5 61.5zM872 323h-560q8 -115 71.5 -181t168.5 -66q127 0 253 65l30 -76q-82 -48 -190 -67q-92 -55 -92 -109q0 -25 15 -38t39 -13q28 0 54 14l20 -68q-37 -23 -92 -23q-61 0 -95 31.5t-34 82.5 q0 58 61 114q-143 6 -227 95t-92 239q-175 4 -175 146q0 59 29 131h80q-25 -75 -25 -111q0 -45 20 -65t72 -21q15 143 104 228.5t236 85.5q80 0 143.5 -27t103 -74t60.5 -106t22 -126v-61z"/>
<glyph glyph-name="uni04BF" horiz-adv-x="679" unicode="ҿ" d="M277 321h248q0 160 -115 160q-56 0 -92 -41t-41 -119zM550 -216q-37 -23 -92 -23q-61 0 -95 31.5t-34 82.5q0 59 63 115q-106 9 -163.5 69.5t-59.5 190.5q-140 17 -140 144q0 53 29 130h80q-25 -73 -25 -111q0 -37 13 -57t46 -27q15 119 80.5 175t163.5 56 q112 0 164.5 -69t52.5 -206v-37h-359q1 -99 48.5 -136t130.5 -37q69 0 150 24l18 -81q-51 -18 -117 -26q-82 -53 -82 -103q0 -25 15 -38t39 -13q28 0 54 14z"/>
<glyph glyph-name="uni04C0" horiz-adv-x="306" unicode="Ӏ" d="M99 0v707h108v-707h-108z"/>
<glyph glyph-name="uni04C1" horiz-adv-x="950" unicode="Ӂ" d="M472 756q-115 0 -178 92l50 51q54 -59 128 -59t127 59l51 -51q-65 -92 -178 -92zM421 0v707h108v-707h-108zM803 0l-263 363v12l245 332h132l-254 -333l278 -374h-138zM9 0l278 374l-254 333h132l244 -331v-12l-263 -364h-137z"/>
<glyph glyph-name="uni04C2" horiz-adv-x="791" unicode="ӂ" d="M390 645q-50 0 -93.5 24.5t-69.5 67.5l45 50q51 -60 118 -60t119 60l44 -50q-26 -43 -69 -67.5t-94 -24.5zM41 -9l-22 78q65 22 122 99l90 118l-199 260h117l194 -264v264h105v-262l194 262h117l-199 -260l90 -118q57 -77 122 -99l-22 -78q-47 3 -83 22t-82 81l-137 182 v-276h-105v274l-137 -180q-47 -62 -83 -81t-82 -22z"/>
<glyph glyph-name="uni04C3" horiz-adv-x="665" unicode="Ӄ" d="M99 0v707h108v-707h-108zM631 707l-281 -311q118 -14 186 -79.5t68 -165.5q0 -210 -228 -377l-56 68q176 150 176 301q0 82 -63 130.5t-192 52.5v84l253 297h137z"/>
<glyph glyph-name="uni04C4" horiz-adv-x="583" unicode="ӄ" d="M79 0v546h105v-546h-105zM532 546l-205 -236q4 0 11 0.5t10 0.5q99 0 145.5 -63t46.5 -155q0 -109 -55.5 -190.5t-137.5 -132.5l-53 63q69 61 104.5 119.5t35.5 127.5q0 158 -159 158q-26 0 -59 -6v63l198 251h118z"/>
<glyph glyph-name="uni04C5" horiz-adv-x="742" unicode="Ӆ" d="M48 -22l-46 96q101 45 131 105q48 99 68 528h402v-621h128l-58 -261h-99l36 175h-115v624h-200q-27 -302 -42 -381t-38 -125q-43 -84 -167 -140z"/>
<glyph glyph-name="uni04C6" horiz-adv-x="632" unicode="ӆ" d="M38 -17l-31 88q77 29 105 80q45 84 55 395h351v-460h106l-57 -261h-100l36 175h-89v464h-155q-22 -285 -70 -373q-45 -78 -151 -108z"/>
<glyph glyph-name="uni04C7" horiz-adv-x="775" unicode="Ӈ" d="M467 -204l-43 79q85 44 115 98.5t30 146.5v193h-362v-312h-108v707h108v-309h362v309h108l1 -587q0 -59 -7.5 -101t-28.5 -85.5t-64.5 -77.5t-110.5 -61z"/>
<glyph glyph-name="uni04C8" horiz-adv-x="625" unicode="ӈ" d="M79 0v546h105v-231h258v231h104v-443q0 -53 -5.5 -89.5t-22.5 -75.5t-53 -68.5t-92 -51.5l-44 77q65 35 89 77.5t24 117.5v142h-258v-232h-105z"/>
<glyph glyph-name="uni04C9" horiz-adv-x="806" unicode="Ӊ" d="M99 0v707h108v-309h362v309h108v-621h115l-57 -261h-100l37 175h-103v312h-362v-312h-108z"/>
<glyph glyph-name="uni04CA" horiz-adv-x="660" unicode="ӊ" d="M79 0v546h105v-231h257v231h105v-460h107l-58 -261h-99l36 175h-91v232h-257v-232h-105z"/>
<glyph glyph-name="uni04CB" horiz-adv-x="667" unicode="Ӌ" d="M453 0v-153h-104v239h110v225q-100 -39 -191 -39q-222 0 -222 191v244h108v-234q0 -37 13 -61.5t37 -35.5t46 -14.5t50 -3.5q80 0 159 44v305h108v-707h-114z"/>
<glyph glyph-name="uni04CC" d="M275 -153v239h100v144q-90 -28 -158 -28q-98 0 -137.5 42t-39.5 131v171h104v-162q0 -51 22 -74.5t83 -23.5q56 0 126 26v234h104v-546h-103v-153h-101z" unicode="ӌ"/>
<glyph glyph-name="uni04CD" horiz-adv-x="991" unicode="Ӎ" d="M99 0v707h139l229 -628l259 628h131v-621h121l-57 -261h-100l37 175h-108v413l4 126h-3l-217 -539h-140l-190 540h-4l7 -117v-423h-108z"/>
<glyph glyph-name="uni04CE" horiz-adv-x="798" unicode="ӎ" d="M79 0v546h137l159 -466l175 466h133v-460h108l-58 -261h-99l36 175h-86v306l4 107l-152 -413h-126l-137 415l5 -109v-306h-99z"/>
<glyph glyph-name="uni04CF" horiz-adv-x="263" unicode="ӏ" d="M79 0v754h105v-754h-105z"/>
<glyph glyph-name="uni04D0" horiz-adv-x="684" unicode="Ӑ" d="M348 756q-115 0 -178 92l50 51q54 -59 128 -59t127 59l51 -51q-65 -92 -178 -92zM235 330h209l-99 305zM-4 0l285 707h139l252 -707h-115l-86 247h-267l-97 -247h-111z"/>
<glyph glyph-name="uni04D1" horiz-adv-x="564" unicode="ӑ" d="M277 645q-50 0 -93.5 24.5t-69.5 67.5l45 50q51 -60 118 -60t119 60l44 -50q-26 -43 -69 -67.5t-94 -24.5zM233 74q65 0 141 49v126l-116 -5q-56 -2 -87 -25t-31 -65q0 -40 25.5 -60t67.5 -20zM206 -9q-77 0 -122.5 41t-45.5 115q0 49 20 83.5t54 51.5t68.5 24.5 t74.5 7.5l119 2v59q0 54 -27.5 74.5t-90.5 20.5q-77 0 -153 -26l-22 79q90 37 192 37q203 0 203 -157v-285q0 -40 57 -42l-4 -80q-14 -2 -25 -2q-47 0 -80.5 16t-40.5 50q-90 -69 -177 -69z"/>
<glyph glyph-name="uni04D2" horiz-adv-x="684" unicode="Ӓ" d="M452 744l-70 71l70 69l70 -69zM242 744l-70 71l70 69l69 -69zM235 330h209l-99 305zM-4 0l285 707h139l252 -707h-115l-86 247h-267l-97 -247h-111z"/>
<glyph glyph-name="uni04D3" horiz-adv-x="564" unicode="ӓ" d="M383 648l-67 68l67 67l68 -67zM173 648l-67 68l67 67l67 -67zM233 74q65 0 141 49v126l-116 -5q-56 -2 -87 -25t-31 -65q0 -40 25.5 -60t67.5 -20zM206 -9q-77 0 -122.5 41t-45.5 115q0 49 20 83.5t54 51.5t68.5 24.5t74.5 7.5l119 2v59q0 54 -27.5 74.5t-90.5 20.5 q-77 0 -153 -26l-22 79q90 37 192 37q203 0 203 -157v-285q0 -40 57 -42l-4 -80q-14 -2 -25 -2q-47 0 -80.5 16t-40.5 50q-90 -69 -177 -69z"/>
<glyph glyph-name="uni04D4" horiz-adv-x="943" unicode="Ӕ" d="M298 375h154v246h-33zM-6 0l363 707h510v-86h-308v-224h286v-84h-286v-226h332v-87h-439v292h-192l-144 -292h-122z"/>
<glyph glyph-name="uni04D5" horiz-adv-x="881" unicode="ӕ" d="M479 319l247 12q1 69 -29 110t-82 41q-55 0 -93.5 -40t-42.5 -123zM224 75q58 0 166 59q-14 43 -17 109l-114 -3q-120 -4 -120 -84q0 -81 85 -81zM641 -9q-163 0 -227 91q-115 -90 -211 -90q-79 0 -122 40t-43 116q0 158 217 163q106 3 119 3v66q0 56 -28 73t-100 17 q-37 0 -143 -24l-21 77q86 36 188 36q137 0 179 -66q63 66 178 66q207 0 207 -266v-36l-358 -12q1 -53 14.5 -87.5t41 -51.5t58 -23t75.5 -6q37 0 141 19l16 -80q-71 -25 -181 -25z"/>
<glyph glyph-name="uni04D6" horiz-adv-x="590" unicode="Ӗ" d="M322 756q-115 0 -178 92l50 51q54 -59 128 -59t127 59l51 -51q-65 -92 -178 -92zM99 0v707h416v-86h-308v-224h286v-84h-286v-226h331v-87h-439z"/>
<glyph glyph-name="uni04D7" d="M293 645q-50 0 -93.5 24.5t-69.5 67.5l45 50q51 -60 118 -60t119 60l44 -50q-26 -43 -69 -67.5t-94 -24.5zM156 321h248q0 160 -115 160q-56 0 -92 -41t-41 -119zM316 -12q-131 0 -199.5 62.5t-68.5 212.5q0 153 68 225t179 72q112 0 164.5 -69t52.5 -206v-37h-359 q1 -99 48.5 -136t130.5 -37q69 0 150 24l18 -81q-80 -30 -184 -30z" unicode="ӗ"/>
<glyph glyph-name="uni04D8" horiz-adv-x="773" unicode="Ә" d="M377 76q116 0 169 63.5t61 176.5h-450q20 -240 220 -240zM374 -12q-160 0 -241 92t-86 254v61h560q-9 106 -70.5 170.5t-169.5 64.5q-125 0 -245 -64l-38 75q130 76 298 76q165 0 250.5 -100.5t85.5 -263.5q0 -169 -88 -267t-256 -98z"/>
<glyph glyph-name="uni04D9" d="M402 227h-248q-1 -75 28 -119t85 -44q57 0 93.5 42t41.5 121zM240 560q132 0 200.5 -62.5t68.5 -213.5q0 -296 -254 -296q-209 0 -209 274v38h358q-1 103 -48.5 138t-139.5 35q-54 0 -141 -23l-17 81q82 29 182 29z" unicode="ә"/>
<glyph glyph-name="uni04DA" horiz-adv-x="773" unicode="Ӛ" d="M377 76q116 0 169 63.5t61 176.5h-450q20 -240 220 -240zM374 -12q-160 0 -241 92t-86 254v61h560q-9 106 -70.5 170.5t-169.5 64.5q-125 0 -245 -64l-38 75q130 76 298 76q165 0 250.5 -100.5t85.5 -263.5q0 -169 -88 -267t-256 -98zM471 744l-70 71l70 69l70 -69z M261 744l-70 71l70 69l69 -69z"/>
<glyph glyph-name="uni04DB" d="M402 227h-248q-1 -75 28 -119t85 -44q57 0 93.5 42t41.5 121zM240 560q132 0 200.5 -62.5t68.5 -213.5q0 -296 -254 -296q-209 0 -209 274v38h358q-1 103 -48.5 138t-139.5 35q-54 0 -141 -23l-17 81q82 29 182 29zM374 648l-67 68l67 67l68 -67zM164 648l-67 68l67 67 l67 -67z" unicode="ӛ"/>
<glyph glyph-name="uni04DC" horiz-adv-x="950" unicode="Ӝ" d="M578 744l-70 71l70 69l70 -69zM368 744l-70 71l70 69l69 -69zM421 0v707h108v-707h-108zM803 0l-263 363v12l245 332h132l-254 -333l278 -374h-138zM9 0l278 374l-254 333h132l244 -331v-12l-263 -364h-137z"/>
<glyph glyph-name="uni04DD" horiz-adv-x="791" unicode="ӝ" d="M286 648l-67 68l67 67l67 -67zM496 648l-67 68l67 67l68 -67zM41 -9l-22 78q65 22 122 99l90 118l-199 260h117l194 -264v264h105v-262l194 262h117l-199 -260l90 -118q57 -77 122 -99l-22 -78q-47 3 -83 22t-82 81l-137 182v-276h-105v274l-137 -180q-47 -62 -83 -81 t-82 -22z"/>
<glyph glyph-name="uni04DE" horiz-adv-x="565" unicode="Ӟ" d="M361 744l-70 71l70 69l70 -69zM151 744l-70 71l70 69l69 -69zM252 -8q-125 0 -221 49l36 84q88 -43 177 -43q70 0 113 28.5t43 90.5q0 114 -166 114h-80v83h80q63 0 100 31t37 85q0 53 -33 81t-94 28t-149 -33l-35 75q94 46 195 46q107 0 166.5 -49.5t59.5 -126.5 q0 -117 -106 -172v-2q19 -5 38 -14t43.5 -27t39.5 -50t15 -73q0 -38 -13.5 -72.5t-41.5 -65t-80.5 -49t-123.5 -18.5z"/>
<glyph glyph-name="uni04DF" horiz-adv-x="471" unicode="ӟ" d="M216 -9q-104 0 -188 42l31 80q78 -38 151 -38q46 0 75.5 22t29.5 63q0 80 -117 80h-67v79h65q51 0 75.5 24.5t24.5 57.5t-24 53t-68 20q-55 0 -129 -30l-26 77q78 38 172 38q89 0 134.5 -41t45.5 -100q0 -47 -23.5 -80.5t-61.5 -49.5q44 -11 77 -44.5t33 -90.5 q0 -65 -52.5 -113.5t-157.5 -48.5zM324 648l-67 68l67 67l68 -67zM114 648l-67 68l67 67l67 -67z"/>
<glyph glyph-name="uni04E0" horiz-adv-x="546" unicode="Ӡ" d="M162 399l191 217h-301v91h421v-77l-204 -229q95 -12 159 -63t64 -132q0 -104 -74 -161t-180 -57q-69 0 -121.5 13t-75.5 28l25 85q78 -37 165 -37q67 0 110 30t43 95q0 59 -50 90.5t-121 34.5q-13 1 -37 1z"/>
<glyph glyph-name="uni04E1" horiz-adv-x="472" unicode="ӡ" d="M111 168v77l194 213h-284v88h401v-76l-210 -231q92 -14 155.5 -67t63.5 -134q0 -59 -32 -108.5t-85 -81.5t-117 -51.5t-131 -24.5l-17 82q121 15 198 60t77 119q0 43 -34.5 74t-80 44.5t-98.5 16.5z"/>
<glyph glyph-name="uni04E2" horiz-adv-x="788" unicode="Ӣ" d="M99 0v707h108v-460l-3 -103l63 104l313 459h108v-707h-108v460l4 103l-49 -79l-328 -484h-108zM264 779v83h285v-83h-285z"/>
<glyph glyph-name="uni04E3" horiz-adv-x="645" unicode="ӣ" d="M185 662v83h285v-83h-285zM79 0v546h105v-334l-3 -73l47 74l233 333h105v-546h-105v332l3 75l-47 -76l-233 -331h-105z"/>
<glyph glyph-name="uni04E4" horiz-adv-x="788" unicode="Ӥ" d="M99 0v707h108v-460l-3 -103l63 104l313 459h108v-707h-108v460l4 103l-49 -79l-328 -484h-108zM501 744l-70 71l70 69l70 -69zM291 744l-70 71l70 69l69 -69z"/>
<glyph glyph-name="uni04E5" horiz-adv-x="645" unicode="ӥ" d="M79 0v546h105v-334l-3 -73l47 74l233 333h105v-546h-105v332l3 75l-47 -76l-233 -331h-105zM418 648l-67 68l67 67l68 -67zM208 648l-67 68l67 67l67 -67z"/>
<glyph glyph-name="uni04E6" horiz-adv-x="830" unicode="Ӧ" d="M409 76q128 0 193 76.5t65 201.5q0 122 -65.5 199t-185.5 77q-124 0 -189 -76t-65 -198q0 -121 63.5 -200.5t183.5 -79.5zM406 -12q-168 0 -260 99.5t-92 267.5q0 166 100 264t268 98q171 0 262.5 -100.5t91.5 -263.5q0 -166 -98.5 -265.5t-271.5 -99.5zM510 744l-70 71 l70 69l70 -69zM300 744l-70 71l70 69l69 -69z"/>
<glyph glyph-name="uni04E7" horiz-adv-x="608" unicode="ӧ" d="M306 73q149 0 149 198q0 205 -150 205q-43 0 -74.5 -17.5t-48 -48t-23.5 -64.5t-7 -75q0 -88 36 -143t118 -55zM299 -12q-119 0 -185.5 73.5t-66.5 205.5q0 138 71.5 215.5t191.5 77.5q124 0 187.5 -74.5t63.5 -210.5q0 -140 -72 -213.5t-190 -73.5zM404 648l-67 68 l67 67l68 -67zM194 648l-67 68l67 67l67 -67z"/>
<glyph glyph-name="uni04E8" horiz-adv-x="830" unicode="Ө" d="M416 630q-115 0 -179.5 -65.5t-73.5 -173.5h502q-9 107 -74 173t-175 66zM409 76q119 0 183 66.5t73 177.5h-502q10 -108 72.5 -176t173.5 -68zM406 -12q-168 0 -260 99.5t-92 267.5q0 166 100 264t268 98q171 0 262.5 -100.5t91.5 -263.5q0 -166 -98.5 -265.5 t-271.5 -99.5z"/>
<glyph glyph-name="uni04E9" horiz-adv-x="608" unicode="ө" d="M305 476q-74 0 -109.5 -46.5t-42.5 -120.5h300q-14 167 -148 167zM306 73q137 0 148 166h-301q13 -166 153 -166zM299 -12q-119 0 -185.5 73.5t-66.5 205.5q0 138 71.5 215.5t191.5 77.5q124 0 187.5 -74.5t63.5 -210.5q0 -140 -72 -213.5t-190 -73.5z"/>
<glyph glyph-name="uni04EA" horiz-adv-x="830" unicode="Ӫ" d="M301 744l-70 71l70 69l69 -69zM511 744l-70 71l70 69l70 -69zM416 630q-115 0 -179.5 -65.5t-73.5 -173.5h502q-9 107 -74 173t-175 66zM409 76q119 0 183 66.5t73 177.5h-502q10 -108 72.5 -176t173.5 -68zM406 -12q-168 0 -260 99.5t-92 267.5q0 166 100 264t268 98 q171 0 262.5 -100.5t91.5 -263.5q0 -166 -98.5 -265.5t-271.5 -99.5z"/>
<glyph glyph-name="uni04EB" horiz-adv-x="608" unicode="ӫ" d="M192 648l-67 68l67 67l67 -67zM402 648l-67 68l67 67l68 -67zM305 476q-74 0 -109.5 -46.5t-42.5 -120.5h300q-14 167 -148 167zM306 73q137 0 148 166h-301q13 -166 153 -166zM299 -12q-119 0 -185.5 73.5t-66.5 205.5q0 138 71.5 215.5t191.5 77.5q124 0 187.5 -74.5 t63.5 -210.5q0 -140 -72 -213.5t-190 -73.5z"/>
<glyph glyph-name="uni04EC" horiz-adv-x="678" unicode="Ӭ" d="M250 -10q-127 0 -208 31l25 83q79 -22 165 -22q114 0 190 58t87 174h-358v83h359q-11 115 -81 170.5t-174 55.5h-3q-89 0 -177 -27l-30 83q81 36 209 36q179 0 274.5 -94t95.5 -266q0 -166 -98.5 -265.5t-275.5 -99.5zM395 744l-70 71l70 69l70 -69zM185 744l-70 71 l70 69l69 -69z"/>
<glyph glyph-name="uni04ED" horiz-adv-x="507" unicode="ӭ" d="M197 -10q-90 0 -164 37l30 79q77 -33 132 -33q75 0 114 44.5t44 118.5h-218v82h218q-7 70 -43.5 113.5t-106.5 43.5q-56 0 -131 -29l-31 78q70 35 164 35q126 0 190.5 -71.5t64.5 -211.5q0 -135 -72 -210.5t-191 -75.5zM323 648l-67 68l67 67l68 -67zM113 648l-67 68 l67 67l67 -67z"/>
<glyph glyph-name="uni04EE" horiz-adv-x="596" unicode="Ӯ" d="M169 -9l-34 90q57 19 87 40.5t52 71.5l14 29h-41l-246 485h120l201 -407l156 407h119l-225 -516q-25 -55 -46.5 -90t-48.5 -56t-47 -30.5t-61 -23.5zM166 779v83h285v-83h-285z"/>
<glyph glyph-name="uni04EF" horiz-adv-x="536" unicode="ӯ" d="M129 662v83h285v-83h-285zM161 -220l74 220h-44l-179 546h113l111 -371l28 -95l31 94l127 372h106l-267 -766h-100z"/>
<glyph glyph-name="uni04F0" horiz-adv-x="596" unicode="Ӱ" d="M169 -9l-34 90q57 19 87 40.5t52 71.5l14 29h-41l-246 485h120l201 -407l156 407h119l-225 -516q-25 -55 -46.5 -90t-48.5 -56t-47 -30.5t-61 -23.5zM408 744l-70 71l70 69l70 -69zM198 744l-70 71l70 69l69 -69z"/>
<glyph glyph-name="uni04F1" horiz-adv-x="536" unicode="ӱ" d="M378 648l-67 68l67 67l68 -67zM168 648l-67 68l67 67l67 -67zM161 -220l74 220h-44l-179 546h113l111 -371l28 -95l31 94l127 372h106l-267 -766h-100z"/>
<glyph glyph-name="uni04F2" horiz-adv-x="596" unicode="Ӳ" d="M584 798l-233 -57l-20 73l228 72zM329 869l-200 -131l-44 62l190 143zM169 -9l-34 90q57 19 87 40.5t52 71.5l14 29h-41l-246 485h120l201 -407l156 407h119l-225 -516q-25 -55 -46.5 -90t-48.5 -56t-47 -30.5t-61 -23.5z"/>
<glyph glyph-name="uni04F3" horiz-adv-x="536" unicode="ӳ" d="M345 610l-36 63l204 128l44 -76zM120 608l-45 57l185 153l55 -70zM161 -220l74 220h-44l-179 546h113l111 -371l28 -95l31 94l127 372h106l-267 -766h-100z"/>
<glyph glyph-name="uni04F4" horiz-adv-x="667" unicode="Ӵ" d="M417 744l-70 71l70 69l70 -69zM207 744l-70 71l70 69l69 -69zM459 0v311q-100 -39 -191 -39q-222 0 -222 191v244h108v-234q0 -37 13 -61.5t37 -35.5t46 -14.5t50 -3.5q80 0 159 44v305h108v-707h-108z"/>
<glyph glyph-name="uni04F5" d="M375 0v230q-90 -28 -158 -28q-98 0 -137.5 42t-39.5 131v171h104v-162q0 -51 22 -74.5t83 -23.5q56 0 126 26v234h104v-546h-104zM363 648l-67 68l67 67l68 -67zM153 648l-67 68l67 67l67 -67z" unicode="ӵ"/>
<glyph glyph-name="uni04F6" horiz-adv-x="549" unicode="Ӷ" d="M99 0v707h439v-86h-331v-535h144v-239h-103v153h-149z"/>
<glyph glyph-name="uni04F7" horiz-adv-x="455" unicode="ӷ" d="M79 0v546h360v-83h-255v-377h117v-239h-101v153h-121z"/>
<glyph glyph-name="uni04F8" horiz-adv-x="864" unicode="Ӹ" d="M99 0v707h109v-621h106q79 0 118.5 37.5t39.5 102.5q0 135 -175 135h-46v87h44q141 0 215 -57t74 -168q0 -101 -68.5 -162t-191.5 -61h-225zM548 744l-70 71l70 69l70 -69zM338 744l-70 71l70 69l69 -69zM656 0v707h108v-707h-108z"/>
<glyph glyph-name="uni04F9" horiz-adv-x="764" unicode="ӹ" d="M684 0h-100v546h100v-546zM80 0v546h100v-464h107q113 0 113 100q0 47 -33 73t-94 26h-59v80h68q114 0 167.5 -52t53.5 -130q0 -82 -51 -130.5t-148 -48.5h-224zM490 648l-67 68l67 67l68 -67zM280 648l-67 68l67 67l67 -67z"/>
</font>
</defs>
</svg>
