<?xml version="1.0" encoding="utf-8"?>
<!-- Generator: Adobe Illustrator 21.0.0, SVG Export Plug-In . SVG Version: 6.00 Build 0)  -->
<svg version="1.1" id="Слой_1" xmlns="http://www.w3.org/2000/svg" xmlns:xlink="http://www.w3.org/1999/xlink" x="0px" y="0px"
	 viewBox="0 0 29 41.5" style="enable-background:new 0 0 29 41.5;" xml:space="preserve">
<style type="text/css">
	.st0{opacity:0.15;clip-path:url(#SVGID_2_);}
	.st1{clip-path:url(#SVGID_4_);fill:none;stroke:#1D1D1B;}
</style>
<g>
	<defs>
		<rect id="SVGID_1_" x="2.4" y="1.9" width="24" height="37.9"/>
	</defs>
	<clipPath id="SVGID_2_">
		<use xlink:href="#SVGID_1_"  style="overflow:visible;"/>
	</clipPath>
	<g class="st0">
		<g>
			<defs>
				<rect id="SVGID_3_" x="-6.6" y="-5.1" width="42" height="45.9"/>
			</defs>
			<clipPath id="SVGID_4_">
				<use xlink:href="#SVGID_3_"  style="overflow:visible;"/>
			</clipPath>
			<path class="st1" d="M23.3,39.3H11.4v-5.5l-3.3-1.6l-4.9-9.5c-0.6-0.7-0.5-1.8,0.2-2.4c0.7-0.7,2-0.7,2.6,0.1l2.6,3.2L8.9,4.2
				c0.1-1.1,1-1.8,2-1.8c1,0,1.9,0.8,2,1.8l0.2,12.8l0.2-1.2c0.1-1.1,1-1.8,2.1-1.8c1.1,0,2,0.8,2.1,1.9l0.1,1.8l0.1-0.5
				c0.1-1.1,1-1.9,2.1-1.9c1.1,0,2,0.8,2.1,1.9l0.1,1.8l0.1-0.1c0.1-1,0.9-1.7,1.9-1.7c1,0,1.9,0.9,1.9,1.9v12.9L23.3,34V39.3z"/>
		</g>
	</g>
</g>
</svg>
