<svg id="Artwork" xmlns="http://www.w3.org/2000/svg" viewBox="0 0 249.84 22.19">
    <title>logo-rus</title>
    <rect x="30.14" y="17.95" width="219.7" height="1.2" style="fill:#ffffff"/>
    <path d="M39,13.59l0.38,0.72a7.72,7.72,0,0,1-4.09,1.09c-3.59,0-5.66-1.92-5.66-6,0-4,1.66-6.35,5.9-6.35A10.08,10.08,0,0,1,39,3.57c0,0.8,0,1.69,0,2.5H38.26l-0.21-.75c-0.27-.89-0.8-1.51-2.43-1.51-2.55,0-3.2,1.88-3.2,5.11,0,3.08.63,5.37,3.59,5.37A6.2,6.2,0,0,0,39,13.59ZM44.58,4c-0.75,0-.86.19-0.86,0.7V7.52h0.67c3.28,0,5.61.38,5.61,3.68s-1.81,4-4.74,4H40.47V14.82c0.6-.14.68-0.31,0.68-1V4.56c0-.65-0.09-0.82-0.68-1V3.22h8.91c0,0.87,0,1.73,0,2.6H48.73l-0.15-.5C48.2,4.1,47.78,4,46.22,4H44.58Zm0.56,10.47c1.56,0,2.17-1,2.17-3.13s-0.53-3-2.55-3h-1V13.4a0.86,0.86,0,0,0,1.06,1h0.36ZM55.2,4c-0.51,0-.6.14-0.6,0.55V8.24h1.59a4.72,4.72,0,0,0,2.12-.36V9.38A4.72,4.72,0,0,0,56.19,9H54.6v4.46c0,0.72.29,1,1.86,1h0.34c1.56,0,2-.1,2.31-1.59l0.1-.44H60c0,0.92,0,1.86,0,2.79H51.35V14.82c0.6-.14.68-0.31,0.68-1V4.56c0-.65-0.09-0.82-0.68-1V3.22H59.7c0,0.87,0,1.73,0,2.6H59l-0.15-.5C58.52,4.1,58.09,4,56.53,4H55.2ZM61.51,15.2V14.82c0.6-.14.68-0.31,0.68-1V4.56c0-.65-0.09-0.82-0.68-1V3.22h5c2.38,0,4.16.56,4.16,3.44s-1.78,3.8-4.67,3.8h-1.2v3.4c0,0.65.09,0.82,0.68,1V15.2H61.51ZM66,9.71c1.59,0,2-1.28,2-3.15C67.94,5,67.4,4,65.79,4H65.52c-0.51,0-.75.09-0.75,0.65V9.71H66ZM75.81,4C75.06,4,75,4.16,75,4.68V7.52h0.67c3.28,0,5.61.38,5.61,3.68s-1.81,4-4.74,4H71.71V14.82c0.6-.14.68-0.31,0.68-1V4.56c0-.65-0.09-0.82-0.68-1V3.22h8.91c0,0.87,0,1.73,0,2.6H80l-0.15-.5C79.44,4.1,79,4,77.46,4H75.81Zm0.56,10.47c1.56,0,2.17-1,2.17-3.13s-0.53-3-2.55-3H75V13.4a0.86,0.86,0,0,0,1.06,1h0.36ZM90,15.2a21.81,21.81,0,0,0-.8-2.81l-0.51-1.52h-3.8c-0.39,1.2-.68,2.17-0.84,2.86s-0.24,1.2-.26,1.47H81.58a25.86,25.86,0,0,0,1.66-3.52l2.21-5.44A5.31,5.31,0,0,0,86,4.3a0.69,0.69,0,0,0-.68-0.7V3.22h3.42A7.3,7.3,0,0,0,89.21,5l2.51,7.17a21.45,21.45,0,0,0,1.28,3H90Zm-1.57-5.13L86.78,5.24l-1.66,4.82h3.27ZM101.8,9H97.18v4.84c0,0.65.09,0.82,0.68,1V15.2H93.93V14.82c0.6-.14.68-0.31,0.68-1V4.56c0-.65-0.09-0.82-0.68-1V3.22h3.93V3.6c-0.6.14-.68,0.31-0.68,1V8.24h4.62V4.56c0-.65-0.09-0.82-0.68-1V3.22H105V3.6c-0.6.14-.68,0.31-0.68,1v9.31c0,0.65.09,0.82,0.68,1V15.2h-3.93V14.82c0.6-.14.68-0.31,0.68-1V9Zm5.83-4.47c0-.65-0.09-0.82-0.68-1V3.22h3.93V3.6c-0.6.14-.68,0.31-0.68,1v9.31c0,0.65.09,0.82,0.68,1V15.2h-3.93V14.82c0.6-.14.68-0.31,0.68-1V4.56ZM114,9.95a51.33,51.33,0,0,0,4.21,5.25h-4a21.67,21.67,0,0,0-2-3.56L110.4,8.92l1.57-2a22.34,22.34,0,0,0,2.48-3.66h2.81v0a21.84,21.84,0,0,0-3.58,3.16l-1.25,1.33Z"
          transform="translate(-0.35 -0.28)" style="fill:#ffffff"/>
    <path d="M131.25,14.28c-3,0-3.61-2.3-3.61-5.4,0-3.25.65-5.14,3.22-5.14,1.63,0,2.17.62,2.44,1.51L133.5,6h0.77c0-.81,0-1.7,0-2.51a10.15,10.15,0,0,0-3.51-.55c-4.26,0-5.93,2.41-5.93,6.38,0,4.14,2.08,6.07,5.69,6.07a7.76,7.76,0,0,0,4.11-1.1l-0.38-.72a6.24,6.24,0,0,1-3,.71"
          transform="translate(-0.35 -0.28)" style="fill:#ffffff"/>
    <path d="M224,9h-4.65v4.88c0,0.66.09,0.83,0.69,1v0.38h-4V14.81c0.6-.14.69-0.31,0.69-1V4.46c0-.66-0.09-0.83-0.69-1V3.12h4V3.5c-0.6.14-.69,0.31-0.69,1V8.17H224V4.46c0-.66-0.09-0.83-0.69-1V3.12h4V3.5c-0.6.14-.69,0.31-0.69,1v9.38c0,0.66.09,0.83,0.69,1v0.38h-4V14.81c0.6-.14.69-0.31,0.69-1V9Z"
          transform="translate(-0.35 -0.28)" style="fill:#ffffff"/>
    <path d="M240.11,3.5V3.12h-4V3.5c0.6,0.14.69,0.31,0.69,1V6.1L232,10.55V4.46c0-.66.09-0.83,0.69-1V3.12h-4V3.5c0.6,0.14.69,0.31,0.69,1v9.38c0,0.66-.09.83-0.69,1v0.38h4V14.81c-0.6-.14-0.69-0.31-0.69-1V11.78l4.86-4.47v6.53c0,0.66-.09.83-0.69,1v0.38h4V14.81c-0.6-.14-0.69-0.31-0.69-1V4.46c0-.66.09-0.83,0.69-1"
          transform="translate(-0.35 -0.28)" style="fill:#ffffff"/>
    <path d="M199.75,8.58a2.61,2.61,0,0,0,2.44-2.66c0-2.47-2.09-2.74-4.48-2.74h-4.63V3.55c0.6,0.14.69,0.31,0.69,1v9.33c0,0.65-.09.82-0.69,1v0.38h4.55c3,0,5-.67,5-3.62a2.91,2.91,0,0,0-2.87-3m-3.41-3.95c0-.52.1-0.7,0.74-0.7h0.5c1.32,0,2,.58,2,2.2s-0.72,2.11-2.11,2.11h-1.13V4.63Zm1.48,9.8h-0.46c-0.86,0-1-.22-1-1V9h1.06c1.9,0,2.57.89,2.57,2.69s-0.77,2.74-2.16,2.74"
          transform="translate(-0.35 -0.28)" style="fill:#ffffff"/>
    <path d="M165.13,5a7.34,7.34,0,0,1-.45-1.78h-3.43V3.55a0.69,0.69,0,0,1,.69.7,5.36,5.36,0,0,1-.58,1.94l-2.21,5.46a26.15,26.15,0,0,1-1.66,3.53h2.18c0-.27.12-0.79,0.26-1.47s0.45-1.66.84-2.87h3.81l0.52,1.53a22,22,0,0,1,.81,2.81h3.05a21.5,21.5,0,0,1-1.29-3ZM161,10l1.66-4.84L164.3,10H161Z"
          transform="translate(-0.35 -0.28)" style="fill:#ffffff"/>
    <path d="M210.84,5a7.36,7.36,0,0,1-.45-1.78H207V3.55a0.69,0.69,0,0,1,.69.7,5.36,5.36,0,0,1-.58,1.94l-2.21,5.46a26.11,26.11,0,0,1-1.66,3.53h2.18c0-.27.12-0.79,0.26-1.47s0.45-1.66.84-2.87h3.81l0.52,1.53a22,22,0,0,1,.81,2.81h3.05a21.5,21.5,0,0,1-1.29-3ZM206.74,10L208.4,5.2,210,10h-3.28Z"
          transform="translate(-0.35 -0.28)" style="fill:#ffffff"/>
    <path d="M153.33,3.15h-5V3.53c0.6,0.14.69,0.31,0.69,1v9.36c0,0.65-.09.83-0.69,1v0.38h4V14.81c-0.6-.14-0.69-0.31-0.69-1V10.42h1.2c2.91,0,4.7-.88,4.7-3.82s-1.79-3.46-4.18-3.46m-0.5,6.52h-1.22V4.56c0-.57.24-0.65,0.76-0.65h0.28c1.62,0,2.17,1,2.17,2.6,0,1.87-.38,3.16-2,3.16"
          transform="translate(-0.35 -0.28)" style="fill:#ffffff"/>
    <path d="M146.87,3.15H135.71c0,0.88,0,1.74,0,2.61h0.65l0.15-.5c0.38-1.24.81-1.36,2.37-1.36h0.27c0.63,0,.8.13,0.84,0.48v9.46c0,0.65-.09.83-0.69,1v0.38h4V14.81c-0.6-.14-0.69-0.31-0.69-1V4.52c0-.45.15-0.61,0.85-0.61h0.26c1.57,0,2,.12,2.37,1.36l0.15,0.5h0.65c0-.88,0-1.74,0-2.61"
          transform="translate(-0.35 -0.28)" style="fill:#ffffff"/>
    <path d="M249.43,12.39l-0.1.45c-0.34,1.49-.75,1.6-2.32,1.6h-0.34c-1.58,0-1.87-.24-1.87-1V9h1.6a4.74,4.74,0,0,1,2.13.36V7.84a4.74,4.74,0,0,1-2.13.36h-1.6V4.48c0-.41.09-0.55,0.6-0.55h1.34c1.56,0,2,.12,2.37,1.36l0.15,0.5h0.65c0-.88,0-1.73,0-2.61h-8.37V3.55c0.6,0.14.69,0.31,0.69,1v9.33c0,0.65-.09.82-0.69,1v0.38h8.65c0-.93,0-1.87,0-2.8h-0.75Z"
          transform="translate(-0.35 -0.28)" style="fill:#ffffff"/>
    <path d="M180.45,15.19C178.74,13.57,176,8.75,176,8.75s2.9-4.9,4-5.56v0h-2.81a17.6,17.6,0,0,1-1.78,4.61,30.77,30.77,0,0,1-2-4.61h-4c1.71,1.62,4.29,6.22,4.29,6.22s-2.64,4.4-4.31,5.77v0h2.81a19.82,19.82,0,0,1,2.1-4.61c0.29,0.59,1,2,2.11,4.61h4Z"
          transform="translate(-0.35 -0.28)" style="fill:#ffffff"/>
    <path d="M186.34,2.95c-4.4,0-5.7,2.23-5.7,6.2,0,4.31,1.72,6.24,5.46,6.24,4.4,0,5.7-2.23,5.7-6.2,0-4.31-1.72-6.24-5.46-6.24M189,9.46c0,3.25-.4,5.12-2.8,5.12s-2.78-2.61-2.75-5.7c0-3.25.4-5.12,2.8-5.12S189,6.37,189,9.46"
          transform="translate(-0.35 -0.28)" style="fill:#ffffff"/>
    <path d="M23.44,10.93a11.55,11.55,0,0,1-23.09,0c0-.26,0-0.52,0-0.77l7,4L22.17,5.66a11.5,11.5,0,0,1,1.27,5.27m-16.08.34L0.86,7.53A11.36,11.36,0,0,0,.54,8.8l6.82,3.92L21.54,4.58a12.05,12.05,0,0,0-.76-1ZM19.9,2.61a11.67,11.67,0,0,0-1-.87L7.36,8.37,1.86,5.2A11.49,11.49,0,0,0,1.3,6.33L7.36,9.82ZM7.36,6.92L17.72,1A11.54,11.54,0,0,0,16.37.28l-9,5.18-4-2.31a11.75,11.75,0,0,0-.8,1Z"
          transform="translate(-0.35 -0.28)" style="fill:#ffffff"/>
</svg>