<?xml version="1.0" encoding="utf-8"?>
<!-- Generator: Adobe Illustrator 21.0.0, SVG Export Plug-In . SVG Version: 6.00 Build 0)  -->
<svg version="1.1" id="Слой_1" xmlns="http://www.w3.org/2000/svg" xmlns:xlink="http://www.w3.org/1999/xlink" x="0px" y="0px"
	 viewBox="0 0 100 25" style="enable-background:new 0 0 100 25;" xml:space="preserve">
<style type="text/css">
	.st0{fill:none;stroke:#000000;stroke-linecap:round;stroke-linejoin:round;stroke-miterlimit:10;}
	.st1{fill:none;stroke:#009942;stroke-linecap:round;stroke-linejoin:round;stroke-miterlimit:10;}
</style>
<g>
	<path class="st0" d="M53.1,0.7c0,0-1,0-0.5,0.9l1.7,2.9c0,0,0.5,0.9,0.2,1.8l-3.9,12.1c0,0-0.3,1,0.4,1.7l3.8,3.9
		c0,0,0.7,0.7,1.4,0l4.3-4c0,0,0.7-0.7,0.4-1.6L57,6.5c0,0-0.3-0.9,0.2-1.8l1.7-3.1c0,0,0.5-0.9-0.5-0.9C58.4,0.7,53.1,0.7,53.1,0.7
		z"/>
	<line class="st0" x1="54.7" y1="5.5" x2="56.7" y2="5.5"/>
</g>
<g>
	<path class="st1" d="M3.3,0.7c0,0-1,0-0.5,0.9l1.6,2.9c0,0,0.5,0.9,0.2,1.8L0.8,18.4c0,0-0.3,1,0.4,1.7L5,24c0,0,0.7,0.7,1.4,0
		l4.3-4c0,0,0.7-0.7,0.4-1.6L7.2,6.5c0,0-0.3-0.9,0.2-1.8l1.7-3.1c0,0,0.5-0.9-0.5-0.9C8.6,0.7,3.3,0.7,3.3,0.7z"/>
	<line class="st1" x1="5" y1="5.5" x2="6.8" y2="5.5"/>
</g>
</svg>
