<?xml version="1.0" encoding="utf-8"?>
<!-- Generator: Adobe Illustrator 21.0.0, SVG Export Plug-In . SVG Version: 6.00 Build 0)  -->
<svg version="1.1" id="Слой_1" xmlns="http://www.w3.org/2000/svg" xmlns:xlink="http://www.w3.org/1999/xlink" x="0px" y="0px"
	 viewBox="0 0 99.4 20" style="enable-background:new 0 0 99.4 20;" xml:space="preserve">
<style type="text/css">
	.st0{fill:none;stroke:#000000;stroke-linecap:round;stroke-linejoin:round;stroke-miterlimit:10;}
	.st1{fill:none;stroke:#009942;}
</style>
<path class="st0" d="M69,6.6h-4.8c-0.3,0-0.6-0.3-0.6-0.6V1.1c0-0.3-0.3-0.6-0.6-0.6h-5.8c-0.3,0-0.6,0.3-0.6,0.6v4.7
	c0,0.3-0.3,0.6-0.6,0.6h-4.7c-0.3,0-0.6,0.3-0.6,0.6v5.8c0,0.3,0.3,0.6,0.6,0.6H56c0.3,0,0.6,0.3,0.6,0.6v4.7c0,0.3,0.3,0.6,0.6,0.6
	H63c0.3,0,0.6-0.3,0.6-0.6V14c0-0.3,0.3-0.6,0.6-0.6H69c0.3,0,0.6-0.3,0.6-0.6V7.1C69.6,6.8,69.3,6.6,69,6.6z"/>
<path class="st1" d="M19,6.6h-4.8c-0.3,0-0.6-0.3-0.6-0.6V1.1c0-0.3-0.3-0.6-0.6-0.6H7.1c-0.3,0-0.6,0.3-0.6,0.6v4.7
	c0,0.3-0.3,0.6-0.6,0.6H1.1C0.8,6.4,0.5,6.7,0.5,7v5.8c0,0.3,0.3,0.6,0.6,0.6H6c0.3,0,0.6,0.3,0.6,0.6v4.7c0,0.3,0.3,0.6,0.6,0.6H13
	c0.3,0,0.6-0.3,0.6-0.6V14c0-0.3,0.3-0.6,0.6-0.6H19c0.3,0,0.6-0.3,0.6-0.6V7.1C19.6,6.8,19.3,6.6,19,6.6z"/>
</svg>
