<?xml version="1.0" encoding="utf-8"?>
<!-- Generator: Adobe Illustrator 21.0.0, SVG Export Plug-In . SVG Version: 6.00 Build 0)  -->
<svg version="1.1" id="Слой_1" xmlns="http://www.w3.org/2000/svg" xmlns:xlink="http://www.w3.org/1999/xlink" x="0px" y="0px"
	 viewBox="0 0 100 20" style="enable-background:new 0 0 100 20;" xml:space="preserve">
<style type="text/css">
	.st0{fill:none;stroke:#000000;stroke-linecap:round;stroke-linejoin:round;stroke-miterlimit:10;}
	.st1{fill:none;stroke:#009942;stroke-linecap:round;stroke-linejoin:round;stroke-miterlimit:10;}
</style>
<g>
	<path class="st0" d="M53.9,9.5c0,0,6.8,0,6.9,0c2.4-0.1,4.3-2,4.3-4.5c0-2.4-1.8-4.3-4.2-4.5c-0.1,0-7.4,0-7.4,0v17.2"/>
	<line class="st0" x1="50.7" y1="13.4" x2="61.2" y2="13.4"/>
</g>
<g>
	<path class="st1" d="M3.7,9.5c0.1,0,6.8,0,6.9,0c2.4-0.1,4.3-2,4.3-4.5c0-2.4-1.8-4.3-4.2-4.5c-0.1,0-7.4,0-7.4,0v17.2"/>
	<line class="st1" x1="0.5" y1="13.4" x2="11" y2="13.4"/>
</g>
</svg>
