<?xml version="1.0" encoding="utf-8"?>
<!-- Generator: Adobe Illustrator 21.0.0, SVG Export Plug-In . SVG Version: 6.00 Build 0)  -->
<svg version="1.1" id="Слой_1" xmlns="http://www.w3.org/2000/svg" xmlns:xlink="http://www.w3.org/1999/xlink" x="0px" y="0px"
	 viewBox="0 0 100 20" style="enable-background:new 0 0 100 20;" xml:space="preserve">
<style type="text/css">
	.st0{fill:none;stroke:#000000;stroke-linecap:round;stroke-linejoin:round;stroke-miterlimit:10;}
	.st1{fill:none;stroke:#29A559;stroke-linecap:round;stroke-linejoin:round;stroke-miterlimit:10;}
</style>
<path class="st0" d="M66.1,14.7h2.5c0.2,0,0.3-0.1,0.3-0.3v-4c0-0.2-0.1-0.3-0.3-0.3h-2.5c-0.2,0-0.3,0.1-0.3,0.3v4
	C65.8,14.5,65.9,14.7,66.1,14.7z M56.9,18.3V9.1c0-0.2,0.1-0.4,0.3-0.4h4.7c0.2,0,0.3,0.2,0.3,0.4v9 M52.9,10.3V18
	c0,0.3,0.2,0.5,0.5,0.5H71c0.3,0,0.5-0.2,0.5-0.5v-7.6 M73.8,10L62.9,0.7c-0.4-0.2-0.9-0.2-1.3,0L50.3,10"/>
<path class="st1" d="M16.5,14.7H19c0.2,0,0.3-0.1,0.3-0.3v-4c0-0.2-0.1-0.3-0.3-0.3h-2.5c-0.2,0-0.3,0.1-0.3,0.3v4
	C16.1,14.5,16.3,14.7,16.5,14.7z M7.3,18.3V9.1c0-0.2,0.1-0.4,0.3-0.4h4.7c0.2,0,0.3,0.2,0.3,0.4v9 M3.3,10.3V18
	c0,0.3,0.2,0.5,0.5,0.5h17.6c0.3,0,0.5-0.2,0.5-0.5v-7.6 M24.2,10L13.3,0.7c-0.4-0.2-0.9-0.2-1.3,0L0.7,10"/>
</svg>
