<?xml version="1.0" encoding="utf-8"?>
<!-- Generator: Adobe Illustrator 21.0.0, SVG Export Plug-In . SVG Version: 6.00 Build 0)  -->
<svg version="1.1" id="Слой_1" xmlns="http://www.w3.org/2000/svg" xmlns:xlink="http://www.w3.org/1999/xlink" x="0px" y="0px"
	 viewBox="0 0 100 20" style="enable-background:new 0 0 100 20;" xml:space="preserve">
<style type="text/css">
	.st0{fill:none;stroke:#000000;stroke-linecap:round;stroke-linejoin:round;stroke-miterlimit:10;}
	.st1{fill:none;stroke:#009942;stroke-linecap:round;stroke-linejoin:round;stroke-miterlimit:10;}
</style>
<g>
	<path class="st0" d="M64,15.8c0,0,0.3-1.4,0-2.6c-0.1-0.6-1.7-1.2-3.3-1.5c-1.4-0.3-1.5-2.5-0.9-3.4c0.6-1,1.3-2.2,1.3-3.6
		c0-2.6-1.7-4.2-3.7-4.2c-2.1,0-3.7,1.5-3.7,4.2c0,1.5,0.8,2.6,1.4,3.7c0.6,1,0.9,3.2-1,3.7c-0.7,0.2-3,0.7-3.2,1.2
		c-0.3,0.9,0.3,2.7,0.3,2.7"/>
	<path class="st0" d="M72.4,15.3c0,0,0.2-1.2,0-2.2c-0.1-0.5-1.4-1-2.7-1.3c-1.2-0.3-1.2-2.1-0.8-2.9C69.4,8,70,7,70,5.8
		c0-2.2-1.4-3.5-3.1-3.5c-1.7,0-3.1,1.3-3.1,3.5c0,1.3,0.6,2.2,1.1,3.1s0.8,2.8-1.8,3.4"/>
</g>
<g>
	<path class="st1" d="M13.7,15.8c0,0,0.3-1.4,0-2.6c-0.1-0.6-1.7-1.2-3.3-1.5C9,11.4,8.9,9.2,9.5,8.3c0.6-1,1.3-2.2,1.3-3.6
		c0-2.6-1.7-4.2-3.7-4.2C5,0.5,3.4,2,3.4,4.7c0,1.5,0.8,2.6,1.4,3.7c0.6,1,0.9,3.2-1,3.7c-0.7,0.2-3,0.7-3.2,1.2
		C0.3,14.2,0.9,16,0.9,16"/>
	<path class="st1" d="M22.1,15.3c0,0,0.2-1.2,0-2.2c-0.1-0.5-1.4-1-2.7-1.3c-1.2-0.3-1.2-2.1-0.8-2.9C19.1,8,19.7,7,19.7,5.8
		c0-2.2-1.4-3.5-3.1-3.5s-3.1,1.3-3.1,3.5c0,1.3,0.6,2.2,1.1,3.1s0.8,2.8-1.8,3.4"/>
</g>
</svg>
