<?xml version="1.0" encoding="utf-8"?>
<!-- Generator: Adobe Illustrator 21.0.0, SVG Export Plug-In . SVG Version: 6.00 Build 0)  -->
<svg version="1.1" id="Слой_1" xmlns="http://www.w3.org/2000/svg" xmlns:xlink="http://www.w3.org/1999/xlink" x="0px" y="0px"
	 viewBox="0 0 21 20.9" style="enable-background:new 0 0 21 20.9;" xml:space="preserve">
<style type="text/css">
	.st0{fill:none;stroke:#ffffff;stroke-linecap:round;stroke-linejoin:round;stroke-miterlimit:10;}
</style>
<path class="st0" d="M18.9,7.1h-4.6c-0.3,0-0.6-0.3-0.6-0.6V1.9c0-0.3-0.3-0.6-0.6-0.6H7.6C7.3,1.3,7,1.6,7,1.9v4.5
	C7,6.7,6.7,7,6.4,7H1.9C1.6,7,1.3,7.3,1.3,7.6v5.5c0,0.3,0.3,0.6,0.6,0.6h4.6c0.3,0,0.6,0.3,0.6,0.6v4.5c0,0.3,0.3,0.6,0.6,0.6h5.5
	c0.3,0,0.6-0.3,0.6-0.6v-4.5c0-0.3,0.3-0.6,0.6-0.6h4.5c0.3,0,0.6-0.3,0.6-0.6V7.6C19.5,7.3,19.2,7.1,18.9,7.1z"/>
</svg>
