<?xml version="1.0" encoding="utf-8"?>
<!-- Generator: Adobe Illustrator 21.0.0, SVG Export Plug-In . SVG Version: 6.00 Build 0)  -->
<svg version="1.1" id="Слой_1" xmlns="http://www.w3.org/2000/svg" xmlns:xlink="http://www.w3.org/1999/xlink" x="0px" y="0px"
	 viewBox="0 0 12.8 25.8" style="enable-background:new 0 0 12.8 25.8;" xml:space="preserve">
<style type="text/css">
	.st0{fill:none;stroke:#009942;stroke-linecap:round;stroke-linejoin:round;stroke-miterlimit:10;}
</style>
<path class="st0" d="M3.7,1c0,0-1,0-0.5,0.9l1.6,2.9c0,0,0.5,0.9,0.2,1.8L1.2,18.7c0,0-0.3,1,0.4,1.7l3.8,3.9c0,0,0.7,0.7,1.4,0
	l4.3-4c0,0,0.7-0.7,0.4-1.6L7.6,6.8c0,0-0.3-0.9,0.2-1.8l1.7-3.1C9.5,1.9,10,1,9,1H3.7z"/>
<line class="st0" x1="5.4" y1="5.8" x2="7.2" y2="5.8"/>
</svg>
