<?xml version="1.0" encoding="utf-8"?>
<!-- Generator: Adobe Illustrator 21.0.0, SVG Export Plug-In . SVG Version: 6.00 Build 0)  -->
<svg version="1.1" id="Слой_1" xmlns="http://www.w3.org/2000/svg" xmlns:xlink="http://www.w3.org/1999/xlink" x="0px" y="0px"
	 viewBox="0 0 21 20.9" style="enable-background:new 0 0 21 20.9;" xml:space="preserve">
<style type="text/css">
	.st0{fill:none;stroke:#009942;}
</style>
<path class="st0" d="M18.8,7.1h-4.6c-0.3,0-0.6-0.3-0.6-0.6V1.9c0-0.3-0.3-0.6-0.6-0.6H7.5c-0.3,0-0.6,0.3-0.6,0.6v4.5
	C6.9,6.7,6.6,7,6.3,7H1.8C1.5,7,1.2,7.3,1.2,7.6v5.5c0,0.3,0.3,0.6,0.6,0.6h4.6C6.7,13.7,7,14,7,14.3v4.5c0,0.3,0.3,0.6,0.6,0.6h5.5
	c0.3,0,0.6-0.3,0.6-0.6v-4.5c0-0.3,0.3-0.6,0.6-0.6h4.6c0.3,0,0.6-0.3,0.6-0.6V7.6C19.4,7.3,19.2,7.1,18.8,7.1z"/>
</svg>
