<?xml version="1.0" encoding="utf-8"?>
<!-- Generator: Adobe Illustrator 21.0.0, SVG Export Plug-In . SVG Version: 6.00 Build 0)  -->
<svg version="1.1" id="Слой_1" xmlns="http://www.w3.org/2000/svg" xmlns:xlink="http://www.w3.org/1999/xlink" x="0px" y="0px"
	 viewBox="0 0 100 20" style="enable-background:new 0 0 100 20;" xml:space="preserve">
<style type="text/css">
	.st0{fill:none;stroke:#009942;stroke-linecap:round;}
	.st1{fill:none;stroke:#009942;}
	.st2{fill:none;stroke:#000000;stroke-linecap:round;stroke-linejoin:round;stroke-miterlimit:10;}
</style>
<path class="st0" d="M13.1,8.1V1.5c0,0,0-1-1-1H7.8c0,0-1,0-1,1v6.7"/>
<path class="st1" d="M2.5,5.5c0,0-2,0-2,2v10c0,0,0,2,2,2h15c0,0,2,0,2-2v-10c0,0,0-2-2-2H2.5z"/>
<g>
	<path class="st2" d="M52.6,5.5c0,0-2,0-2,2v10c0,0,0,2,2,2h15c0,0,2,0,2-2v-10c0,0,0-2-2-2H52.6z"/>
	<path class="st2" d="M63.2,8.1V1.5c0,0,0-1-1-1h-4.3c0,0-1,0-1,1v6.7"/>
</g>
</svg>
