<?xml version="1.0" encoding="utf-8"?>
<!-- Generator: Adobe Illustrator 21.0.0, SVG Export Plug-In . SVG Version: 6.00 Build 0)  -->
<svg version="1.1" id="Слой_1" xmlns="http://www.w3.org/2000/svg" xmlns:xlink="http://www.w3.org/1999/xlink" x="0px" y="0px"
	 viewBox="0 0 25.4 20" style="enable-background:new 0 0 25.4 20;" xml:space="preserve">
<style type="text/css">
	.st0{fill:none;stroke:#000000;stroke-linecap:round;stroke-linejoin:round;stroke-miterlimit:10;}
</style>
<path class="st0" d="M16.8,15.2h2.5c0.2,0,0.3-0.1,0.3-0.3v-4c0-0.2-0.1-0.3-0.3-0.3h-2.5c-0.2,0-0.3,0.1-0.3,0.3v4
	C16.5,15,16.6,15.2,16.8,15.2z M7.6,18.8V9.6c0-0.2,0.1-0.4,0.3-0.4h4.7c0.2,0,0.3,0.2,0.3,0.4v9 M3.6,10.8v7.7
	c0,0.3,0.2,0.5,0.5,0.5h17.6c0.3,0,0.5-0.2,0.5-0.5v-7.6 M24.5,10.5L13.6,1.2c-0.4-0.2-0.9-0.2-1.3,0L1,10.5"/>
</svg>
