<svg width="24" height="24" viewBox="0 0 24 24" xmlns="http://www.w3.org/2000/svg"><path d="M20 21.5H10a1.5 1.5 0 0 1 0-3h8.5v-13H10a1.5 1.5 0 0 1 0-3h10A1.5 1.5 0 0 1 21.5 4v16a1.5 1.5 0 0 1-1.5 1.5zm-9.234-10.773c.105.062.215.112.305.202.179.179.281.397.348.623.038.112.06.23.068.353.001.022.009.043.009.064 0 .011.004.02.004.031 0 .494-.255.911-.623 1.185L8.96 15.101a1.458 1.458 0 0 1-2.061 0 1.451 1.451 0 0 1-.305-1.601H4a1.5 1.5 0 0 1 0-3h2.617a1.44 1.44 0 0 1 2.348-1.574l1.801 1.801z" fill-rule="evenodd"/></svg>