<svg width="24" height="24" viewBox="0 0 24 24" xmlns="http://www.w3.org/2000/svg"><path d="M12 22C6.486 22 2 17.514 2 12S6.486 2 12 2s10 4.486 10 10-4.486 10-10 10zm0-18.333c-4.595 0-8.333 3.738-8.333 8.333 0 4.595 3.738 8.334 8.333 8.334 4.595 0 8.333-3.739 8.333-8.334S16.595 3.667 12 3.667zm1.991 8.62c-1.208.977-1.163 2.06-1.16 2.105a.84.84 0 0 1-.833.887.826.826 0 0 1-.828-.752c-.007-.08-.152-1.978 1.772-3.536.535-.433.725-.812.725-1.449 0-.968-.748-1.756-1.667-1.756-.95 0-1.667.716-1.667 1.667a.833.833 0 0 1-1.666 0A3.298 3.298 0 0 1 12 6.12c1.838 0 3.333 1.535 3.333 3.422 0 1.146-.414 1.993-1.342 2.745zm-1.854 3.868c.454.078.762.486.684.939l-.008.048a.834.834 0 1 1-1.642-.284c.078-.453.51-.782.966-.703z" fill-rule="evenodd"/></svg>