<svg width="24" height="24" viewBox="0 0 24 24" xmlns="http://www.w3.org/2000/svg"><path d="M21.863 21.609a.828.828 0 0 1-.696.391H2.833a.825.825 0 0 1-.695-.391.9.9 0 0 1-.07-.821l2.5-6.087a.833.833 0 0 1 .765-.527H7c.46 0 .834.389.834.87 0 .48-.374.869-.834.869H5.883l-1.785 4.348h15.805l-1.786-4.348H17c-.46 0-.833-.389-.833-.869 0-.481.373-.87.833-.87h1.667c.333 0 .635.207.766.527l2.5 6.087a.902.902 0 0 1-.07.821zm-9.33-4.158a.812.812 0 0 1-1.066 0c-.217-.188-5.3-4.66-5.3-9.494C6.166 4.672 8.783 2 12 2s5.833 2.672 5.833 5.957c0 4.834-5.084 9.306-5.3 9.494zM12 3.739c-2.298 0-4.166 1.892-4.166 4.218 0 3.19 2.935 6.432 4.166 7.653 1.231-1.221 4.167-4.463 4.167-7.653 0-2.326-1.87-4.218-4.167-4.218zm-1.667 4.348c0-.959.748-1.739 1.667-1.739s1.667.78 1.667 1.739c0 .959-.748 1.739-1.667 1.739s-1.667-.78-1.667-1.739z" fill-rule="evenodd"/></svg>