<svg width="24" height="24" viewBox="0 0 24 24" xmlns="http://www.w3.org/2000/svg"><path d="M16.999 17.727a.825.825 0 0 1-.833-.818c0-.452.373-.818.833-.818 2.303 0 3.334-.411 3.334-.818v-1.245c-1.17.425-2.644.426-3.334.426a.825.825 0 0 1-.833-.818c0-.452.373-.818.833-.818 2.303 0 3.334-.411 3.334-.818v-1.245c-1.17.426-2.644.427-3.334.427a.825.825 0 0 1-.833-.818c0-.452.373-.818.833-.818 2.303 0 3.334-.411 3.334-.819V7.179c-1.825.696-4.552.73-5.001.73-.447 0-3.175-.034-5-.73v.747a.825.825 0 0 1-.833.818.825.825 0 0 1-.833-.818V5.454C8.666 3.069 14.651 3 15.332 3 16.015 3 22 3.069 22 5.454v9.819c0 2.454-3.764 2.454-5.001 2.454zM15.332 4.636c-2.614 0-4.296.478-4.857.818.561.341 2.243.819 4.857.819 2.615 0 4.297-.478 4.859-.819-.561-.339-2.243-.818-4.859-.818zM15.334 12v6.546c0 2.385-5.985 2.454-6.667 2.454C7.985 21 2 20.931 2 18.546V12c0-2.386 5.985-2.454 6.667-2.454.682 0 6.667.068 6.667 2.454zM3.667 18.441c.35.335 2.103.923 5 .923 2.898 0 4.65-.588 5-.924v-1.443c-1.824.696-4.552.73-5 .73-.448 0-3.176-.034-5-.73v1.444zm0-3.275c.344.335 2.095.925 5 .925 2.904 0 4.655-.59 5-.925v-1.441c-1.824.695-4.552.729-5 .729-.448 0-3.176-.034-5-.729v1.441zm5-2.348c2.614 0 4.297-.478 4.858-.818-.561-.34-2.244-.818-4.858-.818-2.615 0-4.297.478-4.858.818.561.34 2.243.818 4.858.818z" fill-rule="evenodd"/></svg>