<svg width="24" height="24" viewBox="0 0 24 24" xmlns="http://www.w3.org/2000/svg"><path d="M19.074 19.072A9.94 9.94 0 0 1 12 22a9.942 9.942 0 0 1-7.075-2.929c-3.9-3.899-3.9-10.243 0-14.142A9.942 9.942 0 0 1 12 2a9.937 9.937 0 0 1 7.074 2.929A9.932 9.932 0 0 1 22.005 12a9.934 9.934 0 0 1-2.931 7.072zM17.895 6.108A8.279 8.279 0 0 0 12 3.667a8.286 8.286 0 0 0-5.896 2.44c-3.25 3.249-3.25 8.537 0 11.786A8.286 8.286 0 0 0 12 20.333a8.282 8.282 0 0 0 5.895-2.44A8.278 8.278 0 0 0 20.338 12a8.275 8.275 0 0 0-2.443-5.892zm-4.227 11.725h-3.335a.834.834 0 1 1 0-1.667h.834v-3.333h-.834a.834.834 0 1 1 0-1.667h1.668c.46 0 .833.374.833.834v4.166h.834a.834.834 0 0 1 0 1.667zM12.001 9.5a1.67 1.67 0 0 1-1.668-1.668 1.668 1.668 0 0 1 3.335 0A1.67 1.67 0 0 1 12.001 9.5z" fill-rule="evenodd"/></svg>