<?xml version="1.0" encoding="UTF-8" standalone="no"?>
<svg width="24px" height="24px" viewBox="0 0 24 24" version="1.1" xmlns="http://www.w3.org/2000/svg" xmlns:xlink="http://www.w3.org/1999/xlink">
    <!-- Generator: Sketch 3.7.2 (28276) - http://www.bohemiancoding.com/sketch -->
    <title>ic_milestone_answers_24px</title>
    <desc>Created with Sketch.</desc>
    <defs></defs>
    <g id="Symbols" stroke="none" stroke-width="1" fill="none" fill-rule="evenodd">
        <g id="ic_milestone_answers_24px" fill="#000000">
            <path d="M12,18.545 L10.804,18.545 C9.174,20.873 5.519,20.995 5.355,21 L5.333,21 C5.018,21 4.729,20.825 4.588,20.546 C4.443,20.262 4.481,19.92 4.682,19.671 C4.695,19.655 5.879,18.176 6.114,16.628 C4.038,15.608 2,13.452 2,10.741 C2,6.473 6.486,3 12,3 C17.514,3 22,6.473 22,10.741 C22,15.044 17.514,18.545 12,18.545 L12,18.545 Z M12,4.637 C7.405,4.637 3.667,7.375 3.667,10.741 C3.667,12.838 5.492,14.65 7.296,15.357 C7.612,15.48 7.82,15.782 7.82,16.116 C7.82,17.202 7.426,18.264 7.003,19.091 C7.966,18.832 9.08,18.328 9.593,17.352 C9.736,17.08 10.022,16.909 10.333,16.909 L12,16.909 C16.595,16.909 20.333,14.142 20.333,10.741 C20.333,7.375 16.595,4.637 12,4.637 L12,4.637 Z M12.833,11.85 L12.833,12 C12.833,12.092 12.812,12.177 12.78,12.257 C12.739,12.377 12.68,12.489 12.592,12.581 C12.499,12.667 12.383,12.726 12.262,12.766 C12.18,12.797 12.094,12.818 12,12.818 C11.907,12.818 11.82,12.797 11.739,12.766 C11.669,12.743 11.607,12.707 11.545,12.668 L11.545,12.668 C11.499,12.638 11.448,12.617 11.408,12.581 C11.32,12.489 11.261,12.376 11.22,12.256 C11.188,12.176 11.167,12.092 11.167,12 L11.167,11.182 C11.167,10.73 11.54,10.364 12,10.364 C12.459,10.364 12.833,9.997 12.833,9.545 C12.833,9.095 12.459,8.727 12,8.727 C11.541,8.727 11.167,9.095 11.167,9.545 C11.167,9.997 10.793,10.364 10.333,10.364 C9.873,10.364 9.5,9.997 9.5,9.545 C9.5,8.192 10.621,7.091 12,7.091 C13.379,7.091 14.5,8.192 14.5,9.545 C14.5,10.611 13.801,11.511 12.833,11.85 L12.833,11.85 Z M12.592,13.874 C12.741,14.029 12.833,14.242 12.833,14.454 C12.833,14.667 12.741,14.88 12.592,15.035 C12.433,15.183 12.217,15.273 12,15.273 C11.783,15.273 11.567,15.183 11.408,15.035 C11.258,14.88 11.167,14.667 11.167,14.454 C11.167,14.242 11.258,14.029 11.408,13.874 C11.725,13.571 12.283,13.571 12.592,13.874 L12.592,13.874 Z" id="Shape"></path>
        </g>
    </g>
</svg>