<svg width="24" height="24" viewBox="0 0 24 24" xmlns="http://www.w3.org/2000/svg"><path d="M12 22c-4.963 0-9-4.013-9-8.946 0-3.891 2.532-7.313 6.301-8.516a.814.814 0 0 1 1.025.546.837.837 0 0 1-.536 1.045c-3.035.968-5.154 3.816-5.154 6.925 0 4.014 3.303 7.279 7.364 7.279s7.364-3.265 7.364-7.279c0-3.109-2.119-5.957-5.154-6.925a.837.837 0 0 1-.536-1.045.813.813 0 0 1 1.025-.546C18.468 5.741 21 9.163 21 13.054 21 17.987 16.963 22 12 22zm0-10a.826.826 0 0 1-.818-.834V2.834c0-.461.366-.834.818-.834.452 0 .818.373.818.834v8.332A.826.826 0 0 1 12 12z" fill-rule="evenodd"/></svg>