<svg width="48" height="48" viewBox="0 0 48 48" xmlns="http://www.w3.org/2000/svg"><path d="M34.342 19.096c-.015.017-.02.04-.038.057l-3.315 3.21v11.628c0 .38-.215.73-.555.899l-2.009 1.004a.987.987 0 0 1-.874.007 1.006 1.006 0 0 1-.544-.689l-1.642-7.463-3.357 2.706v3.536c0 .38-.214.73-.554.899l-2.01 1.004a.986.986 0 0 1-.862.012.999.999 0 0 1-.55-.668l-.815-3.284-3.433-.763a1.007 1.007 0 0 1-.445-1.734l1.994-1.771a.996.996 0 0 1 .66-.251H18.5l2.732-3.518-7.462-1.768a.998.998 0 0 1-.686-.574 1.01 1.01 0 0 1 .046-.899l.998-1.77c.177-.316.47-.894.828-.894h12.029l2.795-3.143C31.318 13.32 32.703 13 33.598 13h.004c.726 0 1.373.215 1.73.575.305.306.667 1.009.668 1.973.001.848-.29 2.149-1.658 3.548zm-.422-4.05c-.315-.074-1.332-.163-2.709 1.222l-3.515 3.822c-.189.2-.437-.075-.711-.075H15.959l-.436.486 7.684 1.82a1.007 1.007 0 0 1 .558 1.596l-3.991 5.14a.995.995 0 0 1-.787.387H16.37l-.239.212 1.61.357c.007-.002.012-.008.019-.009a.997.997 0 0 1 1.21.73l.697 2.806.344-.172v-3.395c0-.304.138-.592.374-.783l4.983-4.018a.994.994 0 0 1 1.598.567l1.713 7.786.313-.157v-11.43c0-.271.11-.532.303-.72l3.57-3.462c.01-.011.014-.025.024-.035 1.353-1.363 1.149-2.358 1.03-2.675z" fill-rule="evenodd"/></svg>
