<svg width="48" height="48" viewBox="0 0 48 48" xmlns="http://www.w3.org/2000/svg"><path d="M35.641 18.268l-3 2.5c-.048.039-.103.059-.155.088-.042.024-.078.053-.124.071a.986.986 0 0 1-.361.073H25v1h5.99c.553 0 1.01.457 1.01 1.01v4.98c0 .552-.457 1.01-1.01 1.01H25v6a1 1 0 1 1-2 0v-6h-7.001c-.123 0-.245-.028-.362-.073-.044-.018-.08-.046-.121-.069-.053-.03-.109-.05-.157-.09l-3-2.5a1.002 1.002 0 0 1 0-1.536l3-2.5c.036-.03.08-.04.119-.064.06-.038.117-.076.185-.1.067-.024.134-.032.203-.041.046-.006.086-.027.134-.027h7v-1h-5.99c-.553 0-1.01-.457-1.01-1.01v-4.98c0-.553.457-1.01 1.01-1.01H23v-1a1 1 0 1 1 2 0v1h7c.048 0 .089.021.135.027.068.01.135.017.202.041.068.025.126.063.186.101.038.024.082.033.118.063l3 2.5a1.002 1.002 0 0 1 0 1.536zM16.362 24l-1.8 1.5 1.801 1.5H30v-3H16.362zm15.275-8H18v3h13.638l1.799-1.5-1.8-1.5z" fill-rule="evenodd"/></svg>