<svg width="48" height="48" viewBox="0 0 48 48" xmlns="http://www.w3.org/2000/svg"><path d="M34 36H14c-1.103 0-2-.897-2-2V19c0-1.103.897-2 2-2h5v-1c0-1.654 1.346-3 3-3h4c1.654 0 3 1.346 3 3v1h5c1.102 0 2 .897 2 2v15c0 1.103-.898 2-2 2zm-20-2h19.997l.002-8H27c0 1.654-1.346 3-3 3a2.99 2.99 0 0 1-2.115-.88A2.979 2.979 0 0 1 21 26h-7v8zm9-8a1.011 1.011 0 0 0 1 1 1 1 0 0 0 1-1v-2a1.016 1.016 0 0 0-1-1c-.552 0-1 .449-1 1v2zm4-10c0-.551-.448-1-1-1h-4c-.552 0-1 .449-1 1v1h6v-1zm-13 3v5h7c0-1.654 1.346-3 3-3a2.99 2.99 0 0 1 2.115.88c.572.573.885 1.325.885 2.12h6.999L34 19H14z" fill-rule="evenodd"/></svg>