<svg width="104" height="86" viewBox="0 0 104 86" xmlns="http://www.w3.org/2000/svg"><path d="M71.999 49.672c.001 9.703-3.744 18.825-10.544 25.687-6.799 6.861-15.841 10.64-25.456 10.64C16.148 85.999 0 69.704 0 49.672c0-18.782 14.195-34.28 32.326-36.141V7.414h-7.347V0h22.04v7.414h-7.346v6.119a35.58 35.58 0 0 1 16.622 6.157l6.501-7.961 5.671 4.715-6.566 8.039c6.245 6.536 10.098 15.415 10.098 25.189zm-36-29.202c-15.959 0-28.94 13.1-28.94 29.202 0 16.102 12.984 29.203 28.94 29.203 7.73 0 14.997-3.038 20.464-8.553 5.467-5.516 8.476-12.85 8.476-20.65 0-16.102-12.983-29.202-28.94-29.202zm0 35.873c-3.65 0-6.612-2.986-6.612-6.671a6.682 6.682 0 0 1 2.939-5.546V28.172h7.347v15.952a6.687 6.687 0 0 1 2.938 5.548c.002 3.685-2.96 6.671-6.612 6.671zM104 82V13l-24 .683v7.991h13.756V82z" fill="#D6E03E" fill-rule="evenodd"/></svg>