<?xml version="1.0" encoding="utf-8"?>
<!-- Generator: Adobe Illustrator 19.2.0, SVG Export Plug-In . SVG Version: 6.00 Build 0)  -->
<svg version="1.1" id="Layer_1" xmlns="http://www.w3.org/2000/svg" xmlns:xlink="http://www.w3.org/1999/xlink" x="0px" y="0px"
	 width="34px" height="22px" viewBox="0 0 34 22" style="enable-background:new 0 0 34 22;" xml:space="preserve">
<style type="text/css">
	.st0{fill:#000;}
</style>
<path class="st0" d="M32.8,10.8L19.4,0.4c-0.1-0.1-0.2-0.1-0.3,0c-0.1,0.1-0.2,0.2-0.2,0.3v0.1l7,9.1H0.2c-0.1,0-0.1,0.1-0.2,0.4
	C0,10.5,0,10.8,0,11.1c0,0.3,0,0.6,0.1,0.9s0.1,0.4,0.2,0.4H26l-7.1,9.1c0,0.1,0,0.2,0.1,0.3c0.1,0.1,0.2,0.1,0.3,0.1
	c0.1,0,0.1,0,0.2-0.1l13.3-10.3c0.1-0.1,0.2-0.2,0.2-0.4C33,11,32.9,10.9,32.8,10.8L32.8,10.8z"/>
</svg>
