<svg xmlns="http://www.w3.org/2000/svg" xmlns:xlink="http://www.w3.org/1999/xlink" version="1.1" id="logo" x="0px" y="0px" viewBox="0 0 126.6 48.5" enable-background="new 0 0 126.6 48.5" xml:space="preserve">
<path fill="#FFFFFF" d="M57.9,7.9c0,5.8,6.2,6.6,6.2,10.7c0,1.4-0.6,2-1.6,2c-1,0-1.6-0.5-1.6-2v-1.4h-3v1.2c0,3.2,1.6,5.1,4.7,5.1  s4.7-1.9,4.7-5.1c0-5.8-6.2-6.6-6.2-10.7c0-1.4,0.6-2,1.6-2c1,0,1.6,0.5,1.6,2v0.8h3V7.9c0-3.2-1.6-5.1-4.7-5.1S57.9,4.6,57.9,7.9z"/>
<path fill="#FFFFFF" d="M73.3,14.6h3.6v8.7h3.2V3h-3.2v8.7h-3.6V3h-3.2v20.2h3.2V14.6z"/>
<path fill="#FFFFFF" d="M86.5,7.7c0-1.4,0.6-2,1.6-2c1,0,1.6,0.5,1.6,2v10.9c0,1.4-0.6,2-1.6,2c-1,0-1.6-0.5-1.6-2V7.7z M83.3,18.4  c0,3.2,1.7,5.1,4.8,5.1c3.1,0,4.8-1.9,4.8-5.1V7.9c0-3.2-1.7-5.1-4.8-5.1c-3.1,0-4.8,1.9-4.8,5.1V18.4z"/>
<path fill="#FFFFFF" d="M94.7,5.9H98v22.7h3.2V5.9h3.3V3h-9.8V5.9z"/>
<path fill="#FFFFFF" d="M67.4,29.7l-0.8,2.9h1.3l1.4-3.2v-2.7h-3.1v3.1H67.4z"/>
<path fill="#FFFFFF" d="M83,30.1L82.1,33h1.3l1.4-3.2v-3.1h-3.1v3.5H83z"/>
<path fill="#FFFFFF" d="M77,46.9h3.3V26.6h-2.8v12.1l-3.3-12.1h-4v20.2h2.9V32.2L77,46.9z"/>
<g>
 <path fill="#FFFFFF" d="M92.2,39.6v2.9c0,1.4-0.6,2-1.6,2c-1,0-1.6-0.5-1.6-2V31.5c0-1.4,0.6-2,1.6-2c1,0,1.6,0.5,1.6,2v2.2h3v-2   c0-3.2-1.6-5.1-4.7-5.1c-3.1,0-4.7,1.9-4.7,5.1v10.5c0,3.2,1.6,5.1,4.7,5.1c3.1,0,4.7-1.9,4.7-5.1v-2.7H92.2z"/>
 <path fill="#FFFFFF" d="M98,26.9v15.4c0,3.2,1.6,5.1,4.7,5.1c3.1,0,4.7-1.9,4.7-5.1V26.9h-3v15.6c0,1.4-0.6,2-1.6,2   c-1,0-1.6-0.5-1.6-2V26.9H98z"/>
 <path fill="#FFFFFF" d="M109.9,29.8h3.3v17.4h3.2V29.8h3.3v-2.9h-9.8V29.8z"/>
</g>
<path fill="#FFFFFF" d="M27.3,1.4l26.1,46l-52.1,0L27.3,1.4z"/>
<path fill="#FFFFFF" d="M45.4,17.5l17.1,29.8l-34.1,0L45.4,17.5z"/>
</svg>