<?xml version="1.0" encoding="utf-8"?>
<!-- Generator: Adobe Illustrator 19.2.0, SVG Export Plug-In . SVG Version: 6.00 Build 0)  -->
<svg version="1.1" id="Layer_1" xmlns="http://www.w3.org/2000/svg" xmlns:xlink="http://www.w3.org/1999/xlink" x="0px" y="0px"
	 width="1423.4px" height="1003.6px" viewBox="0 0 1423.4 1003.6" style="enable-background:new 0 0 1423.4 1003.6;"
	 xml:space="preserve">
<style type="text/css">
	.st0{fill:#333333;}
	.st1{fill:none;stroke:#333333;stroke-miterlimit:10;}
	.st2{fill:#0D0D0D;}
	.st3{fill:#FFFFFF;}
</style>
<path class="st0" d="M1246.2,506.5V472h1v34.5H1246.2z M1119.2,837.8h-1V449h-46.5v-1h46.5v-78.5V369h-46.5v-1h46.5v-78.5v-0.5
	h-46.5v-1h46.5v-62h1v62h47v1h-47v0.5V368h47v1h-47v0.5V448h47v1h-47V837.8z M1118.2,38.2H842.8v-1h275.4l0,0h1v134.9h-1V38.2z
	 M730.4,624.9v152.4h-1V624.9v-0.5h-46.5v-1h46.5v-62h1v62h47v1h-47V624.9z M729.4,42.2h1v467.3h-1V42.2z M341.5,172.1h-1V38.2
	h-81.5v-1h81.5l0,0h1l0,0h276.9v1H341.5V172.1z M340.5,226.6h1v40.5h-1V226.6z M341.5,347h-1v-35h1V347z M340.5,392h1v57h47v1h-47
	v56.5h-1V450H294v-1h46.5V392z M603.9,681.4h-1v-35h1V681.4z M857.8,681.4h-1v-35h1V681.4z"/>
<path class="st1" d="M1167.2,552v-45h159.9v45H1167.2z M1166.2,426h159.9v45h-159.9V426z M1166.2,346h159.9v45h-159.9V346z
	 M1166.2,266.1h159.9v45h-159.9V266.1z M912.3,426h159.9v45H912.3V426z M912.3,346h159.9v45H912.3V346z M912.3,266.1h159.9v45H912.3
	V266.1z M937.3,646.4H777.3v-45h159.9V646.4z M523.5,681.4h159.9v45H523.5V681.4z M523.5,601.4h159.9v45H523.5V601.4z M388.5,427
	h159.9v45H388.5V427z M261.6,347h159.9v45H261.6V347z M261.6,267.1h159.9v45H261.6V267.1z M294.5,472H134.6v-45h159.9V472z
	 M421.5,552H261.6v-45h159.9V552z M777.3,681.4h159.9v45H777.3V681.4z M808.8,822.8H648.9v-45h159.9V822.8z"/>
<path class="st2" d="M1008.3,226.1v-55h224.9v55H1008.3z M618.4,507.5h224.9v55H618.4V507.5z M618.4,9.7h224.9v55H618.4V9.7z
	 M226.1,171.6H451v55H226.1V171.6z"/>
<path class="st3" d="M1311.8,447.1c-0.3-0.1-0.6-0.2-0.9-0.3s-0.6-0.1-0.8-0.1c-1.6,0-2.4,1-2.4,3.1c0,1,0.2,1.7,0.6,2.3
	c0.4,0.5,1,0.8,1.8,0.8c0.7,0,1.4-0.1,2.1-0.4v1.1c-0.5,0.3-1.2,0.4-2,0.4c-1.2,0-2.1-0.4-2.7-1.1c-0.6-0.7-1-1.7-1-3s0.3-2.4,1-3.1
	c0.6-0.7,1.6-1.1,2.8-1.1c0.4,0,0.8,0,1.2,0.1c0.4,0.1,0.7,0.2,0.9,0.3L1311.8,447.1z M1304.7,290.7h-2l-2.1,3.2h-1.4l2.3-3.4
	c-0.6-0.1-1.1-0.4-1.4-0.8c-0.3-0.4-0.5-0.9-0.5-1.5c0-0.7,0.2-1.3,0.7-1.7s1.2-0.6,2.1-0.6h3.6v8h-1.2L1304.7,290.7L1304.7,290.7z
	 M1304.7,287h-2.2c-1.2,0-1.8,0.4-1.8,1.3c0,0.9,0.7,1.4,2,1.4h2V287z M1303.7,446.8c0.7,0.7,1,1.8,1,3c0,1.3-0.3,2.3-1,3.1
	c-0.7,0.8-1.6,1.1-2.7,1.1c-0.7,0-1.4-0.2-1.9-0.5s-1-0.8-1.3-1.5c-0.3-0.6-0.5-1.4-0.5-2.2c0-1.3,0.3-2.3,1-3.1
	c0.7-0.7,1.6-1.1,2.7-1.1C1302.2,445.7,1303.1,446.1,1303.7,446.8z M1299.2,447.5c-0.4,0.5-0.6,1.3-0.6,2.3c0,1,0.2,1.8,0.6,2.3
	c0.4,0.5,1,0.8,1.8,0.8c0.8,0,1.4-0.3,1.8-0.8c0.4-0.5,0.6-1.3,0.6-2.3c0-1-0.2-1.8-0.6-2.3c-0.4-0.5-1-0.8-1.8-0.8
	C1300.2,446.7,1299.6,447,1299.2,447.5z M1296.5,289v-1v-1l-4.3,6.8h-1.5v-8h1.1v5.1l-0.1,1.3v0.4l4.3-6.8h1.5v8h-1.1L1296.5,289
	L1296.5,289z M1291.3,366.4c0.5,0.5,0.7,1.2,0.7,2.2v5.2h-1.2v-5.2c0-0.7-0.1-1.1-0.4-1.5c-0.3-0.3-0.8-0.5-1.4-0.5
	c-0.8,0-1.5,0.2-1.8,0.7s-0.6,1.2-0.6,2.2v4.2h-1.2v-8h1l0.2,1.1h0.1c0.2-0.4,0.6-0.7,1-0.9c0.4-0.2,0.9-0.3,1.5-0.3
	C1290.1,365.7,1290.8,365.9,1291.3,366.4z M1287.9,294h-6.6v-8h1.2v7h4.3v-7h1.2v7h1.1v3.8h-1.2V294z M1283.7,366.6l-1.5,0.2
	c0.1,0.2,0.3,0.4,0.4,0.7c0.1,0.3,0.2,0.6,0.2,0.9c0,0.8-0.3,1.4-0.8,1.9s-1.3,0.7-2.2,0.7c-0.2,0-0.5,0-0.7-0.1
	c-0.5,0.3-0.8,0.6-0.8,1c0,0.2,0.1,0.4,0.3,0.5s0.5,0.2,0.9,0.2h1.4c0.9,0,1.5,0.2,2,0.5c0.5,0.4,0.7,0.9,0.7,1.6
	c0,0.9-0.4,1.6-1.1,2c-0.7,0.5-1.8,0.7-3.1,0.7c-1,0-1.9-0.2-2.4-0.6c-0.6-0.4-0.9-0.9-0.9-1.7c0-0.5,0.2-0.9,0.5-1.3
	c0.3-0.4,0.8-0.6,1.3-0.7c-0.2-0.1-0.4-0.2-0.5-0.4c-0.1-0.2-0.2-0.4-0.2-0.7c0-0.3,0.1-0.5,0.2-0.8c0.2-0.2,0.4-0.4,0.7-0.6
	c-0.4-0.2-0.8-0.5-1-0.9c-0.3-0.4-0.4-0.9-0.4-1.4c0-0.9,0.3-1.6,0.8-2c0.5-0.5,1.3-0.7,2.2-0.7c0.4,0,0.8,0,1.1,0.1h2.8
	L1283.7,366.6L1283.7,366.6z M1277.7,374.1c-0.3,0.3-0.5,0.6-0.5,1.1c0,0.4,0.2,0.8,0.5,1c0.4,0.2,0.9,0.3,1.6,0.3
	c1,0,1.8-0.2,2.3-0.5c0.5-0.3,0.7-0.7,0.7-1.2c0-0.4-0.1-0.7-0.4-0.9c-0.3-0.2-0.8-0.3-1.5-0.3h-1.5
	C1278.5,373.7,1278,373.8,1277.7,374.1z M1279.7,366.6c-0.6,0-1,0.2-1.3,0.5s-0.5,0.8-0.5,1.4s0.2,1,0.5,1.3s0.8,0.4,1.3,0.4
	c1.2,0,1.8-0.6,1.8-1.7C1281.5,367.2,1280.9,366.6,1279.7,366.6z M1278.4,294l-3.7-4.1v4.1h-1.2v-8h1.2v3.9l3.5-3.9h1.3l-3.5,3.9
	l3.8,4.2L1278.4,294L1278.4,294z M1274.4,363c0.1,0.1,0.2,0.3,0.2,0.6c0,0.3-0.1,0.5-0.2,0.6c-0.1,0.1-0.3,0.2-0.5,0.2
	c-0.2,0-0.4-0.1-0.5-0.2c-0.1-0.1-0.2-0.3-0.2-0.6c0-0.3,0.1-0.5,0.2-0.6c0.1-0.1,0.3-0.2,0.5-0.2
	C1274.1,362.8,1274.3,362.9,1274.4,363z M1272.6,525.2c-0.4,0.4-1.1,0.5-2,0.5s-1.6-0.2-2-0.5s-0.6-0.9-0.7-1.7h1.1
	c0,0.5,0.2,0.9,0.4,1.1s0.6,0.3,1.2,0.3c0.5,0,0.9-0.1,1.1-0.3c0.2-0.2,0.4-0.6,0.4-1h1.1C1273.3,524.3,1273,524.9,1272.6,525.2z
	 M1266.6,292.3c0.5,0.5,1.1,0.7,1.9,0.7c0.9,0,1.7-0.2,2.6-0.5v1.1c-0.4,0.2-0.8,0.3-1.2,0.4c-0.4,0.1-0.8,0.1-1.4,0.1
	c-1.2,0-2.1-0.4-2.8-1.1c-0.7-0.7-1-1.7-1-3c0-1.3,0.3-2.3,1-3.1c0.7-0.8,1.5-1.1,2.6-1.1c1,0,1.8,0.3,2.4,1
	c0.6,0.7,0.9,1.5,0.9,2.6v0.8h-5.5C1265.9,291.1,1266.1,291.8,1266.6,292.3z M1270.1,289.2c0-0.8-0.2-1.4-0.5-1.8
	c-0.3-0.4-0.8-0.6-1.5-0.6c-0.6,0-1.2,0.2-1.5,0.6c-0.4,0.4-0.6,1-0.7,1.7L1270.1,289.2L1270.1,289.2z M1259.4,372.2
	c0.5,0.5,1.1,0.7,1.9,0.7c0.9,0,1.7-0.2,2.6-0.5v1.1c-0.4,0.2-0.8,0.3-1.2,0.4c-0.4,0.1-0.8,0.1-1.4,0.1c-1.2,0-2.1-0.4-2.8-1.1
	c-0.7-0.7-1-1.7-1-3c0-1.3,0.3-2.3,1-3.1s1.5-1.1,2.6-1.1c1,0,1.8,0.3,2.4,1c0.6,0.7,0.9,1.5,0.9,2.6v0.8h-5.5
	C1258.7,371,1258.9,371.7,1259.4,372.2z M1262.9,369.1c0-0.8-0.2-1.4-0.5-1.8s-0.8-0.6-1.5-0.6c-0.6,0-1.2,0.2-1.5,0.6
	c-0.4,0.4-0.6,1-0.7,1.7L1262.9,369.1L1262.9,369.1z M1259.7,294.1c-0.5,0-1-0.1-1.4-0.3c-0.4-0.2-0.8-0.5-1.1-0.9h-0.1
	c0.1,0.5,0.1,0.9,0.1,1.3v3.3h-1.2v-11.6h1l0.2,1.1h0.1c0.3-0.4,0.7-0.8,1.1-1c0.4-0.2,0.9-0.3,1.4-0.3c1.1,0,1.9,0.4,2.5,1.1
	c0.6,0.7,0.9,1.7,0.9,3.1c0,1.3-0.3,2.3-0.9,3.1C1261.6,293.7,1260.8,294.1,1259.7,294.1z M1261.2,287.6c-0.4-0.5-0.9-0.8-1.7-0.8
	c-0.8,0-1.4,0.2-1.8,0.7c-0.4,0.5-0.6,1.2-0.6,2.2v0.3c0,1.1,0.2,1.9,0.6,2.4c0.4,0.5,1,0.7,1.8,0.7c0.7,0,1.2-0.3,1.6-0.8
	c0.4-0.6,0.6-1.3,0.6-2.3C1261.8,288.9,1261.6,288.2,1261.2,287.6z M1256.7,445.8h1.2v8h-1.2V445.8z M1255.9,533.9
	c-0.6,0.7-1.4,1.1-2.4,1.1c-0.5,0-1-0.1-1.4-0.3c-0.4-0.2-0.8-0.5-1.1-0.9h-0.1c0.1,0.5,0.1,0.9,0.1,1.3v3.3h-1.2v-11.6h1l0.2,1.1
	h0.1c0.3-0.4,0.7-0.8,1.1-1c0.4-0.2,0.9-0.3,1.4-0.3c1.1,0,1.9,0.4,2.5,1.1c0.6,0.7,0.9,1.7,0.9,3.1
	C1256.8,532.2,1256.5,533.2,1255.9,533.9z M1255,528.5c-0.4-0.5-0.9-0.8-1.7-0.8s-1.4,0.2-1.8,0.7c-0.4,0.5-0.6,1.2-0.6,2.2v0.3
	c0,1.1,0.2,1.9,0.6,2.4c0.4,0.5,1,0.7,1.8,0.7c0.7,0,1.2-0.3,1.6-0.8c0.4-0.6,0.6-1.3,0.6-2.3C1255.6,529.8,1255.4,529.1,1255,528.5
	z M1252.2,453.9h-3.3v-8h1.2v3.3h2.2c1,0,1.8,0.2,2.3,0.6c0.5,0.4,0.7,0.9,0.7,1.7c0,0.8-0.3,1.4-0.8,1.8
	C1254,453.7,1253.3,453.9,1252.2,453.9z M1253.7,450.5c-0.3-0.2-0.8-0.3-1.5-0.3h-2v2.6h2.1c1.3,0,1.9-0.5,1.9-1.4
	C1254.1,451,1254,450.7,1253.7,450.5z M1254.1,372.8L1254.1,372.8c-0.6,0.8-1.5,1.2-2.6,1.2c-1,0-1.9-0.4-2.4-1.1
	c-0.6-0.7-0.9-1.7-0.9-3.1c0-1.3,0.3-2.4,0.9-3.1c0.6-0.7,1.4-1.1,2.4-1.1c1.1,0,1.9,0.4,2.5,1.2h0.1l-0.1-0.6v-0.6v-3.3h1.2v11.4
	h-1L1254.1,372.8z M1254,369.9c0-1.1-0.2-1.9-0.6-2.4c-0.4-0.5-1-0.7-1.8-0.7c-0.7,0-1.3,0.3-1.6,0.8c-0.4,0.6-0.6,1.3-0.6,2.3
	c0,1,0.2,1.8,0.6,2.3c0.4,0.5,0.9,0.8,1.7,0.8s1.4-0.2,1.8-0.7c0.4-0.5,0.6-1.2,0.6-2.2L1254,369.9L1254,369.9z M1250.5,294.1
	c-0.5,0-1-0.1-1.4-0.3c-0.4-0.2-0.8-0.5-1.1-0.9h-0.1c0.1,0.5,0.1,0.9,0.1,1.3v3.3h-1.2v-11.6h1l0.2,1.1h0.1c0.3-0.4,0.7-0.8,1.1-1
	c0.4-0.2,0.9-0.3,1.4-0.3c1.1,0,1.9,0.4,2.5,1.1c0.6,0.7,0.9,1.7,0.9,3.1c0,1.3-0.3,2.3-0.9,3.1
	C1252.4,293.7,1251.6,294.1,1250.5,294.1z M1252,287.6c-0.4-0.5-0.9-0.8-1.7-0.8s-1.4,0.2-1.8,0.7c-0.4,0.5-0.6,1.2-0.6,2.2v0.3
	c0,1.1,0.2,1.9,0.6,2.4c0.4,0.5,1,0.7,1.8,0.7c0.7,0,1.2-0.3,1.6-0.8c0.4-0.6,0.6-1.3,0.6-2.3C1252.6,288.9,1252.4,288.2,1252,287.6
	z M1246.4,449c-0.3,0.3-0.7,0.5-1.3,0.5v0.1c0.7,0.1,1.2,0.3,1.5,0.6c0.3,0.3,0.5,0.7,0.5,1.3c0,0.7-0.3,1.3-0.8,1.7
	c-0.5,0.4-1.4,0.6-2.4,0.6h-3.5v-8h3.5c2,0,3,0.7,3,2C1246.9,448.4,1246.7,448.8,1246.4,449z M1241.6,452.8h2.2
	c1.4,0,2.1-0.5,2.1-1.4c0-0.4-0.2-0.8-0.5-0.9c-0.3-0.2-0.9-0.3-1.6-0.3h-2.2V452.8z M1245.3,447.1c-0.3-0.2-0.8-0.2-1.4-0.2h-2.3
	v2.3h2.1c0.8,0,1.3-0.1,1.6-0.3c0.3-0.2,0.5-0.5,0.5-0.9C1245.7,447.6,1245.6,447.3,1245.3,447.1z M1240.9,294.1
	c-0.7,0-1.4-0.2-1.9-0.5c-0.6-0.3-1-0.8-1.3-1.5c-0.3-0.7-0.5-1.4-0.5-2.2c0-1.3,0.3-2.3,1-3.1c0.7-0.7,1.6-1.1,2.7-1.1
	s2,0.4,2.7,1.1c0.7,0.7,1,1.8,1,3c0,1.3-0.3,2.3-1,3.1S1242.1,294.1,1240.9,294.1z M1242.8,287.6c-0.4-0.5-1-0.8-1.8-0.8
	c-0.8,0-1.4,0.3-1.8,0.8c-0.4,0.5-0.6,1.3-0.6,2.3s0.2,1.8,0.6,2.3c0.4,0.5,1,0.8,1.8,0.8c0.8,0,1.4-0.3,1.8-0.8
	c0.4-0.5,0.6-1.3,0.6-2.3S1243.2,288.1,1242.8,287.6z M1240.9,366.9L1240.9,366.9v-0.6v-0.6v-3.3h1.2v11.4h-1l-0.2-1.1h-0.1
	c-0.6,0.8-1.4,1.2-2.5,1.2c-1,0-1.9-0.4-2.4-1.1c-0.6-0.7-0.9-1.7-0.9-3.1c0-1.3,0.3-2.4,0.9-3.1c0.6-0.7,1.4-1.1,2.4-1.1
	C1239.5,365.7,1240.4,366.1,1240.9,366.9z M1236.9,367.5c-0.4,0.6-0.6,1.3-0.6,2.3c0,1,0.2,1.8,0.6,2.3c0.4,0.5,0.9,0.8,1.7,0.8
	s1.4-0.2,1.8-0.7c0.4-0.5,0.6-1.2,0.6-2.2v-0.3c0-1.1-0.2-1.9-0.6-2.4c-0.4-0.5-1-0.7-1.8-0.7C1237.9,366.7,1237.3,367,1236.9,367.5
	z M1234.8,294l-3.7-4.1v4.1h-1.2v-8h1.2v3.9l3.5-3.9h1.3l-3.5,3.9l3.8,4.2L1234.8,294L1234.8,294z M1232.3,366.4
	c0.5,0.5,0.7,1.2,0.7,2.2v5.2h-1.2v-5.2c0-0.7-0.1-1.1-0.4-1.5c-0.3-0.3-0.8-0.5-1.4-0.5c-0.8,0-1.5,0.2-1.8,0.7
	c-0.4,0.5-0.6,1.2-0.6,2.2v4.2h-1.2v-8h1l0.2,1.1h0.1c0.2-0.4,0.6-0.7,1-0.9c0.4-0.2,0.9-0.3,1.5-0.3
	C1231.1,365.7,1231.8,365.9,1232.3,366.4z M1224.1,294.1c-0.7,0-1.4-0.2-1.9-0.5c-0.6-0.3-1-0.8-1.3-1.5c-0.3-0.7-0.5-1.4-0.5-2.2
	c0-1.3,0.3-2.3,1-3.1c0.7-0.7,1.6-1.1,2.7-1.1s2,0.4,2.7,1.1c0.7,0.7,1,1.8,1,3c0,1.3-0.3,2.3-1,3.1S1225.2,294.1,1224.1,294.1z
	 M1225.9,287.6c-0.4-0.5-1-0.8-1.8-0.8s-1.4,0.3-1.8,0.8s-0.6,1.3-0.6,2.3s0.2,1.8,0.6,2.3c0.4,0.5,1,0.8,1.8,0.8s1.4-0.3,1.8-0.8
	c0.4-0.5,0.6-1.3,0.6-2.3C1226.5,288.9,1226.3,288.1,1225.9,287.6z M1222,372.3c0.4-0.5,0.6-1.2,0.6-2.2v-4.2h1.2v8h-1l-0.2-1.1
	h-0.1c-0.2,0.4-0.6,0.7-1,0.9c-0.4,0.2-0.9,0.3-1.5,0.3c-1,0-1.7-0.2-2.2-0.7c-0.5-0.5-0.7-1.2-0.7-2.2v-5.3h1.2v5.2
	c0,0.7,0.1,1.1,0.4,1.5c0.3,0.4,0.8,0.5,1.4,0.5C1221,373,1221.6,372.8,1222,372.3z M1216.7,294h-1.2v-7h-2.6v-1h6.4v1h-2.6
	L1216.7,294L1216.7,294z M1207,292.3c0.5,0.5,1.1,0.7,1.9,0.7c0.9,0,1.7-0.2,2.6-0.5v1.1c-0.4,0.2-0.8,0.3-1.2,0.4
	c-0.4,0.1-0.8,0.1-1.4,0.1c-1.2,0-2.1-0.4-2.8-1.1c-0.7-0.7-1-1.7-1-3c0-1.3,0.3-2.3,1-3.1c0.7-0.8,1.5-1.1,2.6-1.1
	c1,0,1.8,0.3,2.4,1c0.6,0.7,0.9,1.5,0.9,2.6v0.8h-5.5C1206.3,291.1,1206.5,291.8,1207,292.3z M1210.5,289.2c0-0.8-0.2-1.4-0.5-1.8
	c-0.3-0.4-0.8-0.6-1.5-0.6c-0.6,0-1.2,0.2-1.5,0.6c-0.4,0.4-0.6,1-0.7,1.7L1210.5,289.2L1210.5,289.2z M1203.2,290.3
	c0.3,0.3,0.5,0.7,0.5,1.3c0,0.7-0.3,1.3-0.8,1.7c-0.5,0.4-1.4,0.6-2.4,0.6h-3.5v-8h3.5c2,0,3,0.7,3,2c0,0.5-0.2,0.9-0.5,1.2
	c-0.3,0.3-0.7,0.5-1.3,0.5v0.1C1202.4,289.8,1202.9,290,1203.2,290.3z M1201.8,289c0.3-0.2,0.5-0.5,0.5-0.9c0-0.4-0.2-0.7-0.5-0.8
	c-0.3-0.2-0.8-0.2-1.4-0.2h-2.3v2.3h2.1C1201,289.2,1201.5,289.2,1201.8,289z M1200.3,290.3h-2.2v2.6h2.2c1.4,0,2.1-0.5,2.1-1.4
	c0-0.4-0.2-0.8-0.5-0.9C1201.7,290.4,1201.1,290.3,1200.3,290.3z M1194.1,294h-8.1v-10.7h1.2v9.6h5.5v-9.6h1.2v9.6h1.3v3.9h-1.2
	L1194.1,294L1194.1,294z M1185.3,199.3h-4.2v4.6h-2.3v-10.7h2.3v4.2h4.2v-4.2h2.3v10.7h-2.3V199.3z M1162.1,193.2h2.3v8.8h3.3v-8.8
	h2.3v8.8h3.3v-8.8h2.3v10.7h-13.5L1162.1,193.2L1162.1,193.2z M1157.5,204l-3.9-5.4v5.4h-2.3v-10.7h2.3v5.2l3.8-5.2h2.4l-3.9,5.1
	l4.1,5.6L1157.5,204L1157.5,204z M1146.2,201.4h-3.9l-0.8,2.5h-2.4l3.8-10.8h2.8l3.8,10.8h-2.4L1146.2,201.4z M1144.5,195.6
	c-0.1-0.3-0.2-0.5-0.2-0.7c-0.2,0.6-0.6,2.2-1.4,4.6h2.8C1145,197.2,1144.5,195.9,1144.5,195.6z M1136,204h-6.7v3.1h-2.2v-5h0.8
	c0.7-1.4,1.3-2.8,1.7-4.2c0.4-1.4,0.7-2.9,0.9-4.6h6.2v8.8h1.4v5h-2.2L1136,204L1136,204z M1134.5,195.1h-2.2
	c-0.2,1.1-0.4,2.3-0.8,3.6c-0.4,1.2-0.8,2.4-1.2,3.4h4.2V195.1z M1120.5,204.1c-1.6,0-2.9-0.5-3.8-1.4c-0.9-1-1.3-2.3-1.3-4.1
	c0-1.8,0.4-3.1,1.3-4.1c0.9-0.9,2.1-1.4,3.8-1.4c1.6,0,2.9,0.5,3.8,1.4s1.3,2.3,1.3,4.1c0,1.8-0.4,3.1-1.3,4.1
	C1123.4,203.6,1122.1,204.1,1120.5,204.1z M1120.5,195c-0.9,0-1.6,0.3-2,0.9c-0.5,0.6-0.7,1.5-0.7,2.7c0,1.2,0.2,2.1,0.7,2.7
	c0.5,0.6,1.1,0.9,2,0.9c1.8,0,2.7-1.2,2.7-3.6C1123.2,196.2,1122.3,195,1120.5,195z M1109.1,200.1h-1v3.8h-2.3v-10.7h3.4
	c1.3,0,2.3,0.3,3,0.8c0.7,0.6,1,1.4,1,2.5c0,1.2-0.4,2-1.1,2.6C1111.4,199.8,1110.4,200.1,1109.1,200.1z M1110.5,195.5
	c-0.3-0.3-0.7-0.4-1.4-0.4h-1v3.2h0.7c0.7,0,1.2-0.1,1.6-0.4c0.3-0.3,0.5-0.7,0.5-1.2C1110.9,196.1,1110.8,195.7,1110.5,195.5z
	 M1100.2,195.1h-3.9v8.8h-2.3v-10.7h8.5v10.7h-2.3V195.1z M1088.9,204h-2.3v-8.9h-2.9v-1.9h8.1v1.9h-2.9L1088.9,204L1088.9,204z
	 M1080.3,195.2c-0.4-0.1-0.8-0.2-1.2-0.2c-0.9,0-1.5,0.3-2,1c-0.5,0.6-0.7,1.5-0.7,2.7c0,2.4,0.9,3.6,2.7,3.6c0.8,0,1.7-0.2,2.7-0.6
	v1.9c-0.9,0.4-1.9,0.5-2.9,0.5c-1.6,0-2.7-0.5-3.6-1.4c-0.8-0.9-1.2-2.3-1.2-4.1c0-1.1,0.2-2.1,0.6-2.9c0.4-0.8,1-1.5,1.7-1.9
	c0.8-0.4,1.6-0.7,2.7-0.7c1,0,2.1,0.3,3.1,0.8l-0.7,1.8C1081.1,195.5,1080.7,195.3,1080.3,195.2z M1066.7,204.1
	c-1.6,0-2.9-0.5-3.8-1.4c-0.9-1-1.3-2.3-1.3-4.1c0-1.8,0.4-3.1,1.3-4.1c0.9-0.9,2.1-1.4,3.8-1.4c1.6,0,2.9,0.5,3.8,1.4
	c0.9,0.9,1.3,2.3,1.3,4.1c0,1.8-0.4,3.1-1.3,4.1C1069.6,203.6,1068.3,204.1,1066.7,204.1z M1066.7,195c-0.9,0-1.6,0.3-2,0.9
	c-0.5,0.6-0.7,1.5-0.7,2.7c0,1.2,0.2,2.1,0.7,2.7c0.5,0.6,1.1,0.9,2,0.9c1.8,0,2.7-1.2,2.7-3.6C1069.4,196.2,1068.5,195,1066.7,195z
	 M1056.5,195.1h-3.9v8.8h-2.3v-10.7h8.5v10.7h-2.3V195.1z M1020.4,452.7L1020.4,452.7c-0.5,0.5-0.9,0.8-1.3,1
	c-0.4,0.2-0.9,0.3-1.5,0.3c-0.8,0-1.4-0.2-1.9-0.6c-0.5-0.4-0.7-1-0.7-1.8c0-1.6,1.3-2.5,3.9-2.5h1.4v-0.5c0-0.6-0.1-1.1-0.4-1.4
	c-0.3-0.3-0.7-0.5-1.3-0.5c-0.7,0-1.4,0.2-2.3,0.6l-0.4-0.9c0.4-0.2,0.8-0.4,1.3-0.5c0.5-0.1,0.9-0.2,1.4-0.2c1,0,1.7,0.2,2.1,0.6
	c0.5,0.4,0.7,1.1,0.7,2v5.5h-0.9L1020.4,452.7z M1020.4,449.9l-1.2,0.1c-1,0-1.7,0.2-2.1,0.5c-0.4,0.3-0.6,0.7-0.6,1.2
	c0,0.4,0.1,0.8,0.4,1c0.3,0.2,0.6,0.3,1.1,0.3c0.8,0,1.4-0.2,1.8-0.6c0.4-0.4,0.6-1,0.6-1.7V449.9z M1019.8,294l-3.5-4.1v4.1h-1.1
	v-4.1l-3.5,4.1h-1.5l3.6-4.1l-3.3-3.9h1.3l3.3,3.9V286h1.1v3.9l3.3-3.9h1.3l-3.4,3.9l3.6,4.1H1019.8z M1007.8,369.7l3.8,4.2h-1.4
	l-3.7-4.1v4.1h-1.2v-8h1.2v3.9l3.5-3.9h1.3L1007.8,369.7z M1007.9,292.8L1007.9,292.8c-0.5,0.5-0.9,0.8-1.3,1
	c-0.4,0.2-0.9,0.3-1.5,0.3c-0.8,0-1.4-0.2-1.9-0.6c-0.5-0.4-0.7-1-0.7-1.8c0-1.6,1.3-2.5,3.9-2.5h1.4v-0.5c0-0.6-0.1-1.1-0.4-1.4
	c-0.3-0.3-0.7-0.5-1.3-0.5c-0.7,0-1.4,0.2-2.3,0.6l-0.4-0.9c0.4-0.2,0.8-0.4,1.3-0.5c0.5-0.1,0.9-0.2,1.4-0.2c1,0,1.7,0.2,2.1,0.6
	c0.5,0.4,0.7,1.1,0.7,2v5.5h-0.9L1007.9,292.8z M1007.8,290l-1.2,0.1c-1,0-1.7,0.2-2.1,0.5c-0.4,0.3-0.6,0.7-0.6,1.2
	c0,0.4,0.1,0.8,0.4,1c0.3,0.2,0.6,0.3,1.1,0.3c0.8,0,1.4-0.2,1.8-0.6c0.4-0.4,0.6-1,0.6-1.7V290z M999,294h-1.2v-7h-2.6v-1h6.4v1
	H999L999,294L999,294z M999.3,369.7c0.5,0.4,0.7,0.9,0.7,1.7s-0.3,1.4-0.8,1.8c-0.5,0.4-1.3,0.6-2.3,0.6h-3.3v-8h1.2v3.3h2.2
	C998.1,369.1,998.9,369.3,999.3,369.7z M994.9,370.2v2.6h2.1c1.3,0,1.9-0.5,1.9-1.4c0-0.4-0.1-0.8-0.4-1c-0.3-0.2-0.8-0.3-1.5-0.3
	L994.9,370.2L994.9,370.2z M992.4,290.3h-4.5v3.6h-1.2v-8h1.2v3.4h4.5v-3.4h1.2v8h-1.2V290.3z M988.4,366.7c-0.4,0-0.7,0-1,0.1
	c-0.3,0.1-0.7,0.2-1.2,0.4l-0.4-1c0.8-0.4,1.7-0.6,2.7-0.6c0.9,0,1.7,0.2,2.2,0.6c0.5,0.4,0.8,0.9,0.8,1.5c0,0.9-0.5,1.5-1.5,1.8
	v0.1c0.6,0.2,1.1,0.4,1.3,0.8c0.3,0.3,0.4,0.8,0.4,1.3c0,0.7-0.3,1.3-0.9,1.7c-0.6,0.4-1.4,0.6-2.5,0.6c-1.2,0-2.1-0.2-2.7-0.5v-1.1
	c0.9,0.4,1.8,0.6,2.7,0.6c0.7,0,1.2-0.1,1.6-0.4c0.4-0.2,0.5-0.6,0.5-1c0-0.9-0.8-1.4-2.3-1.4H987v-1h0.9c1.5,0,2.3-0.4,2.3-1.3
	C990.2,367.1,989.6,366.7,988.4,366.7z M984.2,452.7L984.2,452.7c-0.5,0.5-0.9,0.8-1.3,1c-0.4,0.2-0.9,0.3-1.5,0.3
	c-0.8,0-1.4-0.2-1.9-0.6c-0.5-0.4-0.7-1-0.7-1.8c0-1.6,1.3-2.5,3.9-2.5h1.4v-0.5c0-0.6-0.1-1.1-0.4-1.4c-0.3-0.3-0.7-0.5-1.3-0.5
	c-0.7,0-1.4,0.2-2.3,0.6l-0.4-0.9c0.4-0.2,0.8-0.4,1.3-0.5c0.5-0.1,0.9-0.2,1.4-0.2c1,0,1.7,0.2,2.1,0.6c0.5,0.4,0.7,1.1,0.7,2v5.5
	h-0.9L984.2,452.7z M984.1,449.9l-1.2,0.1c-1,0-1.7,0.2-2.1,0.5c-0.4,0.3-0.6,0.7-0.6,1.2c0,0.4,0.1,0.8,0.4,1
	c0.3,0.2,0.6,0.3,1.1,0.3c0.8,0,1.4-0.2,1.8-0.6c0.4-0.4,0.6-1,0.6-1.7V449.9z M980.5,376.9c-0.5,0.4-1,0.6-1.7,0.6
	c-0.4,0-0.7,0-1.1-0.1v-1c0.3,0.1,0.6,0.1,0.9,0.1c0.8,0,1.4-0.5,1.8-1.4l0.4-1.1l-3.2-8.1h1.3l1.8,4.6c0.4,1,0.6,1.8,0.7,2.3h0.1
	c0.1-0.2,0.2-0.7,0.4-1.3c0.2-0.6,0.9-2.5,2-5.6h1.3l-3.4,9.1C981.3,375.9,980.9,376.5,980.5,376.9z M980.8,294.1
	c-0.7,0-1.4-0.2-1.9-0.5c-0.6-0.3-1-0.8-1.3-1.5c-0.3-0.6-0.5-1.4-0.5-2.2c0-1.3,0.3-2.3,1-3.1c0.7-0.7,1.6-1.1,2.7-1.1
	c1.1,0,2,0.4,2.7,1.1c0.7,0.7,1,1.8,1,3c0,1.3-0.3,2.3-1,3.1C982.8,293.7,982,294.1,980.8,294.1z M982.7,287.6
	c-0.4-0.5-1-0.8-1.8-0.8s-1.4,0.3-1.8,0.8c-0.4,0.5-0.6,1.3-0.6,2.3s0.2,1.8,0.6,2.3c0.4,0.5,1,0.8,1.8,0.8s1.4-0.3,1.8-0.8
	c0.4-0.5,0.6-1.3,0.6-2.3S983.1,288.1,982.7,287.6z M976.5,452.9c-0.6,0.7-1.4,1.1-2.4,1.1c-0.5,0-1-0.1-1.4-0.3
	c-0.4-0.2-0.8-0.5-1.1-0.9h-0.1c0.1,0.5,0.1,0.9,0.1,1.3v3.3h-1.3v-11.6h1l0.2,1.1h0.1c0.3-0.4,0.7-0.8,1.1-1
	c0.4-0.2,0.9-0.3,1.4-0.3c1.1,0,1.9,0.4,2.5,1.1c0.6,0.7,0.9,1.7,0.9,3.1C977.4,451.2,977.1,452.2,976.5,452.9z M975.5,447.5
	c-0.4-0.5-0.9-0.8-1.7-0.8c-0.8,0-1.4,0.2-1.8,0.7c-0.4,0.5-0.6,1.2-0.6,2.2v0.3c0,1.1,0.2,1.9,0.6,2.4c0.4,0.5,1,0.7,1.8,0.7
	c0.7,0,1.2-0.3,1.6-0.8c0.4-0.6,0.6-1.3,0.6-2.3C976.1,448.8,975.9,448.1,975.5,447.5z M974.9,367c0-0.8,0-1.7,0.1-2.6h-0.1
	l-3.7,9.5h-1l-3.6-9.5h-0.1c0.1,0.8,0.1,1.6,0.1,2.7v6.8h-1.1v-10.7h1.9l3.4,8.8h0.1l3.4-8.8h1.9v10.7H975V367H974.9z M973.6,287.1
	c0-0.8,0-1.7,0.1-2.6h-0.1l-3.7,9.5h-1l-3.6-9.5l0,0c0.1,0.8,0.1,1.6,0.1,2.7v6.8h-1.1v-10.7h1.9l3.4,8.8h0.1l3.4-8.8h1.9V294h-1.2
	v-6.9H973.6z M968.6,444.3h-4.7v9.6h-1.2v-10.7h6L968.6,444.3L968.6,444.3z M922.3,704.3v-1v-1l-4.3,6.8h-1.5v-8h1.1v5.1l-0.1,1.3
	v0.4l4.3-6.8h1.5v8h-1V704.3z M912.8,702.6l-0.1,0.4l-0.4,1.1l-2.1,5.1h-1l-2.1-5.1c-0.3-0.7-0.4-1.2-0.5-1.5v6.6h-1.1v-8h1.5
	l2.1,5.1c0.2,0.5,0.4,1.1,0.6,1.8l0.2-0.7l0.3-0.9l2.2-5.3h1.5v8h-1.1L912.8,702.6L912.8,702.6z M901.8,708.1L901.8,708.1
	c-0.5,0.5-0.9,0.8-1.3,1c-0.4,0.2-0.9,0.3-1.5,0.3c-0.8,0-1.4-0.2-1.9-0.6c-0.5-0.4-0.7-1-0.7-1.8c0-1.6,1.3-2.5,3.9-2.5h1.4v-0.6
	c0-0.6-0.1-1.1-0.4-1.4c-0.3-0.3-0.7-0.5-1.3-0.5c-0.7,0-1.4,0.2-2.3,0.6l-0.4-0.9c0.4-0.2,0.8-0.4,1.3-0.5c0.5-0.1,0.9-0.2,1.4-0.2
	c1,0,1.7,0.2,2.1,0.6c0.5,0.4,0.7,1.1,0.7,2v5.5h-0.9L901.8,708.1z M901.7,705.3l-1.2,0.1c-1,0-1.7,0.2-2.1,0.5
	c-0.4,0.3-0.6,0.7-0.6,1.2c0,0.4,0.1,0.8,0.4,1c0.3,0.2,0.6,0.3,1.1,0.3c0.8,0,1.4-0.2,1.8-0.6s0.6-1,0.6-1.7V705.3z M891.6,709.4
	c-0.5,0-1-0.1-1.4-0.3c-0.4-0.2-0.8-0.5-1.1-0.9H889c0.1,0.5,0.1,0.9,0.1,1.3v3.3h-1.2v-11.6h1l0.2,1.1h0.1c0.3-0.4,0.7-0.8,1.1-1
	c0.4-0.2,0.9-0.3,1.4-0.3c1.1,0,1.9,0.4,2.5,1.1s0.9,1.7,0.9,3.1c0,1.3-0.3,2.3-0.9,3.1C893.5,709,892.7,709.4,891.6,709.4z
	 M893.1,702.9c-0.4-0.5-0.9-0.8-1.7-0.8c-0.8,0-1.4,0.2-1.8,0.7c-0.4,0.5-0.6,1.2-0.6,2.2v0.3c0,1.1,0.2,1.9,0.6,2.4s1,0.7,1.8,0.7
	c0.7,0,1.2-0.3,1.6-0.8c0.4-0.6,0.6-1.3,0.6-2.3C893.7,704.2,893.5,703.5,893.1,702.9z M881,707.6c0.5,0.5,1.1,0.7,1.9,0.7
	c0.9,0,1.7-0.2,2.6-0.5v1.1c-0.4,0.2-0.8,0.3-1.2,0.4c-0.4,0.1-0.8,0.1-1.4,0.1c-1.2,0-2.1-0.4-2.8-1.1c-0.7-0.7-1-1.7-1-3
	s0.3-2.3,1-3.1c0.7-0.8,1.5-1.1,2.6-1.1c1,0,1.8,0.3,2.4,1c0.6,0.7,0.9,1.5,0.9,2.6v0.8h-5.7C880.3,706.4,880.6,707.1,881,707.6z
	 M884.5,704.5c0-0.8-0.2-1.4-0.5-1.8c-0.3-0.4-0.8-0.6-1.5-0.6c-0.6,0-1.2,0.2-1.5,0.6c-0.4,0.4-0.6,1-0.7,1.7L884.5,704.5
	L884.5,704.5z M881.3,621.2h1.2v8h-1.2V621.2z M876.8,629.3h-3.3v-8h1.2v3.3h2.2c1,0,1.8,0.2,2.3,0.6c0.5,0.4,0.7,0.9,0.7,1.7
	c0,0.8-0.3,1.4-0.8,1.8C878.6,629.1,877.8,629.3,876.8,629.3z M878.3,625.9c-0.3-0.2-0.8-0.3-1.5-0.3h-2v2.6h2.1
	c1.3,0,1.9-0.5,1.9-1.4C878.7,626.4,878.6,626.1,878.3,625.9z M877.9,702.3h-2.6v7h-1.2v-7h-2.6v-1h6.4L877.9,702.3L877.9,702.3z
	 M868,629.4c-0.5,0-1-0.1-1.4-0.3c-0.4-0.2-0.8-0.5-1.1-0.9h-0.1c0.1,0.5,0.1,0.9,0.1,1.3v3.3h-1.2v-11.6h1l0.2,1.1h0.1
	c0.3-0.4,0.7-0.8,1.1-1c0.4-0.2,0.9-0.3,1.4-0.3c1.1,0,1.9,0.4,2.5,1.1s0.9,1.7,0.9,3.1c0,1.3-0.3,2.3-0.9,3.1
	C869.9,629,869.1,629.4,868,629.4z M869.5,622.9c-0.4-0.5-0.9-0.8-1.7-0.8c-0.8,0-1.4,0.2-1.8,0.7c-0.4,0.5-0.6,1.2-0.6,2.2v0.3
	c0,1.1,0.2,1.9,0.6,2.4c0.4,0.5,1,0.7,1.8,0.7c0.7,0,1.2-0.3,1.6-0.8c0.4-0.6,0.6-1.3,0.6-2.3C870.1,624.2,869.9,623.5,869.5,622.9z
	 M857.4,627.6c0.5,0.5,1.1,0.7,1.9,0.7c0.9,0,1.7-0.2,2.6-0.5v1.1c-0.4,0.2-0.8,0.3-1.2,0.4c-0.4,0.1-0.8,0.1-1.4,0.1
	c-1.2,0-2.1-0.4-2.8-1.1s-1-1.7-1-3c0-1.3,0.3-2.3,1-3.1s1.5-1.1,2.6-1.1c1,0,1.8,0.3,2.4,1c0.6,0.7,0.9,1.5,0.9,2.6v0.8h-5.5
	C856.7,626.4,857,627.1,857.4,627.6z M860.9,624.5c0-0.8-0.2-1.4-0.5-1.8c-0.3-0.4-0.8-0.6-1.5-0.6c-0.6,0-1.2,0.2-1.5,0.6
	c-0.4,0.4-0.6,1-0.7,1.7L860.9,624.5L860.9,624.5z M851.7,629.3h-1.2v-7h-2.6v-1h6.4v1h-2.6L851.7,629.3L851.7,629.3z M846,629.3
	l-3.7-4.1v4.1h-1.2v-8h1.2v3.9l3.5-3.9h1.3l-3.5,3.9l3.8,4.2L846,629.3L846,629.3z M837.2,625.8h-4.3l-1.3,3.4h-1.3l4.2-10.8h1
	l4.2,10.8h-1.3L837.2,625.8z M835.6,621.4c-0.2-0.4-0.3-0.9-0.5-1.5c-0.1,0.5-0.3,1-0.5,1.5l-1.3,3.3h3.5L835.6,621.4z M831.5,702.3
	h-2.6v7h-1.2v-7h-2.6v-1h6.4L831.5,702.3L831.5,702.3z M820.2,709.4c-0.7,0-1.4-0.2-1.9-0.5c-0.6-0.3-1-0.8-1.3-1.5
	c-0.3-0.6-0.5-1.4-0.5-2.2c0-1.3,0.3-2.3,1-3.1c0.7-0.7,1.6-1.1,2.7-1.1c1.1,0,2,0.4,2.7,1.1s1,1.8,1,3c0,1.3-0.3,2.3-1,3.1
	C822.3,709,821.4,709.4,820.2,709.4z M822.1,702.9c-0.4-0.5-1-0.8-1.8-0.8c-0.8,0-1.4,0.3-1.8,0.8c-0.4,0.5-0.6,1.3-0.6,2.3
	s0.2,1.8,0.6,2.3c0.4,0.5,1,0.8,1.8,0.8c0.8,0,1.4-0.3,1.8-0.8c0.4-0.5,0.6-1.3,0.6-2.3C822.7,704.2,822.5,703.4,822.1,702.9z
	 M810.3,702.1c0.5-0.2,1-0.4,1.5-0.4c1,0,1.8,0.3,2.3,1c0.6,0.6,0.8,1.5,0.8,2.7c0,1.3-0.3,2.2-1,2.9c-0.6,0.7-1.5,1.1-2.7,1.1
	c-1.1,0-2-0.4-2.7-1.3c-0.6-0.9-1-2.1-1-3.7c0-1.8,0.3-3.1,0.8-4.1c0.5-1,1.3-1.6,2.5-1.8c1.4-0.3,2.6-0.5,3.7-0.7l0.2,1.1
	c-1.7,0.3-2.9,0.5-3.6,0.7c-0.7,0.2-1.2,0.5-1.6,1.1c-0.4,0.6-0.5,1.4-0.6,2.5h0.1C809.4,702.7,809.8,702.4,810.3,702.1z
	 M808.9,704.4c0,1.3,0.2,2.3,0.6,2.9c0.4,0.7,1,1,1.9,1c1.5,0,2.2-0.9,2.2-2.8c0-1.8-0.7-2.7-2-2.7c-0.4,0-0.7,0.1-1.1,0.2
	c-0.3,0.2-0.7,0.4-0.9,0.6C809.3,703.9,809.1,704.2,808.9,704.4z M804.4,708.1L804.4,708.1c-0.5,0.5-0.9,0.8-1.3,1
	c-0.4,0.2-0.9,0.3-1.5,0.3c-0.8,0-1.4-0.2-1.9-0.6c-0.5-0.4-0.7-1-0.7-1.8c0-1.6,1.3-2.5,3.9-2.5h1.4v-0.6c0-0.6-0.1-1.1-0.4-1.4
	c-0.3-0.3-0.7-0.5-1.3-0.5c-0.7,0-1.4,0.2-2.3,0.6l-0.4-0.9c0.4-0.2,0.8-0.4,1.3-0.5c0.5-0.1,0.9-0.2,1.4-0.2c1,0,1.7,0.2,2.1,0.6
	c0.5,0.4,0.7,1.1,0.7,2v5.5h-0.9L804.4,708.1z M804.4,705.3l-1.2,0.1c-1,0-1.7,0.2-2.1,0.5c-0.4,0.3-0.6,0.7-0.6,1.2
	c0,0.4,0.1,0.8,0.4,1c0.3,0.2,0.6,0.3,1.1,0.3c0.8,0,1.4-0.2,1.8-0.6s0.6-1,0.6-1.7V705.3z M793.4,705h-1.3v4.2h-1.2v-10.7h2.8
	c2.7,0,4,1,4,3.1c0,1.1-0.4,1.9-1.1,2.5C795.8,704.8,794.8,705,793.4,705z M795.7,700.1c-0.5-0.3-1.2-0.5-2.2-0.5h-1.4v4.4h1.1
	c1.1,0,1.9-0.2,2.4-0.5c0.5-0.4,0.7-0.9,0.7-1.7C796.4,701,796.2,700.5,795.7,700.1z M777.1,804.1c0.5,0.5,1.1,0.7,1.9,0.7
	c0.9,0,1.7-0.2,2.6-0.5v1.1c-0.4,0.2-0.8,0.3-1.2,0.4c-0.4,0.1-0.8,0.1-1.4,0.1c-1.2,0-2.1-0.4-2.8-1.1c-0.7-0.7-1-1.7-1-3
	c0-1.3,0.3-2.3,1-3.1c0.6-0.8,1.5-1.1,2.6-1.1c1,0,1.8,0.3,2.4,1c0.6,0.7,0.9,1.5,0.9,2.6v0.8h-5.5
	C776.4,802.9,776.7,803.6,777.1,804.1z M780.6,801c0-0.8-0.2-1.4-0.5-1.8c-0.3-0.4-0.8-0.6-1.5-0.6c-0.6,0-1.2,0.2-1.5,0.6
	c-0.4,0.4-0.6,1-0.7,1.7L780.6,801L780.6,801z M772,800.8v-1v-1l-4.3,6.8h-1.5v-8h1.1v5.1l-0.1,1.3v0.4l4.3-6.8h1.5v8h-1.1
	L772,800.8L772,800.8z M764.4,33.8c-0.4-0.1-0.8-0.2-1.2-0.2c-0.9,0-1.5,0.3-2,1c-0.5,0.6-0.7,1.5-0.7,2.7c0,2.4,0.9,3.6,2.7,3.6
	c0.8,0,1.7-0.2,2.7-0.6v1.9c-0.9,0.4-1.9,0.5-2.9,0.5c-1.6,0-2.7-0.5-3.6-1.4c-0.8-0.9-1.2-2.3-1.2-4.1c0-1.1,0.2-2.1,0.6-2.9
	c0.4-0.8,1-1.5,1.7-1.9c0.8-0.4,1.6-0.7,2.7-0.7c1,0,2.1,0.3,3.1,0.8l-0.7,1.8C765.2,34.1,764.8,33.9,764.4,33.8z M754.2,33.8
	c-0.4-0.1-0.8-0.2-1.2-0.2c-0.9,0-1.5,0.3-2,1c-0.5,0.6-0.7,1.5-0.7,2.7c0,2.4,0.9,3.6,2.7,3.6c0.8,0,1.7-0.2,2.7-0.6v1.9
	c-0.9,0.4-1.9,0.5-2.9,0.5c-1.6,0-2.7-0.5-3.6-1.4c-0.8-0.9-1.2-2.3-1.2-4.1c0-1.1,0.2-2.1,0.6-2.9c0.4-0.8,1-1.5,1.7-1.9
	c0.8-0.4,1.6-0.7,2.7-0.7c1,0,2.1,0.3,3.1,0.8l-0.7,1.8C755,34.1,754.6,33.9,754.2,33.8z M739.5,31.8h6.2v1.9h-3.9v2.4h3.6V38h-3.6
	v2.8h3.9v1.9h-6.2V31.8z M737.3,535.3c0-0.2,0-0.5,0-0.8s0-1.1,0.1-2.5h-0.1l-2.8,8.4h-2.1l-2.6-8.4h-0.1c0.1,1.7,0.1,2.8,0.1,3.4v5
	h-2v-10.7h3.1l2.5,8.2l0,0l2.7-8.2h3.1v10.7h-2.1v-5.1H737.3z M735,42.6h-7.9V31.8h2.3v8.8h3.9v-8.8h2.3v8.9h1.6v4.9H735L735,42.6
	L735,42.6z M718.9,529.6h6.2v1.9h-3.9v2.4h3.6v1.9h-3.6v2.8h3.9v1.9h-6.2V529.6z M723.5,528.6c-0.3,0-0.5-0.1-0.7-0.2
	c-0.2-0.2-0.3-0.4-0.3-0.7s0.1-0.6,0.3-0.8c0.2-0.2,0.4-0.2,0.7-0.2s0.6,0.1,0.8,0.3c0.2,0.2,0.3,0.4,0.3,0.7s-0.1,0.5-0.3,0.7
	C724.1,528.5,723.8,528.6,723.5,528.6z M721.3,526.9c0.2,0.2,0.3,0.4,0.3,0.7s-0.1,0.5-0.3,0.7c-0.2,0.2-0.4,0.3-0.8,0.3
	c-0.3,0-0.6-0.1-0.7-0.3c-0.2-0.2-0.3-0.4-0.3-0.7s0.1-0.6,0.3-0.7c0.2-0.2,0.4-0.3,0.7-0.3C720.9,526.6,721.1,526.7,721.3,526.9z
	 M719.2,42.7c-1.6,0-2.9-0.5-3.8-1.4c-0.9-1-1.3-2.3-1.3-4.1c0-1.8,0.4-3.1,1.3-4.1c0.9-0.9,2.1-1.4,3.8-1.4c1.6,0,2.9,0.5,3.8,1.4
	c0.9,0.9,1.3,2.3,1.3,4.1c0,1.8-0.4,3.1-1.3,4.1C722.1,42.2,720.9,42.7,719.2,42.7z M719.2,33.6c-0.9,0-1.6,0.3-2,0.9
	c-0.5,0.6-0.7,1.5-0.7,2.7c0,1.2,0.2,2.1,0.7,2.7c0.5,0.6,1.1,0.9,2,0.9c1.8,0,2.7-1.2,2.7-3.6C721.9,34.8,721,33.6,719.2,33.6z
	 M707.8,38.7h-1v3.8h-2.3V31.8h3.4c1.3,0,2.3,0.3,3,0.8c0.7,0.6,1,1.4,1,2.5c0,1.2-0.4,2-1.1,2.6C710.2,38.4,709.2,38.7,707.8,38.7z
	 M709.3,34.1c-0.3-0.3-0.7-0.4-1.4-0.4h-1v3.2h0.7c0.7,0,1.2-0.1,1.6-0.4c0.3-0.3,0.5-0.7,0.5-1.2C709.7,34.7,709.5,34.3,709.3,34.1
	z M704.2,532.1c-0.4-0.2-0.8-0.4-1.2-0.5c-0.4-0.1-0.8-0.2-1.2-0.2c-0.9,0-1.5,0.3-2,1c-0.5,0.6-0.7,1.5-0.7,2.7
	c0,2.4,0.9,3.6,2.7,3.6c0.8,0,1.7-0.2,2.7-0.6v1.9c-0.9,0.4-1.9,0.5-2.9,0.5c-1.6,0-2.7-0.5-3.6-1.4s-1.2-2.3-1.2-4.1
	c0-1.1,0.2-2.1,0.6-2.9c0.4-0.8,1-1.5,1.7-1.9c0.8-0.4,1.6-0.7,2.7-0.7c1,0,2.1,0.3,3.1,0.8L704.2,532.1z M699,33.7h-3.9v8.8h-2.3
	V31.8h8.5v10.7H699V33.7z M694.2,795.3c-1.7,0.3-2.9,0.5-3.6,0.7c-0.7,0.2-1.2,0.5-1.6,1.1s-0.5,1.4-0.6,2.5h0.1
	c0.3-0.4,0.7-0.7,1.2-1c0.5-0.2,1-0.4,1.5-0.4c1,0,1.8,0.3,2.3,1c0.6,0.6,0.8,1.5,0.8,2.7c0,1.3-0.3,2.2-1,2.9
	c-0.6,0.7-1.5,1.1-2.7,1.1c-1.1,0-2-0.4-2.7-1.3c-0.6-0.9-1-2.1-1-3.7c0-1.8,0.3-3.1,0.8-4.1s1.3-1.6,2.5-1.8
	c1.4-0.3,2.6-0.5,3.7-0.7L694.2,795.3z M688.9,803.9c0.4,0.7,1,1,1.9,1c1.5,0,2.2-0.9,2.2-2.8c0-1.8-0.7-2.7-2-2.7
	c-0.4,0-0.7,0.1-1.1,0.2c-0.3,0.2-0.7,0.4-0.9,0.6c-0.3,0.3-0.5,0.5-0.7,0.8C688.3,802.2,688.5,803.2,688.9,803.9z M680.3,805.9
	c-1.6,0-2.8-0.5-3.7-1.4c-0.9-1-1.3-2.3-1.3-4.1c0-1.7,0.4-3.1,1.3-4.1c0.9-1,2.1-1.4,3.7-1.4c1.5,0,2.7,0.5,3.6,1.5
	c0.9,1,1.3,2.3,1.3,4s-0.4,3.1-1.3,4C683.1,805.4,681.9,805.9,680.3,805.9z M683,797.1c-0.6-0.7-1.5-1.1-2.7-1.1s-2.1,0.4-2.7,1.1
	c-0.6,0.7-0.9,1.8-0.9,3.3s0.3,2.6,0.9,3.3c0.6,0.7,1.5,1.1,2.7,1.1s2.1-0.4,2.7-1.1c0.6-0.7,0.9-1.8,0.9-3.3S683.6,797.9,683,797.1
	z M667.1,628.1L667.1,628.1c-0.5,0.5-0.9,0.8-1.3,1c-0.4,0.2-0.9,0.3-1.5,0.3c-0.8,0-1.4-0.2-1.9-0.6c-0.5-0.4-0.7-1-0.7-1.8
	c0-1.6,1.3-2.5,3.9-2.5h1.4v-0.6c0-0.6-0.1-1.1-0.4-1.4c-0.3-0.3-0.7-0.5-1.3-0.5c-0.7,0-1.4,0.2-2.3,0.6l-0.4-0.9
	c0.4-0.2,0.8-0.4,1.3-0.5c0.5-0.1,0.9-0.2,1.4-0.2c1,0,1.7,0.2,2.1,0.6c0.5,0.4,0.7,1.1,0.7,2v5.5h-0.9L667.1,628.1z M667,625.3
	l-1.2,0.1c-1,0-1.7,0.2-2.1,0.5c-0.4,0.3-0.6,0.7-0.6,1.2c0,0.4,0.1,0.8,0.4,1c0.3,0.2,0.6,0.3,1.1,0.3c0.8,0,1.4-0.2,1.8-0.6
	c0.4-0.4,0.6-1,0.6-1.7V625.3z M656.9,629.4c-0.5,0-1-0.1-1.4-0.3c-0.4-0.2-0.8-0.5-1.1-0.9h-0.1c0.1,0.5,0.1,0.9,0.1,1.3v3.3h-1.2
	v-11.6h1l0.2,1.1h0.1c0.3-0.4,0.7-0.8,1.1-1c0.4-0.2,0.9-0.3,1.4-0.3c1.1,0,1.9,0.4,2.5,1.1s0.9,1.7,0.9,3.1c0,1.3-0.3,2.3-0.9,3.1
	C658.8,629,658,629.4,656.9,629.4z M658.4,622.9c-0.4-0.5-0.9-0.8-1.7-0.8c-0.8,0-1.4,0.2-1.8,0.7c-0.4,0.5-0.6,1.2-0.6,2.2v0.3
	c0,1.1,0.2,1.9,0.6,2.4c0.4,0.5,1,0.7,1.8,0.7c0.7,0,1.2-0.3,1.6-0.8c0.4-0.6,0.6-1.3,0.6-2.3C659,624.2,658.8,623.5,658.4,622.9z
	 M655.7,702.1c0.6,0.7,0.9,1.5,0.9,2.6v0.8h-5.5c0,0.9,0.3,1.7,0.7,2.1c0.5,0.5,1.1,0.7,1.9,0.7c0.9,0,1.7-0.2,2.6-0.5v1.1
	c-0.4,0.2-0.8,0.3-1.2,0.4c-0.4,0.1-0.8,0.1-1.4,0.1c-1.2,0-2.1-0.4-2.8-1.1c-0.7-0.7-1-1.7-1-3s0.3-2.3,1-3.1
	c0.7-0.8,1.5-1.1,2.6-1.1C654.3,701.1,655.1,701.4,655.7,702.1z M651.7,702.7c-0.4,0.4-0.6,1-0.7,1.7h4.2c0-0.8-0.2-1.4-0.5-1.8
	s-0.8-0.6-1.5-0.6C652.6,702.1,652.1,702.3,651.7,702.7z M647.3,629.4c-0.7,0-1.4-0.2-1.9-0.5c-0.6-0.3-1-0.8-1.3-1.5
	c-0.3-0.6-0.5-1.4-0.5-2.2c0-1.3,0.3-2.3,1-3.1c0.7-0.7,1.6-1.1,2.7-1.1s2,0.4,2.7,1.1c0.7,0.7,1,1.8,1,3c0,1.3-0.3,2.3-1,3.1
	C649.4,629,648.5,629.4,647.3,629.4z M649.2,622.9c-0.4-0.5-1-0.8-1.8-0.8c-0.8,0-1.4,0.3-1.8,0.8c-0.4,0.5-0.6,1.3-0.6,2.3
	s0.2,1.8,0.6,2.3c0.4,0.5,1,0.8,1.8,0.8c0.8,0,1.4-0.3,1.8-0.8c0.4-0.5,0.6-1.3,0.6-2.3C649.8,624.2,649.6,623.4,649.2,622.9z
	 M639.9,629.3h-1.2v-7h-2.6v-1h6.4v1h-2.6L639.9,629.3L639.9,629.3z M633.5,628.1L633.5,628.1c-0.5,0.5-0.9,0.8-1.3,1
	s-0.9,0.3-1.5,0.3c-0.8,0-1.4-0.2-1.9-0.6c-0.5-0.4-0.7-1-0.7-1.8c0-1.6,1.3-2.5,3.9-2.5h1.4v-0.6c0-0.6-0.1-1.1-0.4-1.4
	c-0.3-0.3-0.7-0.5-1.3-0.5c-0.7,0-1.4,0.2-2.3,0.6l-0.4-0.9c0.4-0.2,0.8-0.4,1.3-0.5c0.5-0.1,0.9-0.2,1.4-0.2c1,0,1.7,0.2,2.1,0.6
	c0.5,0.4,0.7,1.1,0.7,2v5.5h-0.9L633.5,628.1z M633.4,625.3l-1.2,0.1c-1,0-1.7,0.2-2.1,0.5s-0.6,0.7-0.6,1.2c0,0.4,0.1,0.8,0.4,1
	c0.3,0.2,0.6,0.3,1.1,0.3c0.8,0,1.4-0.2,1.8-0.6c0.4-0.4,0.6-1,0.6-1.7V625.3z M628.7,709.3h-0.9l-0.2-1.1h-0.1
	c-0.4,0.5-0.8,0.8-1.2,1s-0.9,0.3-1.5,0.3c-0.8,0-1.4-0.2-1.9-0.6c-0.5-0.4-0.7-1-0.7-1.8c0-1.6,1.3-2.5,3.9-2.5h1.4v-0.7
	c0-0.6-0.1-1.1-0.4-1.4c-0.3-0.3-0.7-0.5-1.3-0.5c-0.7,0-1.4,0.2-2.3,0.6l-0.4-0.9c0.4-0.2,0.8-0.4,1.3-0.5c0.5-0.1,0.9-0.2,1.4-0.2
	c1,0,1.7,0.2,2.1,0.6c0.5,0.4,0.7,1.1,0.7,2L628.7,709.3L628.7,709.3z M627.5,705.3l-1.2,0.1c-1,0-1.7,0.2-2.1,0.5
	c-0.4,0.3-0.6,0.7-0.6,1.2c0,0.4,0.1,0.8,0.4,1c0.3,0.2,0.6,0.3,1.1,0.3c0.8,0,1.4-0.2,1.8-0.6c0.4-0.4,0.6-1,0.6-1.7V705.3z
	 M623.3,629.4c-0.5,0-1-0.1-1.4-0.3c-0.4-0.2-0.8-0.5-1.1-0.9h-0.1c0.1,0.5,0.1,0.9,0.1,1.3v3.3h-1.2v-11.6h1l0.2,1.1h0.1
	c0.3-0.4,0.7-0.8,1.1-1s0.9-0.3,1.4-0.3c1.1,0,1.9,0.4,2.5,1.1s0.9,1.7,0.9,3.1c0,1.3-0.3,2.3-0.9,3.1
	C625.2,629,624.4,629.4,623.3,629.4z M624.8,622.9c-0.4-0.5-0.9-0.8-1.7-0.8c-0.8,0-1.4,0.2-1.8,0.7c-0.4,0.5-0.6,1.2-0.6,2.2v0.3
	c0,1.1,0.2,1.9,0.6,2.4c0.4,0.5,1,0.7,1.8,0.7c0.7,0,1.2-0.3,1.6-0.8c0.4-0.6,0.6-1.3,0.6-2.3C625.4,624.2,625.2,623.5,624.8,622.9z
	 M620.8,703.2c0,0.5-0.2,0.9-0.5,1.2s-0.7,0.5-1.3,0.5v0.1c0.7,0.1,1.2,0.3,1.5,0.6s0.5,0.7,0.5,1.3c0,0.7-0.3,1.3-0.8,1.7
	c-0.5,0.4-1.4,0.6-2.4,0.6h-3.5v-8h3.5C619.8,701.2,620.8,701.9,620.8,703.2z M615.5,708.2h2.2c1.4,0,2.1-0.5,2.1-1.4
	c0-0.4-0.2-0.8-0.5-0.9c-0.3-0.2-0.9-0.3-1.6-0.3h-2.2V708.2z M619.2,702.5c-0.3-0.2-0.8-0.2-1.4-0.2h-2.3v2.3h2.1
	c0.8,0,1.3-0.1,1.6-0.3s0.5-0.5,0.5-0.9C619.6,703,619.5,702.7,619.2,702.5z M612.7,627.6c0.5,0.5,1.1,0.7,1.9,0.7
	c0.9,0,1.7-0.2,2.6-0.5v1.1c-0.4,0.2-0.8,0.3-1.2,0.4c-0.4,0.1-0.8,0.1-1.4,0.1c-1.2,0-2.1-0.4-2.8-1.1s-1-1.7-1-3
	c0-1.3,0.3-2.3,1-3.1s1.5-1.1,2.6-1.1c1,0,1.8,0.3,2.4,1c0.6,0.7,0.9,1.5,0.9,2.6v0.8h-5.5C612,626.4,612.2,627.1,612.7,627.6z
	 M616.2,624.5c0-0.8-0.2-1.4-0.5-1.8c-0.3-0.4-0.8-0.6-1.5-0.6c-0.6,0-1.2,0.2-1.5,0.6c-0.4,0.4-0.6,1-0.7,1.7L616.2,624.5
	L616.2,624.5z M612.2,705.2c0,1.3-0.3,2.3-1,3.1c-0.7,0.7-1.6,1.1-2.7,1.1c-0.7,0-1.4-0.2-1.9-0.5c-0.6-0.3-1-0.8-1.3-1.5
	c-0.3-0.6-0.5-1.4-0.5-2.2c0-1.3,0.3-2.3,1-3.1c0.7-0.7,1.6-1.1,2.7-1.1c1.1,0,2,0.4,2.7,1.1C611.9,702.9,612.2,704,612.2,705.2z
	 M610.3,702.9c-0.4-0.5-1-0.8-1.8-0.8c-0.8,0-1.4,0.3-1.8,0.8c-0.4,0.5-0.6,1.3-0.6,2.3s0.2,1.8,0.6,2.3c0.4,0.5,1,0.8,1.8,0.8
	c0.8,0,1.4-0.3,1.8-0.8c0.4-0.5,0.6-1.3,0.6-2.3S610.7,703.4,610.3,702.9z M607.4,622.3h-4.3v7h-1.2v-8h6.7v8h-1.2V622.3z
	 M596,629.4c-0.7,0-1.4-0.2-1.9-0.5c-0.6-0.3-1-0.8-1.3-1.5c-0.3-0.6-0.5-1.4-0.5-2.2c0-1.3,0.3-2.3,1-3.1c0.7-0.7,1.6-1.1,2.7-1.1
	c1.1,0,2,0.4,2.7,1.1c0.7,0.7,1,1.8,1,3c0,1.3-0.3,2.3-1,3.1C598.1,629,597.2,629.4,596,629.4z M597.8,622.9c-0.4-0.5-1-0.8-1.8-0.8
	s-1.4,0.3-1.8,0.8c-0.4,0.5-0.6,1.3-0.6,2.3s0.2,1.8,0.6,2.3c0.4,0.5,1,0.8,1.8,0.8s1.4-0.3,1.8-0.8c0.4-0.5,0.6-1.3,0.6-2.3
	C598.5,624.2,598.2,623.4,597.8,622.9z M595.4,701.2l-3.4,9.1c-0.3,0.9-0.7,1.5-1.2,1.9s-1,0.6-1.7,0.6c-0.4,0-0.7,0-1.1-0.1v-1
	c0.3,0.1,0.6,0.1,0.9,0.1c0.8,0,1.4-0.5,1.8-1.4l0.4-1.1l-3.2-8.1h1.3l1.8,4.6c0.4,1,0.6,1.8,0.7,2.3h0.1c0.1-0.2,0.2-0.7,0.4-1.3
	c0.2-0.6,0.9-2.5,2-5.6H595.4z M583.7,709.4c-0.5,0-1-0.1-1.4-0.3c-0.4-0.2-0.8-0.5-1.1-0.9h-0.1c0.1,0.5,0.1,0.9,0.1,1.3v3.3H580
	v-11.6h1l0.2,1.1h0.1c0.3-0.4,0.7-0.8,1.1-1c0.4-0.2,0.9-0.3,1.4-0.3c1.1,0,1.9,0.4,2.5,1.1s0.9,1.7,0.9,3.1c0,1.3-0.3,2.3-0.9,3.1
	C585.5,709,584.7,709.4,583.7,709.4z M585.2,702.9c-0.4-0.5-0.9-0.8-1.7-0.8c-0.8,0-1.4,0.2-1.8,0.7s-0.6,1.2-0.6,2.2v0.3
	c0,1.1,0.2,1.9,0.6,2.4s1,0.7,1.8,0.7c0.7,0,1.2-0.3,1.6-0.8c0.4-0.6,0.6-1.3,0.6-2.3C585.7,704.2,585.5,703.5,585.2,702.9z
	 M585.2,628.1L585.2,628.1c-0.5,0.5-0.9,0.8-1.3,1c-0.4,0.2-0.9,0.3-1.5,0.3c-0.8,0-1.4-0.2-1.9-0.6c-0.5-0.4-0.7-1-0.7-1.8
	c0-1.6,1.3-2.5,3.9-2.5h1.4v-0.6c0-0.6-0.1-1.1-0.4-1.4c-0.3-0.3-0.7-0.5-1.3-0.5c-0.7,0-1.4,0.2-2.3,0.6l-0.4-0.9
	c0.4-0.2,0.8-0.4,1.3-0.5c0.5-0.1,0.9-0.2,1.4-0.2c1,0,1.7,0.2,2.1,0.6c0.4,0.4,0.7,1.1,0.7,2v5.5h-0.9L585.2,628.1z M585.2,625.3
	l-1.2,0.1c-1,0-1.7,0.2-2.1,0.5c-0.4,0.3-0.6,0.7-0.6,1.2c0,0.4,0.1,0.8,0.4,1c0.3,0.2,0.6,0.3,1.1,0.3c0.8,0,1.4-0.2,1.8-0.6
	c0.4-0.4,0.6-1,0.6-1.7L585.2,625.3L585.2,625.3z M576.3,629.3h-1.2v-7h-2.6v-1h6.4v1h-2.6L576.3,629.3L576.3,629.3z M576.8,702.2
	c0.7,0.7,1,1.8,1,3c0,1.3-0.3,2.3-1,3.1c-0.7,0.7-1.6,1.1-2.7,1.1c-0.7,0-1.4-0.2-1.9-0.5c-0.6-0.3-1-0.8-1.3-1.5
	c-0.3-0.6-0.5-1.4-0.5-2.2c0-1.3,0.3-2.3,1-3.1c0.7-0.7,1.6-1.1,2.7-1.1C575.3,701.1,576.1,701.5,576.8,702.2z M572.3,702.9
	c-0.4,0.5-0.6,1.3-0.6,2.3s0.2,1.8,0.6,2.3c0.4,0.5,1,0.8,1.8,0.8c0.8,0,1.4-0.3,1.8-0.8c0.4-0.5,0.6-1.3,0.6-2.3s-0.2-1.8-0.6-2.3
	c-0.4-0.5-1-0.8-1.8-0.8C573.3,702.1,572.7,702.4,572.3,702.9z M567.7,629.4c-0.7,0-1.4-0.2-1.9-0.5c-0.6-0.3-1-0.8-1.3-1.5
	c-0.3-0.6-0.5-1.4-0.5-2.2c0-1.3,0.3-2.3,1-3.1c0.7-0.7,1.6-1.1,2.7-1.1c1.1,0,2,0.4,2.7,1.1c0.7,0.7,1,1.8,1,3c0,1.3-0.3,2.3-1,3.1
	C569.8,629,568.9,629.4,567.7,629.4z M569.5,622.9c-0.4-0.5-1-0.8-1.8-0.8c-0.8,0-1.4,0.3-1.8,0.8c-0.4,0.5-0.6,1.3-0.6,2.3
	s0.2,1.8,0.6,2.3c0.4,0.5,1,0.8,1.8,0.8c0.8,0,1.4-0.3,1.8-0.8c0.4-0.5,0.6-1.3,0.6-2.3C570.2,624.2,569.9,623.4,569.5,622.9z
	 M568.4,697.8l0.2,1.1c-1.7,0.3-2.9,0.5-3.6,0.7c-0.7,0.2-1.2,0.5-1.6,1.1s-0.5,1.4-0.6,2.5h0.1c0.3-0.4,0.7-0.7,1.2-1
	c0.5-0.2,1-0.4,1.5-0.4c1,0,1.8,0.3,2.3,1c0.6,0.6,0.8,1.5,0.8,2.7c0,1.3-0.3,2.2-1,2.9c-0.6,0.7-1.5,1.1-2.7,1.1
	c-1.1,0-2-0.4-2.7-1.3c-0.6-0.9-1-2.1-1-3.7c0-1.8,0.3-3.1,0.8-4.1c0.5-1,1.3-1.6,2.5-1.8C566.1,698.2,567.4,697.9,568.4,697.8z
	 M563.4,707.4c0.4,0.7,1,1,1.9,1c1.5,0,2.2-0.9,2.2-2.8c0-1.8-0.7-2.7-2-2.7c-0.4,0-0.7,0.1-1.1,0.2c-0.3,0.2-0.7,0.4-0.9,0.6
	c-0.3,0.3-0.5,0.5-0.7,0.8C562.8,705.7,563,706.7,563.4,707.4z M557.7,622.1c0.5-0.2,1-0.4,1.5-0.4c1,0,1.8,0.3,2.3,1
	c0.6,0.6,0.8,1.5,0.8,2.7c0,1.3-0.3,2.2-1,2.9c-0.6,0.7-1.5,1.1-2.7,1.1c-1.1,0-2-0.4-2.7-1.3c-0.6-0.9-1-2.1-1-3.7
	c0-1.8,0.3-3.1,0.8-4.1c0.5-1,1.3-1.6,2.5-1.8c1.4-0.3,2.6-0.5,3.7-0.7l0.2,1.1c-1.7,0.3-2.9,0.5-3.6,0.7c-0.7,0.2-1.2,0.5-1.6,1.1
	s-0.5,1.4-0.6,2.5h0.1C556.9,622.7,557.2,622.4,557.7,622.1z M556.4,624.4c0,1.3,0.2,2.3,0.6,2.9c0.4,0.7,1,1,1.9,1
	c1.5,0,2.2-0.9,2.2-2.8c0-1.8-0.7-2.7-2-2.7c-0.4,0-0.7,0.1-1.1,0.2c-0.3,0.2-0.7,0.4-0.9,0.6C556.7,623.9,556.5,624.2,556.4,624.4z
	 M558.4,699.8c0.9,1,1.3,2.3,1.3,4c0,1.7-0.4,3.1-1.3,4c-0.9,1-2.1,1.5-3.6,1.5c-1.6,0-2.8-0.5-3.7-1.4c-0.9-1-1.3-2.3-1.3-4.1
	c0-1.7,0.4-3.1,1.3-4.1c0.9-1,2.1-1.4,3.7-1.4C556.4,698.4,557.6,698.9,558.4,699.8z M554.8,699.5c-1.2,0-2.1,0.4-2.7,1.1
	c-0.6,0.7-0.9,1.8-0.9,3.3c0,1.5,0.3,2.6,0.9,3.3c0.6,0.7,1.5,1.1,2.7,1.1s2.1-0.4,2.7-1.1c0.6-0.7,0.9-1.8,0.9-3.3
	c0-1.4-0.3-2.5-0.9-3.3C556.9,699.9,556,699.5,554.8,699.5z M551.9,628.1L551.9,628.1c-0.5,0.5-0.9,0.8-1.3,1
	c-0.4,0.2-0.9,0.3-1.5,0.3c-0.8,0-1.4-0.2-1.9-0.6c-0.5-0.4-0.7-1-0.7-1.8c0-1.6,1.3-2.5,3.9-2.5h1.4v-0.6c0-0.6-0.1-1.1-0.4-1.4
	c-0.3-0.3-0.7-0.5-1.3-0.5c-0.7,0-1.4,0.2-2.3,0.6l-0.4-0.9c0.4-0.2,0.8-0.4,1.3-0.5c0.5-0.1,0.9-0.2,1.4-0.2c1,0,1.7,0.2,2.1,0.6
	c0.5,0.4,0.7,1.1,0.7,2v5.5H552L551.9,628.1z M551.8,625.3l-1.2,0.1c-1,0-1.7,0.2-2.1,0.5c-0.4,0.3-0.6,0.7-0.6,1.2
	c0,0.4,0.1,0.8,0.4,1c0.3,0.2,0.6,0.3,1.1,0.3c0.8,0,1.4-0.2,1.8-0.6c0.4-0.4,0.6-1,0.6-1.7L551.8,625.3L551.8,625.3z M540.9,625
	h-1.3v4.2h-1.2v-10.7h2.8c2.7,0,4,1,4,3.1c0,1.1-0.4,1.9-1.1,2.5C543.3,624.8,542.2,625,540.9,625z M543.2,620.1
	c-0.5-0.3-1.2-0.5-2.2-0.5h-1.4v4.4h1.1c1.1,0,1.9-0.2,2.4-0.5c0.5-0.4,0.7-0.9,0.7-1.7C543.8,621,543.6,620.5,543.2,620.1z
	 M526.7,449.9v-1v-1l-4.3,6.8h-1.5v-8h1.1v5.1l-0.1,1.3v0.4l4.3-6.8h1.5v8h-1.1L526.7,449.9L526.7,449.9z M524.4,445.8
	c-0.9,0-1.6-0.2-2-0.5s-0.6-0.9-0.7-1.7h1.1c0,0.5,0.2,0.9,0.4,1.1c0.2,0.2,0.6,0.3,1.2,0.3c0.5,0,0.9-0.1,1.1-0.3
	c0.2-0.2,0.4-0.6,0.4-1h1.1c-0.1,0.8-0.3,1.3-0.7,1.7C525.9,445.6,525.3,445.8,524.4,445.8z M517.2,449.9v-1v-1l-4.3,6.8h-1.5v-8
	h1.1v5.1l-0.1,1.3v0.4l4.3-6.8h1.5v8h-1.1L517.2,449.9L517.2,449.9z M508.7,454.9h-6.6v-8h1.2v7h4.3v-7h1.2v7h1.1v3.8h-1.2V454.9z
	 M498.4,453.7L498.4,453.7c-0.5,0.5-0.9,0.8-1.3,1c-0.4,0.2-0.9,0.3-1.5,0.3c-0.8,0-1.4-0.2-1.9-0.6c-0.5-0.4-0.7-1-0.7-1.8
	c0-1.6,1.3-2.5,3.9-2.5h1.4v-0.5c0-0.6-0.1-1.1-0.4-1.4s-0.7-0.5-1.3-0.5c-0.7,0-1.4,0.2-2.3,0.6l-0.4-0.9c0.4-0.2,0.8-0.4,1.3-0.5
	c0.5-0.1,0.9-0.2,1.4-0.2c1,0,1.7,0.2,2.1,0.6c0.5,0.4,0.7,1.1,0.7,2v5.5h-0.9L498.4,453.7z M498.3,450.9l-1.2,0.1
	c-1,0-1.7,0.2-2.1,0.5s-0.6,0.7-0.6,1.2c0,0.4,0.1,0.8,0.4,1s0.6,0.3,1.1,0.3c0.8,0,1.4-0.2,1.8-0.6c0.4-0.4,0.6-1,0.6-1.7
	L498.3,450.9L498.3,450.9z M490.8,454.9l-3.7-4.1v4.1h-1.2v-8h1.2v3.9l3.5-3.9h1.3l-3.5,3.9l3.8,4.2L490.8,454.9L490.8,454.9z
	 M480.1,455c-0.7,0-1.4-0.2-1.9-0.5c-0.6-0.3-1-0.8-1.3-1.5c-0.3-0.6-0.5-1.4-0.5-2.2c0-1.3,0.3-2.3,1-3.1c0.7-0.7,1.6-1.1,2.7-1.1
	c1.1,0,2,0.4,2.7,1.1c0.7,0.7,1,1.8,1,3c0,1.3-0.3,2.3-1,3.1C482.1,454.6,481.2,455,480.1,455z M481.9,448.5c-0.4-0.5-1-0.8-1.8-0.8
	c-0.8,0-1.4,0.3-1.8,0.8c-0.4,0.5-0.6,1.3-0.6,2.3s0.2,1.8,0.6,2.3c0.4,0.5,1,0.8,1.8,0.8c0.8,0,1.4-0.3,1.8-0.8
	c0.4-0.5,0.6-1.3,0.6-2.3S482.3,449,481.9,448.5z M473,447.9h-2.4c-0.1,1.7-0.3,3.1-0.5,4.1c-0.2,1-0.5,1.8-0.9,2.2
	c-0.4,0.5-0.8,0.7-1.4,0.7c-0.3,0-0.5,0-0.6-0.1V454c0.1,0,0.2,0,0.4,0c0.6,0,1-0.6,1.3-1.8c0.3-1.2,0.6-3,0.8-5.4h4.7v8h-1.2v-6.9
	H473z M458.9,455c-0.5,0-1-0.1-1.4-0.3c-0.4-0.2-0.8-0.5-1.1-0.9h-0.1c0.1,0.5,0.1,0.9,0.1,1.3v3.3h-1.2v-11.6h1l0.2,1.1h0.1
	c0.3-0.4,0.7-0.8,1.1-1c0.4-0.2,0.9-0.3,1.4-0.3c1.1,0,1.9,0.4,2.5,1.1c0.6,0.7,0.9,1.7,0.9,3.1c0,1.3-0.3,2.3-0.9,3.1
	C460.8,454.6,460,455,458.9,455z M460.4,448.5c-0.4-0.5-0.9-0.8-1.7-0.8s-1.4,0.2-1.8,0.7c-0.4,0.5-0.6,1.2-0.6,2.2v0.3
	c0,1.1,0.2,1.9,0.6,2.4c0.4,0.5,1,0.7,1.8,0.7c0.7,0,1.2-0.3,1.6-0.8c0.4-0.6,0.6-1.3,0.6-2.3C461,449.8,460.8,449.1,460.4,448.5z
	 M449.3,455c-0.7,0-1.4-0.2-1.9-0.5c-0.6-0.3-1-0.8-1.3-1.5c-0.3-0.6-0.5-1.4-0.5-2.2c0-1.3,0.3-2.3,1-3.1c0.7-0.7,1.6-1.1,2.7-1.1
	c1.1,0,2,0.4,2.7,1.1c0.7,0.7,1,1.8,1,3c0,1.3-0.3,2.3-1,3.1C451.4,454.6,450.5,455,449.3,455z M451.2,448.5c-0.4-0.5-1-0.8-1.8-0.8
	s-1.4,0.3-1.8,0.8c-0.4,0.5-0.6,1.3-0.6,2.3s0.2,1.8,0.6,2.3c0.4,0.5,1,0.8,1.8,0.8s1.4-0.3,1.8-0.8s0.6-1.3,0.6-2.3
	C451.8,449.8,451.6,449,451.2,448.5z M439.4,447.7c0.5-0.2,1-0.4,1.5-0.4c1,0,1.8,0.3,2.3,1c0.6,0.6,0.8,1.5,0.8,2.7
	c0,1.3-0.3,2.2-1,2.9c-0.6,0.7-1.5,1.1-2.7,1.1c-1.1,0-2-0.4-2.7-1.3c-0.6-0.9-1-2.1-1-3.7c0-1.8,0.3-3.1,0.8-4.1
	c0.5-1,1.3-1.6,2.5-1.8c1.4-0.3,2.6-0.5,3.7-0.7l0.2,1.1c-1.7,0.3-2.9,0.5-3.6,0.7c-0.7,0.2-1.2,0.5-1.6,1.1
	c-0.4,0.6-0.5,1.4-0.6,2.5h0.1C438.5,448.3,438.9,448,439.4,447.7z M438,450c0,1.3,0.2,2.3,0.6,2.9c0.4,0.7,1,1,1.9,1
	c1.5,0,2.2-0.9,2.2-2.8c0-1.8-0.7-2.7-2-2.7c-0.4,0-0.7,0.1-1.1,0.2c-0.3,0.2-0.7,0.4-0.9,0.6C438.4,449.5,438.2,449.8,438,450z
	 M434.4,454.9h-5.6v2.8h-1.2v-3.8h0.6c0.7-0.9,1.2-1.9,1.5-3.1c0.4-1.2,0.6-2.5,0.6-3.9h4.1v7h1.1v3.8h-1.2L434.4,454.9L434.4,454.9
	z M433.3,447.8h-1.8c-0.1,1.1-0.3,2.2-0.6,3.3c-0.4,1.1-0.8,2-1.3,2.7h3.8L433.3,447.8L433.3,447.8z M422.8,455
	c-0.7,0-1.4-0.2-1.9-0.5c-0.6-0.3-1-0.8-1.3-1.5c-0.3-0.6-0.5-1.4-0.5-2.2c0-1.3,0.3-2.3,1-3.1c0.7-0.7,1.6-1.1,2.7-1.1
	s2,0.4,2.7,1.1c0.7,0.7,1,1.8,1,3c0,1.3-0.3,2.3-1,3.1C424.8,454.6,423.9,455,422.8,455z M424.6,448.5c-0.4-0.5-1-0.8-1.8-0.8
	s-1.4,0.3-1.8,0.8c-0.4,0.5-0.6,1.3-0.6,2.3s0.2,1.8,0.6,2.3s1,0.8,1.8,0.8s1.4-0.3,1.8-0.8s0.6-1.3,0.6-2.3S425,449,424.6,448.5z
	 M415.6,445.3h-5.5v9.6h-1.2v-10.7h8v10.7h-1.2L415.6,445.3L415.6,445.3z M404.2,199.8H400v4.6h-2.3v-10.7h2.3v4.2h4.2v-4.2h2.3
	v10.7h-2.3V199.8z M402.1,286.9v8h-1.2v-3.2h-2l-2.1,3.2h-1.4l2.3-3.4c-0.6-0.1-1.1-0.4-1.4-0.8c-0.3-0.4-0.5-0.9-0.5-1.5
	c0-0.7,0.2-1.3,0.7-1.7c0.5-0.4,1.2-0.6,2.1-0.6H402.1z M396.9,289.3c0,0.9,0.7,1.4,2,1.4h2V288h-2.2
	C397.5,288,396.9,288.4,396.9,289.3z M380.9,193.7h2.3v8.8h3.3v-8.8h2.3v8.8h3.3v-8.8h2.3v10.7h-13.5L380.9,193.7L380.9,193.7z
	 M376.4,204.5l-3.9-5.4v5.4h-2.3v-10.7h2.3v5.2l3.8-5.2h2.4l-3.9,5.1l4.1,5.6L376.4,204.5L376.4,204.5z M365.1,201.9h-3.9l-0.8,2.5
	H358l3.8-10.8h2.8l3.8,10.8H366L365.1,201.9z M363.3,196.1c-0.1-0.3-0.2-0.5-0.2-0.7c-0.2,0.6-0.6,2.2-1.4,4.6h2.8
	C363.8,197.7,363.4,196.4,363.3,196.1z M358.2,297.7H357v-2.8h-6.6v-8h1.2v7h4.3v-7h1.2v7h1.1V297.7z M354.8,204.5h-6.7v3.1h-2.2v-5
	h0.8c0.7-1.4,1.3-2.8,1.7-4.2c0.4-1.4,0.7-2.9,0.9-4.6h6.2v8.8h1.4v5h-2.2L354.8,204.5L354.8,204.5z M353.3,195.6h-2.2
	c-0.2,1.1-0.4,2.3-0.8,3.6c-0.4,1.2-0.8,2.4-1.2,3.4h4.2V195.6z M339.3,204.6c-1.6,0-2.9-0.5-3.8-1.4c-0.9-1-1.3-2.3-1.3-4.1
	s0.4-3.1,1.3-4.1c0.9-0.9,2.1-1.4,3.8-1.4c1.6,0,2.9,0.5,3.8,1.4s1.3,2.3,1.3,4.1s-0.4,3.1-1.3,4.1
	C342.2,204.1,340.9,204.6,339.3,204.6z M339.3,195.5c-0.9,0-1.6,0.3-2,0.9c-0.5,0.6-0.7,1.5-0.7,2.7s0.2,2.1,0.7,2.7
	c0.5,0.6,1.1,0.9,2,0.9c1.8,0,2.7-1.2,2.7-3.6C342,196.7,341.1,195.5,339.3,195.5z M337.7,287.9c0.7,0.7,1,1.8,1,3
	c0,1.3-0.3,2.3-1,3.1c-0.7,0.8-1.6,1.1-2.7,1.1c-0.7,0-1.4-0.2-1.9-0.5c-0.6-0.3-1-0.8-1.3-1.5c-0.3-0.6-0.5-1.4-0.5-2.2
	c0-1.3,0.3-2.3,1-3.1c0.7-0.7,1.6-1.1,2.7-1.1C336.2,286.8,337.1,287.2,337.7,287.9z M333.2,288.6c-0.4,0.5-0.6,1.3-0.6,2.3
	c0,1,0.2,1.8,0.6,2.3s1,0.8,1.8,0.8s1.4-0.3,1.8-0.8s0.6-1.3,0.6-2.3c0-1-0.2-1.8-0.6-2.3c-0.4-0.5-1-0.8-1.8-0.8
	S333.6,288.1,333.2,288.6z M327.9,200.6h-1v3.8h-2.3v-10.7h3.4c1.3,0,2.3,0.3,3,0.8c0.7,0.6,1,1.4,1,2.5c0,1.2-0.4,2-1.1,2.6
	C330.3,200.3,329.2,200.6,327.9,200.6z M329.3,196c-0.3-0.3-0.7-0.4-1.4-0.4h-1v3.2h0.7c0.7,0,1.2-0.1,1.6-0.4
	c0.3-0.3,0.5-0.7,0.5-1.2C329.8,196.6,329.6,196.2,329.3,196z M330.3,284.2l-4.7,5.2l4.9,5.5H329l-5-5.4v5.4h-1.2v-10.7h1.2v5.2
	l4.8-5.2H330.3z M323.2,377.6H322v-2.8h-6.6v-8h1.2v7h4.3v-7h1.2v7h1.1V377.6z M321.2,284.2l-4,10.7H316l4-10.7H321.2z M319.1,195.6
	h-3.9v8.8h-2.3v-10.7h8.5v10.7h-2.3V195.6z M314.5,295h-1.2v-3.2h-2l-2.1,3.2h-1.4l2.3-3.4c-0.6-0.1-1.1-0.4-1.4-0.8
	c-0.3-0.4-0.5-0.9-0.5-1.5c0-0.7,0.2-1.3,0.7-1.7c0.5-0.4,1.2-0.6,2.1-0.6h3.6L314.5,295L314.5,295z M313.3,288h-2.2
	c-1.2,0-1.8,0.4-1.8,1.3s0.7,1.4,2,1.4h2V288z M308.4,204.5h-6.7v3.1h-2.2v-5h0.8c0.7-1.4,1.3-2.8,1.7-4.2c0.4-1.4,0.7-2.9,0.9-4.6
	h6.2v8.8h1.4v5h-2.2L308.4,204.5L308.4,204.5z M306.9,195.6h-2.2c-0.2,1.1-0.4,2.3-0.8,3.6c-0.4,1.2-0.8,2.4-1.2,3.4h4.2V195.6z
	 M302.9,527.3c0,1.1-0.4,1.9-1.1,2.5c-0.7,0.6-1.8,0.9-3.2,0.9h-1.3v4.2h-1.2v-10.7h2.8C301.5,524.1,302.9,525.2,302.9,527.3z
	 M300.9,525.7c-0.5-0.3-1.2-0.5-2.2-0.5h-1.4v4.4h1.1c1.1,0,1.9-0.2,2.4-0.5c0.5-0.4,0.7-0.9,0.7-1.7
	C301.6,526.6,301.3,526.1,300.9,525.7z M297.6,295H292v2.8h-1.2V294h0.6c0.7-0.9,1.2-1.9,1.5-3.1c0.4-1.2,0.6-2.5,0.6-3.9h4.1v7h1.1
	v3.8h-1.2L297.6,295L297.6,295z M296.4,287.9h-1.8c-0.1,1.1-0.3,2.2-0.6,3.3c-0.4,1.1-0.8,2-1.3,2.7h3.8L296.4,287.9L296.4,287.9z
	 M291.8,193.7h6.2v1.9h-3.9v2.4h3.6v1.9h-3.6v2.8h3.9v1.9h-6.2V193.7z M285,200.6h-1v3.8h-2.3v-10.7h3.4c1.3,0,2.3,0.3,3,0.8
	c0.7,0.6,1,1.4,1,2.5c0,1.2-0.4,2-1.1,2.6C287.4,200.3,286.4,200.6,285,200.6z M286.5,196c-0.3-0.3-0.7-0.4-1.4-0.4h-1v3.2h0.7
	c0.7,0,1.2-0.1,1.6-0.4c0.3-0.3,0.5-0.7,0.5-1.2C286.9,196.6,286.8,196.2,286.5,196z M281.8,293.2l6-8.9h1.4V295h-1.2v-5.9
	c0-1,0-2,0.1-3.1h-0.1l-6,9h-1.4v-10.7h1.2v6C281.8,291.3,281.8,292.3,281.8,293.2L281.8,293.2z M276.3,195.6h-3.9v8.8h-2.3v-10.7
	h8.5v10.7h-2.3V195.6z M273.3,448.8c0,0.5-0.2,0.9-0.5,1.2c-0.3,0.3-0.7,0.5-1.3,0.5v0.1c0.7,0.1,1.2,0.3,1.5,0.6
	c0.3,0.3,0.5,0.7,0.5,1.3c0,0.7-0.3,1.3-0.8,1.7c-0.5,0.4-1.4,0.6-2.4,0.6h-3.5v-8h3.5C272.3,446.8,273.3,447.5,273.3,448.8z
	 M268,453.8h2.2c1.4,0,2.1-0.5,2.1-1.4c0-0.4-0.2-0.8-0.5-0.9c-0.3-0.2-0.9-0.3-1.6-0.3H268V453.8z M268,447.9v2.3h2.1
	c0.8,0,1.3-0.1,1.6-0.3c0.3-0.2,0.5-0.5,0.5-0.9s-0.2-0.7-0.5-0.8c-0.3-0.2-0.8-0.2-1.4-0.2L268,447.9L268,447.9z M260.9,455
	c-0.7,0-1.4-0.2-1.9-0.5c-0.6-0.3-1-0.8-1.3-1.5c-0.3-0.6-0.5-1.4-0.5-2.2c0-1.3,0.3-2.3,1-3.1c0.7-0.7,1.6-1.1,2.7-1.1
	s2,0.4,2.7,1.1c0.7,0.7,1,1.8,1,3c0,1.3-0.3,2.3-1,3.1C262.9,454.6,262.1,455,260.9,455z M262.8,448.5c-0.4-0.5-1-0.8-1.8-0.8
	s-1.4,0.3-1.8,0.8c-0.4,0.5-0.6,1.3-0.6,2.3s0.2,1.8,0.6,2.3c0.4,0.5,1,0.8,1.8,0.8s1.4-0.3,1.8-0.8c0.4-0.5,0.6-1.3,0.6-2.3
	S263.2,449,262.8,448.5z M252.2,455c-0.5,0-1-0.1-1.4-0.3c-0.4-0.2-0.8-0.5-1.1-0.9h-0.1c0.1,0.5,0.1,0.9,0.1,1.3v3.3h-1.2v-11.6h1
	l0.2,1.1h0.1c0.3-0.4,0.7-0.8,1.1-1c0.4-0.2,0.9-0.3,1.4-0.3c1.1,0,1.9,0.4,2.5,1.1c0.6,0.7,0.9,1.7,0.9,3.1c0,1.3-0.3,2.3-0.9,3.1
	C254.1,454.6,253.3,455,252.2,455z M253.7,448.5c-0.4-0.5-0.9-0.8-1.7-0.8c-0.8,0-1.4,0.2-1.8,0.7s-0.6,1.2-0.6,2.2v0.3
	c0,1.1,0.2,1.9,0.6,2.4c0.4,0.5,1,0.7,1.8,0.7c0.7,0,1.2-0.3,1.6-0.8c0.4-0.6,0.6-1.3,0.6-2.3C254.3,449.8,254.1,449.1,253.7,448.5z
	 M241.6,453.2c0.5,0.5,1.1,0.7,1.9,0.7c0.9,0,1.7-0.2,2.6-0.5v1.1c-0.4,0.2-0.8,0.3-1.2,0.4c-0.4,0.1-0.8,0.1-1.4,0.1
	c-1.2,0-2.1-0.4-2.8-1.1c-0.7-0.7-1-1.7-1-3c0-1.3,0.3-2.3,1-3.1c0.6-0.8,1.5-1.1,2.6-1.1c1,0,1.8,0.3,2.4,1
	c0.6,0.7,0.9,1.5,0.9,2.6v0.8h-5.5C240.9,452,241.2,452.7,241.6,453.2z M245.1,450.1c0-0.8-0.2-1.4-0.5-1.8
	c-0.3-0.4-0.8-0.6-1.5-0.6c-0.6,0-1.2,0.2-1.5,0.6c-0.4,0.4-0.6,1-0.7,1.7L245.1,450.1L245.1,450.1z M235.9,454.9h-1.2v-7h-2.6v-1
	h6.4v1h-2.6L235.9,454.9L235.9,454.9z M230.2,454.9l-3.7-4.1v4.1h-1.2v-8h1.2v3.9l3.5-3.9h1.3l-3.5,3.9l3.8,4.2L230.2,454.9
	L230.2,454.9z M221.7,453.7L221.7,453.7c-0.5,0.5-0.9,0.8-1.3,1c-0.4,0.2-0.9,0.3-1.5,0.3c-0.8,0-1.4-0.2-1.9-0.6
	c-0.5-0.4-0.7-1-0.7-1.8c0-1.6,1.3-2.5,3.9-2.5h1.4v-0.5c0-0.6-0.1-1.1-0.4-1.4s-0.7-0.5-1.3-0.5c-0.7,0-1.4,0.2-2.3,0.6l-0.4-0.9
	c0.4-0.2,0.8-0.4,1.3-0.5c0.5-0.1,0.9-0.2,1.4-0.2c1,0,1.7,0.2,2.1,0.6c0.5,0.4,0.7,1.1,0.7,2v5.5h-0.9L221.7,453.7z M221.6,450.9
	l-1.2,0.1c-1,0-1.7,0.2-2.1,0.5c-0.4,0.3-0.6,0.7-0.6,1.2c0,0.4,0.1,0.8,0.4,1s0.6,0.3,1.1,0.3c0.8,0,1.4-0.2,1.8-0.6s0.6-1,0.6-1.7
	C221.6,451.7,221.6,450.9,221.6,450.9z M207.9,454.9h-1.3v-8h4.8v1h-3.6L207.9,454.9L207.9,454.9z M202.9,451.2h-4.5v3.6h-1.2v-8
	h1.2v3.4h4.5v-3.4h1.2v8h-1.2V451.2z M193.4,449.9v-1v-1l-4.3,6.8h-1.5v-8h1.1v5.1l-0.1,1.3v0.4l4.3-6.8h1.7v8h-1.1L193.4,449.9
	L193.4,449.9z M183.4,454.9h-1.2v-7h-2.6v-1h6.4v1h-2.6V454.9z M177.6,447.9c-0.3-0.1-0.6-0.1-0.8-0.1c-1.6,0-2.4,1-2.4,3.1
	c0,1,0.2,1.7,0.6,2.3c0.4,0.5,1,0.8,1.8,0.8c0.7,0,1.4-0.1,2.1-0.4v1.1c-0.5,0.3-1.2,0.4-2,0.4c-1.2,0-2.1-0.4-2.7-1.1
	c-0.6-0.7-1-1.7-1-3c0-1.3,0.3-2.4,1-3.1c0.6-0.7,1.6-1.1,2.8-1.1c0.4,0,0.8,0,1.2,0.1s0.7,0.2,0.9,0.3l-0.4,1
	C178.2,448,177.9,447.9,177.6,447.9z M169.8,453.7L169.8,453.7c-0.5,0.5-0.9,0.8-1.3,1c-0.4,0.2-0.9,0.3-1.5,0.3
	c-0.8,0-1.4-0.2-1.9-0.6c-0.5-0.4-0.7-1-0.7-1.8c0-1.6,1.3-2.5,3.9-2.5h1.4v-0.5c0-0.6-0.1-1.1-0.4-1.4s-0.7-0.5-1.3-0.5
	c-0.7,0-1.4,0.2-2.3,0.6l-0.4-0.9c0.4-0.2,0.8-0.4,1.3-0.5c0.5-0.1,0.9-0.2,1.4-0.2c1,0,1.7,0.2,2.1,0.6c0.5,0.4,0.7,1.1,0.7,2v5.5
	h-0.9L169.8,453.7z M169.8,450.9l-1.2,0.1c-1,0-1.7,0.2-2.1,0.5s-0.6,0.7-0.6,1.2c0,0.4,0.1,0.8,0.4,1s0.6,0.3,1.1,0.3
	c0.8,0,1.4-0.2,1.8-0.6s0.6-1,0.6-1.7C169.8,451.7,169.8,450.9,169.8,450.9z M162.4,454.9l-5-5.4v5.4h-1.2v-10.7h1.2v5.2l4.8-5.2
	h1.4l-4.7,5.2l4.9,5.5H162.4z M301,294c-0.7-0.7-1-1.7-1-3c0-1.3,0.3-2.3,1-3.1s1.5-1.1,2.6-1.1c1,0,1.8,0.3,2.4,1
	c0.6,0.7,0.9,1.5,0.9,2.6v0.8h-5.5c0,0.9,0.3,1.7,0.7,2.1c0.5,0.5,1.1,0.7,1.9,0.7c0.9,0,1.7-0.2,2.6-0.5v1.1
	c-0.4,0.2-0.8,0.3-1.2,0.4c-0.4,0.1-0.8,0.1-1.4,0.1C302.6,295.1,301.6,294.7,301,294z M305.4,290.2c0-0.8-0.2-1.4-0.5-1.8
	c-0.3-0.4-0.8-0.6-1.5-0.6c-0.6,0-1.2,0.2-1.5,0.6c-0.4,0.4-0.6,1-0.7,1.7L305.4,290.2L305.4,290.2z M308.2,530.1h1.4v-0.5
	c0-0.6-0.1-1.1-0.4-1.4c-0.3-0.3-0.7-0.5-1.3-0.5c-0.7,0-1.4,0.2-2.3,0.6l-0.4-0.9c0.4-0.2,0.8-0.4,1.3-0.5c0.5-0.1,0.9-0.2,1.4-0.2
	c1,0,1.7,0.2,2.1,0.6c0.5,0.4,0.7,1.1,0.7,2v5.5h-0.9l-0.2-1.1h-0.1c-0.4,0.5-0.8,0.8-1.2,1c-0.4,0.2-0.9,0.3-1.5,0.3
	c-0.8,0-1.4-0.2-1.9-0.6c-0.5-0.4-0.7-1-0.7-1.8C304.3,531,305.6,530.2,308.2,530.1z M306,533.7c0.3,0.2,0.6,0.3,1.1,0.3
	c0.8,0,1.4-0.2,1.8-0.6c0.4-0.4,0.6-1,0.6-1.7V531l-1.2,0.1c-1,0-1.7,0.2-2.1,0.5s-0.6,0.7-0.6,1.2
	C305.6,533.1,305.7,533.4,306,533.7z M310.6,373.9c0.7,0,1.6-0.1,2.6-0.4v1.1c-0.7,0.3-1.7,0.4-2.7,0.4c-1.6,0-2.8-0.5-3.7-1.4
	c-0.9-1-1.3-2.3-1.3-4.1c0-1.1,0.2-2.1,0.6-2.9c0.4-0.8,1-1.5,1.8-1.9c0.8-0.4,1.7-0.7,2.8-0.7c1.1,0,2.1,0.2,2.9,0.6l-0.5,1.1
	c-0.8-0.4-1.6-0.6-2.4-0.6c-1.2,0-2.1,0.4-2.8,1.2c-0.7,0.8-1,1.9-1,3.2c0,1.4,0.3,2.5,1,3.2C308.5,373.5,309.4,373.9,310.6,373.9z
	 M316.5,526.7c0.4,0,0.8,0,1.2,0.1c0.4,0.1,0.7,0.2,0.9,0.3l-0.4,1c-0.3-0.1-0.6-0.2-0.9-0.3c-0.3-0.1-0.6-0.1-0.8-0.1
	c-1.6,0-2.4,1-2.4,3.1c0,1,0.2,1.7,0.6,2.3c0.4,0.5,1,0.8,1.8,0.8c0.7,0,1.4-0.1,2.1-0.4v1.1c-0.5,0.3-1.2,0.4-2,0.4
	c-1.2,0-2.1-0.4-2.7-1.1s-1-1.7-1-3c0-1.3,0.3-2.4,1-3.1C314.4,527,315.4,526.7,316.5,526.7z M321.6,530.7l3.5-3.9h1.3l-3.5,3.9
	l3.8,4.2h-1.4L321.6,530.7v4.1h-1.2v-8h1.2V530.7z M328.2,373.9c0.9,0,1.7-0.2,2.6-0.5v1.1c-0.4,0.2-0.8,0.3-1.2,0.4
	c-0.4,0.1-0.8,0.1-1.4,0.1c-1.2,0-2.1-0.4-2.8-1.1c-0.7-0.7-1-1.7-1-3s0.3-2.3,1-3.1c0.6-0.8,1.5-1.1,2.6-1.1c1,0,1.8,0.3,2.4,1
	c0.6,0.7,0.9,1.5,0.9,2.6v0.8h-5.8c0,0.9,0.3,1.7,0.7,2.1C326.7,373.7,327.3,373.9,328.2,373.9z M329.8,370.1c0-0.8-0.2-1.4-0.5-1.8
	c-0.3-0.4-0.8-0.6-1.5-0.6c-0.6,0-1.2,0.2-1.5,0.6c-0.4,0.4-0.6,1-0.7,1.7L329.8,370.1L329.8,370.1z M331.5,530.1h1.4v-0.5
	c0-0.6-0.1-1.1-0.4-1.4c-0.3-0.3-0.7-0.5-1.3-0.5c-0.7,0-1.4,0.2-2.3,0.6l-0.4-0.9c0.4-0.2,0.8-0.4,1.3-0.5c0.5-0.1,0.9-0.2,1.4-0.2
	c1,0,1.7,0.2,2.1,0.6c0.5,0.4,0.7,1.1,0.7,2v5.5h-0.9l-0.2-1.1h-0.1c-0.4,0.5-0.8,0.8-1.2,1c-0.4,0.2-0.9,0.3-1.5,0.3
	c-0.8,0-1.4-0.2-1.9-0.6c-0.5-0.4-0.7-1-0.7-1.8C327.6,531,328.9,530.2,331.5,530.1z M329.3,533.7c0.3,0.2,0.6,0.3,1.1,0.3
	c0.8,0,1.4-0.2,1.8-0.6c0.4-0.4,0.6-1,0.6-1.7V531l-1.2,0.1c-1,0-1.7,0.2-2.1,0.5s-0.6,0.7-0.6,1.2
	C328.9,533.1,329,533.4,329.3,533.7z M333.1,374.9v-8h1.2v3.4h4.5v-3.4h1.2v8h-1.2v-3.6h-4.5v3.6H333.1z M337.7,530.7
	c0.4-1.2,0.6-2.5,0.6-3.9h4.1v7h1.1v3.8h-1.2v-2.8h-5.6v2.8h-1.2v-3.8h0.6C336.8,532.9,337.3,531.9,337.7,530.7z M341.2,533.8v-6
	h-1.8c-0.1,1.1-0.3,2.2-0.6,3.3c-0.4,1.1-0.8,2-1.3,2.7H341.2z M347.8,286.9v8h-1.2v-3.6h-4.5v3.6h-1.2v-8h1.2v3.4h4.5v-3.4H347.8z
	 M342.7,374.4c-0.5-0.4-0.7-1-0.7-1.8c0-1.6,1.3-2.5,3.9-2.5h1.4v-0.5c0-0.6-0.1-1.1-0.4-1.4c-0.3-0.3-0.7-0.5-1.3-0.5
	c-0.7,0-1.4,0.2-2.3,0.6l-0.4-0.9c0.4-0.2,0.8-0.4,1.3-0.5c0.5-0.1,0.9-0.2,1.4-0.2c1,0,1.7,0.2,2.1,0.6c0.5,0.4,0.7,1.1,0.7,2v5.5
	h-0.9l-0.2-1.1h-0.1c-0.4,0.5-0.8,0.8-1.2,1c-0.4,0.2-0.9,0.3-1.5,0.3C343.8,375,343.2,374.8,342.7,374.4z M343.7,373.7
	c0.3,0.2,0.6,0.3,1.1,0.3c0.8,0,1.4-0.2,1.8-0.6c0.4-0.4,0.6-1,0.6-1.7V371l-1.2,0.1c-1,0-1.7,0.2-2.1,0.5c-0.4,0.3-0.6,0.7-0.6,1.2
	C343.3,373.1,343.5,373.4,343.7,373.7z M346.3,527.9L346.3,527.9c0.4-0.4,0.7-0.8,1.1-1c0.4-0.2,0.9-0.3,1.4-0.3
	c1.1,0,1.9,0.4,2.5,1.1c0.6,0.7,0.9,1.7,0.9,3.1c0,1.3-0.3,2.3-0.9,3.1c-0.6,0.7-1.4,1.1-2.4,1.1c-0.5,0-1-0.1-1.4-0.3
	s-0.8-0.5-1.1-0.9h-0.1c0.1,0.5,0.1,0.9,0.1,1.3v3.3h-1.2v-11.6h1L346.3,527.9z M346.3,530.8c0,1.1,0.2,1.9,0.6,2.4
	c0.4,0.5,1,0.7,1.8,0.7c0.7,0,1.2-0.3,1.6-0.8c0.4-0.6,0.6-1.3,0.6-2.3c0-1-0.2-1.8-0.6-2.3c-0.4-0.5-0.9-0.8-1.7-0.8
	c-0.8,0-1.4,0.2-1.8,0.7c-0.4,0.5-0.6,1.2-0.6,2.2L346.3,530.8L346.3,530.8z M352.2,378.5H351v-11.6h1l0.2,1.1h0.1
	c0.3-0.4,0.7-0.8,1.1-1s0.9-0.3,1.4-0.3c1.1,0,1.9,0.4,2.5,1.1c0.6,0.7,0.9,1.7,0.9,3.1c0,1.3-0.3,2.3-0.9,3.1
	c-0.6,0.7-1.4,1.1-2.5,1.1c-0.5,0-1-0.1-1.4-0.3c-0.4-0.2-0.8-0.5-1.1-0.9h-0.1c0.1,0.5,0.1,0.9,0.1,1.3L352.2,378.5L352.2,378.5z
	 M352.2,370.8c0,1.1,0.2,1.9,0.6,2.4s1,0.7,1.8,0.7c0.7,0,1.2-0.3,1.6-0.8c0.4-0.6,0.6-1.3,0.6-2.3c0-1-0.2-1.8-0.6-2.3
	s-0.9-0.8-1.7-0.8c-0.8,0-1.4,0.2-1.8,0.7c-0.4,0.5-0.6,1.2-0.6,2.2L352.2,370.8L352.2,370.8z M357.6,526.7c1.1,0,2,0.4,2.7,1.1
	c0.7,0.7,1,1.8,1,3c0,1.3-0.3,2.3-1,3.1c-0.7,0.7-1.6,1.1-2.7,1.1c-0.7,0-1.4-0.2-1.9-0.5c-0.6-0.3-1-0.8-1.3-1.5
	c-0.3-0.6-0.5-1.4-0.5-2.2c0-1.3,0.3-2.3,1-3.1C355.5,527,356.4,526.7,357.6,526.7z M355.7,533.2c0.4,0.5,1,0.8,1.8,0.8
	c0.8,0,1.4-0.3,1.8-0.8c0.4-0.5,0.6-1.3,0.6-2.3c0-1-0.2-1.8-0.6-2.3c-0.4-0.5-1-0.8-1.8-0.8c-0.8,0-1.4,0.3-1.8,0.8
	c-0.4,0.5-0.6,1.3-0.6,2.3C355.1,531.9,355.3,532.6,355.7,533.2z M363.2,294c0.9,0,1.7-0.2,2.6-0.5v1.1c-0.4,0.2-0.8,0.3-1.2,0.4
	s-0.8,0.1-1.4,0.1c-1.2,0-2.1-0.4-2.8-1.1c-0.7-0.7-1-1.7-1-3c0-1.3,0.3-2.3,1-3.1s1.5-1.1,2.6-1.1c1,0,1.8,0.3,2.4,1
	c0.6,0.7,0.9,1.5,0.9,2.6v0.8h-5.5c0,0.9,0.3,1.7,0.7,2.1C361.7,293.8,362.4,294,363.2,294z M364.8,290.2c0-0.8-0.2-1.4-0.5-1.8
	c-0.3-0.4-0.8-0.6-1.5-0.6c-0.6,0-1.2,0.2-1.5,0.6c-0.4,0.4-0.6,1-0.7,1.7L364.8,290.2L364.8,290.2z M360.2,366.8h1.1v5.1l-0.1,1.3
	v0.4l4.3-6.8h1.5v8h-1.1v-4.9v-1v-1l-4.3,6.8h-1.5L360.2,366.8L360.2,366.8z M369.9,528.8c0,0.5-0.2,0.9-0.5,1.2
	c-0.3,0.3-0.7,0.5-1.3,0.5v0.1c0.7,0.1,1.2,0.3,1.5,0.6s0.5,0.7,0.5,1.3c0,0.7-0.3,1.3-0.8,1.7c-0.5,0.4-1.4,0.6-2.4,0.6h-3.5v-8
	h3.5C368.9,526.8,369.9,527.5,369.9,528.8z M364.6,533.8h2.2c1.4,0,2.1-0.5,2.1-1.4c0-0.4-0.2-0.8-0.5-0.9c-0.3-0.2-0.9-0.3-1.6-0.3
	h-2.2V533.8z M364.6,527.9v2.3h2.1c0.8,0,1.3-0.1,1.6-0.3c0.3-0.2,0.5-0.5,0.5-0.9c0-0.4-0.2-0.7-0.5-0.8c-0.3-0.2-0.8-0.2-1.4-0.2
	L364.6,527.9L364.6,527.9z M375.1,365.2c-0.4,0.4-1.1,0.5-2,0.5s-1.6-0.2-2-0.5c-0.4-0.3-0.6-0.9-0.7-1.7h1.1c0,0.5,0.2,0.9,0.4,1.1
	c0.2,0.2,0.6,0.3,1.2,0.3c0.5,0,0.9-0.1,1.1-0.3c0.2-0.2,0.4-0.6,0.4-1h1.1C375.8,364.3,375.6,364.9,375.1,365.2z M368.2,295v-8h6.7
	v8h-1.2v-7h-4.3v7H368.2z M369.7,366.8h1.1v5.1l-0.1,1.3v0.4l4.3-6.8h1.5v8h-1v-4.9v-1v-1l-4.3,6.8h-1.5V366.8z M373.1,530.7
	l3.5-3.9h1.3l-3.5,3.9l3.8,4.2h-1.4L373.1,530.7v4.1h-1.2v-8h1.2V530.7z M384.2,286.9v7h1.1v3.8h-1.2v-2.8h-6.6v-8h1.2v7h4.3v-7
	H384.2z M380.8,531.9l-0.1,1.3v0.4l4.3-6.8h1.5v8h-1v-4.9v-1v-1l-4.3,6.8h-1.5v-8h1.1L380.8,531.9L380.8,531.9z M388,292l-0.1,1.3
	v0.4l4.3-6.8h1.5v8h-1.1V290v-1v-1l-4.3,6.8h-1.5v-8h1.1L388,292L388,292z M597.9,705.1c0.4-1.2,0.6-2.5,0.6-3.9h4.1v7h1.1v3.8h-1.2
	v-2.8h-5.6v2.8h-1.2v-3.8h0.6C597,707.3,597.5,706.3,597.9,705.1z M601.3,708.2v-6h-1.8c-0.1,1.1-0.3,2.2-0.6,3.3
	c-0.4,1.1-0.8,2-1.3,2.7H601.3z M632.4,704.6h4.5v-3.4h1.2v8h-1.2v-3.6h-4.5v3.6h-1.2v-8h1.2V704.6z M641.8,706.3l-0.1,1.3v0.4
	l4.3-6.8h1.5v8h-1.1v-4.9v-1v-1l-4.3,6.8h-1.5v-8h1.1L641.8,706.3L641.8,706.3z M699.6,797.6c1.1,0,2,0.4,2.7,1.1c0.7,0.7,1,1.8,1,3
	c0,1.3-0.3,2.3-1,3.1c-0.7,0.7-1.6,1.1-2.7,1.1c-0.7,0-1.4-0.2-1.9-0.5c-0.6-0.3-1-0.8-1.3-1.5c-0.3-0.6-0.5-1.4-0.5-2.2
	c0-1.3,0.3-2.3,1-3.1C697.6,797.9,698.5,797.6,699.6,797.6z M697.8,804.1c0.4,0.5,1,0.8,1.8,0.8c0.8,0,1.4-0.3,1.8-0.8
	c0.4-0.5,0.6-1.3,0.6-2.3c0-1-0.2-1.8-0.6-2.3s-1-0.8-1.8-0.8c-0.8,0-1.4,0.3-1.8,0.8c-0.4,0.5-0.6,1.3-0.6,2.3
	C697.2,802.8,697.4,803.5,697.8,804.1z M706.6,798.8L706.6,798.8c0.4-0.4,0.7-0.8,1.1-1c0.4-0.2,0.9-0.3,1.4-0.3
	c1.1,0,1.9,0.4,2.5,1.1c0.6,0.7,0.9,1.7,0.9,3.1c0,1.3-0.3,2.3-0.9,3.1c-0.6,0.7-1.4,1.1-2.5,1.1c-0.5,0-1-0.1-1.4-0.3
	c-0.4-0.2-0.8-0.5-1.1-0.9h-0.1c0.1,0.5,0.1,0.9,0.1,1.3v3.3h-1.2v-11.6h1L706.6,798.8z M706.6,801.7c0,1.1,0.2,1.9,0.6,2.4
	c0.4,0.5,1,0.7,1.8,0.7c0.7,0,1.2-0.3,1.6-0.8c0.4-0.6,0.6-1.3,0.6-2.3c0-1-0.2-1.8-0.6-2.3c-0.4-0.5-0.9-0.8-1.7-0.8
	c-0.8,0-1.4,0.2-1.8,0.7c-0.4,0.5-0.6,1.2-0.6,2.2v0.2H706.6z M708.8,540.4v-8.8h-2.7v-1.9h5v4.1h0.9c1.4,0,2.5,0.3,3.2,0.8
	c0.8,0.6,1.1,1.4,1.1,2.4c0,1.1-0.4,1.9-1.1,2.5c-0.7,0.6-1.8,0.8-3.3,0.8L708.8,540.4L708.8,540.4z M714,537c0-0.5-0.2-0.8-0.5-1.1
	c-0.4-0.2-1-0.3-1.9-0.3H711v2.9h0.8c0.8,0,1.3-0.1,1.7-0.4C713.8,537.9,714,537.5,714,537z M714.7,797.7l1.8,4.6
	c0.4,1,0.6,1.8,0.7,2.3h0.1c0.1-0.2,0.2-0.7,0.4-1.3c0.2-0.6,0.9-2.5,2-5.6h1.3l-3.6,9.2c-0.3,0.9-0.7,1.5-1.2,1.9
	c-0.5,0.4-1,0.6-1.7,0.6c-0.4,0-0.7,0-1.1-0.1v-1c0.3,0.1,0.6,0.1,0.9,0.1c0.8,0,1.4-0.5,1.8-1.4l0.4-1.1l-3.2-8.1L714.7,797.7
	L714.7,797.7z M723.4,801.6c0.4-1.2,0.6-2.5,0.6-3.9h4.1v7h1.1v3.8H728v-2.8h-5.6v2.8h-1.2v-3.8h0.6
	C722.5,803.8,723,802.8,723.4,801.6z M726.8,804.7v-6H725c-0.1,1.1-0.3,2.2-0.6,3.3c-0.4,1.1-0.8,2-1.3,2.7H726.8z M734,797.6
	c1.1,0,2,0.4,2.7,1.1c0.7,0.7,1,1.8,1,3c0,1.3-0.3,2.3-1,3.1c-0.7,0.7-1.6,1.1-2.7,1.1c-0.7,0-1.4-0.2-1.9-0.5
	c-0.6-0.3-1-0.8-1.3-1.5c-0.3-0.6-0.5-1.4-0.5-2.2c0-1.3,0.3-2.3,1-3.1C731.9,797.9,732.9,797.6,734,797.6z M732.2,804.1
	c0.4,0.5,1,0.8,1.8,0.8c0.8,0,1.4-0.3,1.8-0.8c0.4-0.5,0.6-1.3,0.6-2.3c0-1-0.2-1.8-0.6-2.3s-1-0.8-1.8-0.8c-0.8,0-1.4,0.3-1.8,0.8
	s-0.6,1.3-0.6,2.3C731.6,802.8,731.8,803.5,732.2,804.1z M746.3,799.7c0,0.5-0.2,0.9-0.5,1.2s-0.7,0.5-1.3,0.5v0.1
	c0.7,0.1,1.2,0.3,1.5,0.6s0.5,0.7,0.5,1.3c0,0.7-0.3,1.3-0.8,1.7c-0.5,0.4-1.4,0.6-2.4,0.6h-3.5v-8h3.5
	C745.3,797.7,746.3,798.4,746.3,799.7z M741,804.7h2.2c1.4,0,2.1-0.5,2.1-1.4c0-0.4-0.2-0.8-0.5-0.9c-0.3-0.2-0.9-0.3-1.6-0.3H741
	V804.7z M741,798.8v2.3h2.1c0.8,0,1.3-0.1,1.6-0.3c0.3-0.2,0.5-0.5,0.5-0.9c0-0.4-0.2-0.7-0.5-0.8c-0.3-0.2-0.8-0.2-1.4-0.2
	L741,798.8L741,798.8z M748.8,540.4l-3.9-5.4v5.4h-2.3v-10.7h2.3v5.2l3.8-5.2h2.4l-3.9,5.1l4.1,5.6L748.8,540.4L748.8,540.4z
	 M751.6,801h1.4v-0.5c0-0.6-0.1-1.1-0.4-1.4c-0.3-0.3-0.7-0.5-1.3-0.5c-0.7,0-1.4,0.2-2.3,0.6l-0.4-0.9c0.4-0.2,0.8-0.4,1.3-0.5
	c0.5-0.1,0.9-0.2,1.4-0.2c1,0,1.7,0.2,2.1,0.6c0.5,0.4,0.7,1.1,0.7,2v5.5h-0.9l-0.2-1.1h-0.1c-0.4,0.5-0.8,0.8-1.2,1
	s-0.9,0.3-1.5,0.3c-0.8,0-1.4-0.2-1.9-0.6c-0.5-0.4-0.7-1-0.7-1.8C747.8,801.9,749,801.1,751.6,801z M749.4,804.6
	c0.3,0.2,0.6,0.3,1.1,0.3c0.8,0,1.4-0.2,1.8-0.6c0.4-0.4,0.6-1,0.6-1.7v-0.7l-1.2,0.1c-1,0-1.7,0.2-2.1,0.5
	c-0.4,0.3-0.6,0.7-0.6,1.2C749,804,749.2,804.3,749.4,804.6z M755.8,529.6h2.8l3.8,10.8H760l-0.8-2.5h-3.9l-0.8,2.5h-2.4
	L755.8,529.6z M758.6,535.9c-0.7-2.3-1.1-3.6-1.2-3.9c-0.1-0.3-0.2-0.5-0.2-0.7c-0.2,0.6-0.6,2.2-1.4,4.6L758.6,535.9L758.6,535.9z
	 M757.9,801.1h4.5v-3.4h1.2v8h-1.2v-3.6h-4.5v3.6h-1.2v-8h1.2V801.1z M836.4,704.5h1.4v-0.6c0-0.6-0.1-1.1-0.4-1.4
	c-0.3-0.3-0.7-0.5-1.3-0.5c-0.7,0-1.4,0.2-2.3,0.6l-0.4-0.9c0.4-0.2,0.8-0.4,1.3-0.5c0.5-0.1,0.9-0.2,1.4-0.2c1,0,1.7,0.2,2.1,0.6
	c0.5,0.4,0.7,1.1,0.7,2v5.5H838l-0.2-1.1h-0.1c-0.4,0.5-0.8,0.8-1.2,1c-0.4,0.2-0.9,0.3-1.5,0.3c-0.8,0-1.4-0.2-1.9-0.6
	c-0.5-0.4-0.7-1-0.7-1.8C832.5,705.4,833.8,704.6,836.4,704.5z M834.2,708.1c0.3,0.2,0.6,0.3,1.1,0.3c0.8,0,1.4-0.2,1.8-0.6
	c0.4-0.4,0.6-1,0.6-1.7v-0.7l-1.2,0.1c-1,0-1.7,0.2-2.1,0.5c-0.4,0.3-0.6,0.7-0.6,1.2C833.8,707.5,833.9,707.8,834.2,708.1z
	 M848.6,701.1c0.4,0,0.8,0,1.2,0.1c0.4,0.1,0.7,0.2,0.9,0.3l-0.4,1c-0.3-0.1-0.6-0.2-0.9-0.3c-0.3-0.1-0.6-0.1-0.8-0.1
	c-1.6,0-2.4,1-2.4,3.1c0,1,0.2,1.7,0.6,2.3c0.4,0.5,1,0.8,1.8,0.8c0.7,0,1.4-0.1,2.1-0.4v1.1c-0.5,0.3-1.2,0.4-2,0.4
	c-1.2,0-2.1-0.4-2.7-1.1c-0.6-0.7-1-1.7-1-3s0.3-2.4,1-3.1C846.5,701.4,847.4,701.1,848.6,701.1z M859.6,704.5h1.4v-0.6
	c0-0.6-0.1-1.1-0.4-1.4c-0.3-0.3-0.7-0.5-1.3-0.5c-0.7,0-1.4,0.2-2.3,0.6l-0.4-0.9c0.4-0.2,0.8-0.4,1.3-0.5c0.5-0.1,0.9-0.2,1.4-0.2
	c1,0,1.7,0.2,2.1,0.6c0.4,0.4,0.7,1.1,0.7,2v5.5h-0.8l-0.2-1.1H861c-0.4,0.5-0.8,0.8-1.2,1c-0.4,0.2-0.9,0.3-1.5,0.3
	c-0.8,0-1.4-0.2-1.9-0.6s-0.7-1-0.7-1.8C855.8,705.4,857.1,704.6,859.6,704.5z M857.4,708.1c0.3,0.2,0.6,0.3,1.1,0.3
	c0.8,0,1.4-0.2,1.8-0.6s0.6-1,0.6-1.7v-0.7l-1.2,0.1c-1,0-1.7,0.2-2.1,0.5c-0.4,0.3-0.6,0.7-0.6,1.2
	C857,707.5,857.2,707.8,857.4,708.1z M865.9,705.1l3.5-3.9h1.3l-3.5,3.9l3.8,4.2h-1.4L865.9,705.1v4.1h-1.2v-8h1.2V705.1z
	 M991.3,445.7v-3.3h1.2v3.3c1.2,0.1,2.2,0.5,2.9,1.3c0.7,0.7,1,1.7,1,2.9c0,1.2-0.3,2.2-1,2.9c-0.7,0.7-1.7,1.1-2.9,1.2v3.5h-1.2
	V454c-1.2-0.1-2.2-0.5-2.9-1.2c-0.7-0.7-1.1-1.7-1.1-2.9c0-1.2,0.4-2.2,1.1-2.9C989.1,446.2,990.1,445.8,991.3,445.7z M992.5,453
	c0.9-0.1,1.6-0.4,2-0.9c0.4-0.5,0.6-1.3,0.6-2.2c0-1.9-0.9-2.9-2.7-3.1L992.5,453L992.5,453z M989.3,452c0.4,0.5,1.1,0.8,2.1,0.9
	v-6.2c-0.9,0.1-1.6,0.4-2,0.9c-0.4,0.5-0.7,1.2-0.7,2.2C988.6,450.8,988.9,451.5,989.3,452z M1002.6,365.8v8h-1.2v-8H1002.6z
	 M999.7,450.9l-0.1,1.3v0.4l4.3-6.8h1.5v8h-1.1v-4.9v-1v-1l-4.3,6.8h-1.5v-8h1.1L999.7,450.9L999.7,450.9z M1009.3,449.7l3.5-3.9
	h1.3l-3.5,3.9l3.8,4.2h-1.4L1009.3,449.7v4.1h-1.2v-8h1.2V449.7z M1017.2,367.2c-0.3-0.3-0.7-0.5-1.3-0.5c-0.7,0-1.4,0.2-2.3,0.6
	l-0.4-0.9c0.4-0.2,0.8-0.4,1.3-0.5s0.9-0.2,1.4-0.2c1,0,1.7,0.2,2.1,0.6c0.5,0.4,0.7,1.1,0.7,2v5.5h-0.9l-0.2-1.1h-0.1
	c-0.4,0.5-0.8,0.8-1.2,1c-0.4,0.2-0.9,0.3-1.5,0.3c-0.8,0-1.4-0.2-1.9-0.6c-0.5-0.4-0.7-1-0.7-1.8c0-1.6,1.3-2.5,3.9-2.5h1.4v-0.5
	C1017.7,367.9,1017.5,367.5,1017.2,367.2z M1017.6,369.9l-1.2,0.1c-1,0-1.7,0.2-2.1,0.5s-0.6,0.7-0.6,1.2c0,0.4,0.1,0.8,0.4,1
	c0.3,0.2,0.6,0.3,1.1,0.3c0.8,0,1.4-0.2,1.8-0.6c0.4-0.4,0.6-1,0.6-1.7V369.9z M1182.7,453c1,0,1.7-0.2,2.2-0.5
	c0.5-0.4,0.7-0.9,0.7-1.6c0-0.7-0.3-1.1-0.8-1.5c-0.5-0.3-1.4-0.5-2.5-0.5h-1.6v-1h1.5c1,0,1.8-0.2,2.3-0.5c0.5-0.4,0.8-0.9,0.8-1.5
	c0-0.5-0.2-0.9-0.6-1.3c-0.4-0.3-0.9-0.5-1.6-0.5c-0.5,0-1,0.1-1.5,0.2c-0.4,0.1-0.9,0.4-1.5,0.7l-0.6-0.8c0.5-0.4,1-0.6,1.7-0.8
	c0.6-0.2,1.2-0.3,1.9-0.3c1.1,0,2,0.2,2.6,0.7c0.6,0.5,0.9,1.1,0.9,1.9c0,0.7-0.2,1.3-0.7,1.7c-0.4,0.4-1.1,0.7-1.8,0.8v0.1
	c0.9,0.1,1.6,0.4,2,0.8c0.5,0.4,0.7,1,0.7,1.7c0,1-0.4,1.8-1.1,2.3c-0.7,0.6-1.8,0.8-3.2,0.8c-1.2,0-2.3-0.2-3.1-0.6v-1.2
	c0.5,0.2,1,0.4,1.5,0.5C1181.7,452.9,1182.2,453,1182.7,453z M1192.4,449.1h1.4v-0.5c0-0.6-0.1-1.1-0.4-1.4s-0.7-0.5-1.3-0.5
	c-0.7,0-1.4,0.2-2.3,0.6l-0.4-0.9c0.4-0.2,0.8-0.4,1.3-0.5c0.5-0.1,0.9-0.2,1.4-0.2c1,0,1.7,0.2,2.1,0.6c0.5,0.4,0.7,1.1,0.7,2v5.5
	h-0.9l-0.2-1.1h-0.1c-0.4,0.5-0.8,0.8-1.2,1c-0.4,0.2-0.9,0.3-1.5,0.3c-0.8,0-1.4-0.2-1.9-0.6c-0.5-0.4-0.7-1-0.7-1.8
	C1188.5,450,1189.8,449.2,1192.4,449.1z M1190.2,452.7c0.3,0.2,0.6,0.3,1.1,0.3c0.8,0,1.4-0.2,1.8-0.6c0.4-0.4,0.6-1,0.6-1.7V450
	l-1.2,0.1c-1,0-1.7,0.2-2.1,0.5s-0.6,0.7-0.6,1.2C1189.8,452.1,1189.9,452.4,1190.2,452.7z M1198.6,449.7l3.5-3.9h1.3l-3.5,3.9
	l3.8,4.2h-1.4L1198.6,449.7v4.1h-1.2v-8h1.2V449.7z M1201.6,367.3c0.3,0.2,0.8,0.4,1.5,0.7c1.1,0.4,1.9,0.8,2.3,1.3
	c0.4,0.5,0.6,1.1,0.6,1.8c0,0.9-0.3,1.7-1,2.2s-1.6,0.8-2.8,0.8c-1.3,0-2.2-0.2-2.9-0.5v-1.2c0.4,0.2,0.9,0.3,1.4,0.4
	c0.5,0.1,1,0.2,1.5,0.2c0.8,0,1.5-0.2,1.9-0.5s0.6-0.8,0.6-1.3c0-0.4-0.1-0.7-0.2-0.9c-0.1-0.2-0.4-0.5-0.7-0.7
	c-0.3-0.2-0.9-0.4-1.6-0.7c-1-0.4-1.7-0.8-2.1-1.3c-0.4-0.5-0.6-1.1-0.6-1.9c0-0.8,0.3-1.5,0.9-2c0.6-0.5,1.4-0.7,2.5-0.7
	s2,0.2,2.9,0.6l-0.4,1.1c-0.9-0.4-1.7-0.6-2.6-0.6c-0.7,0-1.2,0.1-1.5,0.4c-0.4,0.3-0.6,0.7-0.6,1.2c0,0.4,0.1,0.7,0.2,0.9
	C1201.1,366.9,1201.3,367.1,1201.6,367.3z M1208.5,449.1h1.4v-0.5c0-0.6-0.1-1.1-0.4-1.4s-0.7-0.5-1.3-0.5c-0.7,0-1.4,0.2-2.3,0.6
	l-0.4-0.9c0.4-0.2,0.8-0.4,1.3-0.5c0.5-0.1,0.9-0.2,1.4-0.2c1,0,1.7,0.2,2.1,0.6c0.5,0.4,0.7,1.1,0.7,2v5.5h-0.9l-0.2-1.1h-0.1
	c-0.4,0.5-0.8,0.8-1.2,1c-0.4,0.2-0.9,0.3-1.5,0.3c-0.8,0-1.4-0.2-1.9-0.6c-0.5-0.4-0.7-1-0.7-1.8
	C1204.6,450,1205.9,449.2,1208.5,449.1z M1206.3,452.7c0.3,0.2,0.6,0.3,1.1,0.3c0.8,0,1.4-0.2,1.8-0.6c0.4-0.4,0.6-1,0.6-1.7V450
	l-1.2,0.1c-1,0-1.7,0.2-2.1,0.5s-0.6,0.7-0.6,1.2C1205.9,452.1,1206,452.4,1206.3,452.7z M1208.1,372c-0.3-0.6-0.5-1.4-0.5-2.2
	c0-1.3,0.3-2.3,1-3.1c0.7-0.7,1.6-1.1,2.7-1.1s2,0.4,2.7,1.1c0.7,0.7,1,1.8,1,3c0,1.3-0.3,2.3-1,3.1c-0.7,0.8-1.6,1.1-2.7,1.1
	c-0.7,0-1.4-0.2-1.9-0.5C1208.8,373.2,1208.4,372.7,1208.1,372z M1211.3,373c0.8,0,1.4-0.3,1.8-0.8c0.4-0.5,0.6-1.3,0.6-2.3
	c0-1-0.2-1.8-0.6-2.3s-1-0.8-1.8-0.8s-1.4,0.3-1.8,0.8s-0.6,1.3-0.6,2.3c0,1,0.2,1.8,0.6,2.3C1209.9,372.7,1210.5,373,1211.3,373z
	 M1214.7,449.7c0.4-1.2,0.6-2.5,0.6-3.9h4.1v7h1.1v3.8h-1.2v-2.8h-5.6v2.8h-1.2v-3.8h0.6C1213.8,451.9,1214.4,450.9,1214.7,449.7z
	 M1218.2,452.8v-6h-1.8c-0.1,1.1-0.3,2.2-0.6,3.3c-0.4,1.1-0.8,2-1.3,2.7H1218.2z M1214.1,529.3l4.8-5.2h1.4l-4.7,5.2l4.9,5.5h-1.5
	L1214.1,529.3v5.5h-1.2v-10.7h1.2V529.3z M1225.1,526.7c1.1,0,2,0.4,2.7,1.1c0.7,0.7,1,1.8,1,3c0,1.3-0.3,2.3-1,3.1
	c-0.7,0.7-1.6,1.1-2.7,1.1c-0.7,0-1.4-0.2-1.9-0.5c-0.6-0.3-1-0.8-1.3-1.5c-0.3-0.6-0.5-1.4-0.5-2.2c0-1.3,0.3-2.3,1-3.1
	C1223,527,1224,526.7,1225.1,526.7z M1223.3,533.2c0.4,0.5,1,0.8,1.8,0.8c0.8,0,1.4-0.3,1.8-0.8c0.4-0.5,0.6-1.3,0.6-2.3
	c0-1-0.2-1.8-0.6-2.3c-0.4-0.5-1-0.8-1.8-0.8c-0.8,0-1.4,0.3-1.8,0.8c-0.4,0.5-0.6,1.3-0.6,2.3
	C1222.7,531.9,1222.9,532.6,1223.3,533.2z M1223.3,457.5h-1.2v-11.6h1l0.2,1.1h0.1c0.3-0.4,0.7-0.8,1.1-1c0.4-0.2,0.9-0.3,1.4-0.3
	c1.1,0,1.9,0.4,2.5,1.1c0.6,0.7,0.9,1.7,0.9,3.1c0,1.3-0.3,2.3-0.9,3.1c-0.6,0.7-1.4,1.1-2.4,1.1c-0.5,0-1-0.1-1.4-0.3
	c-0.4-0.2-0.8-0.5-1.1-0.9h-0.1c0.1,0.5,0.1,0.9,0.1,1.3v3.3H1223.3z M1223.3,449.8c0,1.1,0.2,1.9,0.6,2.4c0.4,0.5,1,0.7,1.8,0.7
	c0.7,0,1.2-0.3,1.6-0.8c0.4-0.6,0.6-1.3,0.6-2.3c0-1-0.2-1.8-0.6-2.3c-0.4-0.5-0.9-0.8-1.7-0.8c-0.8,0-1.4,0.2-1.8,0.7
	c-0.4,0.5-0.6,1.2-0.6,2.2L1223.3,449.8L1223.3,449.8z M1234.6,445.7c1.1,0,2,0.4,2.7,1.1c0.7,0.7,1,1.8,1,3c0,1.3-0.3,2.3-1,3.1
	c-0.7,0.8-1.6,1.1-2.7,1.1c-0.7,0-1.4-0.2-1.9-0.5c-0.5-0.3-1-0.8-1.3-1.5c-0.3-0.6-0.5-1.4-0.5-2.2c0-1.3,0.3-2.3,1-3.1
	C1232.5,446,1233.4,445.7,1234.6,445.7z M1232.7,452.2c0.4,0.5,1,0.8,1.8,0.8c0.8,0,1.4-0.3,1.8-0.8c0.4-0.5,0.6-1.3,0.6-2.3
	s-0.2-1.8-0.6-2.3c-0.4-0.5-1-0.8-1.8-0.8c-0.8,0-1.4,0.3-1.8,0.8c-0.4,0.5-0.6,1.3-0.6,2.3C1232.1,450.9,1232.3,451.6,1232.7,452.2
	z M1237.7,534.9h-1.2v-7h-4.3v7h-1.2v-8h6.7V534.9z M1241.4,531.9l-0.1,1.3v0.4l4.3-6.8h1.5v8h-1.1v-4.9v-1v-1l-4.3,6.8h-1.5v-8h1.1
	L1241.4,531.9L1241.4,531.9z M1262.2,530.1h1.4v-0.5c0-0.6-0.1-1.1-0.4-1.4c-0.3-0.3-0.7-0.5-1.3-0.5c-0.7,0-1.4,0.2-2.3,0.6
	l-0.4-0.9c0.4-0.2,0.8-0.4,1.3-0.5c0.5-0.1,0.9-0.2,1.4-0.2c1,0,1.7,0.2,2.1,0.6c0.4,0.4,0.7,1.1,0.7,2v5.5h-0.9l-0.2-1.1h-0.1
	c-0.4,0.5-0.8,0.8-1.2,1s-0.9,0.3-1.5,0.3c-0.8,0-1.4-0.2-1.9-0.6c-0.5-0.4-0.7-1-0.7-1.8C1258.3,531,1259.6,530.2,1262.2,530.1z
	 M1260,533.7c0.3,0.2,0.6,0.3,1.1,0.3c0.8,0,1.4-0.2,1.8-0.6c0.4-0.4,0.6-1,0.6-1.7V531l-1.2,0.1c-1,0-1.7,0.2-2.1,0.5
	c-0.4,0.3-0.6,0.7-0.6,1.2C1259.6,533.1,1259.7,533.4,1260,533.7z M1265.8,444.2c-0.4,0.4-1.1,0.5-2,0.5s-1.6-0.2-2-0.5
	c-0.4-0.3-0.6-0.9-0.7-1.7h1.1c0,0.5,0.2,0.9,0.4,1.1c0.2,0.2,0.6,0.3,1.2,0.3c0.5,0,0.9-0.1,1.1-0.3c0.2-0.2,0.4-0.6,0.4-1h1.1
	C1266.5,443.3,1266.2,443.9,1265.8,444.2z M1267.5,368.7c0.2,0.1,0.7,0.3,1.4,0.6c1,0.3,1.6,0.7,1.9,1c0.3,0.4,0.5,0.8,0.5,1.3
	c0,0.7-0.3,1.3-0.8,1.7c-0.6,0.4-1.3,0.6-2.3,0.6c-1.1,0-1.9-0.2-2.5-0.5v-1.1c0.4,0.2,0.8,0.3,1.2,0.5c0.4,0.1,0.9,0.2,1.3,0.2
	c0.6,0,1.1-0.1,1.5-0.3c0.3-0.2,0.5-0.5,0.5-0.9c0-0.3-0.1-0.6-0.4-0.8c-0.3-0.2-0.8-0.5-1.6-0.8c-0.7-0.3-1.3-0.5-1.6-0.7
	c-0.3-0.2-0.5-0.4-0.7-0.7c-0.2-0.3-0.2-0.6-0.2-0.9c0-0.7,0.3-1.2,0.8-1.5c0.5-0.4,1.3-0.6,2.2-0.6c0.9,0,1.7,0.2,2.5,0.5l-0.4,1
	c-0.8-0.3-1.5-0.5-2.2-0.5c-0.6,0-1,0.1-1.3,0.3s-0.4,0.4-0.4,0.7c0,0.2,0.1,0.4,0.2,0.5C1267.1,368.4,1267.2,368.6,1267.5,368.7z
	 M1266.2,447l-4.3,6.8h-1.5v-8h1.1v5.1l-0.1,1.3v0.4l4.3-6.8h1.5v8h-1.1v-4.9v-1L1266.2,447z M1268.3,531.9l-0.1,1.3v0.4l4.3-6.8
	h1.5v8h-1.1v-4.9v-1v-1l-4.3,6.8h-1.5v-8h1.1L1268.3,531.9L1268.3,531.9z M1273.3,365.8h1.2v8h-1.2V365.8z M1273.8,453.9v-8h4.8v1
	h-3.6v7H1273.8z M1282.1,527.9h-2.6v7h-1.2v-7h-2.6v-1h6.4L1282.1,527.9L1282.1,527.9z M1280.2,452c-0.3-0.6-0.5-1.4-0.5-2.2
	c0-1.3,0.3-2.3,1-3.1c0.7-0.7,1.6-1.1,2.7-1.1c1.1,0,2,0.4,2.7,1.1c0.7,0.7,1,1.8,1,3c0,1.3-0.3,2.3-1,3.1c-0.7,0.8-1.6,1.1-2.7,1.1
	c-0.7,0-1.4-0.2-1.9-0.5C1281,453.1,1280.5,452.7,1280.2,452z M1283.4,453c0.8,0,1.4-0.3,1.8-0.8c0.4-0.5,0.6-1.3,0.6-2.3
	s-0.2-1.8-0.6-2.3c-0.4-0.5-1-0.8-1.8-0.8c-0.8,0-1.4,0.3-1.8,0.8c-0.4,0.5-0.6,1.3-0.6,2.3s0.2,1.8,0.6,2.3
	C1282,452.7,1282.6,453,1283.4,453z M1289.8,451.2c0.3-1.2,0.6-3,0.8-5.4h4.7v8h-1.2v-7h-2.4c-0.1,1.7-0.3,3.1-0.5,4.1
	c-0.2,1-0.5,1.8-0.9,2.2c-0.4,0.4-0.8,0.7-1.4,0.7c-0.3,0-0.5,0-0.6-0.1V453c0.1,0,0.2,0,0.4,0C1289,453,1289.4,452.4,1289.8,451.2z
	"/>
<path class="st3" d="M1228.2,907.8h-219.4c-2.8,0-5-2.2-5-5v-60c0-2.8,2.2-5,5-5h219.4c2.8,0,5,2.2,5,5v60
	C1233.2,905.6,1231,907.8,1228.2,907.8z M242.6,73.2H108.1c-2.8,0-5-2.2-5-5v-60c0-2.8,2.2-5,5-5h134.4c2.8,0,5,2.2,5,5v60
	C247.6,71,245.4,73.2,242.6,73.2z"/>
<path d="M1207.2,878.4c-1.2,1.2-2.9,1.9-5.2,1.9c-2.2,0-4-0.6-5.1-1.9c-1.2-1.3-1.8-3.1-1.8-5.5s0.6-4.2,1.8-5.4
	c1.2-1.3,2.9-1.9,5.2-1.9s4,0.6,5.2,1.9c1.2,1.2,1.8,3.1,1.8,5.5C1208.9,875.3,1208.3,877.1,1207.2,878.4z M1204.2,869.7
	c-0.5-0.7-1.2-1-2.1-1c-1.9,0-2.9,1.4-2.9,4.2s1,4.1,2.9,4.1c1,0,1.7-0.3,2.2-1c0.5-0.7,0.7-1.7,0.7-3.1
	C1204.9,871.5,1204.6,870.4,1204.2,869.7z M1183.8,865.8h8.5v3.1h-4.6v2.2h4.3v3.1h-4.3v2.7h4.6v3.1h-8.5V865.8z M1177.4,880.1h-8.3
	v4.4h-3.8v-7.6h1.2c0.9-1.4,1.6-3.1,2.1-5c0.6-1.9,0.9-3.9,1.1-6.1h9.5v11.1h2v7.6h-3.8L1177.4,880.1L1177.4,880.1z M1175.3,868.9
	h-2.5c-0.3,2.8-1,5.4-2.2,8h4.7V868.9z M1159.5,874.1c0-0.9,0.1-2.3,0.2-4.1h-0.1l-5.7,10h-4.8v-14.2h3.4v6.1c0,0.7-0.1,2-0.2,3.9
	h0.1l5.7-10h4.8v14.3h-3.4V874.1z M1145.2,873.8c0.4,0.5,0.6,1.3,0.6,2.1c0,1.3-0.5,2.3-1.5,3.1c-1,0.7-2.3,1.1-4,1.1h-5.5v-14.3h5
	c1.9,0,3.4,0.3,4.3,0.9c0.9,0.6,1.4,1.5,1.4,2.7c0,0.8-0.2,1.5-0.6,2.1s-0.9,0.9-1.6,1.1v0.1
	C1144.2,872.8,1144.8,873.2,1145.2,873.8z M1139.8,868.7h-1.1v2.6h1.2c0.6,0,1-0.1,1.3-0.3s0.5-0.6,0.5-1
	C1141.6,869.1,1141,868.7,1139.8,868.7z M1141.4,874.5c-0.3-0.3-0.8-0.4-1.4-0.4h-1.3v3h1.4c1.2,0,1.8-0.5,1.8-1.5
	C1141.8,875.1,1141.7,874.7,1141.4,874.5z M1117.1,865.8h8.5v3.1h-4.6v2.2h4.3v3.1h-4.3v2.7h4.6v3.1h-8.5L1117.1,865.8L1117.1,865.8
	z M1106.8,880.3c-2.2,0-4-0.6-5.1-1.9c-1.2-1.3-1.8-3.1-1.8-5.5s0.6-4.2,1.8-5.4c1.2-1.3,2.9-1.9,5.2-1.9c2.3,0,4,0.6,5.2,1.9
	c1.2,1.2,1.8,3.1,1.8,5.5c0,2.4-0.6,4.2-1.8,5.5C1110.8,879.6,1109,880.3,1106.8,880.3z M1108.9,869.7c-0.5-0.7-1.2-1-2.1-1
	c-1.9,0-2.9,1.4-2.9,4.2s1,4.1,2.9,4.1c1,0,1.7-0.3,2.2-1c0.5-0.7,0.7-1.7,0.7-3.1C1109.6,871.5,1109.4,870.4,1108.9,869.7z
	 M1096.5,873.8c0.4,0.5,0.6,1.3,0.6,2.1c0,1.3-0.5,2.3-1.5,3.1c-1,0.7-2.3,1.1-4,1.1h-5.5v-14.3h5c1.9,0,3.4,0.3,4.3,0.9
	c0.9,0.6,1.4,1.5,1.4,2.7c0,0.8-0.2,1.5-0.6,2.1c-0.4,0.6-0.9,0.9-1.6,1.1v0.1C1095.5,872.8,1096.1,873.2,1096.5,873.8z M1091,868.7
	h-1.1v2.6h1.2c0.6,0,1-0.1,1.3-0.3c0.3-0.2,0.5-0.6,0.5-1C1092.9,869.1,1092.2,868.7,1091,868.7z M1092.6,874.5
	c-0.3-0.3-0.8-0.4-1.4-0.4h-1.3v3h1.4c1.2,0,1.8-0.5,1.8-1.5C1093.1,875.1,1093,874.7,1092.6,874.5z M1075.8,880.3
	c-2.2,0-4-0.6-5.1-1.9c-1.2-1.3-1.8-3.1-1.8-5.5s0.6-4.2,1.8-5.4c1.2-1.3,2.9-1.9,5.2-1.9c2.3,0,4,0.6,5.2,1.9
	c1.2,1.2,1.8,3.1,1.8,5.5c0,2.4-0.6,4.2-1.8,5.5C1079.8,879.6,1078.1,880.3,1075.8,880.3z M1078,869.7c-0.5-0.7-1.2-1-2.1-1
	c-1.9,0-2.9,1.4-2.9,4.2s1,4.1,2.9,4.1c1,0,1.7-0.3,2.2-1c0.5-0.7,0.7-1.7,0.7-3.1C1078.7,871.5,1078.4,870.4,1078,869.7z
	 M1063.1,880.1h-3.9V869h-3.5v-3.2h10.8v3.2h-3.5L1063.1,880.1L1063.1,880.1z M1046.5,880.3c-2.2,0-4-0.6-5.1-1.9
	c-1.2-1.3-1.8-3.1-1.8-5.5s0.6-4.2,1.8-5.4c1.2-1.3,2.9-1.9,5.2-1.9s4,0.6,5.2,1.9c1.2,1.2,1.8,3.1,1.8,5.5c0,2.4-0.6,4.2-1.8,5.5
	C1050.5,879.6,1048.7,880.3,1046.5,880.3z M1048.6,869.7c-0.5-0.7-1.2-1-2.1-1c-1.9,0-2.9,1.4-2.9,4.2s1,4.1,2.9,4.1
	c1,0,1.7-0.3,2.2-1c0.5-0.7,0.7-1.7,0.7-3.1S1049.1,870.4,1048.6,869.7z M1031.6,880.1h-3.9v-14.3h9.5v3.1h-5.6V880.1z M202.7,42.8
	c-0.9,0.4-2.1,0.7-3.4,0.7h-0.1v2.2h-3.7v-2.2h-0.2c-1.3,0-2.4-0.2-3.4-0.6c-0.9-0.4-1.6-1.1-2.1-1.9c-0.5-0.8-0.7-1.8-0.7-2.9
	c0-1.1,0.2-2,0.7-2.8c0.5-0.8,1.2-1.4,2.1-1.9c0.9-0.4,1.9-0.6,3.1-0.6h0.4V31h3.7v1.8h0.3c1.2,0,2.3,0.2,3.2,0.7
	c0.9,0.4,1.6,1.1,2.1,1.9c0.5,0.8,0.7,1.7,0.7,2.8c0,1.1-0.2,2-0.7,2.8C204.4,41.7,203.7,42.4,202.7,42.8z M195.5,35.7h-0.2
	c-0.8,0-1.3,0.2-1.7,0.6c-0.4,0.4-0.6,1-0.6,1.8c0,0.9,0.2,1.5,0.6,1.9c0.4,0.4,1,0.6,1.8,0.6h0.2L195.5,35.7L195.5,35.7z
	 M201.2,36.3c-0.4-0.4-1-0.6-1.8-0.6h-0.2v4.9h0.1c0.8,0,1.4-0.2,1.8-0.6c0.4-0.4,0.6-1,0.6-1.9C201.8,37.3,201.6,36.7,201.2,36.3z
	 M182.7,39.5c0-0.9,0.1-2.3,0.2-4.1h-0.1l-5.7,10h-4.7V31.2h3.4v6.1c0,0.7-0.1,2-0.2,3.9h0.1l5.7-10h4.8v14.3h-3.4L182.7,39.5
	L182.7,39.5z M163.8,40.7h-1.1v4.7h-3.9V31.2h4.9c1.8,0,3.2,0.4,4.1,1.2c0.9,0.8,1.4,1.9,1.4,3.4c0,1.6-0.5,2.8-1.4,3.7
	C166.9,40.3,165.6,40.7,163.8,40.7z M163.7,34.3h-1v3.3h0.7c0.6,0,1-0.2,1.4-0.5c0.3-0.3,0.5-0.8,0.5-1.3
	C165.3,34.8,164.8,34.3,163.7,34.3z M149.6,36.5c2,0,3.5,0.4,4.6,1.1c1,0.7,1.6,1.8,1.6,3.3c0,1.5-0.5,2.6-1.5,3.4
	c-1,0.8-2.5,1.2-4.4,1.2h-4.6V31.2h9.3v3.1h-5.5v2.2H149.6z M149,42.5h0.6c0.8,0,1.4-0.1,1.7-0.4c0.4-0.3,0.5-0.7,0.5-1.2
	c0-0.5-0.2-0.9-0.6-1.2c-0.4-0.2-0.9-0.4-1.7-0.4H149V42.5z"/>
</svg>
