<?xml version="1.0" encoding="utf-8"?>
<!-- Generator: Adobe Illustrator 21.0.0, SVG Export Plug-In . SVG Version: 6.00 Build 0)  -->
<svg version="1.1" id="Слой_1" xmlns="http://www.w3.org/2000/svg" xmlns:xlink="http://www.w3.org/1999/xlink" x="0px" y="0px"
	 viewBox="0 0 46.2 53.1" style="enable-background:new 0 0 46.2 53.1;" xml:space="preserve">
<style type="text/css">
	.st0{fill:#029942;}
	.st1{fill:none;stroke:#029942;stroke-linecap:round;stroke-linejoin:round;stroke-miterlimit:10;}
</style>
<g id="конверт">
</g>
<g id="полис">
</g>
<g id="_x33_белый">
</g>
<g id="_x32_полоски">
</g>
<g>
	<g>
		<path class="st0" d="M41.2,1.1c2.2,0,4,1.8,4,4v43c0,2.2-1.8,4-4,4h-36c-2.2,0-4-1.8-4-4v-43c0-2.2,1.8-4,4-4H41.2 M41.2,0.1h-36
			c-2.8,0-5,2.2-5,5v43c0,2.8,2.2,5,5,5h36c2.8,0,5-2.2,5-5v-43C46.2,2.3,44,0.1,41.2,0.1L41.2,0.1z"/>
	</g>
	<g>
		<path class="st0" d="M13.8,18c0.6,0,1,0.4,1,1v4.1c0,0.6-0.4,1-1,1H8.7c-0.6,0-1-0.4-1-1V19c0-0.6,0.4-1,1-1H13.8 M13.8,17H8.7
			c-1.1,0-2,0.9-2,2v4.1c0,1.1,0.9,2,2,2h5.1c1.1,0,2-0.9,2-2V19C15.8,17.9,14.9,17,13.8,17L13.8,17z"/>
	</g>
	<g>
		<path class="st0" d="M25.8,18c0.6,0,1,0.4,1,1v4.1c0,0.6-0.4,1-1,1h-5.1c-0.6,0-1-0.4-1-1V19c0-0.6,0.4-1,1-1H25.8 M25.8,17h-5.1
			c-1.1,0-2,0.9-2,2v4.1c0,1.1,0.9,2,2,2h5.1c1.1,0,2-0.9,2-2V19C27.8,17.9,26.9,17,25.8,17L25.8,17z"/>
	</g>
	<g>
		<path class="st0" d="M37.7,18c0.6,0,1,0.4,1,1v4.1c0,0.6-0.4,1-1,1h-5.1c-0.6,0-1-0.4-1-1V19c0-0.6,0.4-1,1-1H37.7 M37.7,17h-5.1
			c-1.1,0-2,0.9-2,2v4.1c0,1.1,0.9,2,2,2h5.1c1.1,0,2-0.9,2-2V19C39.7,17.9,38.8,17,37.7,17L37.7,17z"/>
	</g>
	<g>
		<path class="st0" d="M13.8,29c0.6,0,1,0.4,1,1v4.1c0,0.6-0.4,1-1,1H8.7c-0.6,0-1-0.4-1-1V30c0-0.6,0.4-1,1-1H13.8 M13.8,28H8.7
			c-1.1,0-2,0.9-2,2v4.1c0,1.1,0.9,2,2,2h5.1c1.1,0,2-0.9,2-2V30C15.8,28.9,14.9,28,13.8,28L13.8,28z"/>
	</g>
	<g>
		<path class="st0" d="M25.8,29c0.6,0,1,0.4,1,1v4.1c0,0.6-0.4,1-1,1h-5.1c-0.6,0-1-0.4-1-1V30c0-0.6,0.4-1,1-1H25.8 M25.8,28h-5.1
			c-1.1,0-2,0.9-2,2v4.1c0,1.1,0.9,2,2,2h5.1c1.1,0,2-0.9,2-2V30C27.8,28.9,26.9,28,25.8,28L25.8,28z"/>
	</g>
	<g>
		<path class="st0" d="M37.7,29c0.6,0,1,0.4,1,1v4.1c0,0.6-0.4,1-1,1h-5.1c-0.6,0-1-0.4-1-1V30c0-0.6,0.4-1,1-1H37.7 M37.7,28h-5.1
			c-1.1,0-2,0.9-2,2v4.1c0,1.1,0.9,2,2,2h5.1c1.1,0,2-0.9,2-2V30C39.7,28.9,38.8,28,37.7,28L37.7,28z"/>
	</g>
	<g>
		<path class="st0" d="M13.8,40c0.6,0,1,0.4,1,1v4.1c0,0.6-0.4,1-1,1H8.7c-0.6,0-1-0.4-1-1V41c0-0.6,0.4-1,1-1H13.8 M13.8,39H8.7
			c-1.1,0-2,0.9-2,2v4.1c0,1.1,0.9,2,2,2h5.1c1.1,0,2-0.9,2-2V41C15.8,39.9,14.9,39,13.8,39L13.8,39z"/>
	</g>
	<g>
		<path class="st0" d="M25.8,40c0.6,0,1,0.4,1,1v4.1c0,0.6-0.4,1-1,1h-5.1c-0.6,0-1-0.4-1-1V41c0-0.6,0.4-1,1-1H25.8 M25.8,39h-5.1
			c-1.1,0-2,0.9-2,2v4.1c0,1.1,0.9,2,2,2h5.1c1.1,0,2-0.9,2-2V41C27.8,39.9,26.9,39,25.8,39L25.8,39z"/>
	</g>
	<g>
		<path class="st0" d="M37.7,40c0.6,0,1,0.4,1,1v4.1c0,0.6-0.4,1-1,1h-5.1c-0.6,0-1-0.4-1-1V41c0-0.6,0.4-1,1-1H37.7 M37.7,39h-5.1
			c-1.1,0-2,0.9-2,2v4.1c0,1.1,0.9,2,2,2h5.1c1.1,0,2-0.9,2-2V41C39.7,39.9,38.8,39,37.7,39L37.7,39z"/>
	</g>
	<line class="st1" x1="6.7" y1="12.2" x2="39.7" y2="12.2"/>
</g>
</svg>
