<?xml version="1.0" encoding="utf-8"?>
<!-- Generator: Adobe Illustrator 21.0.0, SVG Export Plug-In . SVG Version: 6.00 Build 0)  -->
<svg version="1.1" id="Слой_1" xmlns="http://www.w3.org/2000/svg" xmlns:xlink="http://www.w3.org/1999/xlink" x="0px" y="0px"
	 viewBox="0 0 55 60" style="enable-background:new 0 0 55 60;" xml:space="preserve">
<style type="text/css">
	.st0{opacity:0.2;fill:none;stroke:#FFFFFF;stroke-width:2;stroke-linecap:round;stroke-linejoin:round;enable-background:new    ;}
</style>
<image style="overflow:visible;" width="55" height="60" xlink:href="../../../../3_verstka/NEW/static/i/new/i-ins-case.png" >
</image>
<path class="st0" d="M26.7,57.4c9.5,0,17.2-7.8,17.2-17.4c0-3.4-1.2-7.8-2.9-10.5c-0.6,5.9-2.8,7.9-4.5,6.6c-2.6-2-2.4-6.9-3.2-13.8
	c-0.6-5.2-3.2-6.6-1.3-14.4c-13,6.6-6.5,19-9.1,20.3c-1.4,0.7-4.5-1.3-4.5-9.8C11.1,25.6,18.3,38.7,15,40c-1.9,0.7-3.9-2-4.5-5.3
	c-0.5,1.7-1,3.8-1,5.3C9.5,49.6,17.2,57.4,26.7,57.4z"/>
</svg>
