<?xml version="1.0" encoding="utf-8"?>
<!-- Generator: Adobe Illustrator 21.0.0, SVG Export Plug-In . SVG Version: 6.00 Build 0)  -->
<svg version="1.1" id="Слой_1" xmlns="http://www.w3.org/2000/svg" xmlns:xlink="http://www.w3.org/1999/xlink" x="0px" y="0px"
	 viewBox="0 0 40.5 49.5" style="enable-background:new 0 0 40.5 49.5;" xml:space="preserve">
<style type="text/css">
	.st0{fill:#FFFFFF;}
	.st1{opacity:0.1;fill:none;stroke:#1D1D1B;}
	.st2{opacity:0.1;}
	.st3{fill:#1D1D1B;}
</style>
<g id="конверт">
</g>
<g id="полис">
</g>
<g id="_x33_белый">
</g>
<g id="_x32_полоски">
</g>
<g>
	<g>
		<defs>
			<rect id="SVGID_1_" width="40.5" height="49.5"/>
		</defs>
		<clipPath id="SVGID_2_">
			<use xlink:href="#SVGID_1_"  style="overflow:visible;"/>
		</clipPath>
	</g>
	<rect class="st0" width="40.5" height="49.5"/>
	<line class="st1" x1="7.5" y1="12.5" x2="32.5" y2="12.5"/>
	<line class="st1" x1="7.5" y1="17.7" x2="32.5" y2="17.7"/>
	<line class="st1" x1="7.5" y1="23" x2="32.5" y2="23"/>
	<g class="st2">
		<path class="st3" d="M9.9,31.4h2.8c1.7,0,2.7,0.9,2.7,2.7c0,1.5-1,2.8-3.4,2.8h-0.4v-0.8h0.4c1.3,0,2.3-0.5,2.3-1.9
			c0-1.3-0.6-1.9-2-1.9h-1.5v7.7h-1V31.4z"/>
		<path class="st3" d="M17,31.4h2.3c2.7,0,4.7,1.5,4.7,4.2c0,3-1.8,4.3-4.6,4.3H17V31.4z M19.5,39c2.2,0,3.5-1.1,3.5-3.3
			c0-2.4-1.5-3.5-3.8-3.5H18V39H19.5z"/>
		<path class="st3" d="M26,31.4h5v0.8h-4v3.2h3.7v0.8H27v3.6h-1V31.4z"/>
	</g>
</g>
</svg>
