<?xml version="1.0" encoding="utf-8"?>
<!-- Generator: Adobe Illustrator 19.2.1, SVG Export Plug-In . SVG Version: 6.00 Build 0)  -->
<svg version="1.1" id="Layer_1" xmlns="http://www.w3.org/2000/svg" xmlns:xlink="http://www.w3.org/1999/xlink" x="0px" y="0px"
	 viewBox="0 0 25 25" style="enable-background:new 0 0 25 25;" xml:space="preserve">
<style type="text/css">
	.st0{clip-path:url(#SVGID_2_);fill:#ffffff;}
</style>
<g>
	<defs>
		<rect id="SVGID_1_" x="1" y="1.5" width="23.1" height="22"/>
	</defs>
	<clipPath id="SVGID_2_">
		<use xlink:href="#SVGID_1_"  style="overflow:visible;"/>
	</clipPath>
	<path class="st0" d="M8,8.2l10.4-6c-0.4-0.3-0.9-0.5-1.4-0.7L8,6.7L4,4.4C3.7,4.7,3.5,5,3.2,5.4L8,8.2z M20.6,3.8
		c-0.3-0.3-0.7-0.6-1-0.9L8,9.6L2.5,6.4C2.3,6.8,2.1,7.2,2,7.6L8,11.1L20.6,3.8z M8,12.6L1.5,8.8c-0.1,0.4-0.2,0.8-0.3,1.3L8,14
		l14.2-8.2c-0.2-0.3-0.5-0.7-0.8-1L8,12.6z M24.1,12.2c-0.2,6.4-5.5,11.5-11.9,11.3C6.1,23.3,1.2,18.4,1,12.2v-0.8l7,4l14.8-8.6
		C23.7,8.6,24.1,10.4,24.1,12.2"/>
</g>
</svg>
