<?xml version="1.0" encoding="utf-8"?>
<!-- Generator: Adobe Illustrator 21.0.0, SVG Export Plug-In . SVG Version: 6.00 Build 0)  -->
<svg version="1.1" id="Слой_1" xmlns="http://www.w3.org/2000/svg" xmlns:xlink="http://www.w3.org/1999/xlink" x="0px" y="0px"
	 viewBox="0 0 150 40" style="enable-background:new 0 0 150 40;" xml:space="preserve">
<style type="text/css">
	.st0{fill:#FFFFFF;}
</style>
<path class="st0" d="M22.5,20.2v11.1h-4.7V20.2h-3.9v-3.9h3.9V13c0-3.6,2.3-5.6,5.5-5.6h3.1v3.9h-1.6c-1.7,0-2.4,0.4-2.4,1.6v3.1
	h3.9l-0.8,3.9h-3V20.2z M20.2,40c11,0,20-9,20-20c0-11.1-8.9-20-20-20s-20,9-20,20C0.2,31,9.1,40,20.2,40L20.2,40z"/>
<path class="st0" d="M80.7,15.1c0,0.2,0,0.6,0,0.8c0,6.5-4.5,13.4-13.4,13.4c-2.7,0-5.7-0.6-7.9-2c0.4,0,0.8,0.1,1.2,0.1
	c2.3,0,4.3-0.7,5.9-2c-2.1,0-4.1-1.2-4.7-3.1c0.3,0.1,3.1,0.8,3.9,0c-2.2-0.4-5.5-3.1-5.5-5.6c0.7,0.4,1.6,0.8,2.4,0.8
	c-1.3-0.9-2.4-2.2-2.4-3.9c0-0.9,0.4-1.6,0.8-2.3c2.4,2.8,5.5,3.8,10.2,3.8h0.1c0-0.2-0.1-0.4-0.1-0.7c0-2.7,2-4.7,4.7-4.7
	c1.4,0,2.3,0.6,3.1,1.6l0.6,0.6c0.9-0.3,1.8-0.9,2.5-1.4c-0.2,1-1.2,2.4-2.2,3c1-0.1,2.3-0.6,3.2-1C82.4,13.4,81.6,14.3,80.7,15.1
	L80.7,15.1z M70,40c11,0,20-9,20-20C90,8.9,81.1,0,70,0S50,9,50,20S59,40,70,40L70,40z"/>
<path class="st0" d="M119.6,27.2c-1.5-0.1-3.4-0.2-6.1-3.1c-3-3.1-4.1-5.6-5.7-9.5c-0.1-0.2,0-0.7,0.8-0.7s1.5,0,2.4,0
	c0.8,0,1-0.1,1.6,0.8c1.6,2.3,3.1,5.5,3.9,5.5s0.8-3.1,0.8-3.1v-1.6c0-1.1-1.3-0.8-1.6-0.8c-0.2,0,0.8-0.8,0.8-0.8s1.1-0.8,2.4-0.8
	h2.4c1.2,0.3,0.8,2.1,0.8,4.7c0,0.8,0.1,2.3,0.8,2.3c0.7,0,0.8-0.8,1.6-2.3c0.5-1,0.8-1.6,2.4-3.9c0.5-0.7,4.5,0,4.7,0.5
	s-0.9,2.2-2.3,4.2c-2.4,3.2-1.6,2.3,0,3.9c1.8,1.8,2.4,2.6,2.4,3.1c0,1.5-1.6,1.6-1.6,1.6h-2.4c-0.8,0-0.8,0-1.6-0.8
	c-1-1-2.4-2.3-3.1-2.3c-0.8,0-1.6,0.8-1.6,1.6c0,0.4,0,1.6-0.8,1.6C119.6,27.2,120,27.2,119.6,27.2L119.6,27.2z M120,39.8
	c11,0,20-8.9,20-19.8c0-11-9-19.9-20-19.9S100,9,100,19.9C100.1,30.9,109,39.8,120,39.8L120,39.8z"/>
</svg>
